<svg xmlns="http://www.w3.org/2000/svg" width="50" height="50"><path d="M3-.001h44c1.66 0 3 1.343 3 3v44c0 1.657-1.34 3-3 3H3c-1.66 0-3-1.343-3-3v-44c0-1.657 1.34-3 3-3z" fill="#26a058"/><path d="M31.01 28.609h-1.27l-.44-.44a10.298 10.298 0 0 0 2.51-6.764c0-5.748-4.66-10.407-10.4-10.407-5.75 0-10.41 4.659-10.41 10.407 0 5.747 4.66 10.406 10.41 10.406 2.58 0 4.94-.945 6.76-2.506l.44.441v1.265l8 7.988L39 36.614zm-9.6 0c-3.98 0-7.21-3.226-7.21-7.204a7.206 7.206 0 0 1 14.41 0 7.207 7.207 0 0 1-7.2 7.204z" fill="#fff"/></svg>