<svg xmlns="http://www.w3.org/2000/svg" width="50" height="50"><path d="M3-.001h44a3 3 0 0 1 3 3v44a3 3 0 0 1-3 3H3a3 3 0 0 1-3-3v-44a3 3 0 0 1 3-3z" fill="#26a058"/><path d="M14 7.035l.898-1.243 1.533.951.787-1.148 1.719.958 3.664-2.554 1.437 1.266 2.713.326-.648 1.408.365 1.042 3.482 1.327-1.761 1.593-1.418.346-.769 2.104-1.762.857-.546 2.471-.081.612 1.296 1.838 1.052.776-.202.613 2.146 2.634 2.531 1.98 1.478 2.104.648.734.77 3.043.668 3.593-.526.817.182.572-.264.286.061 1.164-.668 1.552-.81.561-1.296.705h-.405l-1.984 1.418-1.093-.362-.081.544-.466-.27.061.55s-.79-.042-.648-.002c.141.041.648.449.648.449l-.446.265.081.409-.668-.327.365.633-.041.47-.527.102-.587.49-1.883.817-.567 1-.688.49h-.648l.182-.714v-2.594l.734-.714-.924-.613-.462-.02-.382-.695.487-.224.567.102.587-.653.041-.613.709.123.972-.368 1.377.531-.162-.674-.689-.735-.139-.714.767-.47.891.245.101-.756.628-.183 1.842-.919.263.143.365-.878-.223-1.103.385-1.388-.263-.899-.506-1.103.506-1.572.081-.592-.081-.408.324-.817-1.276-1.287.81-.953-1.863-1.333-.081.286-.688-1.593-.871-.939-2.085-2.552s-1.013-.491-.993-.756c.021-.265.081-.776.081-.776l-3.401-1.694.567-.858-.142-.388 1.599.143 1.033-1.245-.425-.408-.425-.511-.972-.204.708-.736-1.316-.857-.972.408-.081.51-1.599-.49-.83-1.184.344-1.51-.527-.368-.263.735-.587-1.225z" fill="#fff"/></svg>