<svg xmlns="http://www.w3.org/2000/svg" width="60" height="60"><path d="M30-.001c16.569 0 30 13.432 30 30 0 16.569-13.431 30-30 30-16.569 0-30-13.431-30-30 0-16.568 13.431-30 30-30z" fill="#fff"/><path d="M20.83 22.944L30 32.207l9.17-9.263L42 25.803 30 37.924 18 25.803z" fill="#26a058"/><path d="M30-.001c16.569 0 30 13.432 30 30 0 16.569-13.431 30-30 30-16.569 0-30-13.431-30-30 0-16.568 13.431-30 30-30z" fill="#fff"/><path d="M20.83 22.944L30 32.207l9.17-9.263L42 25.803 30 37.924 18 25.803z" fill="#26a058"/></svg>