<?xml version="1.0" standalone="no"?>
<!DOCTYPE svg PUBLIC "-//W3C//DTD SVG 1.1//EN" "http://www.w3.org/Graphics/SVG/1.1/DTD/svg11.dtd" >
<svg>
<metadata>
Created by FontForge 20090914 at Sat Apr  9 09:09:49 2016
 By www-data
Copyright (c) 2015 by Fontfabric LLC. All rights reserved.
</metadata>
<defs>
<font id="MullerExtraBoldDEMO" horiz-adv-x="375" >
  <font-face 
    font-family="Muller ExtraBold DEMO"
    font-weight="800"
    font-stretch="normal"
    units-per-em="1000"
    panose-1="0 0 0 0 0 0 0 0 0 0"
    ascent="780"
    descent="-220"
    x-height="480"
    cap-height="700"
    bbox="-164 -235.002 1324 978"
    underline-thickness="50"
    underline-position="-75"
    unicode-range="U+0020-U+25CA"
  />
<missing-glyph horiz-adv-x="208" 
 />
    <glyph glyph-name="f_f" unicode="ff" horiz-adv-x="747" 
d="M755 576c-9.33301 5.33301 -20.498 9.83203 -33.498 13.499s-26.5 5.5 -40.5 5.5c-19.333 0 -36.333 -4.5 -51 -13.5s-22 -24.833 -22 -47.5v-54h128v-140h-128v-340h-170v340h-165v-340h-170v340h-79v140h79v16c0 38 6 70.167 18 96.5s28.167 47.833 48.5 64.5
s43.666 28.834 69.999 36.501s54.166 11.5 83.499 11.5c24.667 0 50.334 -2.33301 77.001 -7s53.667 -12.667 81 -24c19.333 22.667 43 38.5 71 47.5s56.667 13.5 86 13.5c22 0 43.167 -1.83301 63.5 -5.5s38.166 -8.16699 53.499 -13.5v-140zM438.002 479.999
l0.000976562 42.001v28c-18.667 13.333 -43.334 20 -74.001 20c-28 0 -50.167 -6.33301 -66.5 -19s-24.5 -31.334 -24.5 -56.001v-15h165z" />
    <glyph glyph-name="f_f_i" unicode="ffi" horiz-adv-x="991" 
d="M103 0l0.00292969 340h-79v140h79v16c0 38 6 70.167 18 96.5s28.167 47.833 48.5 64.5s43.666 28.834 69.999 36.501s54.166 11.5 83.499 11.5c25.333 0 52.5 -2.5 81.5 -7.5s59.5 -13.5 91.5 -25.5c22 21.333 49.167 37.166 81.5 47.499s67.833 15.5 106.5 15.5
c55.333 0 114.666 -9.66699 177.999 -29v-139c-22.667 9.33301 -46.167 16.333 -70.5 21s-47.833 7 -70.5 7c-16 0 -30.833 -1.5 -44.5 -4.5s-25.5 -7.83301 -35.5 -14.5s-18 -15 -24 -25s-9 -22.333 -9 -37v-34h331v-480h-170v340h-161v-340h-170v340h-165v-340h-170z
M273.003 480l165 0.000976562v35c0 6.66699 0.166992 13.167 0.5 19.5s0.833008 12.5 1.5 18.5c-26 11.333 -53.333 17 -82 17c-26 0 -46.667 -6.33301 -62 -19s-23 -31.334 -23 -56.001v-15z" />
    <glyph glyph-name="f_f_l" unicode="ffl" horiz-adv-x="1001" 
d="M644 725c33.333 0 62.5029 -2.83398 87.5029 -8.50098s49.167 -13.167 72.5 -22.5l145 22v-716h-170v567c-13.333 5.33301 -27.333 9.66602 -42 12.999s-28.667 5 -42 5c-24 0 -44.5 -5.66699 -61.5 -17s-25.5 -30.333 -25.5 -57v-31h118v-140h-118v-340h-170v340h-165
v-340h-170v340h-79v140h79v16c0 38 6 70.167 18 96.5s28.167 47.833 48.5 64.5s43.666 28.834 69.999 36.501s54.166 11.5 83.499 11.5c25.333 0 52.5 -2.5 81.5 -7.5s59.5 -13.833 91.5 -26.5c19.333 18.667 41.666 32.334 66.999 41.001s52.333 13 81 13zM438.003 514.999
c0 6.66699 0.166992 13.168 0.5 19.501s0.833008 12.5 1.5 18.5c-26 11.333 -53.333 17 -82 17c-26 0 -46.667 -6.33301 -62 -19s-23 -31.334 -23 -56.001v-15h165v35z" />
    <glyph glyph-name=".notdef" horiz-adv-x="208" 
 />
    <glyph glyph-name="space" unicode=" " horiz-adv-x="208" 
 />
    <glyph glyph-name="exclam" unicode="!" horiz-adv-x="294" 
d="M67 260l-10 440h180l-10 -440h-160zM249 84c0 -17.333 -2.66699 -32.166 -8 -44.499s-12.666 -22.5 -21.999 -30.5s-20.166 -14 -32.499 -18s-25.5 -6 -39.5 -6c-13.333 0 -26.166 2 -38.499 6s-23.166 10 -32.499 18s-16.833 18.167 -22.5 30.5s-8.5 27.166 -8.5 44.499
c0 16.667 2.83301 31.167 8.5 43.5s13.167 22.5 22.5 30.5s20.166 14 32.499 18s25.166 6 38.499 6c14 0 27.167 -2 39.5 -6s23.166 -10 32.499 -18s16.666 -18.167 21.999 -30.5s8 -26.833 8 -43.5z" />
    <glyph glyph-name="quotedbl" unicode="&#x22;" horiz-adv-x="373" 
d="M71 0v700h232v-700h-232zM247 77l-0.000976562 47.999c0 21.333 -6.33301 36.833 -19 46.5s-26.667 14.167 -42 13.5c-15.333 0 -29.166 -4.66699 -41.499 -14s-18.5 -24.666 -18.5 -45.999v-48h121zM147.999 124.999c-0.666992 13.333 3.16797 22.668 11.501 28.001
s17.166 8.66602 26.499 9.99902c9.33301 0 18.333 -2.83301 27 -8.5s13 -15.5 13 -29.5v-26h-78v26zM226.001 243.001h-28v65h-21v-65h-28v67h-23v-90h121v90h-21v-67zM247.001 477.001h-121v-26l53 -39l-53 -37v-26h121v22h-87l53 39v4l-53 41h87v22zM123.001 574.001
c0 -17.333 6.00098 -32.001 18.001 -44.001s27.667 -18 47 -18c15.333 0 29.666 5 42.999 15s20 25.667 20 47s-6.83301 36.833 -20.5 46.5s-28.167 14.834 -43.5 15.501c-15.333 0 -29.833 -5 -43.5 -15s-20.5 -25.667 -20.5 -47zM188.002 534
c-12 -0.666992 -22.333 2.49902 -31 9.49902s-12.667 17.167 -12 30.5c0 14.667 4.66699 25 14 31s19 9 29 9c10 -1.33301 19.333 -4.66602 28 -9.99902s13 -15.333 13 -30s-4.33301 -25 -13 -31s-18 -9 -28 -9z" />
    <glyph glyph-name="numbersign" unicode="#" horiz-adv-x="373" 
d="M71 0v700h232v-700h-232zM247 77l-0.000976562 47.999c0 21.333 -6.33301 36.833 -19 46.5s-26.667 14.167 -42 13.5c-15.333 0 -29.166 -4.66699 -41.499 -14s-18.5 -24.666 -18.5 -45.999v-48h121zM147.999 124.999c-0.666992 13.333 3.16797 22.668 11.501 28.001
s17.166 8.66602 26.499 9.99902c9.33301 0 18.333 -2.83301 27 -8.5s13 -15.5 13 -29.5v-26h-78v26zM226.001 243.001h-28v65h-21v-65h-28v67h-23v-90h121v90h-21v-67zM247.001 477.001h-121v-26l53 -39l-53 -37v-26h121v22h-87l53 39v4l-53 41h87v22zM123.001 574.001
c0 -17.333 6.00098 -32.001 18.001 -44.001s27.667 -18 47 -18c15.333 0 29.666 5 42.999 15s20 25.667 20 47s-6.83301 36.833 -20.5 46.5s-28.167 14.834 -43.5 15.501c-15.333 0 -29.833 -5 -43.5 -15s-20.5 -25.667 -20.5 -47zM188.002 534
c-12 -0.666992 -22.333 2.49902 -31 9.49902s-12.667 17.167 -12 30.5c0 14.667 4.66699 25 14 31s19 9 29 9c10 -1.33301 19.333 -4.66602 28 -9.99902s13 -15.333 13 -30s-4.33301 -25 -13 -31s-18 -9 -28 -9z" />
    <glyph glyph-name="dollar" unicode="$" horiz-adv-x="373" 
d="M71 0v700h232v-700h-232zM247 77l-0.000976562 47.999c0 21.333 -6.33301 36.833 -19 46.5s-26.667 14.167 -42 13.5c-15.333 0 -29.166 -4.66699 -41.499 -14s-18.5 -24.666 -18.5 -45.999v-48h121zM147.999 124.999c-0.666992 13.333 3.16797 22.668 11.501 28.001
s17.166 8.66602 26.499 9.99902c9.33301 0 18.333 -2.83301 27 -8.5s13 -15.5 13 -29.5v-26h-78v26zM226.001 243.001h-28v65h-21v-65h-28v67h-23v-90h121v90h-21v-67zM247.001 477.001h-121v-26l53 -39l-53 -37v-26h121v22h-87l53 39v4l-53 41h87v22zM123.001 574.001
c0 -17.333 6.00098 -32.001 18.001 -44.001s27.667 -18 47 -18c15.333 0 29.666 5 42.999 15s20 25.667 20 47s-6.83301 36.833 -20.5 46.5s-28.167 14.834 -43.5 15.501c-15.333 0 -29.833 -5 -43.5 -15s-20.5 -25.667 -20.5 -47zM188.002 534
c-12 -0.666992 -22.333 2.49902 -31 9.49902s-12.667 17.167 -12 30.5c0 14.667 4.66699 25 14 31s19 9 29 9c10 -1.33301 19.333 -4.66602 28 -9.99902s13 -15.333 13 -30s-4.33301 -25 -13 -31s-18 -9 -28 -9z" />
    <glyph glyph-name="percent" unicode="%" horiz-adv-x="373" 
d="M71 0v700h232v-700h-232zM247 77l-0.000976562 47.999c0 21.333 -6.33301 36.833 -19 46.5s-26.667 14.167 -42 13.5c-15.333 0 -29.166 -4.66699 -41.499 -14s-18.5 -24.666 -18.5 -45.999v-48h121zM147.999 124.999c-0.666992 13.333 3.16797 22.668 11.501 28.001
s17.166 8.66602 26.499 9.99902c9.33301 0 18.333 -2.83301 27 -8.5s13 -15.5 13 -29.5v-26h-78v26zM226.001 243.001h-28v65h-21v-65h-28v67h-23v-90h121v90h-21v-67zM247.001 477.001h-121v-26l53 -39l-53 -37v-26h121v22h-87l53 39v4l-53 41h87v22zM123.001 574.001
c0 -17.333 6.00098 -32.001 18.001 -44.001s27.667 -18 47 -18c15.333 0 29.666 5 42.999 15s20 25.667 20 47s-6.83301 36.833 -20.5 46.5s-28.167 14.834 -43.5 15.501c-15.333 0 -29.833 -5 -43.5 -15s-20.5 -25.667 -20.5 -47zM188.002 534
c-12 -0.666992 -22.333 2.49902 -31 9.49902s-12.667 17.167 -12 30.5c0 14.667 4.66699 25 14 31s19 9 29 9c10 -1.33301 19.333 -4.66602 28 -9.99902s13 -15.333 13 -30s-4.33301 -25 -13 -31s-18 -9 -28 -9z" />
    <glyph glyph-name="ampersand" unicode="&#x26;" horiz-adv-x="373" 
d="M71 0v700h232v-700h-232zM247 77l-0.000976562 47.999c0 21.333 -6.33301 36.833 -19 46.5s-26.667 14.167 -42 13.5c-15.333 0 -29.166 -4.66699 -41.499 -14s-18.5 -24.666 -18.5 -45.999v-48h121zM147.999 124.999c-0.666992 13.333 3.16797 22.668 11.501 28.001
s17.166 8.66602 26.499 9.99902c9.33301 0 18.333 -2.83301 27 -8.5s13 -15.5 13 -29.5v-26h-78v26zM226.001 243.001h-28v65h-21v-65h-28v67h-23v-90h121v90h-21v-67zM247.001 477.001h-121v-26l53 -39l-53 -37v-26h121v22h-87l53 39v4l-53 41h87v22zM123.001 574.001
c0 -17.333 6.00098 -32.001 18.001 -44.001s27.667 -18 47 -18c15.333 0 29.666 5 42.999 15s20 25.667 20 47s-6.83301 36.833 -20.5 46.5s-28.167 14.834 -43.5 15.501c-15.333 0 -29.833 -5 -43.5 -15s-20.5 -25.667 -20.5 -47zM188.002 534
c-12 -0.666992 -22.333 2.49902 -31 9.49902s-12.667 17.167 -12 30.5c0 14.667 4.66699 25 14 31s19 9 29 9c10 -1.33301 19.333 -4.66602 28 -9.99902s13 -15.333 13 -30s-4.33301 -25 -13 -31s-18 -9 -28 -9z" />
    <glyph glyph-name="quotesingle" unicode="'" horiz-adv-x="373" 
d="M71 0v700h232v-700h-232zM247 77l-0.000976562 47.999c0 21.333 -6.33301 36.833 -19 46.5s-26.667 14.167 -42 13.5c-15.333 0 -29.166 -4.66699 -41.499 -14s-18.5 -24.666 -18.5 -45.999v-48h121zM147.999 124.999c-0.666992 13.333 3.16797 22.668 11.501 28.001
s17.166 8.66602 26.499 9.99902c9.33301 0 18.333 -2.83301 27 -8.5s13 -15.5 13 -29.5v-26h-78v26zM226.001 243.001h-28v65h-21v-65h-28v67h-23v-90h121v90h-21v-67zM247.001 477.001h-121v-26l53 -39l-53 -37v-26h121v22h-87l53 39v4l-53 41h87v22zM123.001 574.001
c0 -17.333 6.00098 -32.001 18.001 -44.001s27.667 -18 47 -18c15.333 0 29.666 5 42.999 15s20 25.667 20 47s-6.83301 36.833 -20.5 46.5s-28.167 14.834 -43.5 15.501c-15.333 0 -29.833 -5 -43.5 -15s-20.5 -25.667 -20.5 -47zM188.002 534
c-12 -0.666992 -22.333 2.49902 -31 9.49902s-12.667 17.167 -12 30.5c0 14.667 4.66699 25 14 31s19 9 29 9c10 -1.33301 19.333 -4.66602 28 -9.99902s13 -15.333 13 -30s-4.33301 -25 -13 -31s-18 -9 -28 -9z" />
    <glyph glyph-name="parenleft" unicode="(" horiz-adv-x="333" 
d="M316 811c-16.667 -32 -31.834 -66.1748 -45.501 -102.508s-25.5 -74.166 -35.5 -113.499s-17.833 -79.666 -23.5 -120.999s-8.5 -82.666 -8.5 -123.999s2.83301 -82.666 8.5 -123.999s13.5 -81.666 23.5 -120.999s21.833 -77.166 35.5 -113.499
s28.834 -70.5 45.501 -102.5h-130c-23.333 32 -44.333 66.333 -63 103s-34.667 74.834 -48 114.501s-23.666 80 -30.999 121s-11 81.833 -11 122.5s3.66699 81.5 11 122.5s17.666 81.333 30.999 121s29.333 77.834 48 114.501s39.667 71 63 103h130z" />
    <glyph glyph-name="parenright" unicode=")" horiz-adv-x="332" 
d="M146 811c22.667 -32 43.5 -66.3252 62.5 -102.992s35.167 -74.834 48.5 -114.501s23.666 -80 30.999 -121s11 -81.833 11 -122.5s-3.66699 -81.5 -11 -122.5s-17.666 -81.333 -30.999 -121s-29.5 -77.834 -48.5 -114.501s-39.833 -71 -62.5 -103h-130
c16.667 32 31.834 66.167 45.501 102.5s25.5 74.166 35.5 113.499s17.833 79.666 23.5 120.999s8.5 82.666 8.5 123.999s-2.83301 82.666 -8.5 123.999s-13.5 81.666 -23.5 120.999s-21.833 77.166 -35.5 113.499s-28.834 70.5 -45.501 102.5h130z" />
    <glyph glyph-name="asterisk" unicode="*" horiz-adv-x="373" 
d="M71 0v700h232v-700h-232zM247 77l-0.000976562 47.999c0 21.333 -6.33301 36.833 -19 46.5s-26.667 14.167 -42 13.5c-15.333 0 -29.166 -4.66699 -41.499 -14s-18.5 -24.666 -18.5 -45.999v-48h121zM147.999 124.999c-0.666992 13.333 3.16797 22.668 11.501 28.001
s17.166 8.66602 26.499 9.99902c9.33301 0 18.333 -2.83301 27 -8.5s13 -15.5 13 -29.5v-26h-78v26zM226.001 243.001h-28v65h-21v-65h-28v67h-23v-90h121v90h-21v-67zM247.001 477.001h-121v-26l53 -39l-53 -37v-26h121v22h-87l53 39v4l-53 41h87v22zM123.001 574.001
c0 -17.333 6.00098 -32.001 18.001 -44.001s27.667 -18 47 -18c15.333 0 29.666 5 42.999 15s20 25.667 20 47s-6.83301 36.833 -20.5 46.5s-28.167 14.834 -43.5 15.501c-15.333 0 -29.833 -5 -43.5 -15s-20.5 -25.667 -20.5 -47zM188.002 534
c-12 -0.666992 -22.333 2.49902 -31 9.49902s-12.667 17.167 -12 30.5c0 14.667 4.66699 25 14 31s19 9 29 9c10 -1.33301 19.333 -4.66602 28 -9.99902s13 -15.333 13 -30s-4.33301 -25 -13 -31s-18 -9 -28 -9z" />
    <glyph glyph-name="plus" unicode="+" horiz-adv-x="373" 
d="M71 0v700h232v-700h-232zM247 77l-0.000976562 47.999c0 21.333 -6.33301 36.833 -19 46.5s-26.667 14.167 -42 13.5c-15.333 0 -29.166 -4.66699 -41.499 -14s-18.5 -24.666 -18.5 -45.999v-48h121zM147.999 124.999c-0.666992 13.333 3.16797 22.668 11.501 28.001
s17.166 8.66602 26.499 9.99902c9.33301 0 18.333 -2.83301 27 -8.5s13 -15.5 13 -29.5v-26h-78v26zM226.001 243.001h-28v65h-21v-65h-28v67h-23v-90h121v90h-21v-67zM247.001 477.001h-121v-26l53 -39l-53 -37v-26h121v22h-87l53 39v4l-53 41h87v22zM123.001 574.001
c0 -17.333 6.00098 -32.001 18.001 -44.001s27.667 -18 47 -18c15.333 0 29.666 5 42.999 15s20 25.667 20 47s-6.83301 36.833 -20.5 46.5s-28.167 14.834 -43.5 15.501c-15.333 0 -29.833 -5 -43.5 -15s-20.5 -25.667 -20.5 -47zM188.002 534
c-12 -0.666992 -22.333 2.49902 -31 9.49902s-12.667 17.167 -12 30.5c0 14.667 4.66699 25 14 31s19 9 29 9c10 -1.33301 19.333 -4.66602 28 -9.99902s13 -15.333 13 -30s-4.33301 -25 -13 -31s-18 -9 -28 -9z" />
    <glyph glyph-name="comma" unicode="," horiz-adv-x="281" 
d="M-1 -143l68 290h180l-110 -290h-138z" />
    <glyph glyph-name="hyphen" unicode="-" horiz-adv-x="484" 
d="M432 311v-140h-380v140h380z" />
    <glyph glyph-name="period" unicode="." horiz-adv-x="273" 
d="M238 84c0 -17.333 -2.66699 -32.166 -8 -44.499s-12.666 -22.5 -21.999 -30.5s-20.166 -14 -32.499 -18s-25.5 -6 -39.5 -6c-13.333 0 -26.166 2 -38.499 6s-23.166 10 -32.499 18s-16.833 18.167 -22.5 30.5s-8.5 27.166 -8.5 44.499c0 16.667 2.83301 31.167 8.5 43.5
s13.167 22.5 22.5 30.5s20.166 14 32.499 18s25.166 6 38.499 6c14 0 27.167 -2 39.5 -6s23.166 -10 32.499 -18s16.666 -18.167 21.999 -30.5s8 -26.833 8 -43.5z" />
    <glyph glyph-name="slash" unicode="/" horiz-adv-x="373" 
d="M71 0v700h232v-700h-232zM247 77l-0.000976562 47.999c0 21.333 -6.33301 36.833 -19 46.5s-26.667 14.167 -42 13.5c-15.333 0 -29.166 -4.66699 -41.499 -14s-18.5 -24.666 -18.5 -45.999v-48h121zM147.999 124.999c-0.666992 13.333 3.16797 22.668 11.501 28.001
s17.166 8.66602 26.499 9.99902c9.33301 0 18.333 -2.83301 27 -8.5s13 -15.5 13 -29.5v-26h-78v26zM226.001 243.001h-28v65h-21v-65h-28v67h-23v-90h121v90h-21v-67zM247.001 477.001h-121v-26l53 -39l-53 -37v-26h121v22h-87l53 39v4l-53 41h87v22zM123.001 574.001
c0 -17.333 6.00098 -32.001 18.001 -44.001s27.667 -18 47 -18c15.333 0 29.666 5 42.999 15s20 25.667 20 47s-6.83301 36.833 -20.5 46.5s-28.167 14.834 -43.5 15.501c-15.333 0 -29.833 -5 -43.5 -15s-20.5 -25.667 -20.5 -47zM188.002 534
c-12 -0.666992 -22.333 2.49902 -31 9.49902s-12.667 17.167 -12 30.5c0 14.667 4.66699 25 14 31s19 9 29 9c10 -1.33301 19.333 -4.66602 28 -9.99902s13 -15.333 13 -30s-4.33301 -25 -13 -31s-18 -9 -28 -9z" />
    <glyph glyph-name="zero" unicode="0" horiz-adv-x="708" 
d="M39 340c0 48.667 6 94.5 18 137.5s30.667 80.667 56 113s58 57.833 98 76.5s87.667 28 143 28s102.833 -9.33301 142.5 -28s72.334 -44.167 98.001 -76.5s44.5 -70 56.5 -113s18 -88.833 18 -137.5s-6 -94.5 -18 -137.5s-30.833 -80.667 -56.5 -113
s-58.334 -57.833 -98.001 -76.5s-87.167 -28 -142.5 -28s-103 9.33301 -143 28s-72.667 44.167 -98 76.5s-44 70 -56 113s-18 88.833 -18 137.5zM484 340c0 66 -10.5 115 -31.5 147s-53.833 48 -98.5 48s-77.5 -16 -98.5 -48s-31.5 -81 -31.5 -147s10.5 -115 31.5 -147
s53.833 -48 98.5 -48s77.5 16 98.5 48s31.5 81 31.5 147z" />
    <glyph glyph-name="one" unicode="1" horiz-adv-x="478" 
d="M350 680v-525h106v-155h-406v155h120v342l-120 -45v165l165 63h135z" />
    <glyph glyph-name="two" unicode="2" horiz-adv-x="608" 
d="M60 620c36 25.333 74.499 44.166 115.499 56.499s83.5 18.5 127.5 18.5c34 0 66.5 -3.83301 97.5 -11.5s58.333 -20 82 -37s42.5 -38.833 56.5 -65.5s21 -59 21 -97c0 -28.667 -5.33301 -54.667 -16 -78s-24.5 -44.5 -41.5 -63.5s-36.333 -36.167 -58 -51.5
s-43.167 -29.333 -64.5 -42l-92.5 -56.5c-25 -15.667 -37.5 -28.167 -37.5 -37.5h315v-155h-527v81c0 40.667 7 75.834 21 105.501s31.833 55.334 53.5 77.001s45.667 40.667 72 57l75.5 45.5l44.5 25c13.667 7.33301 25.834 15 36.501 23s19 16.667 25 26
s9 20.666 9 33.999c0 20.667 -8.33301 36 -25 46s-38 15 -64 15c-34 0 -70.833 -6.83301 -110.5 -20.5s-78.167 -35.167 -115.5 -64.5v170v0z" />
    <glyph glyph-name="three" unicode="3" horiz-adv-x="604" 
d="M538 506c0 -36 -9.00098 -66.167 -27.001 -90.5s-44 -42.166 -78 -53.499c18.667 -6 36.167 -13.833 52.5 -23.5s30.5 -21.834 42.5 -36.501s21.333 -31.5 28 -50.5s10 -40.833 10 -65.5c0 -37.333 -8.16699 -68.833 -24.5 -94.5s-37.833 -46.334 -64.5 -62.001
s-57 -27 -91 -34s-69 -10.5 -105 -10.5c-41.333 0 -80.333 3.5 -117 10.5s-76 18.833 -118 35.5v170c41.333 -23.333 79.333 -38.666 114 -45.999s70 -10.666 106 -9.99902c16.667 0 32.5 1.5 47.5 4.5s28.167 7.33301 39.5 13s20.333 12.834 27 21.501s10 19.334 10 32.001
c0 20 -8.5 34.333 -25.5 43s-39.5 13 -67.5 13h-116l1 155l94 -1c24.667 -0.666992 45.334 2.83301 62.001 10.5s25 21.167 25 40.5c0 38.667 -35 58 -105 58c-28 0 -59.833 -5.33301 -95.5 -16s-70.5 -27.334 -104.5 -50.001v170c30.667 17.333 65.5 31 104.5 41
s79.167 15 120.5 15c36 0 69.5 -3.66699 100.5 -11s58 -18.833 81 -34.5s41 -35.334 54 -59.001s19.5 -51.834 19.5 -84.501z" />
    <glyph glyph-name="four" unicode="4" horiz-adv-x="666" 
d="M542 680v-420h90v-150h-90v-110h-175v110h-345v150l340 420h180zM367 459l-161 -199h161v199z" />
    <glyph glyph-name="five" unicode="5" horiz-adv-x="598" 
d="M533 681l-0.000976562 -155l-279 1l-7 -100c24.667 4 49 6 73 6c34.667 0 66.834 -4 96.501 -12s55.334 -20.833 77.001 -38.5s38.667 -40.167 51 -67.5s18.5 -60 18.5 -98c0 -42 -8.5 -77.667 -25.5 -107s-39.667 -53.333 -68 -72s-60.5 -32.167 -96.5 -40.5
s-73 -12.5 -111 -12.5c-40 0 -78.833 4 -116.5 12s-71.834 19.333 -102.501 34v170c26.667 -18.667 58.167 -32.667 94.5 -42s71.166 -14 104.499 -14c38.667 0 71 6 97 18s39 31.333 39 58c0 10.667 -2.33301 20.667 -7 30s-12.667 17.5 -24 24.5s-26.333 12.5 -45 16.5
s-42 6 -70 6c-21.333 0 -46.666 -1.83301 -75.999 -5.5s-60 -11.167 -92 -22.5l24 411h445z" />
    <glyph glyph-name="six" unicode="6" horiz-adv-x="661" 
d="M226 412c26 12.667 51.999 21.999 77.999 27.999s54 9 84 9c32 0 62.5 -4.66699 91.5 -14s54.5 -23.5 76.5 -42.5s39.5 -42.5 52.5 -70.5s19.5 -60.333 19.5 -97c0 -40 -7.33301 -75 -22 -105s-34.334 -55 -59.001 -75s-53.167 -35 -85.5 -45s-66.5 -15 -102.5 -15
c-58 0 -107.167 8.16699 -147.5 24.5s-73.166 40 -98.499 71s-43.833 68.833 -55.5 113.5s-17.5 95.334 -17.5 152.001c0 62 9.16699 115 27.5 159s42.666 80.167 72.999 108.5s65.333 49 105 62s81.167 19.5 124.5 19.5c68.667 0 135.334 -14.333 200.001 -43v-160
c-23.333 16 -49.833 28.833 -79.5 38.5s-59.834 14.5 -90.501 14.5c-20 0 -39.333 -1.83301 -58 -5.5s-35.667 -10.5 -51 -20.5s-28.666 -23.667 -39.999 -41s-19.666 -39.333 -24.999 -66zM223.999 269.999c3.33301 -28.667 8.49902 -52.168 15.499 -70.501
s15.833 -32.666 26.5 -42.999s22.5 -17.333 35.5 -21s27.167 -5.5 42.5 -5.5c26 0 49 6.83301 69 20.5s30 35.5 30 65.5c0 15.333 -3.16699 28.333 -9.5 39s-14.666 19.167 -24.999 25.5s-22.5 11 -36.5 14s-28.333 4.5 -43 4.5c-34.667 0 -69.667 -9.66699 -105 -29z" />
    <glyph glyph-name="seven" unicode="7" horiz-adv-x="582" 
d="M565 681v-125l-276 -556h-200l261 526h-325v155h540z" />
    <glyph glyph-name="eight" unicode="8" horiz-adv-x="664" 
d="M62 500c0 23.333 4.99805 46.665 14.998 69.998s26 44.166 48 62.499s50 33.333 84 45s75 17.5 123 17.5c45.333 0 85 -5.83301 119 -17.5s62.167 -26.667 84.5 -45s39 -39.166 50 -62.499s16.5 -46.666 16.5 -69.999c0 -34 -7.5 -62.333 -22.5 -85
s-35.167 -43.667 -60.5 -63c30.667 -15.333 56.334 -35.833 77.001 -61.5s31 -59.167 31 -100.5c0 -26 -5.5 -51.333 -16.5 -76s-28.167 -46.5 -51.5 -65.5s-53.833 -34.333 -91.5 -46s-82.834 -17.5 -135.501 -17.5c-53.333 0 -98.666 5.83301 -135.999 17.5
s-67.666 27 -90.999 46s-40.5 40.833 -51.5 65.5s-16.5 50 -16.5 76c0 36 10 68.333 30 97s43.667 51.334 71 68.001c-22.667 16 -41 35.5 -55 58.5s-21 51.833 -21 86.5zM351.998 265.999c-15.333 6 -32.001 11.833 -50.001 17.5s-36 11.834 -54 18.501
c-10 -14.667 -17.167 -29.834 -21.5 -45.501s-6.16602 -30.167 -5.49902 -43.5c1.33301 -23.333 11.5 -43.833 30.5 -61.5s50.5 -26.5 94.5 -26.5c28 0 51 5.5 69 16.5s27 25.833 27 44.5c0 21.333 -8.5 37.5 -25.5 48.5s-38.5 21.5 -64.5 31.5zM425.997 490.999
c-0.666992 18 -9.32812 33.167 -25.9951 45.5s-42.334 18.5 -77.001 18.5c-28 0 -49.333 -5.66699 -64 -17s-22 -24.333 -22 -39c0 -11.333 2.66699 -21.166 8 -29.499s12.666 -15.666 21.999 -21.999s20.333 -12.166 33 -17.499s26.667 -10.333 42 -15l25.5 -8
c8.33301 -2.66699 17.166 -5.33398 26.499 -8.00098c11.333 15.333 19.666 31.166 24.999 47.499s7.66602 31.166 6.99902 44.499z" />
    <glyph glyph-name="nine" unicode="9" horiz-adv-x="661" 
d="M33 455c0 40 7.33398 75.001 22.001 105.001s34.334 55 59.001 75s53.167 35 85.5 45s66.5 15 102.5 15c58 0 107.167 -8.16699 147.5 -24.5s73.166 -40 98.499 -71s43.833 -68.833 55.5 -113.5s17.5 -95.334 17.5 -152.001c0 -62 -9.16699 -115 -27.5 -159
s-42.666 -80.167 -72.999 -108.5s-65.5 -49 -105.5 -62s-81.333 -19.5 -124 -19.5c-68.667 0 -135.334 14.333 -200.001 43v160c23.333 -16 49.833 -28.833 79.5 -38.5s59.834 -14.5 90.501 -14.5c20 0 39.333 1.83301 58 5.5s35.667 10.5 51 20.5s28.666 23.667 39.999 41
s19.666 39.333 24.999 66c-26 -12.667 -52 -22 -78 -28s-54 -9 -84 -9c-32 0 -62.5 4.66699 -91.5 14s-54.5 23.5 -76.5 42.5s-39.5 42.333 -52.5 70s-19.5 60.167 -19.5 97.5zM317.001 550.001c-26 0 -48.999 -6.83008 -68.999 -20.4971s-30 -35.5 -30 -65.5
c0 -15.333 3.16699 -28.333 9.5 -39s14.666 -19.334 24.999 -26.001s22.333 -11.334 36 -14.001s28.167 -4 43.5 -4c34.667 0 69.667 9.66699 105 29c-3.33301 28.667 -8.5 52.167 -15.5 70.5s-15.833 32.666 -26.5 42.999s-22.5 17.333 -35.5 21s-27.167 5.5 -42.5 5.5z
" />
    <glyph glyph-name="colon" unicode=":" horiz-adv-x="373" 
d="M71 0v700h232v-700h-232zM247 77l-0.000976562 47.999c0 21.333 -6.33301 36.833 -19 46.5s-26.667 14.167 -42 13.5c-15.333 0 -29.166 -4.66699 -41.499 -14s-18.5 -24.666 -18.5 -45.999v-48h121zM147.999 124.999c-0.666992 13.333 3.16797 22.668 11.501 28.001
s17.166 8.66602 26.499 9.99902c9.33301 0 18.333 -2.83301 27 -8.5s13 -15.5 13 -29.5v-26h-78v26zM226.001 243.001h-28v65h-21v-65h-28v67h-23v-90h121v90h-21v-67zM247.001 477.001h-121v-26l53 -39l-53 -37v-26h121v22h-87l53 39v4l-53 41h87v22zM123.001 574.001
c0 -17.333 6.00098 -32.001 18.001 -44.001s27.667 -18 47 -18c15.333 0 29.666 5 42.999 15s20 25.667 20 47s-6.83301 36.833 -20.5 46.5s-28.167 14.834 -43.5 15.501c-15.333 0 -29.833 -5 -43.5 -15s-20.5 -25.667 -20.5 -47zM188.002 534
c-12 -0.666992 -22.333 2.49902 -31 9.49902s-12.667 17.167 -12 30.5c0 14.667 4.66699 25 14 31s19 9 29 9c10 -1.33301 19.333 -4.66602 28 -9.99902s13 -15.333 13 -30s-4.33301 -25 -13 -31s-18 -9 -28 -9z" />
    <glyph glyph-name="semicolon" unicode=";" horiz-adv-x="373" 
d="M71 0v700h232v-700h-232zM247 77l-0.000976562 47.999c0 21.333 -6.33301 36.833 -19 46.5s-26.667 14.167 -42 13.5c-15.333 0 -29.166 -4.66699 -41.499 -14s-18.5 -24.666 -18.5 -45.999v-48h121zM147.999 124.999c-0.666992 13.333 3.16797 22.668 11.501 28.001
s17.166 8.66602 26.499 9.99902c9.33301 0 18.333 -2.83301 27 -8.5s13 -15.5 13 -29.5v-26h-78v26zM226.001 243.001h-28v65h-21v-65h-28v67h-23v-90h121v90h-21v-67zM247.001 477.001h-121v-26l53 -39l-53 -37v-26h121v22h-87l53 39v4l-53 41h87v22zM123.001 574.001
c0 -17.333 6.00098 -32.001 18.001 -44.001s27.667 -18 47 -18c15.333 0 29.666 5 42.999 15s20 25.667 20 47s-6.83301 36.833 -20.5 46.5s-28.167 14.834 -43.5 15.501c-15.333 0 -29.833 -5 -43.5 -15s-20.5 -25.667 -20.5 -47zM188.002 534
c-12 -0.666992 -22.333 2.49902 -31 9.49902s-12.667 17.167 -12 30.5c0 14.667 4.66699 25 14 31s19 9 29 9c10 -1.33301 19.333 -4.66602 28 -9.99902s13 -15.333 13 -30s-4.33301 -25 -13 -31s-18 -9 -28 -9z" />
    <glyph glyph-name="less" unicode="&#x3c;" horiz-adv-x="373" 
d="M71 0v700h232v-700h-232zM247 77l-0.000976562 47.999c0 21.333 -6.33301 36.833 -19 46.5s-26.667 14.167 -42 13.5c-15.333 0 -29.166 -4.66699 -41.499 -14s-18.5 -24.666 -18.5 -45.999v-48h121zM147.999 124.999c-0.666992 13.333 3.16797 22.668 11.501 28.001
s17.166 8.66602 26.499 9.99902c9.33301 0 18.333 -2.83301 27 -8.5s13 -15.5 13 -29.5v-26h-78v26zM226.001 243.001h-28v65h-21v-65h-28v67h-23v-90h121v90h-21v-67zM247.001 477.001h-121v-26l53 -39l-53 -37v-26h121v22h-87l53 39v4l-53 41h87v22zM123.001 574.001
c0 -17.333 6.00098 -32.001 18.001 -44.001s27.667 -18 47 -18c15.333 0 29.666 5 42.999 15s20 25.667 20 47s-6.83301 36.833 -20.5 46.5s-28.167 14.834 -43.5 15.501c-15.333 0 -29.833 -5 -43.5 -15s-20.5 -25.667 -20.5 -47zM188.002 534
c-12 -0.666992 -22.333 2.49902 -31 9.49902s-12.667 17.167 -12 30.5c0 14.667 4.66699 25 14 31s19 9 29 9c10 -1.33301 19.333 -4.66602 28 -9.99902s13 -15.333 13 -30s-4.33301 -25 -13 -31s-18 -9 -28 -9z" />
    <glyph glyph-name="equal" unicode="=" horiz-adv-x="373" 
d="M71 0v700h232v-700h-232zM247 77l-0.000976562 47.999c0 21.333 -6.33301 36.833 -19 46.5s-26.667 14.167 -42 13.5c-15.333 0 -29.166 -4.66699 -41.499 -14s-18.5 -24.666 -18.5 -45.999v-48h121zM147.999 124.999c-0.666992 13.333 3.16797 22.668 11.501 28.001
s17.166 8.66602 26.499 9.99902c9.33301 0 18.333 -2.83301 27 -8.5s13 -15.5 13 -29.5v-26h-78v26zM226.001 243.001h-28v65h-21v-65h-28v67h-23v-90h121v90h-21v-67zM247.001 477.001h-121v-26l53 -39l-53 -37v-26h121v22h-87l53 39v4l-53 41h87v22zM123.001 574.001
c0 -17.333 6.00098 -32.001 18.001 -44.001s27.667 -18 47 -18c15.333 0 29.666 5 42.999 15s20 25.667 20 47s-6.83301 36.833 -20.5 46.5s-28.167 14.834 -43.5 15.501c-15.333 0 -29.833 -5 -43.5 -15s-20.5 -25.667 -20.5 -47zM188.002 534
c-12 -0.666992 -22.333 2.49902 -31 9.49902s-12.667 17.167 -12 30.5c0 14.667 4.66699 25 14 31s19 9 29 9c10 -1.33301 19.333 -4.66602 28 -9.99902s13 -15.333 13 -30s-4.33301 -25 -13 -31s-18 -9 -28 -9z" />
    <glyph glyph-name="greater" unicode="&#x3e;" horiz-adv-x="373" 
d="M71 0v700h232v-700h-232zM247 77l-0.000976562 47.999c0 21.333 -6.33301 36.833 -19 46.5s-26.667 14.167 -42 13.5c-15.333 0 -29.166 -4.66699 -41.499 -14s-18.5 -24.666 -18.5 -45.999v-48h121zM147.999 124.999c-0.666992 13.333 3.16797 22.668 11.501 28.001
s17.166 8.66602 26.499 9.99902c9.33301 0 18.333 -2.83301 27 -8.5s13 -15.5 13 -29.5v-26h-78v26zM226.001 243.001h-28v65h-21v-65h-28v67h-23v-90h121v90h-21v-67zM247.001 477.001h-121v-26l53 -39l-53 -37v-26h121v22h-87l53 39v4l-53 41h87v22zM123.001 574.001
c0 -17.333 6.00098 -32.001 18.001 -44.001s27.667 -18 47 -18c15.333 0 29.666 5 42.999 15s20 25.667 20 47s-6.83301 36.833 -20.5 46.5s-28.167 14.834 -43.5 15.501c-15.333 0 -29.833 -5 -43.5 -15s-20.5 -25.667 -20.5 -47zM188.002 534
c-12 -0.666992 -22.333 2.49902 -31 9.49902s-12.667 17.167 -12 30.5c0 14.667 4.66699 25 14 31s19 9 29 9c10 -1.33301 19.333 -4.66602 28 -9.99902s13 -15.333 13 -30s-4.33301 -25 -13 -31s-18 -9 -28 -9z" />
    <glyph glyph-name="question" unicode="?" horiz-adv-x="503" 
d="M145 242c0 30.667 7.49902 58.334 22.499 83.001s31.667 47 50 67l50 54.5c15 16.333 22.5 31.5 22.5 45.5c0 24 -8.83301 40.5 -26.5 49.5s-39.5 13.5 -65.5 13.5c-29.333 0 -58.5 -4.66699 -87.5 -14s-54.167 -20.333 -75.5 -33v160
c26.667 13.333 56.334 24.5 89.001 33.5s67.667 13.5 105 13.5c31.333 0 61.833 -3 91.5 -9s56 -16 79 -30s41.333 -32.333 55 -55s20.5 -50.667 20.5 -84c0 -34 -8.83301 -64.667 -26.5 -92s-37.167 -52.5 -58.5 -75.5l-58.5 -65.5
c-17.667 -20.667 -26.5 -41.334 -26.5 -62.001h-160zM327.999 84c0 -17.333 -2.66699 -32.166 -8 -44.499s-12.666 -22.5 -21.999 -30.5s-20.166 -14 -32.499 -18s-25.5 -6 -39.5 -6c-13.333 0 -26.166 2 -38.499 6s-23.166 10 -32.499 18s-16.833 18.167 -22.5 30.5
s-8.5 27.166 -8.5 44.499c0 16.667 2.83301 31.167 8.5 43.5s13.167 22.5 22.5 30.5s20.166 14 32.499 18s25.166 6 38.499 6c14 0 27.167 -2 39.5 -6s23.166 -10 32.499 -18s16.666 -18.167 21.999 -30.5s8 -26.833 8 -43.5z" />
    <glyph glyph-name="at" unicode="@" horiz-adv-x="373" 
d="M71 0v700h232v-700h-232zM247 77l-0.000976562 47.999c0 21.333 -6.33301 36.833 -19 46.5s-26.667 14.167 -42 13.5c-15.333 0 -29.166 -4.66699 -41.499 -14s-18.5 -24.666 -18.5 -45.999v-48h121zM147.999 124.999c-0.666992 13.333 3.16797 22.668 11.501 28.001
s17.166 8.66602 26.499 9.99902c9.33301 0 18.333 -2.83301 27 -8.5s13 -15.5 13 -29.5v-26h-78v26zM226.001 243.001h-28v65h-21v-65h-28v67h-23v-90h121v90h-21v-67zM247.001 477.001h-121v-26l53 -39l-53 -37v-26h121v22h-87l53 39v4l-53 41h87v22zM123.001 574.001
c0 -17.333 6.00098 -32.001 18.001 -44.001s27.667 -18 47 -18c15.333 0 29.666 5 42.999 15s20 25.667 20 47s-6.83301 36.833 -20.5 46.5s-28.167 14.834 -43.5 15.501c-15.333 0 -29.833 -5 -43.5 -15s-20.5 -25.667 -20.5 -47zM188.002 534
c-12 -0.666992 -22.333 2.49902 -31 9.49902s-12.667 17.167 -12 30.5c0 14.667 4.66699 25 14 31s19 9 29 9c10 -1.33301 19.333 -4.66602 28 -9.99902s13 -15.333 13 -30s-4.33301 -25 -13 -31s-18 -9 -28 -9z" />
    <glyph glyph-name="A" unicode="A" horiz-adv-x="752" 
d="M1 0l275 700h200l275 -700h-190l-40 110h-290l-40 -110h-190zM286 260h180l-72 202c-3.33301 8.66699 -6.33301 18 -9 28s-5.66699 24.333 -9 43c-3.33301 -18.667 -6.33301 -33 -9 -43s-5.66699 -19.333 -9 -28z" />
    <glyph glyph-name="B" unicode="B" horiz-adv-x="684" 
d="M382 700c76.667 0 136.666 -14.332 179.999 -42.999s65 -73.334 65 -134.001c0 -38.667 -8.83301 -70.667 -26.5 -96s-43.5 -44 -77.5 -56c18.667 -5.33301 36 -12.833 52 -22.5s30 -21.667 42 -36s21.333 -31 28 -50s10 -40.5 10 -64.5c0 -40 -8.66699 -72.667 -26 -98
s-39.666 -45.5 -66.999 -60.5s-57.833 -25.333 -91.5 -31s-67.167 -8.5 -100.5 -8.5h-304v700h316zM468.999 218.001c0 28 -8.5 47.167 -25.5 57.5s-39.5 15.5 -67.5 15.5h-126v-146h126c28 0 50.5 5.16699 67.5 15.5s25.5 29.5 25.5 57.5zM441.999 490.001
c0 20 -6.66699 35.833 -20 47.5s-32.333 17.5 -57 17.5h-114v-129l114 -1c24.667 0 43.667 5.83301 57 17.5s20 27.5 20 47.5z" />
    <glyph glyph-name="C" unicode="C" horiz-adv-x="655" 
d="M32 340c0 66 10.835 122.664 32.502 169.997s50.334 86.166 86.001 116.499s76.167 52.666 121.5 66.999s91.666 21.5 138.999 21.5c36 0 71.167 -3.66699 105.5 -11s66.833 -18.333 97.5 -33v-175c-21.333 18 -47.166 32 -77.499 42s-61.5 15 -93.5 15
c-28 0 -55.167 -4 -81.5 -12s-49.833 -20.5 -70.5 -37.5s-37.334 -39 -50.001 -66s-19 -59.5 -19 -97.5c0 -34 6.33301 -63.167 19 -87.5s29.167 -44.166 49.5 -59.499s43.666 -26.666 69.999 -33.999s53.166 -11 80.499 -11c36 0 69.667 5.33301 101 16s57 25.667 77 45
v-180c-62 -29.333 -130 -44 -204 -44c-48 0 -95 6.83301 -141 20.5s-86.833 34.834 -122.5 63.501s-64.5 65.334 -86.5 110.001s-33 98.334 -33 161.001z" />
    <glyph glyph-name="D" unicode="D" horiz-adv-x="744" 
d="M345 700c62.667 0 117 -8.66699 163 -26s84 -41.5 114 -72.5s52.333 -68 67 -111s22 -89.833 22 -140.5c0 -51.333 -7.33301 -98.333 -22 -141s-37 -79.5 -67 -110.5s-68 -55.167 -114 -72.5s-100.333 -26 -163 -26h-279v700h279zM521 350
c0 66 -15.333 114.167 -46 144.5s-74 45.5 -130 45.5h-94v-380h94c56 0 99.333 15.167 130 45.5s46 78.5 46 144.5z" />
    <glyph glyph-name="E" unicode="E" horiz-adv-x="617" 
d="M570 700v-160h-319v-107h289v-159h-289v-114h325v-160h-510v700h504z" />
    <glyph glyph-name="F" unicode="F" horiz-adv-x="604" 
d="M571 700v-165h-320v-121h291v-165h-291v-249h-185v700h505z" />
    <glyph glyph-name="G" unicode="G" horiz-adv-x="699" 
d="M32 350c0 65.333 10.999 121 32.999 167s51 83.667 87 113s77.167 50.833 123.5 64.5s93.833 20.5 142.5 20.5c38 0 75.333 -3.83301 112 -11.5s71.667 -18.5 105 -32.5v-175c-26 18 -55.833 31.833 -89.5 41.5s-68.167 14.5 -103.5 14.5
c-28 0 -55.333 -3.83301 -82 -11.5s-50.167 -19.5 -70.5 -35.5s-36.666 -36.833 -48.999 -62.5s-18.5 -56.5 -18.5 -92.5c0 -43.333 7 -78.333 21 -105s31.5 -47.5 52.5 -62.5s43.5 -25.167 67.5 -30.5s46 -8 66 -8c18.667 0 34.667 1.66699 48 5v236h175v-353
c-36 -15.333 -73.667 -27 -113 -35s-79 -12 -119 -12c-50 0 -98.333 7.16699 -145 21.5s-88 36.333 -124 66s-64.833 67.5 -86.5 113.5s-32.5 100.667 -32.5 164z" />
    <glyph glyph-name="H" unicode="H" horiz-adv-x="762" 
d="M696 700v-700h-185v267h-260v-267h-185v700h185v-268h260v268h185z" />
    <glyph glyph-name="I" unicode="I" horiz-adv-x="317" 
d="M251 700v-700h-185v700h185z" />
    <glyph glyph-name="J" unicode="J" horiz-adv-x="518" 
d="M457 700l-0.00195312 -482c0 -43.333 -7.16699 -79.833 -21.5 -109.5s-33.5 -53.667 -57.5 -72s-51.667 -31.5 -83 -39.5s-64.333 -12 -99 -12s-68 3.5 -100 10.5s-59 14.5 -81 22.5v170c18.667 -10 39.834 -18 63.501 -24s47.167 -9 70.5 -9
c16.667 0 32.334 1.33301 47.001 4s27.667 7.5 39 14.5s20.333 16 27 27s10 25.167 10 42.5v292h-175v165h360z" />
    <glyph glyph-name="K" unicode="K" horiz-adv-x="706" 
d="M66 0v700h185v-265h88l159 265h205l-220 -341l230 -359h-205l-170 270h-87v-270h-185z" />
    <glyph glyph-name="L" unicode="L" horiz-adv-x="584" 
d="M251 700v-535h320v-165h-505v700h185z" />
    <glyph glyph-name="M" unicode="M" horiz-adv-x="908" 
d="M842 700v-700h-185v372l-150 -230h-106l-150 231v-373h-185v700h175l213 -328l213 328h175z" />
    <glyph glyph-name="N" unicode="N" horiz-adv-x="762" 
d="M66 0v699.998h175l274 -402c-1.33301 16.667 -2.33301 35.334 -3 56.001s-1 40.667 -1 60v286h185v-700h-175l-274 401c1.33301 -16.667 2.33301 -35.167 3 -55.5s1 -40.166 1 -59.499v-286h-185z" />
    <glyph glyph-name="O" unicode="O" horiz-adv-x="812" 
d="M31 350c0 48.667 7.83301 95 23.5 139s39.167 82.833 70.5 116.5s70.333 60.334 117 80.001s101.334 29.5 164.001 29.5s117.334 -9.83301 164.001 -29.5s85.667 -46.334 117 -80.001s54.833 -72.5 70.5 -116.5s23.5 -90.333 23.5 -139s-7.83301 -95 -23.5 -139
s-39.167 -82.833 -70.5 -116.5s-70.333 -60.334 -117 -80.001s-101.334 -29.5 -164.001 -29.5s-117.334 9.83301 -164.001 29.5s-85.667 46.334 -117 80.001s-54.833 72.5 -70.5 116.5s-23.5 90.333 -23.5 139zM591 350c0 28 -4 53.833 -12 77.5s-19.667 44.334 -35 62.001
s-34.666 31.334 -57.999 41.001s-50 14.5 -80 14.5s-56.667 -4.83301 -80 -14.5s-42.666 -23.334 -57.999 -41.001s-27 -38.334 -35 -62.001s-12 -49.5 -12 -77.5s4 -53.833 12 -77.5s19.667 -44.334 35 -62.001s34.666 -31.334 57.999 -41.001s50 -14.5 80 -14.5
s56.667 4.83301 80 14.5s42.666 23.334 57.999 41.001s27 38.334 35 62.001s12 49.5 12 77.5z" />
    <glyph glyph-name="P" unicode="P" horiz-adv-x="668" 
d="M343 700c43.333 0 83.5 -3.83105 120.5 -11.498s69.167 -20.834 96.5 -39.501s48.833 -43.334 64.5 -74.001s23.5 -69 23.5 -115s-7.83301 -84.333 -23.5 -115s-37.167 -55.167 -64.5 -73.5s-59.5 -31.5 -96.5 -39.5s-77.167 -12 -120.5 -12h-92v-220h-185v700h277z
M458 460.002c0 16 -2.83301 29.167 -8.5 39.5s-13.5 18.5 -23.5 24.5s-21.333 10.167 -34 12.5s-26 3.5 -40 3.5h-101v-160h101c14 0 27.333 1.16699 40 3.5s24 6.5 34 12.5s17.833 14.167 23.5 24.5s8.5 23.5 8.5 39.5z" />
    <glyph glyph-name="Q" unicode="Q" horiz-adv-x="812" 
d="M655 -57l-76.001 75.999c-49.333 -22.667 -107 -34 -173 -34c-62.667 0 -117.334 9.83301 -164.001 29.5s-85.667 46.334 -117 80.001s-54.833 72.5 -70.5 116.5s-23.5 90.333 -23.5 139s7.83301 95 23.5 139s39.167 82.833 70.5 116.5s70.333 60.334 117 80.001
s101.334 29.5 164.001 29.5s117.334 -9.83301 164.001 -29.5s85.667 -46.334 117 -80.001s54.833 -72.5 70.5 -116.5s23.5 -90.333 23.5 -139c0 -42 -5.83301 -82.167 -17.5 -120.5s-29.167 -73.5 -52.5 -105.5l70 -70zM220.999 349.999
c0 -28 3.99902 -53.8311 11.999 -77.498s19.667 -44.334 35 -62.001s34.666 -31.334 57.999 -41.001s50 -14.5 80 -14.5c6 0 12 0.166992 18 0.5s11.667 0.833008 17 1.5l-63 63l119 118l78 -78c10.667 28.667 16 58.667 16 90c0 28 -4 54 -12 78s-19.667 44.833 -35 62.5
s-34.666 31.5 -57.999 41.5s-50 15 -80 15s-56.667 -5 -80 -15s-42.666 -23.833 -57.999 -41.5s-27 -38.5 -35 -62.5s-12 -50 -12 -78z" />
    <glyph glyph-name="R" unicode="R" horiz-adv-x="711" 
d="M66 0v699.999h295c35.333 0 70.166 -3.66699 104.499 -11s65 -20 92 -38s48.833 -42.167 65.5 -72.5s25 -68.5 25 -114.5c0 -29.333 -3.33301 -55.166 -10 -77.499s-16 -42 -28 -59s-26.167 -31.5 -42.5 -43.5s-34.166 -22 -53.499 -30l193 -254h-209l-167 228h-80v-228
h-185zM251 377.999l118 0.00195312c26.667 0 48.167 6.66699 64.5 20s24.5 33.666 24.5 60.999s-8.16699 47.666 -24.5 60.999s-37.833 20 -64.5 20h-118v-162z" />
    <glyph glyph-name="S" unicode="S" horiz-adv-x="621" 
d="M41 509c0 34.667 7.00195 64.9971 21.002 90.9971s33 47.5 57 64.5s52 29.667 84 38s66 12.5 102 12.5c44 0 86.5 -5 127.5 -15s76.833 -23.667 107.5 -41v-170c-30 22.667 -64 39.5 -102 50.5s-77.333 16.167 -118 15.5c-34 -0.666992 -57.333 -5 -70 -13
s-19 -18.667 -19 -32c0 -15.333 9 -27.833 27 -37.5s40.5 -19.167 67.5 -28.5l87.5 -30.5c31.333 -11 60.5 -25.5 87.5 -43.5s49.5 -40.667 67.5 -68s27 -61.666 27 -102.999s-7.33301 -75.833 -22 -103.5s-34.834 -49.667 -60.501 -66s-55.5 -27.833 -89.5 -34.5
s-70 -10 -108 -10c-50.667 0 -98.834 5.5 -144.501 16.5s-87.167 26.833 -124.5 47.5v175c42 -28.667 85 -49 129 -61s86 -18 126 -18c36.667 0 63.167 3.5 79.5 10.5s24.5 19.167 24.5 36.5c0 16.667 -9 30.334 -27 41.001s-40.5 20.834 -67.5 30.501l-87.5 31
c-31.333 11 -60.5 25.5 -87.5 43.5s-49.5 40.5 -67.5 67.5s-27 61.5 -27 103.5z" />
    <glyph glyph-name="T" unicode="T" horiz-adv-x="606" 
d="M593 700v-165h-197v-535h-185v535h-198v165h580z" />
    <glyph glyph-name="U" unicode="U" horiz-adv-x="748" 
d="M689 700l0.00390625 -433c0 -52.667 -9.16699 -97 -27.5 -133s-42.333 -65 -72 -87s-63.334 -37.833 -101.001 -47.5s-75.834 -14.5 -114.501 -14.5s-76.834 4.83301 -114.501 14.5s-71.334 25.5 -101.001 47.5s-53.667 51 -72 87s-27.5 80.333 -27.5 133v433h185v-423
c0 -47.333 11.833 -80.333 35.5 -99s55.167 -28 94.5 -28s70.833 9.33301 94.5 28s35.5 51.667 35.5 99v423h185z" />
    <glyph glyph-name="V" unicode="V" horiz-adv-x="722" 
d="M266 0l-263 700h200l158 -480l158 480h200l-263 -700h-190z" />
    <glyph glyph-name="W" unicode="W" horiz-adv-x="1078" 
d="M1072 700l-214 -700h-200l-119 433l-119 -433h-200l-214 700h200l119 -492l133 492h162l133 -492l119 492h200z" />
    <glyph glyph-name="X" unicode="X" horiz-adv-x="694" 
d="M-11 0l240 364l-225 336h216l127 -206l127 206h216l-225 -336l240 -364h-216l-142 235l-142 -235h-216z" />
    <glyph glyph-name="Y" unicode="Y" horiz-adv-x="728" 
d="M272 0v239l-273 461h210l155 -289l155 289h210l-273 -461v-239h-184z" />
    <glyph glyph-name="Z" unicode="Z" horiz-adv-x="627" 
d="M30 0v125l304 410h-286v165h536v-125l-305 -410h314v-165h-563z" />
    <glyph glyph-name="bracketleft" unicode="[" horiz-adv-x="373" 
d="M71 0v700h232v-700h-232zM247 77l-0.000976562 47.999c0 21.333 -6.33301 36.833 -19 46.5s-26.667 14.167 -42 13.5c-15.333 0 -29.166 -4.66699 -41.499 -14s-18.5 -24.666 -18.5 -45.999v-48h121zM147.999 124.999c-0.666992 13.333 3.16797 22.668 11.501 28.001
s17.166 8.66602 26.499 9.99902c9.33301 0 18.333 -2.83301 27 -8.5s13 -15.5 13 -29.5v-26h-78v26zM226.001 243.001h-28v65h-21v-65h-28v67h-23v-90h121v90h-21v-67zM247.001 477.001h-121v-26l53 -39l-53 -37v-26h121v22h-87l53 39v4l-53 41h87v22zM123.001 574.001
c0 -17.333 6.00098 -32.001 18.001 -44.001s27.667 -18 47 -18c15.333 0 29.666 5 42.999 15s20 25.667 20 47s-6.83301 36.833 -20.5 46.5s-28.167 14.834 -43.5 15.501c-15.333 0 -29.833 -5 -43.5 -15s-20.5 -25.667 -20.5 -47zM188.002 534
c-12 -0.666992 -22.333 2.49902 -31 9.49902s-12.667 17.167 -12 30.5c0 14.667 4.66699 25 14 31s19 9 29 9c10 -1.33301 19.333 -4.66602 28 -9.99902s13 -15.333 13 -30s-4.33301 -25 -13 -31s-18 -9 -28 -9z" />
    <glyph glyph-name="backslash" unicode="\" horiz-adv-x="373" 
d="M71 0v700h232v-700h-232zM247 77l-0.000976562 47.999c0 21.333 -6.33301 36.833 -19 46.5s-26.667 14.167 -42 13.5c-15.333 0 -29.166 -4.66699 -41.499 -14s-18.5 -24.666 -18.5 -45.999v-48h121zM147.999 124.999c-0.666992 13.333 3.16797 22.668 11.501 28.001
s17.166 8.66602 26.499 9.99902c9.33301 0 18.333 -2.83301 27 -8.5s13 -15.5 13 -29.5v-26h-78v26zM226.001 243.001h-28v65h-21v-65h-28v67h-23v-90h121v90h-21v-67zM247.001 477.001h-121v-26l53 -39l-53 -37v-26h121v22h-87l53 39v4l-53 41h87v22zM123.001 574.001
c0 -17.333 6.00098 -32.001 18.001 -44.001s27.667 -18 47 -18c15.333 0 29.666 5 42.999 15s20 25.667 20 47s-6.83301 36.833 -20.5 46.5s-28.167 14.834 -43.5 15.501c-15.333 0 -29.833 -5 -43.5 -15s-20.5 -25.667 -20.5 -47zM188.002 534
c-12 -0.666992 -22.333 2.49902 -31 9.49902s-12.667 17.167 -12 30.5c0 14.667 4.66699 25 14 31s19 9 29 9c10 -1.33301 19.333 -4.66602 28 -9.99902s13 -15.333 13 -30s-4.33301 -25 -13 -31s-18 -9 -28 -9z" />
    <glyph glyph-name="bracketright" unicode="]" horiz-adv-x="373" 
d="M71 0v700h232v-700h-232zM247 77l-0.000976562 47.999c0 21.333 -6.33301 36.833 -19 46.5s-26.667 14.167 -42 13.5c-15.333 0 -29.166 -4.66699 -41.499 -14s-18.5 -24.666 -18.5 -45.999v-48h121zM147.999 124.999c-0.666992 13.333 3.16797 22.668 11.501 28.001
s17.166 8.66602 26.499 9.99902c9.33301 0 18.333 -2.83301 27 -8.5s13 -15.5 13 -29.5v-26h-78v26zM226.001 243.001h-28v65h-21v-65h-28v67h-23v-90h121v90h-21v-67zM247.001 477.001h-121v-26l53 -39l-53 -37v-26h121v22h-87l53 39v4l-53 41h87v22zM123.001 574.001
c0 -17.333 6.00098 -32.001 18.001 -44.001s27.667 -18 47 -18c15.333 0 29.666 5 42.999 15s20 25.667 20 47s-6.83301 36.833 -20.5 46.5s-28.167 14.834 -43.5 15.501c-15.333 0 -29.833 -5 -43.5 -15s-20.5 -25.667 -20.5 -47zM188.002 534
c-12 -0.666992 -22.333 2.49902 -31 9.49902s-12.667 17.167 -12 30.5c0 14.667 4.66699 25 14 31s19 9 29 9c10 -1.33301 19.333 -4.66602 28 -9.99902s13 -15.333 13 -30s-4.33301 -25 -13 -31s-18 -9 -28 -9z" />
    <glyph glyph-name="asciicircum" unicode="^" horiz-adv-x="373" 
d="M71 0v700h232v-700h-232zM247 77l-0.000976562 47.999c0 21.333 -6.33301 36.833 -19 46.5s-26.667 14.167 -42 13.5c-15.333 0 -29.166 -4.66699 -41.499 -14s-18.5 -24.666 -18.5 -45.999v-48h121zM147.999 124.999c-0.666992 13.333 3.16797 22.668 11.501 28.001
s17.166 8.66602 26.499 9.99902c9.33301 0 18.333 -2.83301 27 -8.5s13 -15.5 13 -29.5v-26h-78v26zM226.001 243.001h-28v65h-21v-65h-28v67h-23v-90h121v90h-21v-67zM247.001 477.001h-121v-26l53 -39l-53 -37v-26h121v22h-87l53 39v4l-53 41h87v22zM123.001 574.001
c0 -17.333 6.00098 -32.001 18.001 -44.001s27.667 -18 47 -18c15.333 0 29.666 5 42.999 15s20 25.667 20 47s-6.83301 36.833 -20.5 46.5s-28.167 14.834 -43.5 15.501c-15.333 0 -29.833 -5 -43.5 -15s-20.5 -25.667 -20.5 -47zM188.002 534
c-12 -0.666992 -22.333 2.49902 -31 9.49902s-12.667 17.167 -12 30.5c0 14.667 4.66699 25 14 31s19 9 29 9c10 -1.33301 19.333 -4.66602 28 -9.99902s13 -15.333 13 -30s-4.33301 -25 -13 -31s-18 -9 -28 -9z" />
    <glyph glyph-name="underscore" unicode="_" horiz-adv-x="373" 
d="M71 0v700h232v-700h-232zM247 77l-0.000976562 47.999c0 21.333 -6.33301 36.833 -19 46.5s-26.667 14.167 -42 13.5c-15.333 0 -29.166 -4.66699 -41.499 -14s-18.5 -24.666 -18.5 -45.999v-48h121zM147.999 124.999c-0.666992 13.333 3.16797 22.668 11.501 28.001
s17.166 8.66602 26.499 9.99902c9.33301 0 18.333 -2.83301 27 -8.5s13 -15.5 13 -29.5v-26h-78v26zM226.001 243.001h-28v65h-21v-65h-28v67h-23v-90h121v90h-21v-67zM247.001 477.001h-121v-26l53 -39l-53 -37v-26h121v22h-87l53 39v4l-53 41h87v22zM123.001 574.001
c0 -17.333 6.00098 -32.001 18.001 -44.001s27.667 -18 47 -18c15.333 0 29.666 5 42.999 15s20 25.667 20 47s-6.83301 36.833 -20.5 46.5s-28.167 14.834 -43.5 15.501c-15.333 0 -29.833 -5 -43.5 -15s-20.5 -25.667 -20.5 -47zM188.002 534
c-12 -0.666992 -22.333 2.49902 -31 9.49902s-12.667 17.167 -12 30.5c0 14.667 4.66699 25 14 31s19 9 29 9c10 -1.33301 19.333 -4.66602 28 -9.99902s13 -15.333 13 -30s-4.33301 -25 -13 -31s-18 -9 -28 -9z" />
    <glyph glyph-name="grave" unicode="`" horiz-adv-x="290" 
d="M-106 914h500v-165h-500v165zM-49 787h31c15.333 0 27 4 35 12s12 18.667 12 32c0 12 -4 22.333 -12 31s-19.667 13 -35 13h-31v-88zM-34 859h16c10 0 17.667 -2.66699 23 -8s8 -12 8 -20c0 -19.333 -10.333 -29 -31 -29h-16v57zM70 802v21h46v16h-46v20h46v16h-62v-88
h62v15h-46zM235 787v88h-21l-26 -36l-26 36h-21v-88h17v66l30 -39l31 40v-67h16zM305 880c-12.667 0 -23.332 -4.5 -31.999 -13.5s-13 -20.167 -13 -33.5c0 -12.667 3.66699 -23.667 11 -33s18.666 -14 33.999 -14c16 0 27.833 4.66699 35.5 14s11.5 20.333 11.5 33
c0 14.667 -4.5 26.167 -13.5 34.5s-20.167 12.5 -33.5 12.5zM275.002 833c0 8 2.5 15.333 7.5 22s12.5 10 22.5 10c10.667 0 18.5 -3.33301 23.5 -10s7.5 -14 7.5 -22c0 -8.66699 -2.33301 -16.167 -7 -22.5s-12.667 -9.5 -24 -9.5c-10 0 -17.5 3.5 -22.5 10.5
s-7.5 14.167 -7.5 21.5z" />
    <glyph glyph-name="a" unicode="a" horiz-adv-x="567" 
d="M505 137c0 -11.333 3.33008 -19.1641 9.99707 -23.4971s14.334 -6.5 23.001 -6.5c6.66699 0 13 1 19 3v-105c-11.333 -4.66699 -24.5 -8.33398 -39.5 -11.001s-30.5 -4 -46.5 -4c-53.333 0 -91.333 17.667 -114 53c-23.333 -18 -48.5 -32.167 -75.5 -42.5
s-57.5 -15.5 -91.5 -15.5c-23.333 0 -45 3.33301 -65 10s-37.667 16.334 -53 29.001s-27.333 28.167 -36 46.5s-13 39.166 -13 62.499c0 30 6.5 55.167 19.5 75.5s29.5 36.666 49.5 48.999s42.333 21 67 26s48.667 7.5 72 7.5c36 0 70.667 -3.66699 104 -11v17
c0 17.333 -8.16699 31.666 -24.5 42.999s-41.5 17 -75.5 17c-32 0 -62.167 -3.83301 -90.5 -11.5s-54.166 -16.167 -77.499 -25.5v143c10 3.33301 22 6.83301 36 10.5s29.333 7.16699 46 10.5s33.834 6 51.501 8s35.5 3 53.5 3c38 0 72.5 -3.66699 103.5 -11
s57.5 -19.666 79.5 -36.999s38.833 -40.333 50.5 -69s17.5 -64.334 17.5 -107.001v-134zM197.997 147.002c0 -12.667 5.16699 -23.668 15.5 -33.001s24.5 -14 42.5 -14c14 0 27.333 1.83301 40 5.5s25.667 10.167 39 19.5v65c-7.33301 2.66699 -16.5 4.83398 -27.5 6.50098
s-22.167 2.5 -33.5 2.5c-20 0 -37.667 -3.83301 -53 -11.5s-23 -21.167 -23 -40.5z" />
    <glyph glyph-name="b" unicode="b" horiz-adv-x="624" 
d="M221 700v-258.999c14.667 15.333 33.667 28.166 57 38.499s52 15.5 86 15.5c40 0 74.667 -7.5 104 -22.5s53.5 -34.5 72.5 -58.5s33 -51.333 42 -82s13.5 -61.334 13.5 -92.001c0 -31.333 -4.5 -62.166 -13.5 -92.499s-23 -57.5 -42 -81.5s-43.167 -43.5 -72.5 -58.5
s-64 -22.5 -104 -22.5c-43.333 0 -78.333 8.33301 -105 25s-46 35 -58 55v-65h-150v700h170zM421 240.001c0 14 -2 27.8311 -6 41.498s-10.167 26 -18.5 37s-19 19.833 -32 26.5s-28.5 10 -46.5 10c-23.333 0 -43.5 -6.16699 -60.5 -18.5s-29.167 -26.166 -36.5 -41.499
v-110c7.33301 -15.333 19.5 -29.166 36.5 -41.499s37.167 -18.5 60.5 -18.5c18 0 33.5 3.33301 46.5 10s23.667 15.5 32 26.5s14.5 23.333 18.5 37s6 27.5 6 41.5z" />
    <glyph glyph-name="c" unicode="c" horiz-adv-x="490" 
d="M27 230c0 47.333 8.00391 87.834 24.0039 121.501s37 61.167 63 82.5s55.667 37 89 47s67 15 101 15c26 0 51.667 -2.83301 77 -8.5s49 -13.834 71 -24.501v-145c-16.667 9.33301 -35.834 17.166 -57.501 23.499s-43.167 9.5 -64.5 9.5c-16.667 0 -32.667 -2 -48 -6
s-29 -10.333 -41 -19s-21.5 -20 -28.5 -34s-10.5 -31.333 -10.5 -52c0 -19.333 3.5 -35.833 10.5 -49.5s16.167 -25 27.5 -34s24.666 -15.667 39.999 -20s31 -6.5 47 -6.5c25.333 0 49.166 3 71.499 9s41.833 13.667 58.5 23v-145c-24 -10 -49.833 -17.833 -77.5 -23.5
s-56.834 -8.5 -87.501 -8.5c-33.333 0 -66 4.83301 -98 14.5s-60.333 24.5 -85 44.5s-44.5 45.333 -59.5 76s-22.5 67.334 -22.5 110.001z" />
    <glyph glyph-name="d" unicode="d" horiz-adv-x="623" 
d="M572 700v-700.001h-150v65c-12 -20 -31.333 -38.333 -58 -55s-61.667 -25 -105 -25c-40 0 -74.667 7.5 -104 22.5s-53.5 34.5 -72.5 58.5s-33 51.167 -42 81.5s-13.5 61.166 -13.5 92.499c0 30.667 4.5 61.334 13.5 92.001s23 58 42 82s43.167 43.5 72.5 58.5
s64 22.5 104 22.5c34 0 62.667 -5.16699 86 -15.5s42.333 -23.166 57 -38.499v259h170zM402 294.999c-7.33301 15.333 -19.5 29.168 -36.5 41.501s-37.167 18.5 -60.5 18.5c-18 0 -33.5 -3.33301 -46.5 -10s-23.667 -15.5 -32 -26.5s-14.5 -23.333 -18.5 -37
s-6 -27.5 -6 -41.5s2 -27.833 6 -41.5s10.167 -26 18.5 -37s19 -19.833 32 -26.5s28.5 -10 46.5 -10c23.333 0 43.5 6.16699 60.5 18.5s29.167 26.166 36.5 41.499v110z" />
    <glyph glyph-name="e" unicode="e" horiz-adv-x="548" 
d="M27 240c0 46.667 8.16992 86.3311 24.5029 118.998s37 59 62 79s52.333 34.5 82 43.5s57.5 13.5 83.5 13.5c51.333 0 94 -9.16699 128 -27.5s60.333 -42 79 -71s30 -61.667 34 -98s1.66699 -72.833 -7 -109.5h-314c4.66699 -13.333 12 -24.666 22 -33.999
s21.833 -17 35.5 -23s28.667 -10.333 45 -13s33.166 -4 50.499 -4c27.333 0 52.166 2 74.499 6s43.5 9.66699 63.5 17v-126c-22.667 -8 -48.5 -14.5 -77.5 -19.5s-62.5 -7.5 -100.5 -7.5c-39.333 0 -76.333 5.5 -111 16.5s-64.834 27.333 -90.501 49s-46 48.334 -61 80.001
s-22.5 68.167 -22.5 109.5zM358.003 290.997c1.33301 6 1.33301 13.499 0 22.499s-4.66602 17.833 -9.99902 26.5s-13.333 16.167 -24 22.5s-24.334 9.5 -41.001 9.5c-23.333 0 -43.5 -7.16699 -60.5 -21.5s-25.5 -34.166 -25.5 -59.499h161z" />
    <glyph glyph-name="f" unicode="f" horiz-adv-x="412" 
d="M103 0l0.000976562 340h-79v140h79v41c0 38 5.83301 69.333 17.5 94s27 44.5 46 59.5s40.5 25.5 64.5 31.5s48 9 72 9c22 0 43.167 -1.83301 63.5 -5.5s38.166 -8.16699 53.499 -13.5v-140c-9.33301 5.33301 -20.5 9.83301 -33.5 13.5s-26.5 5.5 -40.5 5.5
c-19.333 0 -36.333 -4.5 -51 -13.5s-22 -24.833 -22 -47.5v-34h128v-140h-128v-340h-170z" />
    <glyph glyph-name="g" unicode="g" horiz-adv-x="623" 
d="M27 240c0 30.667 4.49902 61.335 13.499 92.002s23 58 42 82s43.167 43.5 72.5 58.5s64 22.5 104 22.5c43.333 0 78.333 -8.33301 105 -25s46 -35 58 -55v65h150v-460c0 -48 -8 -88.333 -24 -121s-37.167 -58.834 -63.5 -78.501s-56.666 -33.834 -90.999 -42.501
s-69.5 -13 -105.5 -13c-38.667 0 -75.5 4 -110.5 12s-67.167 19 -96.5 33v145c26 -16 55 -28.333 87 -37s64.333 -13 97 -13c19.333 0 37.333 1.66699 54 5s31.167 9 43.5 17s22 18.667 29 32s10.5 30.333 10.5 51v29c-14.667 -15.333 -33.667 -28.166 -57 -38.499
s-52 -15.5 -86 -15.5c-40 0 -74.667 7.5 -104 22.5s-53.5 34.5 -72.5 58.5s-33 51.167 -42 81.5s-13.5 61.166 -13.5 92.499zM401.999 295.001c-7.33301 15.333 -19.5 29.168 -36.5 41.501s-37.167 18.5 -60.5 18.5c-18 0 -33.5 -3.33301 -46.5 -10s-23.667 -15.5 -32 -26.5
s-14.5 -23.333 -18.5 -37s-6 -27.5 -6 -41.5s2 -27.833 6 -41.5s10.167 -26 18.5 -37s19 -19.833 32 -26.5s28.5 -10 46.5 -10c23.333 0 43.5 6.16699 60.5 18.5s29.167 26.166 36.5 41.499v110z" />
    <glyph glyph-name="h" unicode="h" horiz-adv-x="592" 
d="M221 700l-0.000976562 -256c18 16 37.833 28.5 59.5 37.5s46.167 13.5 73.5 13.5c32.667 0 61.167 -5.16699 85.5 -15.5s44.333 -24.5 60 -42.5s27.334 -39 35.001 -63s11.5 -49.333 11.5 -76v-298h-170v275c0 25.333 -6.83301 44.166 -20.5 56.499
s-31.167 18.5 -52.5 18.5c-19.333 0 -36 -4.66699 -50 -14s-24.667 -18.666 -32 -27.999v-308h-170v700h170z" />
    <glyph glyph-name="i" unicode="i" horiz-adv-x="274" 
d="M52 0v480h170v-480h-170zM234 642c0 -33.333 -9.66699 -57.335 -29 -72.002s-42 -22 -68 -22c-12.667 0 -24.834 1.83301 -36.501 5.5s-22 9.33398 -31 17.001s-16.167 17.334 -21.5 29.001s-8 25.834 -8 42.501c0 16 2.66699 30 8 42s12.5 21.667 21.5 29
s19.333 12.833 31 16.5s23.834 5.5 36.501 5.5c26 0 48.667 -7.33301 68 -22s29 -38.334 29 -71.001z" />
    <glyph glyph-name="j" unicode="j" horiz-adv-x="274" 
d="M222 -57c0 -32.667 -5 -60.333 -15 -83s-23.5 -41 -40.5 -55s-36.667 -24.167 -59 -30.5s-45.833 -9.5 -70.5 -9.5c-38 0 -68.667 5 -92 15v142c16 -5.33301 32.333 -8 49 -8c16 0 29.667 4.83301 41 14.5s17 25.167 17 46.5v505h170v-537zM234 642.001
c0 -33.333 -9.66699 -57.335 -29 -72.002s-42 -22 -68 -22c-12.667 0 -24.834 1.83301 -36.501 5.5s-22 9.33398 -31 17.001s-16.167 17.334 -21.5 29.001s-8 25.834 -8 42.501c0 16 2.66699 30 8 42s12.5 21.667 21.5 29s19.333 12.833 31 16.5s23.834 5.5 36.501 5.5
c26 0 48.667 -7.33301 68 -22s29 -38.334 29 -71.001z" />
    <glyph glyph-name="k" unicode="k" horiz-adv-x="561" 
d="M375 0l-118 182h-36v-182h-170v700h170v-388h38l105 168h190l-156 -236l166 -244h-189z" />
    <glyph glyph-name="l" unicode="l" horiz-adv-x="274" 
d="M222 730v-730h-170v730h170z" />
    <glyph glyph-name="m" unicode="m" horiz-adv-x="867" 
d="M51 0v480.003h150v-51c6 7.33301 14 15 24 23s21.167 15.167 33.5 21.5s26.166 11.5 41.499 15.5s31.666 6 48.999 6c36 0 65.333 -6.33301 88 -19s40.667 -28.334 54 -47.001c19.333 18 41.666 33.5 66.999 46.5s54 19.5 86 19.5c36 0 65.5 -6.33301 88.5 -19
s41 -28.5 54 -47.5s22 -39.333 27 -61s7.5 -41.5 7.5 -59.5v-308h-170v293c0 19.333 -5.33301 33.666 -16 42.999s-23.667 14 -39 14c-11.333 0 -23.166 -2.5 -35.499 -7.5s-23.833 -12.833 -34.5 -23.5v-11v-308h-170v293c0 19.333 -5.33301 33.666 -16 42.999
s-23.667 14 -39 14c-13.333 0 -27.166 -3.5 -41.499 -10.5s-27.166 -17.5 -38.499 -31.5v-308h-170z" />
    <glyph glyph-name="n" unicode="n" horiz-adv-x="592" 
d="M201 425c20 21.333 42.499 38.333 67.499 51s53.5 19 85.5 19c32.667 0 61.167 -5.16699 85.5 -15.5s44.333 -24.5 60 -42.5s27.334 -39 35.001 -63s11.5 -49.333 11.5 -76v-298h-170v275c0 25.333 -6.83301 44.166 -20.5 56.499s-31.167 18.5 -52.5 18.5
c-19.333 0 -36 -4.66699 -50 -14s-24.667 -18.666 -32 -27.999v-308h-170v480h150v-55v0z" />
    <glyph glyph-name="o" unicode="o" horiz-adv-x="594" 
d="M27 240c0 42.667 7.33301 79.834 22 111.501s34.334 58.167 59.001 79.5s53.334 37.333 86.001 48s67 16 103 16s70.333 -5.33301 103 -16s61.334 -26.667 86.001 -48s44.334 -47.833 59.001 -79.5s22 -68.834 22 -111.501s-7.33301 -79.834 -22 -111.501
s-34.334 -58.167 -59.001 -79.5s-53.334 -37.333 -86.001 -48s-67 -16 -103 -16s-70.333 5.33301 -103 16s-61.334 26.667 -86.001 48s-44.334 47.833 -59.001 79.5s-22 68.834 -22 111.501zM392 240c0 13.333 -1.66699 26.333 -5 39s-8.83301 23.834 -16.5 33.501
s-17.5 17.5 -29.5 23.5s-26.667 9 -44 9s-32.166 -3 -44.499 -9s-22.166 -13.833 -29.499 -23.5s-12.666 -20.834 -15.999 -33.501s-5 -25.667 -5 -39s1.66699 -26.333 5 -39s8.66602 -23.834 15.999 -33.501s17.166 -17.5 29.499 -23.5s27.166 -9 44.499 -9s32 3 44 9
s21.833 13.833 29.5 23.5s13.167 20.834 16.5 33.501s5 25.667 5 39z" />
    <glyph glyph-name="p" unicode="p" horiz-adv-x="624" 
d="M201 415c12 20 31.333 38.334 58 55.001s61.667 25 105 25c40 0 74.667 -7.5 104 -22.5s53.5 -34.5 72.5 -58.5s33 -51.333 42 -82s13.5 -61.334 13.5 -92.001c0 -31.333 -4.5 -62.166 -13.5 -92.499s-23 -57.5 -42 -81.5s-43.167 -43.5 -72.5 -58.5
s-64 -22.5 -104 -22.5c-34 0 -62.667 5.16699 -86 15.5s-42.333 23.166 -57 38.499v-259h-170v700h150v-65zM421 240.001c0 14 -2 27.8311 -6 41.498s-10.167 26 -18.5 37s-19 19.833 -32 26.5s-28.5 10 -46.5 10c-23.333 0 -43.5 -6.16699 -60.5 -18.5
s-29.167 -26.166 -36.5 -41.499v-110c7.33301 -15.333 19.5 -29.166 36.5 -41.499s37.167 -18.5 60.5 -18.5c18 0 33.5 3.33301 46.5 10s23.667 15.5 32 26.5s14.5 23.333 18.5 37s6 27.5 6 41.5z" />
    <glyph glyph-name="q" unicode="q" horiz-adv-x="623" 
d="M27 240c0 30.667 4.5 61.333 13.5 92s23 58 42 82s43.167 43.5 72.5 58.5s64 22.5 104 22.5c43.333 0 78.333 -8.33301 105 -25s46 -35 58 -55v65h150v-700h-170v259c-14.667 -15.333 -33.667 -28.166 -57 -38.499s-52 -15.5 -86 -15.5c-40 0 -74.667 7.5 -104 22.5
s-53.5 34.5 -72.5 58.5s-33 51.167 -42 81.5s-13.5 61.166 -13.5 92.499zM402 294.999c-7.33301 15.333 -19.5 29.168 -36.5 41.501s-37.167 18.5 -60.5 18.5c-18 0 -33.5 -3.33301 -46.5 -10s-23.667 -15.5 -32 -26.5s-14.5 -23.333 -18.5 -37s-6 -27.5 -6 -41.5
s2 -27.833 6 -41.5s10.167 -26 18.5 -37s19 -19.833 32 -26.5s28.5 -10 46.5 -10c23.333 0 43.5 6.16699 60.5 18.5s29.167 26.166 36.5 41.499v110z" />
    <glyph glyph-name="r" unicode="r" horiz-adv-x="404" 
d="M201 415c16.667 24 40.332 43.667 70.999 59s69.667 20.666 117 15.999v-165c-34 7.33301 -66.667 6.33301 -98 -3s-54.666 -25.666 -69.999 -48.999v-273h-170v480h150v-65v0z" />
    <glyph glyph-name="s" unicode="s" horiz-adv-x="486" 
d="M34 342c0 29.333 5.83105 53.8291 17.498 73.4961s27.334 35.334 47.001 47.001s42 20 67 25s50.833 7.5 77.5 7.5c35.333 0 68 -3.83301 98 -11.5s57.667 -17.5 83 -29.5v-135c-10.667 7.33301 -22.834 14.166 -36.501 20.499s-28 11.666 -43 15.999
s-30.167 7.83301 -45.5 10.5s-30 4 -44 4c-10.667 0 -21 -1.5 -31 -4.5s-15 -9.5 -15 -19.5c0 -11.333 6.16699 -20.166 18.5 -26.499s27.833 -12.166 46.5 -17.499l61 -17.5c22 -6.33301 42.333 -15.333 61 -27s34.167 -26.834 46.5 -45.501s18.5 -42.667 18.5 -72
c0 -30 -6.33301 -55 -19 -75s-29.5 -35.833 -50.5 -47.5s-45.333 -20 -73 -25s-56.5 -7.5 -86.5 -7.5c-38 0 -73.333 3.66699 -106 11s-61.667 18.333 -87 33v135c26.667 -17.333 56.834 -30.166 90.501 -38.499s64.834 -12.5 93.501 -12.5c42 0 63 8 63 24
c0 10.667 -6.16699 19 -18.5 25s-27.833 11.833 -46.5 17.5l-61 18.5c-22 6.66699 -42.333 15.834 -61 27.501s-34.167 26.834 -46.5 45.501s-18.5 42.334 -18.5 71.001z" />
    <glyph glyph-name="t" unicode="t" horiz-adv-x="422" 
d="M259 655l0.000976562 -175.001h130v-140h-130v-156c0 -39.333 21 -59 63 -59c14 0 27 0.833008 39 2.5s24.667 4.83398 38 9.50098v-132c-38.667 -13.333 -82 -20 -130 -20c-23.333 0 -45.833 2.66699 -67.5 8s-40.834 14.333 -57.501 27s-30 29.5 -40 50.5
s-15 47.5 -15 79.5v190h-76v140h76v135z" />
    <glyph glyph-name="u" unicode="u" horiz-adv-x="592" 
d="M541 480l0.000976562 -480h-150v55c-20 -21.333 -42.5 -38.333 -67.5 -51s-53.5 -19 -85.5 -19c-33.333 0 -62 5.16699 -86 15.5s-43.833 24.5 -59.5 42.5s-27.334 38.833 -35.001 62.5s-11.5 49.167 -11.5 76.5v298h170v-275c0 -25.333 6.83301 -44.166 20.5 -56.499
s31.167 -18.5 52.5 -18.5c19.333 0 36 4.66699 50 14s24.667 18.666 32 27.999v308h170z" />
    <glyph glyph-name="v" unicode="v" horiz-adv-x="572" 
d="M566 480l-190 -480h-180l-190 480h180l100 -303l100 303h180z" />
    <glyph glyph-name="w" unicode="w" horiz-adv-x="828" 
d="M819 480l-149 -480h-180l-76 281l-76 -281h-180l-149 480h182l68 -295l73 295h164l73 -295l68 295h182z" />
    <glyph glyph-name="x" unicode="x" horiz-adv-x="552" 
d="M547 480l-172 -241l181 -239h-192l-88 124l-88 -124h-192l181 239l-172 241h192l79 -126l79 126h192z" />
    <glyph glyph-name="y" unicode="y" horiz-adv-x="577" 
d="M395 480l174.999 0.00195312l-201 -530c-14 -36 -29.333 -65.833 -46 -89.5s-34.5 -42.334 -53.5 -56.001s-38.667 -23.334 -59 -29.001s-40.833 -8.5 -61.5 -8.5c-15.333 0 -30.333 1.33301 -45 4s-29 5.66699 -43 9v140c22.667 -5.33301 44.334 -8 65.001 -8
c21.333 0 40.5 6.16699 57.5 18.5s31.167 31.5 42.5 57.5l-226 492h180l117 -286z" />
    <glyph glyph-name="z" unicode="z" horiz-adv-x="492" 
d="M448 480v-100l-194 -240h208v-140h-433v100l195 240h-181v140h405z" />
    <glyph glyph-name="braceleft" unicode="{" horiz-adv-x="373" 
d="M71 0v700h232v-700h-232zM247 77l-0.000976562 47.999c0 21.333 -6.33301 36.833 -19 46.5s-26.667 14.167 -42 13.5c-15.333 0 -29.166 -4.66699 -41.499 -14s-18.5 -24.666 -18.5 -45.999v-48h121zM147.999 124.999c-0.666992 13.333 3.16797 22.668 11.501 28.001
s17.166 8.66602 26.499 9.99902c9.33301 0 18.333 -2.83301 27 -8.5s13 -15.5 13 -29.5v-26h-78v26zM226.001 243.001h-28v65h-21v-65h-28v67h-23v-90h121v90h-21v-67zM247.001 477.001h-121v-26l53 -39l-53 -37v-26h121v22h-87l53 39v4l-53 41h87v22zM123.001 574.001
c0 -17.333 6.00098 -32.001 18.001 -44.001s27.667 -18 47 -18c15.333 0 29.666 5 42.999 15s20 25.667 20 47s-6.83301 36.833 -20.5 46.5s-28.167 14.834 -43.5 15.501c-15.333 0 -29.833 -5 -43.5 -15s-20.5 -25.667 -20.5 -47zM188.002 534
c-12 -0.666992 -22.333 2.49902 -31 9.49902s-12.667 17.167 -12 30.5c0 14.667 4.66699 25 14 31s19 9 29 9c10 -1.33301 19.333 -4.66602 28 -9.99902s13 -15.333 13 -30s-4.33301 -25 -13 -31s-18 -9 -28 -9z" />
    <glyph glyph-name="bar" unicode="|" horiz-adv-x="373" 
d="M71 0v700h232v-700h-232zM247 77l-0.000976562 47.999c0 21.333 -6.33301 36.833 -19 46.5s-26.667 14.167 -42 13.5c-15.333 0 -29.166 -4.66699 -41.499 -14s-18.5 -24.666 -18.5 -45.999v-48h121zM147.999 124.999c-0.666992 13.333 3.16797 22.668 11.501 28.001
s17.166 8.66602 26.499 9.99902c9.33301 0 18.333 -2.83301 27 -8.5s13 -15.5 13 -29.5v-26h-78v26zM226.001 243.001h-28v65h-21v-65h-28v67h-23v-90h121v90h-21v-67zM247.001 477.001h-121v-26l53 -39l-53 -37v-26h121v22h-87l53 39v4l-53 41h87v22zM123.001 574.001
c0 -17.333 6.00098 -32.001 18.001 -44.001s27.667 -18 47 -18c15.333 0 29.666 5 42.999 15s20 25.667 20 47s-6.83301 36.833 -20.5 46.5s-28.167 14.834 -43.5 15.501c-15.333 0 -29.833 -5 -43.5 -15s-20.5 -25.667 -20.5 -47zM188.002 534
c-12 -0.666992 -22.333 2.49902 -31 9.49902s-12.667 17.167 -12 30.5c0 14.667 4.66699 25 14 31s19 9 29 9c10 -1.33301 19.333 -4.66602 28 -9.99902s13 -15.333 13 -30s-4.33301 -25 -13 -31s-18 -9 -28 -9z" />
    <glyph glyph-name="braceright" unicode="}" horiz-adv-x="373" 
d="M71 0v700h232v-700h-232zM247 77l-0.000976562 47.999c0 21.333 -6.33301 36.833 -19 46.5s-26.667 14.167 -42 13.5c-15.333 0 -29.166 -4.66699 -41.499 -14s-18.5 -24.666 -18.5 -45.999v-48h121zM147.999 124.999c-0.666992 13.333 3.16797 22.668 11.501 28.001
s17.166 8.66602 26.499 9.99902c9.33301 0 18.333 -2.83301 27 -8.5s13 -15.5 13 -29.5v-26h-78v26zM226.001 243.001h-28v65h-21v-65h-28v67h-23v-90h121v90h-21v-67zM247.001 477.001h-121v-26l53 -39l-53 -37v-26h121v22h-87l53 39v4l-53 41h87v22zM123.001 574.001
c0 -17.333 6.00098 -32.001 18.001 -44.001s27.667 -18 47 -18c15.333 0 29.666 5 42.999 15s20 25.667 20 47s-6.83301 36.833 -20.5 46.5s-28.167 14.834 -43.5 15.501c-15.333 0 -29.833 -5 -43.5 -15s-20.5 -25.667 -20.5 -47zM188.002 534
c-12 -0.666992 -22.333 2.49902 -31 9.49902s-12.667 17.167 -12 30.5c0 14.667 4.66699 25 14 31s19 9 29 9c10 -1.33301 19.333 -4.66602 28 -9.99902s13 -15.333 13 -30s-4.33301 -25 -13 -31s-18 -9 -28 -9z" />
    <glyph glyph-name="asciitilde" unicode="~" horiz-adv-x="373" 
d="M71 0v700h232v-700h-232zM247 77l-0.000976562 47.999c0 21.333 -6.33301 36.833 -19 46.5s-26.667 14.167 -42 13.5c-15.333 0 -29.166 -4.66699 -41.499 -14s-18.5 -24.666 -18.5 -45.999v-48h121zM147.999 124.999c-0.666992 13.333 3.16797 22.668 11.501 28.001
s17.166 8.66602 26.499 9.99902c9.33301 0 18.333 -2.83301 27 -8.5s13 -15.5 13 -29.5v-26h-78v26zM226.001 243.001h-28v65h-21v-65h-28v67h-23v-90h121v90h-21v-67zM247.001 477.001h-121v-26l53 -39l-53 -37v-26h121v22h-87l53 39v4l-53 41h87v22zM123.001 574.001
c0 -17.333 6.00098 -32.001 18.001 -44.001s27.667 -18 47 -18c15.333 0 29.666 5 42.999 15s20 25.667 20 47s-6.83301 36.833 -20.5 46.5s-28.167 14.834 -43.5 15.501c-15.333 0 -29.833 -5 -43.5 -15s-20.5 -25.667 -20.5 -47zM188.002 534
c-12 -0.666992 -22.333 2.49902 -31 9.49902s-12.667 17.167 -12 30.5c0 14.667 4.66699 25 14 31s19 9 29 9c10 -1.33301 19.333 -4.66602 28 -9.99902s13 -15.333 13 -30s-4.33301 -25 -13 -31s-18 -9 -28 -9z" />
    <glyph glyph-name="exclamdown" unicode="&#xa1;" horiz-adv-x="373" 
d="M71 0v700h232v-700h-232zM247 77l-0.000976562 47.999c0 21.333 -6.33301 36.833 -19 46.5s-26.667 14.167 -42 13.5c-15.333 0 -29.166 -4.66699 -41.499 -14s-18.5 -24.666 -18.5 -45.999v-48h121zM147.999 124.999c-0.666992 13.333 3.16797 22.668 11.501 28.001
s17.166 8.66602 26.499 9.99902c9.33301 0 18.333 -2.83301 27 -8.5s13 -15.5 13 -29.5v-26h-78v26zM226.001 243.001h-28v65h-21v-65h-28v67h-23v-90h121v90h-21v-67zM247.001 477.001h-121v-26l53 -39l-53 -37v-26h121v22h-87l53 39v4l-53 41h87v22zM123.001 574.001
c0 -17.333 6.00098 -32.001 18.001 -44.001s27.667 -18 47 -18c15.333 0 29.666 5 42.999 15s20 25.667 20 47s-6.83301 36.833 -20.5 46.5s-28.167 14.834 -43.5 15.501c-15.333 0 -29.833 -5 -43.5 -15s-20.5 -25.667 -20.5 -47zM188.002 534
c-12 -0.666992 -22.333 2.49902 -31 9.49902s-12.667 17.167 -12 30.5c0 14.667 4.66699 25 14 31s19 9 29 9c10 -1.33301 19.333 -4.66602 28 -9.99902s13 -15.333 13 -30s-4.33301 -25 -13 -31s-18 -9 -28 -9z" />
    <glyph glyph-name="cent" unicode="&#xa2;" horiz-adv-x="373" 
d="M71 0v700h232v-700h-232zM247 77l-0.000976562 47.999c0 21.333 -6.33301 36.833 -19 46.5s-26.667 14.167 -42 13.5c-15.333 0 -29.166 -4.66699 -41.499 -14s-18.5 -24.666 -18.5 -45.999v-48h121zM147.999 124.999c-0.666992 13.333 3.16797 22.668 11.501 28.001
s17.166 8.66602 26.499 9.99902c9.33301 0 18.333 -2.83301 27 -8.5s13 -15.5 13 -29.5v-26h-78v26zM226.001 243.001h-28v65h-21v-65h-28v67h-23v-90h121v90h-21v-67zM247.001 477.001h-121v-26l53 -39l-53 -37v-26h121v22h-87l53 39v4l-53 41h87v22zM123.001 574.001
c0 -17.333 6.00098 -32.001 18.001 -44.001s27.667 -18 47 -18c15.333 0 29.666 5 42.999 15s20 25.667 20 47s-6.83301 36.833 -20.5 46.5s-28.167 14.834 -43.5 15.501c-15.333 0 -29.833 -5 -43.5 -15s-20.5 -25.667 -20.5 -47zM188.002 534
c-12 -0.666992 -22.333 2.49902 -31 9.49902s-12.667 17.167 -12 30.5c0 14.667 4.66699 25 14 31s19 9 29 9c10 -1.33301 19.333 -4.66602 28 -9.99902s13 -15.333 13 -30s-4.33301 -25 -13 -31s-18 -9 -28 -9z" />
    <glyph glyph-name="sterling" unicode="&#xa3;" horiz-adv-x="373" 
d="M71 0v700h232v-700h-232zM247 77l-0.000976562 47.999c0 21.333 -6.33301 36.833 -19 46.5s-26.667 14.167 -42 13.5c-15.333 0 -29.166 -4.66699 -41.499 -14s-18.5 -24.666 -18.5 -45.999v-48h121zM147.999 124.999c-0.666992 13.333 3.16797 22.668 11.501 28.001
s17.166 8.66602 26.499 9.99902c9.33301 0 18.333 -2.83301 27 -8.5s13 -15.5 13 -29.5v-26h-78v26zM226.001 243.001h-28v65h-21v-65h-28v67h-23v-90h121v90h-21v-67zM247.001 477.001h-121v-26l53 -39l-53 -37v-26h121v22h-87l53 39v4l-53 41h87v22zM123.001 574.001
c0 -17.333 6.00098 -32.001 18.001 -44.001s27.667 -18 47 -18c15.333 0 29.666 5 42.999 15s20 25.667 20 47s-6.83301 36.833 -20.5 46.5s-28.167 14.834 -43.5 15.501c-15.333 0 -29.833 -5 -43.5 -15s-20.5 -25.667 -20.5 -47zM188.002 534
c-12 -0.666992 -22.333 2.49902 -31 9.49902s-12.667 17.167 -12 30.5c0 14.667 4.66699 25 14 31s19 9 29 9c10 -1.33301 19.333 -4.66602 28 -9.99902s13 -15.333 13 -30s-4.33301 -25 -13 -31s-18 -9 -28 -9z" />
    <glyph glyph-name="currency" unicode="&#xa4;" horiz-adv-x="371" 
d="M71 0v700h232v-700h-232zM247 77l-0.000976562 47.999c0 21.333 -6.33301 36.833 -19 46.5s-26.667 14.167 -42 13.5c-15.333 0 -29.166 -4.66699 -41.499 -14s-18.5 -24.666 -18.5 -45.999v-48h121zM147.999 124.999c-0.666992 13.333 3.16797 22.668 11.501 28.001
s17.166 8.66602 26.499 9.99902c9.33301 0 18.333 -2.83301 27 -8.5s13 -15.5 13 -29.5v-26h-78v26zM226.001 243.001h-28v65h-21v-65h-28v67h-23v-90h121v90h-21v-67zM247.001 477.001h-121v-26l53 -39l-53 -37v-26h121v22h-87l53 39v4l-53 41h87v22zM123.001 574.001
c0 -17.333 6.00098 -32.001 18.001 -44.001s27.667 -18 47 -18c15.333 0 29.666 5 42.999 15s20 25.667 20 47s-6.83301 36.833 -20.5 46.5s-28.167 14.834 -43.5 15.501c-15.333 0 -29.833 -5 -43.5 -15s-20.5 -25.667 -20.5 -47zM188.002 534
c-12 -0.666992 -22.333 2.49902 -31 9.49902s-12.667 17.167 -12 30.5c0 14.667 4.66699 25 14 31s19 9 29 9c10 -1.33301 19.333 -4.66602 28 -9.99902s13 -15.333 13 -30s-4.33301 -25 -13 -31s-18 -9 -28 -9z" />
    <glyph glyph-name="yen" unicode="&#xa5;" 
d="M71 0v700h232v-700h-232zM247 77l-0.000976562 47.999c0 21.333 -6.33301 36.833 -19 46.5s-26.667 14.167 -42 13.5c-15.333 0 -29.166 -4.66699 -41.499 -14s-18.5 -24.666 -18.5 -45.999v-48h121zM147.999 124.999c-0.666992 13.333 3.16797 22.668 11.501 28.001
s17.166 8.66602 26.499 9.99902c9.33301 0 18.333 -2.83301 27 -8.5s13 -15.5 13 -29.5v-26h-78v26zM226.001 243.001h-28v65h-21v-65h-28v67h-23v-90h121v90h-21v-67zM247.001 477.001h-121v-26l53 -39l-53 -37v-26h121v22h-87l53 39v4l-53 41h87v22zM123.001 574.001
c0 -17.333 6.00098 -32.001 18.001 -44.001s27.667 -18 47 -18c15.333 0 29.666 5 42.999 15s20 25.667 20 47s-6.83301 36.833 -20.5 46.5s-28.167 14.834 -43.5 15.501c-15.333 0 -29.833 -5 -43.5 -15s-20.5 -25.667 -20.5 -47zM188.002 534
c-12 -0.666992 -22.333 2.49902 -31 9.49902s-12.667 17.167 -12 30.5c0 14.667 4.66699 25 14 31s19 9 29 9c10 -1.33301 19.333 -4.66602 28 -9.99902s13 -15.333 13 -30s-4.33301 -25 -13 -31s-18 -9 -28 -9z" />
    <glyph glyph-name="brokenbar" unicode="&#xa6;" horiz-adv-x="373" 
d="M71 0v700h232v-700h-232zM247 77l-0.000976562 47.999c0 21.333 -6.33301 36.833 -19 46.5s-26.667 14.167 -42 13.5c-15.333 0 -29.166 -4.66699 -41.499 -14s-18.5 -24.666 -18.5 -45.999v-48h121zM147.999 124.999c-0.666992 13.333 3.16797 22.668 11.501 28.001
s17.166 8.66602 26.499 9.99902c9.33301 0 18.333 -2.83301 27 -8.5s13 -15.5 13 -29.5v-26h-78v26zM226.001 243.001h-28v65h-21v-65h-28v67h-23v-90h121v90h-21v-67zM247.001 477.001h-121v-26l53 -39l-53 -37v-26h121v22h-87l53 39v4l-53 41h87v22zM123.001 574.001
c0 -17.333 6.00098 -32.001 18.001 -44.001s27.667 -18 47 -18c15.333 0 29.666 5 42.999 15s20 25.667 20 47s-6.83301 36.833 -20.5 46.5s-28.167 14.834 -43.5 15.501c-15.333 0 -29.833 -5 -43.5 -15s-20.5 -25.667 -20.5 -47zM188.002 534
c-12 -0.666992 -22.333 2.49902 -31 9.49902s-12.667 17.167 -12 30.5c0 14.667 4.66699 25 14 31s19 9 29 9c10 -1.33301 19.333 -4.66602 28 -9.99902s13 -15.333 13 -30s-4.33301 -25 -13 -31s-18 -9 -28 -9z" />
    <glyph glyph-name="section" unicode="&#xa7;" 
d="M71 0v700h232v-700h-232zM247 77l-0.000976562 47.999c0 21.333 -6.33301 36.833 -19 46.5s-26.667 14.167 -42 13.5c-15.333 0 -29.166 -4.66699 -41.499 -14s-18.5 -24.666 -18.5 -45.999v-48h121zM147.999 124.999c-0.666992 13.333 3.16797 22.668 11.501 28.001
s17.166 8.66602 26.499 9.99902c9.33301 0 18.333 -2.83301 27 -8.5s13 -15.5 13 -29.5v-26h-78v26zM226.001 243.001h-28v65h-21v-65h-28v67h-23v-90h121v90h-21v-67zM247.001 477.001h-121v-26l53 -39l-53 -37v-26h121v22h-87l53 39v4l-53 41h87v22zM123.001 574.001
c0 -17.333 6.00098 -32.001 18.001 -44.001s27.667 -18 47 -18c15.333 0 29.666 5 42.999 15s20 25.667 20 47s-6.83301 36.833 -20.5 46.5s-28.167 14.834 -43.5 15.501c-15.333 0 -29.833 -5 -43.5 -15s-20.5 -25.667 -20.5 -47zM188.002 534
c-12 -0.666992 -22.333 2.49902 -31 9.49902s-12.667 17.167 -12 30.5c0 14.667 4.66699 25 14 31s19 9 29 9c10 -1.33301 19.333 -4.66602 28 -9.99902s13 -15.333 13 -30s-4.33301 -25 -13 -31s-18 -9 -28 -9z" />
    <glyph glyph-name="dieresis" unicode="&#xa8;" horiz-adv-x="370" 
d="M-61 914h500v-165h-500v165zM-4 787h31c15.333 0 27 4 35 12s12 18.667 12 32c0 12 -4 22.333 -12 31s-19.667 13 -35 13h-31v-88zM11 859h16c10 0 17.667 -2.66699 23 -8s8 -12 8 -20c0 -19.333 -10.333 -29 -31 -29h-16v57zM115 802v21h46v16h-46v20h46v16h-62v-88h62
v15h-46zM280 787v88h-21l-26 -36l-26 36h-21v-88h17v66l30 -39l31 40v-67h16zM350 880c-12.667 0 -23.332 -4.5 -31.999 -13.5s-13 -20.167 -13 -33.5c0 -12.667 3.66699 -23.667 11 -33s18.666 -14 33.999 -14c16 0 27.833 4.66699 35.5 14s11.5 20.333 11.5 33
c0 14.667 -4.5 26.167 -13.5 34.5s-20.167 12.5 -33.5 12.5zM320.002 833c0 8 2.5 15.333 7.5 22s12.5 10 22.5 10c10.667 0 18.5 -3.33301 23.5 -10s7.5 -14 7.5 -22c0 -8.66699 -2.33301 -16.167 -7 -22.5s-12.667 -9.5 -24 -9.5c-10 0 -17.5 3.5 -22.5 10.5
s-7.5 14.167 -7.5 21.5z" />
    <glyph glyph-name="copyright" unicode="&#xa9;" 
d="M71 0v700h232v-700h-232zM247 77l-0.000976562 47.999c0 21.333 -6.33301 36.833 -19 46.5s-26.667 14.167 -42 13.5c-15.333 0 -29.166 -4.66699 -41.499 -14s-18.5 -24.666 -18.5 -45.999v-48h121zM147.999 124.999c-0.666992 13.333 3.16797 22.668 11.501 28.001
s17.166 8.66602 26.499 9.99902c9.33301 0 18.333 -2.83301 27 -8.5s13 -15.5 13 -29.5v-26h-78v26zM226.001 243.001h-28v65h-21v-65h-28v67h-23v-90h121v90h-21v-67zM247.001 477.001h-121v-26l53 -39l-53 -37v-26h121v22h-87l53 39v4l-53 41h87v22zM123.001 574.001
c0 -17.333 6.00098 -32.001 18.001 -44.001s27.667 -18 47 -18c15.333 0 29.666 5 42.999 15s20 25.667 20 47s-6.83301 36.833 -20.5 46.5s-28.167 14.834 -43.5 15.501c-15.333 0 -29.833 -5 -43.5 -15s-20.5 -25.667 -20.5 -47zM188.002 534
c-12 -0.666992 -22.333 2.49902 -31 9.49902s-12.667 17.167 -12 30.5c0 14.667 4.66699 25 14 31s19 9 29 9c10 -1.33301 19.333 -4.66602 28 -9.99902s13 -15.333 13 -30s-4.33301 -25 -13 -31s-18 -9 -28 -9z" />
    <glyph glyph-name="guillemotleft" unicode="&#xab;" horiz-adv-x="373" 
d="M71 0v700h232v-700h-232zM247 77l-0.000976562 47.999c0 21.333 -6.33301 36.833 -19 46.5s-26.667 14.167 -42 13.5c-15.333 0 -29.166 -4.66699 -41.499 -14s-18.5 -24.666 -18.5 -45.999v-48h121zM147.999 124.999c-0.666992 13.333 3.16797 22.668 11.501 28.001
s17.166 8.66602 26.499 9.99902c9.33301 0 18.333 -2.83301 27 -8.5s13 -15.5 13 -29.5v-26h-78v26zM226.001 243.001h-28v65h-21v-65h-28v67h-23v-90h121v90h-21v-67zM247.001 477.001h-121v-26l53 -39l-53 -37v-26h121v22h-87l53 39v4l-53 41h87v22zM123.001 574.001
c0 -17.333 6.00098 -32.001 18.001 -44.001s27.667 -18 47 -18c15.333 0 29.666 5 42.999 15s20 25.667 20 47s-6.83301 36.833 -20.5 46.5s-28.167 14.834 -43.5 15.501c-15.333 0 -29.833 -5 -43.5 -15s-20.5 -25.667 -20.5 -47zM188.002 534
c-12 -0.666992 -22.333 2.49902 -31 9.49902s-12.667 17.167 -12 30.5c0 14.667 4.66699 25 14 31s19 9 29 9c10 -1.33301 19.333 -4.66602 28 -9.99902s13 -15.333 13 -30s-4.33301 -25 -13 -31s-18 -9 -28 -9z" />
    <glyph glyph-name="logicalnot" unicode="&#xac;" horiz-adv-x="377" 
d="M71 0v700h232v-700h-232zM247 77l-0.000976562 47.999c0 21.333 -6.33301 36.833 -19 46.5s-26.667 14.167 -42 13.5c-15.333 0 -29.166 -4.66699 -41.499 -14s-18.5 -24.666 -18.5 -45.999v-48h121zM147.999 124.999c-0.666992 13.333 3.16797 22.668 11.501 28.001
s17.166 8.66602 26.499 9.99902c9.33301 0 18.333 -2.83301 27 -8.5s13 -15.5 13 -29.5v-26h-78v26zM226.001 243.001h-28v65h-21v-65h-28v67h-23v-90h121v90h-21v-67zM247.001 477.001h-121v-26l53 -39l-53 -37v-26h121v22h-87l53 39v4l-53 41h87v22zM123.001 574.001
c0 -17.333 6.00098 -32.001 18.001 -44.001s27.667 -18 47 -18c15.333 0 29.666 5 42.999 15s20 25.667 20 47s-6.83301 36.833 -20.5 46.5s-28.167 14.834 -43.5 15.501c-15.333 0 -29.833 -5 -43.5 -15s-20.5 -25.667 -20.5 -47zM188.002 534
c-12 -0.666992 -22.333 2.49902 -31 9.49902s-12.667 17.167 -12 30.5c0 14.667 4.66699 25 14 31s19 9 29 9c10 -1.33301 19.333 -4.66602 28 -9.99902s13 -15.333 13 -30s-4.33301 -25 -13 -31s-18 -9 -28 -9z" />
    <glyph glyph-name="registered" unicode="&#xae;" horiz-adv-x="373" 
d="M71 0v700h232v-700h-232zM247 77l-0.000976562 47.999c0 21.333 -6.33301 36.833 -19 46.5s-26.667 14.167 -42 13.5c-15.333 0 -29.166 -4.66699 -41.499 -14s-18.5 -24.666 -18.5 -45.999v-48h121zM147.999 124.999c-0.666992 13.333 3.16797 22.668 11.501 28.001
s17.166 8.66602 26.499 9.99902c9.33301 0 18.333 -2.83301 27 -8.5s13 -15.5 13 -29.5v-26h-78v26zM226.001 243.001h-28v65h-21v-65h-28v67h-23v-90h121v90h-21v-67zM247.001 477.001h-121v-26l53 -39l-53 -37v-26h121v22h-87l53 39v4l-53 41h87v22zM123.001 574.001
c0 -17.333 6.00098 -32.001 18.001 -44.001s27.667 -18 47 -18c15.333 0 29.666 5 42.999 15s20 25.667 20 47s-6.83301 36.833 -20.5 46.5s-28.167 14.834 -43.5 15.501c-15.333 0 -29.833 -5 -43.5 -15s-20.5 -25.667 -20.5 -47zM188.002 534
c-12 -0.666992 -22.333 2.49902 -31 9.49902s-12.667 17.167 -12 30.5c0 14.667 4.66699 25 14 31s19 9 29 9c10 -1.33301 19.333 -4.66602 28 -9.99902s13 -15.333 13 -30s-4.33301 -25 -13 -31s-18 -9 -28 -9z" />
    <glyph glyph-name="macron" unicode="&#xaf;" horiz-adv-x="360" 
d="M-61 914h500v-165h-500v165zM-4 787h31c15.333 0 27 4 35 12s12 18.667 12 32c0 12 -4 22.333 -12 31s-19.667 13 -35 13h-31v-88zM11 859h16c10 0 17.667 -2.66699 23 -8s8 -12 8 -20c0 -19.333 -10.333 -29 -31 -29h-16v57zM115 802v21h46v16h-46v20h46v16h-62v-88h62
v15h-46zM280 787v88h-21l-26 -36l-26 36h-21v-88h17v66l30 -39l31 40v-67h16zM350 880c-12.667 0 -23.332 -4.5 -31.999 -13.5s-13 -20.167 -13 -33.5c0 -12.667 3.66699 -23.667 11 -33s18.666 -14 33.999 -14c16 0 27.833 4.66699 35.5 14s11.5 20.333 11.5 33
c0 14.667 -4.5 26.167 -13.5 34.5s-20.167 12.5 -33.5 12.5zM320.002 833c0 8 2.5 15.333 7.5 22s12.5 10 22.5 10c10.667 0 18.5 -3.33301 23.5 -10s7.5 -14 7.5 -22c0 -8.66699 -2.33301 -16.167 -7 -22.5s-12.667 -9.5 -24 -9.5c-10 0 -17.5 3.5 -22.5 10.5
s-7.5 14.167 -7.5 21.5z" />
    <glyph glyph-name="degree" unicode="&#xb0;" horiz-adv-x="430" 
d="M-42 914h500v-165h-500v165zM15 787h31c15.333 0 27 4 35 12s12 18.667 12 32c0 12 -4 22.333 -12 31s-19.667 13 -35 13h-31v-88zM30 859h16c10 0 17.667 -2.66699 23 -8s8 -12 8 -20c0 -19.333 -10.333 -29 -31 -29h-16v57zM134 802v21h46v16h-46v20h46v16h-62v-88h62
v15h-46zM299 787v88h-21l-26 -36l-26 36h-21v-88h17v66l30 -39l31 40v-67h16zM369 880c-12.667 0 -23.332 -4.5 -31.999 -13.5s-13 -20.167 -13 -33.5c0 -12.667 3.66699 -23.667 11 -33s18.666 -14 33.999 -14c16 0 27.833 4.66699 35.5 14s11.5 20.333 11.5 33
c0 14.667 -4.5 26.167 -13.5 34.5s-20.167 12.5 -33.5 12.5zM339.002 833c0 8 2.5 15.333 7.5 22s12.5 10 22.5 10c10.667 0 18.5 -3.33301 23.5 -10s7.5 -14 7.5 -22c0 -8.66699 -2.33301 -16.167 -7 -22.5s-12.667 -9.5 -24 -9.5c-10 0 -17.5 3.5 -22.5 10.5
s-7.5 14.167 -7.5 21.5z" />
    <glyph glyph-name="plusminus" unicode="&#xb1;" horiz-adv-x="373" 
d="M71 0v700h232v-700h-232zM247 77l-0.000976562 47.999c0 21.333 -6.33301 36.833 -19 46.5s-26.667 14.167 -42 13.5c-15.333 0 -29.166 -4.66699 -41.499 -14s-18.5 -24.666 -18.5 -45.999v-48h121zM147.999 124.999c-0.666992 13.333 3.16797 22.668 11.501 28.001
s17.166 8.66602 26.499 9.99902c9.33301 0 18.333 -2.83301 27 -8.5s13 -15.5 13 -29.5v-26h-78v26zM226.001 243.001h-28v65h-21v-65h-28v67h-23v-90h121v90h-21v-67zM247.001 477.001h-121v-26l53 -39l-53 -37v-26h121v22h-87l53 39v4l-53 41h87v22zM123.001 574.001
c0 -17.333 6.00098 -32.001 18.001 -44.001s27.667 -18 47 -18c15.333 0 29.666 5 42.999 15s20 25.667 20 47s-6.83301 36.833 -20.5 46.5s-28.167 14.834 -43.5 15.501c-15.333 0 -29.833 -5 -43.5 -15s-20.5 -25.667 -20.5 -47zM188.002 534
c-12 -0.666992 -22.333 2.49902 -31 9.49902s-12.667 17.167 -12 30.5c0 14.667 4.66699 25 14 31s19 9 29 9c10 -1.33301 19.333 -4.66602 28 -9.99902s13 -15.333 13 -30s-4.33301 -25 -13 -31s-18 -9 -28 -9z" />
    <glyph glyph-name="two.sups" unicode="&#xb2;" 
d="M71 0v700h232v-700h-232zM247 77l-0.000976562 47.999c0 21.333 -6.33301 36.833 -19 46.5s-26.667 14.167 -42 13.5c-15.333 0 -29.166 -4.66699 -41.499 -14s-18.5 -24.666 -18.5 -45.999v-48h121zM147.999 124.999c-0.666992 13.333 3.16797 22.668 11.501 28.001
s17.166 8.66602 26.499 9.99902c9.33301 0 18.333 -2.83301 27 -8.5s13 -15.5 13 -29.5v-26h-78v26zM226.001 243.001h-28v65h-21v-65h-28v67h-23v-90h121v90h-21v-67zM247.001 477.001h-121v-26l53 -39l-53 -37v-26h121v22h-87l53 39v4l-53 41h87v22zM123.001 574.001
c0 -17.333 6.00098 -32.001 18.001 -44.001s27.667 -18 47 -18c15.333 0 29.666 5 42.999 15s20 25.667 20 47s-6.83301 36.833 -20.5 46.5s-28.167 14.834 -43.5 15.501c-15.333 0 -29.833 -5 -43.5 -15s-20.5 -25.667 -20.5 -47zM188.002 534
c-12 -0.666992 -22.333 2.49902 -31 9.49902s-12.667 17.167 -12 30.5c0 14.667 4.66699 25 14 31s19 9 29 9c10 -1.33301 19.333 -4.66602 28 -9.99902s13 -15.333 13 -30s-4.33301 -25 -13 -31s-18 -9 -28 -9z" />
    <glyph glyph-name="three.sups" unicode="&#xb3;" 
d="M71 0v700h232v-700h-232zM247 77l-0.000976562 47.999c0 21.333 -6.33301 36.833 -19 46.5s-26.667 14.167 -42 13.5c-15.333 0 -29.166 -4.66699 -41.499 -14s-18.5 -24.666 -18.5 -45.999v-48h121zM147.999 124.999c-0.666992 13.333 3.16797 22.668 11.501 28.001
s17.166 8.66602 26.499 9.99902c9.33301 0 18.333 -2.83301 27 -8.5s13 -15.5 13 -29.5v-26h-78v26zM226.001 243.001h-28v65h-21v-65h-28v67h-23v-90h121v90h-21v-67zM247.001 477.001h-121v-26l53 -39l-53 -37v-26h121v22h-87l53 39v4l-53 41h87v22zM123.001 574.001
c0 -17.333 6.00098 -32.001 18.001 -44.001s27.667 -18 47 -18c15.333 0 29.666 5 42.999 15s20 25.667 20 47s-6.83301 36.833 -20.5 46.5s-28.167 14.834 -43.5 15.501c-15.333 0 -29.833 -5 -43.5 -15s-20.5 -25.667 -20.5 -47zM188.002 534
c-12 -0.666992 -22.333 2.49902 -31 9.49902s-12.667 17.167 -12 30.5c0 14.667 4.66699 25 14 31s19 9 29 9c10 -1.33301 19.333 -4.66602 28 -9.99902s13 -15.333 13 -30s-4.33301 -25 -13 -31s-18 -9 -28 -9z" />
    <glyph glyph-name="acute" unicode="&#xb4;" horiz-adv-x="270" 
d="M-134 914h500v-165h-500v165zM-77 787h31c15.333 0 27 4 35 12s12 18.667 12 32c0 12 -4 22.333 -12 31s-19.667 13 -35 13h-31v-88zM-62 859h16c10 0 17.667 -2.66699 23 -8s8 -12 8 -20c0 -19.333 -10.333 -29 -31 -29h-16v57zM42 802v21h46v16h-46v20h46v16h-62v-88
h62v15h-46zM207 787v88h-21l-26 -36l-26 36h-21v-88h17v66l30 -39l31 40v-67h16zM277 880c-12.667 0 -23.332 -4.5 -31.999 -13.5s-13 -20.167 -13 -33.5c0 -12.667 3.66699 -23.667 11 -33s18.666 -14 33.999 -14c16 0 27.833 4.66699 35.5 14s11.5 20.333 11.5 33
c0 14.667 -4.5 26.167 -13.5 34.5s-20.167 12.5 -33.5 12.5zM247.002 833c0 8 2.5 15.333 7.5 22s12.5 10 22.5 10c10.667 0 18.5 -3.33301 23.5 -10s7.5 -14 7.5 -22c0 -8.66699 -2.33301 -16.167 -7 -22.5s-12.667 -9.5 -24 -9.5c-10 0 -17.5 3.5 -22.5 10.5
s-7.5 14.167 -7.5 21.5z" />
    <glyph glyph-name="paragraph" unicode="&#xb6;" 
d="M71 0v700h232v-700h-232zM247 77l-0.000976562 47.999c0 21.333 -6.33301 36.833 -19 46.5s-26.667 14.167 -42 13.5c-15.333 0 -29.166 -4.66699 -41.499 -14s-18.5 -24.666 -18.5 -45.999v-48h121zM147.999 124.999c-0.666992 13.333 3.16797 22.668 11.501 28.001
s17.166 8.66602 26.499 9.99902c9.33301 0 18.333 -2.83301 27 -8.5s13 -15.5 13 -29.5v-26h-78v26zM226.001 243.001h-28v65h-21v-65h-28v67h-23v-90h121v90h-21v-67zM247.001 477.001h-121v-26l53 -39l-53 -37v-26h121v22h-87l53 39v4l-53 41h87v22zM123.001 574.001
c0 -17.333 6.00098 -32.001 18.001 -44.001s27.667 -18 47 -18c15.333 0 29.666 5 42.999 15s20 25.667 20 47s-6.83301 36.833 -20.5 46.5s-28.167 14.834 -43.5 15.501c-15.333 0 -29.833 -5 -43.5 -15s-20.5 -25.667 -20.5 -47zM188.002 534
c-12 -0.666992 -22.333 2.49902 -31 9.49902s-12.667 17.167 -12 30.5c0 14.667 4.66699 25 14 31s19 9 29 9c10 -1.33301 19.333 -4.66602 28 -9.99902s13 -15.333 13 -30s-4.33301 -25 -13 -31s-18 -9 -28 -9z" />
    <glyph glyph-name="periodcentered" unicode="&#xb7;" 
d="M71 0v700h232v-700h-232zM247 77l-0.000976562 47.999c0 21.333 -6.33301 36.833 -19 46.5s-26.667 14.167 -42 13.5c-15.333 0 -29.166 -4.66699 -41.499 -14s-18.5 -24.666 -18.5 -45.999v-48h121zM147.999 124.999c-0.666992 13.333 3.16797 22.668 11.501 28.001
s17.166 8.66602 26.499 9.99902c9.33301 0 18.333 -2.83301 27 -8.5s13 -15.5 13 -29.5v-26h-78v26zM226.001 243.001h-28v65h-21v-65h-28v67h-23v-90h121v90h-21v-67zM247.001 477.001h-121v-26l53 -39l-53 -37v-26h121v22h-87l53 39v4l-53 41h87v22zM123.001 574.001
c0 -17.333 6.00098 -32.001 18.001 -44.001s27.667 -18 47 -18c15.333 0 29.666 5 42.999 15s20 25.667 20 47s-6.83301 36.833 -20.5 46.5s-28.167 14.834 -43.5 15.501c-15.333 0 -29.833 -5 -43.5 -15s-20.5 -25.667 -20.5 -47zM188.002 534
c-12 -0.666992 -22.333 2.49902 -31 9.49902s-12.667 17.167 -12 30.5c0 14.667 4.66699 25 14 31s19 9 29 9c10 -1.33301 19.333 -4.66602 28 -9.99902s13 -15.333 13 -30s-4.33301 -25 -13 -31s-18 -9 -28 -9z" />
    <glyph glyph-name="cedilla" unicode="&#xb8;" horiz-adv-x="225" 
d="M-147 -27h500v-165h-500v165zM-90 -154h31c15.333 0 27 4 35 12s12 18.667 12 32c0 12 -4 22.333 -12 31s-19.667 13 -35 13h-31v-88zM-75 -82h16c10 0 17.667 -2.66699 23 -8s8 -12 8 -20c0 -19.333 -10.333 -29 -31 -29h-16v57zM29 -139v21h46v16h-46v20h46v16h-62v-88
h62v15h-46zM194 -154v88h-21l-26 -36l-26 36h-21v-88h17v66l30 -39l31 40v-67h16zM264 -61c-12.667 0 -23.332 -4.5 -31.999 -13.5s-13 -20.167 -13 -33.5c0 -12.667 3.66699 -23.667 11 -33s18.666 -14 33.999 -14c16 0 27.833 4.66699 35.5 14s11.5 20.333 11.5 33
c0 14.667 -4.5 26.167 -13.5 34.5s-20.167 12.5 -33.5 12.5zM234.002 -108c0 8 2.5 15.333 7.5 22s12.5 10 22.5 10c10.667 0 18.5 -3.33301 23.5 -10s7.5 -14 7.5 -22c0 -8.66699 -2.33301 -16.167 -7 -22.5s-12.667 -9.5 -24 -9.5c-10 0 -17.5 3.5 -22.5 10.5
s-7.5 14.167 -7.5 21.5z" />
    <glyph glyph-name="one.sups" unicode="&#xb9;" 
d="M71 0v700h232v-700h-232zM247 77l-0.000976562 47.999c0 21.333 -6.33301 36.833 -19 46.5s-26.667 14.167 -42 13.5c-15.333 0 -29.166 -4.66699 -41.499 -14s-18.5 -24.666 -18.5 -45.999v-48h121zM147.999 124.999c-0.666992 13.333 3.16797 22.668 11.501 28.001
s17.166 8.66602 26.499 9.99902c9.33301 0 18.333 -2.83301 27 -8.5s13 -15.5 13 -29.5v-26h-78v26zM226.001 243.001h-28v65h-21v-65h-28v67h-23v-90h121v90h-21v-67zM247.001 477.001h-121v-26l53 -39l-53 -37v-26h121v22h-87l53 39v4l-53 41h87v22zM123.001 574.001
c0 -17.333 6.00098 -32.001 18.001 -44.001s27.667 -18 47 -18c15.333 0 29.666 5 42.999 15s20 25.667 20 47s-6.83301 36.833 -20.5 46.5s-28.167 14.834 -43.5 15.501c-15.333 0 -29.833 -5 -43.5 -15s-20.5 -25.667 -20.5 -47zM188.002 534
c-12 -0.666992 -22.333 2.49902 -31 9.49902s-12.667 17.167 -12 30.5c0 14.667 4.66699 25 14 31s19 9 29 9c10 -1.33301 19.333 -4.66602 28 -9.99902s13 -15.333 13 -30s-4.33301 -25 -13 -31s-18 -9 -28 -9z" />
    <glyph glyph-name="guillemotright" unicode="&#xbb;" 
d="M71 0v700h232v-700h-232zM247 77l-0.000976562 47.999c0 21.333 -6.33301 36.833 -19 46.5s-26.667 14.167 -42 13.5c-15.333 0 -29.166 -4.66699 -41.499 -14s-18.5 -24.666 -18.5 -45.999v-48h121zM147.999 124.999c-0.666992 13.333 3.16797 22.668 11.501 28.001
s17.166 8.66602 26.499 9.99902c9.33301 0 18.333 -2.83301 27 -8.5s13 -15.5 13 -29.5v-26h-78v26zM226.001 243.001h-28v65h-21v-65h-28v67h-23v-90h121v90h-21v-67zM247.001 477.001h-121v-26l53 -39l-53 -37v-26h121v22h-87l53 39v4l-53 41h87v22zM123.001 574.001
c0 -17.333 6.00098 -32.001 18.001 -44.001s27.667 -18 47 -18c15.333 0 29.666 5 42.999 15s20 25.667 20 47s-6.83301 36.833 -20.5 46.5s-28.167 14.834 -43.5 15.501c-15.333 0 -29.833 -5 -43.5 -15s-20.5 -25.667 -20.5 -47zM188.002 534
c-12 -0.666992 -22.333 2.49902 -31 9.49902s-12.667 17.167 -12 30.5c0 14.667 4.66699 25 14 31s19 9 29 9c10 -1.33301 19.333 -4.66602 28 -9.99902s13 -15.333 13 -30s-4.33301 -25 -13 -31s-18 -9 -28 -9z" />
    <glyph glyph-name="onequarter" unicode="&#xbc;" 
d="M71 0v700h232v-700h-232zM247 77l-0.000976562 47.999c0 21.333 -6.33301 36.833 -19 46.5s-26.667 14.167 -42 13.5c-15.333 0 -29.166 -4.66699 -41.499 -14s-18.5 -24.666 -18.5 -45.999v-48h121zM147.999 124.999c-0.666992 13.333 3.16797 22.668 11.501 28.001
s17.166 8.66602 26.499 9.99902c9.33301 0 18.333 -2.83301 27 -8.5s13 -15.5 13 -29.5v-26h-78v26zM226.001 243.001h-28v65h-21v-65h-28v67h-23v-90h121v90h-21v-67zM247.001 477.001h-121v-26l53 -39l-53 -37v-26h121v22h-87l53 39v4l-53 41h87v22zM123.001 574.001
c0 -17.333 6.00098 -32.001 18.001 -44.001s27.667 -18 47 -18c15.333 0 29.666 5 42.999 15s20 25.667 20 47s-6.83301 36.833 -20.5 46.5s-28.167 14.834 -43.5 15.501c-15.333 0 -29.833 -5 -43.5 -15s-20.5 -25.667 -20.5 -47zM188.002 534
c-12 -0.666992 -22.333 2.49902 -31 9.49902s-12.667 17.167 -12 30.5c0 14.667 4.66699 25 14 31s19 9 29 9c10 -1.33301 19.333 -4.66602 28 -9.99902s13 -15.333 13 -30s-4.33301 -25 -13 -31s-18 -9 -28 -9z" />
    <glyph glyph-name="onehalf" unicode="&#xbd;" 
d="M71 0v700h232v-700h-232zM247 77l-0.000976562 47.999c0 21.333 -6.33301 36.833 -19 46.5s-26.667 14.167 -42 13.5c-15.333 0 -29.166 -4.66699 -41.499 -14s-18.5 -24.666 -18.5 -45.999v-48h121zM147.999 124.999c-0.666992 13.333 3.16797 22.668 11.501 28.001
s17.166 8.66602 26.499 9.99902c9.33301 0 18.333 -2.83301 27 -8.5s13 -15.5 13 -29.5v-26h-78v26zM226.001 243.001h-28v65h-21v-65h-28v67h-23v-90h121v90h-21v-67zM247.001 477.001h-121v-26l53 -39l-53 -37v-26h121v22h-87l53 39v4l-53 41h87v22zM123.001 574.001
c0 -17.333 6.00098 -32.001 18.001 -44.001s27.667 -18 47 -18c15.333 0 29.666 5 42.999 15s20 25.667 20 47s-6.83301 36.833 -20.5 46.5s-28.167 14.834 -43.5 15.501c-15.333 0 -29.833 -5 -43.5 -15s-20.5 -25.667 -20.5 -47zM188.002 534
c-12 -0.666992 -22.333 2.49902 -31 9.49902s-12.667 17.167 -12 30.5c0 14.667 4.66699 25 14 31s19 9 29 9c10 -1.33301 19.333 -4.66602 28 -9.99902s13 -15.333 13 -30s-4.33301 -25 -13 -31s-18 -9 -28 -9z" />
    <glyph glyph-name="threequarters" unicode="&#xbe;" 
d="M71 0v700h232v-700h-232zM247 77l-0.000976562 47.999c0 21.333 -6.33301 36.833 -19 46.5s-26.667 14.167 -42 13.5c-15.333 0 -29.166 -4.66699 -41.499 -14s-18.5 -24.666 -18.5 -45.999v-48h121zM147.999 124.999c-0.666992 13.333 3.16797 22.668 11.501 28.001
s17.166 8.66602 26.499 9.99902c9.33301 0 18.333 -2.83301 27 -8.5s13 -15.5 13 -29.5v-26h-78v26zM226.001 243.001h-28v65h-21v-65h-28v67h-23v-90h121v90h-21v-67zM247.001 477.001h-121v-26l53 -39l-53 -37v-26h121v22h-87l53 39v4l-53 41h87v22zM123.001 574.001
c0 -17.333 6.00098 -32.001 18.001 -44.001s27.667 -18 47 -18c15.333 0 29.666 5 42.999 15s20 25.667 20 47s-6.83301 36.833 -20.5 46.5s-28.167 14.834 -43.5 15.501c-15.333 0 -29.833 -5 -43.5 -15s-20.5 -25.667 -20.5 -47zM188.002 534
c-12 -0.666992 -22.333 2.49902 -31 9.49902s-12.667 17.167 -12 30.5c0 14.667 4.66699 25 14 31s19 9 29 9c10 -1.33301 19.333 -4.66602 28 -9.99902s13 -15.333 13 -30s-4.33301 -25 -13 -31s-18 -9 -28 -9z" />
    <glyph glyph-name="questiondown" unicode="&#xbf;" 
d="M71 0v700h232v-700h-232zM247 77l-0.000976562 47.999c0 21.333 -6.33301 36.833 -19 46.5s-26.667 14.167 -42 13.5c-15.333 0 -29.166 -4.66699 -41.499 -14s-18.5 -24.666 -18.5 -45.999v-48h121zM147.999 124.999c-0.666992 13.333 3.16797 22.668 11.501 28.001
s17.166 8.66602 26.499 9.99902c9.33301 0 18.333 -2.83301 27 -8.5s13 -15.5 13 -29.5v-26h-78v26zM226.001 243.001h-28v65h-21v-65h-28v67h-23v-90h121v90h-21v-67zM247.001 477.001h-121v-26l53 -39l-53 -37v-26h121v22h-87l53 39v4l-53 41h87v22zM123.001 574.001
c0 -17.333 6.00098 -32.001 18.001 -44.001s27.667 -18 47 -18c15.333 0 29.666 5 42.999 15s20 25.667 20 47s-6.83301 36.833 -20.5 46.5s-28.167 14.834 -43.5 15.501c-15.333 0 -29.833 -5 -43.5 -15s-20.5 -25.667 -20.5 -47zM188.002 534
c-12 -0.666992 -22.333 2.49902 -31 9.49902s-12.667 17.167 -12 30.5c0 14.667 4.66699 25 14 31s19 9 29 9c10 -1.33301 19.333 -4.66602 28 -9.99902s13 -15.333 13 -30s-4.33301 -25 -13 -31s-18 -9 -28 -9z" />
    <glyph glyph-name="Agrave" unicode="&#xc0;" horiz-adv-x="752" 
d="M1 0l275 700h200l275 -700h-190l-40 110h-290l-40 -110h-190zM286 260h180l-72 202c-3.33301 8.66699 -6.33301 18 -9 28s-5.66699 24.333 -9 43c-3.33301 -18.667 -6.33301 -33 -9 -43s-5.66699 -19.333 -9 -28zM90 914h500v-165h-500v165zM147 787h31
c15.333 0 27 4 35 12s12 18.667 12 32c0 12 -4 22.333 -12 31s-19.667 13 -35 13h-31v-88zM162 859h16c10 0 17.667 -2.66699 23 -8s8 -12 8 -20c0 -19.333 -10.333 -29 -31 -29h-16v57zM266 802v21h46v16h-46v20h46v16h-62v-88h62v15h-46zM431 787v88h-21l-26 -36l-26 36
h-21v-88h17v66l30 -39l31 40v-67h16zM501 880c-12.667 0 -23.332 -4.5 -31.999 -13.5s-13 -20.167 -13 -33.5c0 -12.667 3.66699 -23.667 11 -33s18.666 -14 33.999 -14c16 0 27.833 4.66699 35.5 14s11.5 20.333 11.5 33c0 14.667 -4.5 26.167 -13.5 34.5
s-20.167 12.5 -33.5 12.5zM471.002 833c0 8 2.5 15.333 7.5 22s12.5 10 22.5 10c10.667 0 18.5 -3.33301 23.5 -10s7.5 -14 7.5 -22c0 -8.66699 -2.33301 -16.167 -7 -22.5s-12.667 -9.5 -24 -9.5c-10 0 -17.5 3.5 -22.5 10.5s-7.5 14.167 -7.5 21.5z" />
    <glyph glyph-name="Aacute" unicode="&#xc1;" horiz-adv-x="752" 
d="M1 0l275 700h200l275 -700h-190l-40 110h-290l-40 -110h-190zM286 260h180l-72 202c-3.33301 8.66699 -6.33301 18 -9 28s-5.66699 24.333 -9 43c-3.33301 -18.667 -6.33301 -33 -9 -43s-5.66699 -19.333 -9 -28zM142 914h500v-165h-500v165zM199 787h31
c15.333 0 27 4 35 12s12 18.667 12 32c0 12 -4 22.333 -12 31s-19.667 13 -35 13h-31v-88zM214 859h16c10 0 17.667 -2.66699 23 -8s8 -12 8 -20c0 -19.333 -10.333 -29 -31 -29h-16v57zM318 802v21h46v16h-46v20h46v16h-62v-88h62v15h-46zM483 787v88h-21l-26 -36l-26 36
h-21v-88h17v66l30 -39l31 40v-67h16zM553 880c-12.667 0 -23.332 -4.5 -31.999 -13.5s-13 -20.167 -13 -33.5c0 -12.667 3.66699 -23.667 11 -33s18.666 -14 33.999 -14c16 0 27.833 4.66699 35.5 14s11.5 20.333 11.5 33c0 14.667 -4.5 26.167 -13.5 34.5
s-20.167 12.5 -33.5 12.5zM523.002 833c0 8 2.5 15.333 7.5 22s12.5 10 22.5 10c10.667 0 18.5 -3.33301 23.5 -10s7.5 -14 7.5 -22c0 -8.66699 -2.33301 -16.167 -7 -22.5s-12.667 -9.5 -24 -9.5c-10 0 -17.5 3.5 -22.5 10.5s-7.5 14.167 -7.5 21.5z" />
    <glyph glyph-name="Acircumflex" unicode="&#xc2;" horiz-adv-x="752" 
d="M1 0l275 700h200l275 -700h-190l-40 110h-290l-40 -110h-190zM286 260h180l-72 202c-3.33301 8.66699 -6.33301 18 -9 28s-5.66699 24.333 -9 43c-3.33301 -18.667 -6.33301 -33 -9 -43s-5.66699 -19.333 -9 -28zM123 914h500v-165h-500v165zM180 787h31
c15.333 0 27 4 35 12s12 18.667 12 32c0 12 -4 22.333 -12 31s-19.667 13 -35 13h-31v-88zM195 859h16c10 0 17.667 -2.66699 23 -8s8 -12 8 -20c0 -19.333 -10.333 -29 -31 -29h-16v57zM299 802v21h46v16h-46v20h46v16h-62v-88h62v15h-46zM464 787v88h-21l-26 -36l-26 36
h-21v-88h17v66l30 -39l31 40v-67h16zM534 880c-12.667 0 -23.332 -4.5 -31.999 -13.5s-13 -20.167 -13 -33.5c0 -12.667 3.66699 -23.667 11 -33s18.666 -14 33.999 -14c16 0 27.833 4.66699 35.5 14s11.5 20.333 11.5 33c0 14.667 -4.5 26.167 -13.5 34.5
s-20.167 12.5 -33.5 12.5zM504.002 833c0 8 2.5 15.333 7.5 22s12.5 10 22.5 10c10.667 0 18.5 -3.33301 23.5 -10s7.5 -14 7.5 -22c0 -8.66699 -2.33301 -16.167 -7 -22.5s-12.667 -9.5 -24 -9.5c-10 0 -17.5 3.5 -22.5 10.5s-7.5 14.167 -7.5 21.5z" />
    <glyph glyph-name="Atilde" unicode="&#xc3;" horiz-adv-x="752" 
d="M1 0l275 700h200l275 -700h-190l-40 110h-290l-40 -110h-190zM286 260h180l-72 202c-3.33301 8.66699 -6.33301 18 -9 28s-5.66699 24.333 -9 43c-3.33301 -18.667 -6.33301 -33 -9 -43s-5.66699 -19.333 -9 -28zM120 914h500v-165h-500v165zM177 787h31
c15.333 0 27 4 35 12s12 18.667 12 32c0 12 -4 22.333 -12 31s-19.667 13 -35 13h-31v-88zM192 859h16c10 0 17.667 -2.66699 23 -8s8 -12 8 -20c0 -19.333 -10.333 -29 -31 -29h-16v57zM296 802v21h46v16h-46v20h46v16h-62v-88h62v15h-46zM461 787v88h-21l-26 -36l-26 36
h-21v-88h17v66l30 -39l31 40v-67h16zM531 880c-12.667 0 -23.332 -4.5 -31.999 -13.5s-13 -20.167 -13 -33.5c0 -12.667 3.66699 -23.667 11 -33s18.666 -14 33.999 -14c16 0 27.833 4.66699 35.5 14s11.5 20.333 11.5 33c0 14.667 -4.5 26.167 -13.5 34.5
s-20.167 12.5 -33.5 12.5zM501.002 833c0 8 2.5 15.333 7.5 22s12.5 10 22.5 10c10.667 0 18.5 -3.33301 23.5 -10s7.5 -14 7.5 -22c0 -8.66699 -2.33301 -16.167 -7 -22.5s-12.667 -9.5 -24 -9.5c-10 0 -17.5 3.5 -22.5 10.5s-7.5 14.167 -7.5 21.5z" />
    <glyph glyph-name="Adieresis" unicode="&#xc4;" horiz-adv-x="752" 
d="M1 0l275 700h200l275 -700h-190l-40 110h-290l-40 -110h-190zM286 260h180l-72 202c-3.33301 8.66699 -6.33301 18 -9 28s-5.66699 24.333 -9 43c-3.33301 -18.667 -6.33301 -33 -9 -43s-5.66699 -19.333 -9 -28zM130 914h500v-165h-500v165zM187 787h31
c15.333 0 27 4 35 12s12 18.667 12 32c0 12 -4 22.333 -12 31s-19.667 13 -35 13h-31v-88zM202 859h16c10 0 17.667 -2.66699 23 -8s8 -12 8 -20c0 -19.333 -10.333 -29 -31 -29h-16v57zM306 802v21h46v16h-46v20h46v16h-62v-88h62v15h-46zM471 787v88h-21l-26 -36l-26 36
h-21v-88h17v66l30 -39l31 40v-67h16zM541 880c-12.667 0 -23.332 -4.5 -31.999 -13.5s-13 -20.167 -13 -33.5c0 -12.667 3.66699 -23.667 11 -33s18.666 -14 33.999 -14c16 0 27.833 4.66699 35.5 14s11.5 20.333 11.5 33c0 14.667 -4.5 26.167 -13.5 34.5
s-20.167 12.5 -33.5 12.5zM511.002 833c0 8 2.5 15.333 7.5 22s12.5 10 22.5 10c10.667 0 18.5 -3.33301 23.5 -10s7.5 -14 7.5 -22c0 -8.66699 -2.33301 -16.167 -7 -22.5s-12.667 -9.5 -24 -9.5c-10 0 -17.5 3.5 -22.5 10.5s-7.5 14.167 -7.5 21.5z" />
    <glyph glyph-name="Aring" unicode="&#xc5;" horiz-adv-x="752" 
d="M1 0l275 700h200l275 -700h-190l-40 110h-290l-40 -110h-190zM286 260h180l-72 202c-3.33301 8.66699 -6.33301 18 -9 28s-5.66699 24.333 -9 43c-3.33301 -18.667 -6.33301 -33 -9 -43s-5.66699 -19.333 -9 -28zM140 914h500v-165h-500v165zM197 787h31
c15.333 0 27 4 35 12s12 18.667 12 32c0 12 -4 22.333 -12 31s-19.667 13 -35 13h-31v-88zM212 859h16c10 0 17.667 -2.66699 23 -8s8 -12 8 -20c0 -19.333 -10.333 -29 -31 -29h-16v57zM316 802v21h46v16h-46v20h46v16h-62v-88h62v15h-46zM481 787v88h-21l-26 -36l-26 36
h-21v-88h17v66l30 -39l31 40v-67h16zM551 880c-12.667 0 -23.332 -4.5 -31.999 -13.5s-13 -20.167 -13 -33.5c0 -12.667 3.66699 -23.667 11 -33s18.666 -14 33.999 -14c16 0 27.833 4.66699 35.5 14s11.5 20.333 11.5 33c0 14.667 -4.5 26.167 -13.5 34.5
s-20.167 12.5 -33.5 12.5zM521.002 833c0 8 2.5 15.333 7.5 22s12.5 10 22.5 10c10.667 0 18.5 -3.33301 23.5 -10s7.5 -14 7.5 -22c0 -8.66699 -2.33301 -16.167 -7 -22.5s-12.667 -9.5 -24 -9.5c-10 0 -17.5 3.5 -22.5 10.5s-7.5 14.167 -7.5 21.5z" />
    <glyph glyph-name="AE" unicode="&#xc6;" horiz-adv-x="373" 
d="M71 0v700h232v-700h-232zM247 77l-0.000976562 47.999c0 21.333 -6.33301 36.833 -19 46.5s-26.667 14.167 -42 13.5c-15.333 0 -29.166 -4.66699 -41.499 -14s-18.5 -24.666 -18.5 -45.999v-48h121zM147.999 124.999c-0.666992 13.333 3.16797 22.668 11.501 28.001
s17.166 8.66602 26.499 9.99902c9.33301 0 18.333 -2.83301 27 -8.5s13 -15.5 13 -29.5v-26h-78v26zM226.001 243.001h-28v65h-21v-65h-28v67h-23v-90h121v90h-21v-67zM247.001 477.001h-121v-26l53 -39l-53 -37v-26h121v22h-87l53 39v4l-53 41h87v22zM123.001 574.001
c0 -17.333 6.00098 -32.001 18.001 -44.001s27.667 -18 47 -18c15.333 0 29.666 5 42.999 15s20 25.667 20 47s-6.83301 36.833 -20.5 46.5s-28.167 14.834 -43.5 15.501c-15.333 0 -29.833 -5 -43.5 -15s-20.5 -25.667 -20.5 -47zM188.002 534
c-12 -0.666992 -22.333 2.49902 -31 9.49902s-12.667 17.167 -12 30.5c0 14.667 4.66699 25 14 31s19 9 29 9c10 -1.33301 19.333 -4.66602 28 -9.99902s13 -15.333 13 -30s-4.33301 -25 -13 -31s-18 -9 -28 -9z" />
    <glyph glyph-name="Ccedilla" unicode="&#xc7;" horiz-adv-x="655" 
d="M32 340c0 66 10.835 122.664 32.502 169.997s50.334 86.166 86.001 116.499s76.167 52.666 121.5 66.999s91.666 21.5 138.999 21.5c36 0 71.167 -3.66699 105.5 -11s66.833 -18.333 97.5 -33v-175c-21.333 18 -47.166 32 -77.499 42s-61.5 15 -93.5 15
c-28 0 -55.167 -4 -81.5 -12s-49.833 -20.5 -70.5 -37.5s-37.334 -39 -50.001 -66s-19 -59.5 -19 -97.5c0 -34 6.33301 -63.167 19 -87.5s29.167 -44.166 49.5 -59.499s43.666 -26.666 69.999 -33.999s53.166 -11 80.499 -11c36 0 69.667 5.33301 101 16s57 25.667 77 45
v-180c-62 -29.333 -130 -44 -204 -44c-48 0 -95 6.83301 -141 20.5s-86.833 34.834 -122.5 63.501s-64.5 65.334 -86.5 110.001s-33 98.334 -33 161.001z" />
    <glyph glyph-name="Egrave" unicode="&#xc8;" horiz-adv-x="617" 
d="M570 700v-160h-319v-107h289v-159h-289v-114h325v-160h-510v700h504zM42 914h500v-165h-500v165zM99 787h31c15.333 0 27 4 35 12s12 18.667 12 32c0 12 -4 22.333 -12 31s-19.667 13 -35 13h-31v-88zM114 859h16c10 0 17.667 -2.66699 23 -8s8 -12 8 -20
c0 -19.333 -10.333 -29 -31 -29h-16v57zM218 802v21h46v16h-46v20h46v16h-62v-88h62v15h-46zM383 787v88h-21l-26 -36l-26 36h-21v-88h17v66l30 -39l31 40v-67h16zM453 880c-12.667 0 -23.332 -4.5 -31.999 -13.5s-13 -20.167 -13 -33.5c0 -12.667 3.66699 -23.667 11 -33
s18.666 -14 33.999 -14c16 0 27.833 4.66699 35.5 14s11.5 20.333 11.5 33c0 14.667 -4.5 26.167 -13.5 34.5s-20.167 12.5 -33.5 12.5zM423.002 833c0 8 2.5 15.333 7.5 22s12.5 10 22.5 10c10.667 0 18.5 -3.33301 23.5 -10s7.5 -14 7.5 -22
c0 -8.66699 -2.33301 -16.167 -7 -22.5s-12.667 -9.5 -24 -9.5c-10 0 -17.5 3.5 -22.5 10.5s-7.5 14.167 -7.5 21.5z" />
    <glyph glyph-name="Eacute" unicode="&#xc9;" horiz-adv-x="617" 
d="M570 700v-160h-319v-107h289v-159h-289v-114h325v-160h-510v700h504zM94 914h500v-165h-500v165zM151 787h31c15.333 0 27 4 35 12s12 18.667 12 32c0 12 -4 22.333 -12 31s-19.667 13 -35 13h-31v-88zM166 859h16c10 0 17.667 -2.66699 23 -8s8 -12 8 -20
c0 -19.333 -10.333 -29 -31 -29h-16v57zM270 802v21h46v16h-46v20h46v16h-62v-88h62v15h-46zM435 787v88h-21l-26 -36l-26 36h-21v-88h17v66l30 -39l31 40v-67h16zM505 880c-12.667 0 -23.332 -4.5 -31.999 -13.5s-13 -20.167 -13 -33.5c0 -12.667 3.66699 -23.667 11 -33
s18.666 -14 33.999 -14c16 0 27.833 4.66699 35.5 14s11.5 20.333 11.5 33c0 14.667 -4.5 26.167 -13.5 34.5s-20.167 12.5 -33.5 12.5zM475.002 833c0 8 2.5 15.333 7.5 22s12.5 10 22.5 10c10.667 0 18.5 -3.33301 23.5 -10s7.5 -14 7.5 -22
c0 -8.66699 -2.33301 -16.167 -7 -22.5s-12.667 -9.5 -24 -9.5c-10 0 -17.5 3.5 -22.5 10.5s-7.5 14.167 -7.5 21.5z" />
    <glyph glyph-name="Ecircumflex" unicode="&#xca;" horiz-adv-x="617" 
d="M570 700v-160h-319v-107h289v-159h-289v-114h325v-160h-510v700h504zM75 914h500v-165h-500v165zM132 787h31c15.333 0 27 4 35 12s12 18.667 12 32c0 12 -4 22.333 -12 31s-19.667 13 -35 13h-31v-88zM147 859h16c10 0 17.667 -2.66699 23 -8s8 -12 8 -20
c0 -19.333 -10.333 -29 -31 -29h-16v57zM251 802v21h46v16h-46v20h46v16h-62v-88h62v15h-46zM416 787v88h-21l-26 -36l-26 36h-21v-88h17v66l30 -39l31 40v-67h16zM486 880c-12.667 0 -23.332 -4.5 -31.999 -13.5s-13 -20.167 -13 -33.5c0 -12.667 3.66699 -23.667 11 -33
s18.666 -14 33.999 -14c16 0 27.833 4.66699 35.5 14s11.5 20.333 11.5 33c0 14.667 -4.5 26.167 -13.5 34.5s-20.167 12.5 -33.5 12.5zM456.002 833c0 8 2.5 15.333 7.5 22s12.5 10 22.5 10c10.667 0 18.5 -3.33301 23.5 -10s7.5 -14 7.5 -22
c0 -8.66699 -2.33301 -16.167 -7 -22.5s-12.667 -9.5 -24 -9.5c-10 0 -17.5 3.5 -22.5 10.5s-7.5 14.167 -7.5 21.5z" />
    <glyph glyph-name="Edieresis" unicode="&#xcb;" horiz-adv-x="617" 
d="M570 700v-160h-319v-107h289v-159h-289v-114h325v-160h-510v700h504zM82 914h500v-165h-500v165zM139 787h31c15.333 0 27 4 35 12s12 18.667 12 32c0 12 -4 22.333 -12 31s-19.667 13 -35 13h-31v-88zM154 859h16c10 0 17.667 -2.66699 23 -8s8 -12 8 -20
c0 -19.333 -10.333 -29 -31 -29h-16v57zM258 802v21h46v16h-46v20h46v16h-62v-88h62v15h-46zM423 787v88h-21l-26 -36l-26 36h-21v-88h17v66l30 -39l31 40v-67h16zM493 880c-12.667 0 -23.332 -4.5 -31.999 -13.5s-13 -20.167 -13 -33.5c0 -12.667 3.66699 -23.667 11 -33
s18.666 -14 33.999 -14c16 0 27.833 4.66699 35.5 14s11.5 20.333 11.5 33c0 14.667 -4.5 26.167 -13.5 34.5s-20.167 12.5 -33.5 12.5zM463.002 833c0 8 2.5 15.333 7.5 22s12.5 10 22.5 10c10.667 0 18.5 -3.33301 23.5 -10s7.5 -14 7.5 -22
c0 -8.66699 -2.33301 -16.167 -7 -22.5s-12.667 -9.5 -24 -9.5c-10 0 -17.5 3.5 -22.5 10.5s-7.5 14.167 -7.5 21.5z" />
    <glyph glyph-name="Igrave" unicode="&#xcc;" horiz-adv-x="317" 
d="M251 700v-700h-185v700h185zM-127 914h500v-165h-500v165zM-70 787h31c15.333 0 27 4 35 12s12 18.667 12 32c0 12 -4 22.333 -12 31s-19.667 13 -35 13h-31v-88zM-55 859h16c10 0 17.667 -2.66699 23 -8s8 -12 8 -20c0 -19.333 -10.333 -29 -31 -29h-16v57zM49 802v21
h46v16h-46v20h46v16h-62v-88h62v15h-46zM214 787v88h-21l-26 -36l-26 36h-21v-88h17v66l30 -39l31 40v-67h16zM284 880c-12.667 0 -23.332 -4.5 -31.999 -13.5s-13 -20.167 -13 -33.5c0 -12.667 3.66699 -23.667 11 -33s18.666 -14 33.999 -14c16 0 27.833 4.66699 35.5 14
s11.5 20.333 11.5 33c0 14.667 -4.5 26.167 -13.5 34.5s-20.167 12.5 -33.5 12.5zM254.002 833c0 8 2.5 15.333 7.5 22s12.5 10 22.5 10c10.667 0 18.5 -3.33301 23.5 -10s7.5 -14 7.5 -22c0 -8.66699 -2.33301 -16.167 -7 -22.5s-12.667 -9.5 -24 -9.5
c-10 0 -17.5 3.5 -22.5 10.5s-7.5 14.167 -7.5 21.5z" />
    <glyph glyph-name="Iacute" unicode="&#xcd;" horiz-adv-x="317" 
d="M251 700v-700h-185v700h185zM-75 914h500v-165h-500v165zM-18 787h31c15.333 0 27 4 35 12s12 18.667 12 32c0 12 -4 22.333 -12 31s-19.667 13 -35 13h-31v-88zM-3 859h16c10 0 17.667 -2.66699 23 -8s8 -12 8 -20c0 -19.333 -10.333 -29 -31 -29h-16v57zM101 802v21h46
v16h-46v20h46v16h-62v-88h62v15h-46zM266 787v88h-21l-26 -36l-26 36h-21v-88h17v66l30 -39l31 40v-67h16zM336 880c-12.667 0 -23.332 -4.5 -31.999 -13.5s-13 -20.167 -13 -33.5c0 -12.667 3.66699 -23.667 11 -33s18.666 -14 33.999 -14c16 0 27.833 4.66699 35.5 14
s11.5 20.333 11.5 33c0 14.667 -4.5 26.167 -13.5 34.5s-20.167 12.5 -33.5 12.5zM306.002 833c0 8 2.5 15.333 7.5 22s12.5 10 22.5 10c10.667 0 18.5 -3.33301 23.5 -10s7.5 -14 7.5 -22c0 -8.66699 -2.33301 -16.167 -7 -22.5s-12.667 -9.5 -24 -9.5
c-10 0 -17.5 3.5 -22.5 10.5s-7.5 14.167 -7.5 21.5z" />
    <glyph glyph-name="Icircumflex" unicode="&#xce;" horiz-adv-x="317" 
d="M251 700v-700h-185v700h185zM-94 914h500v-165h-500v165zM-37 787h31c15.333 0 27 4 35 12s12 18.667 12 32c0 12 -4 22.333 -12 31s-19.667 13 -35 13h-31v-88zM-22 859h16c10 0 17.667 -2.66699 23 -8s8 -12 8 -20c0 -19.333 -10.333 -29 -31 -29h-16v57zM82 802v21h46
v16h-46v20h46v16h-62v-88h62v15h-46zM247 787v88h-21l-26 -36l-26 36h-21v-88h17v66l30 -39l31 40v-67h16zM317 880c-12.667 0 -23.332 -4.5 -31.999 -13.5s-13 -20.167 -13 -33.5c0 -12.667 3.66699 -23.667 11 -33s18.666 -14 33.999 -14c16 0 27.833 4.66699 35.5 14
s11.5 20.333 11.5 33c0 14.667 -4.5 26.167 -13.5 34.5s-20.167 12.5 -33.5 12.5zM287.002 833c0 8 2.5 15.333 7.5 22s12.5 10 22.5 10c10.667 0 18.5 -3.33301 23.5 -10s7.5 -14 7.5 -22c0 -8.66699 -2.33301 -16.167 -7 -22.5s-12.667 -9.5 -24 -9.5
c-10 0 -17.5 3.5 -22.5 10.5s-7.5 14.167 -7.5 21.5z" />
    <glyph glyph-name="Idieresis" unicode="&#xcf;" horiz-adv-x="317" 
d="M251 700v-700h-185v700h185zM-87 914h500v-165h-500v165zM-30 787h31c15.333 0 27 4 35 12s12 18.667 12 32c0 12 -4 22.333 -12 31s-19.667 13 -35 13h-31v-88zM-15 859h16c10 0 17.667 -2.66699 23 -8s8 -12 8 -20c0 -19.333 -10.333 -29 -31 -29h-16v57zM89 802v21h46
v16h-46v20h46v16h-62v-88h62v15h-46zM254 787v88h-21l-26 -36l-26 36h-21v-88h17v66l30 -39l31 40v-67h16zM324 880c-12.667 0 -23.332 -4.5 -31.999 -13.5s-13 -20.167 -13 -33.5c0 -12.667 3.66699 -23.667 11 -33s18.666 -14 33.999 -14c16 0 27.833 4.66699 35.5 14
s11.5 20.333 11.5 33c0 14.667 -4.5 26.167 -13.5 34.5s-20.167 12.5 -33.5 12.5zM294.002 833c0 8 2.5 15.333 7.5 22s12.5 10 22.5 10c10.667 0 18.5 -3.33301 23.5 -10s7.5 -14 7.5 -22c0 -8.66699 -2.33301 -16.167 -7 -22.5s-12.667 -9.5 -24 -9.5
c-10 0 -17.5 3.5 -22.5 10.5s-7.5 14.167 -7.5 21.5z" />
    <glyph glyph-name="Eth" unicode="&#xd0;" horiz-adv-x="760" 
d="M361 700c62.667 0 117 -8.66699 163 -26s84 -41.5 114 -72.5s52.333 -68 67 -111s22 -89.833 22 -140.5c0 -51.333 -7.33301 -98.333 -22 -141s-37 -79.5 -67 -110.5s-68 -55.167 -114 -72.5s-100.333 -26 -163 -26h-279v700h279zM361 160c56 0 99.333 15.167 130 45.5
s46 78.5 46 144.5s-15.333 114.167 -46 144.5s-74 45.5 -130 45.5h-94v-380h94z" />
    <glyph glyph-name="Ntilde" unicode="&#xd1;" horiz-adv-x="762" 
d="M66 0v699.998h175l274 -402c-1.33301 16.667 -2.33301 35.334 -3 56.001s-1 40.667 -1 60v286h185v-700h-175l-274 401c1.33301 -16.667 2.33301 -35.167 3 -55.5s1 -40.166 1 -59.499v-286h-185zM125 913.998h500v-165h-500v165zM182 786.998h31c15.333 0 27 4 35 12
s12 18.667 12 32c0 12 -4 22.333 -12 31s-19.667 13 -35 13h-31v-88zM197 858.998h16c10 0 17.667 -2.66699 23 -8s8 -12 8 -20c0 -19.333 -10.333 -29 -31 -29h-16v57zM301 801.998v21h46v16h-46v20h46v16h-62v-88h62v15h-46zM466 786.998v88h-21l-26 -36l-26 36h-21v-88
h17v66l30 -39l31 40v-67h16zM536 879.998c-12.667 0 -23.332 -4.5 -31.999 -13.5s-13 -20.167 -13 -33.5c0 -12.667 3.66699 -23.667 11 -33s18.666 -14 33.999 -14c16 0 27.833 4.66699 35.5 14s11.5 20.333 11.5 33c0 14.667 -4.5 26.167 -13.5 34.5
s-20.167 12.5 -33.5 12.5zM506.002 832.998c0 8 2.5 15.333 7.5 22s12.5 10 22.5 10c10.667 0 18.5 -3.33301 23.5 -10s7.5 -14 7.5 -22c0 -8.66699 -2.33301 -16.167 -7 -22.5s-12.667 -9.5 -24 -9.5c-10 0 -17.5 3.5 -22.5 10.5s-7.5 14.167 -7.5 21.5z" />
    <glyph glyph-name="Ograve" unicode="&#xd2;" horiz-adv-x="812" 
d="M31 350c0 48.667 7.83301 95 23.5 139s39.167 82.833 70.5 116.5s70.333 60.334 117 80.001s101.334 29.5 164.001 29.5s117.334 -9.83301 164.001 -29.5s85.667 -46.334 117 -80.001s54.833 -72.5 70.5 -116.5s23.5 -90.333 23.5 -139s-7.83301 -95 -23.5 -139
s-39.167 -82.833 -70.5 -116.5s-70.333 -60.334 -117 -80.001s-101.334 -29.5 -164.001 -29.5s-117.334 9.83301 -164.001 29.5s-85.667 46.334 -117 80.001s-54.833 72.5 -70.5 116.5s-23.5 90.333 -23.5 139zM591 350c0 28 -4 53.833 -12 77.5s-19.667 44.334 -35 62.001
s-34.666 31.334 -57.999 41.001s-50 14.5 -80 14.5s-56.667 -4.83301 -80 -14.5s-42.666 -23.334 -57.999 -41.001s-27 -38.334 -35 -62.001s-12 -49.5 -12 -77.5s4 -53.833 12 -77.5s19.667 -44.334 35 -62.001s34.666 -31.334 57.999 -41.001s50 -14.5 80 -14.5
s56.667 4.83301 80 14.5s42.666 23.334 57.999 41.001s27 38.334 35 62.001s12 49.5 12 77.5zM120 914h500v-165h-500v165zM177 787h31c15.333 0 27 4 35 12s12 18.667 12 32c0 12 -4 22.333 -12 31s-19.667 13 -35 13h-31v-88zM192 859h16c10 0 17.667 -2.66699 23 -8
s8 -12 8 -20c0 -19.333 -10.333 -29 -31 -29h-16v57zM296 802v21h46v16h-46v20h46v16h-62v-88h62v15h-46zM461 787v88h-21l-26 -36l-26 36h-21v-88h17v66l30 -39l31 40v-67h16zM531 880c-12.667 0 -23.332 -4.5 -31.999 -13.5s-13 -20.167 -13 -33.5
c0 -12.667 3.66699 -23.667 11 -33s18.666 -14 33.999 -14c16 0 27.833 4.66699 35.5 14s11.5 20.333 11.5 33c0 14.667 -4.5 26.167 -13.5 34.5s-20.167 12.5 -33.5 12.5zM501.002 833c0 8 2.5 15.333 7.5 22s12.5 10 22.5 10c10.667 0 18.5 -3.33301 23.5 -10
s7.5 -14 7.5 -22c0 -8.66699 -2.33301 -16.167 -7 -22.5s-12.667 -9.5 -24 -9.5c-10 0 -17.5 3.5 -22.5 10.5s-7.5 14.167 -7.5 21.5z" />
    <glyph glyph-name="Oacute" unicode="&#xd3;" horiz-adv-x="812" 
d="M31 350c0 48.667 7.83301 95 23.5 139s39.167 82.833 70.5 116.5s70.333 60.334 117 80.001s101.334 29.5 164.001 29.5s117.334 -9.83301 164.001 -29.5s85.667 -46.334 117 -80.001s54.833 -72.5 70.5 -116.5s23.5 -90.333 23.5 -139s-7.83301 -95 -23.5 -139
s-39.167 -82.833 -70.5 -116.5s-70.333 -60.334 -117 -80.001s-101.334 -29.5 -164.001 -29.5s-117.334 9.83301 -164.001 29.5s-85.667 46.334 -117 80.001s-54.833 72.5 -70.5 116.5s-23.5 90.333 -23.5 139zM591 350c0 28 -4 53.833 -12 77.5s-19.667 44.334 -35 62.001
s-34.666 31.334 -57.999 41.001s-50 14.5 -80 14.5s-56.667 -4.83301 -80 -14.5s-42.666 -23.334 -57.999 -41.001s-27 -38.334 -35 -62.001s-12 -49.5 -12 -77.5s4 -53.833 12 -77.5s19.667 -44.334 35 -62.001s34.666 -31.334 57.999 -41.001s50 -14.5 80 -14.5
s56.667 4.83301 80 14.5s42.666 23.334 57.999 41.001s27 38.334 35 62.001s12 49.5 12 77.5zM172 914h500v-165h-500v165zM229 787h31c15.333 0 27 4 35 12s12 18.667 12 32c0 12 -4 22.333 -12 31s-19.667 13 -35 13h-31v-88zM244 859h16c10 0 17.667 -2.66699 23 -8
s8 -12 8 -20c0 -19.333 -10.333 -29 -31 -29h-16v57zM348 802v21h46v16h-46v20h46v16h-62v-88h62v15h-46zM513 787v88h-21l-26 -36l-26 36h-21v-88h17v66l30 -39l31 40v-67h16zM583 880c-12.667 0 -23.332 -4.5 -31.999 -13.5s-13 -20.167 -13 -33.5
c0 -12.667 3.66699 -23.667 11 -33s18.666 -14 33.999 -14c16 0 27.833 4.66699 35.5 14s11.5 20.333 11.5 33c0 14.667 -4.5 26.167 -13.5 34.5s-20.167 12.5 -33.5 12.5zM553.002 833c0 8 2.5 15.333 7.5 22s12.5 10 22.5 10c10.667 0 18.5 -3.33301 23.5 -10
s7.5 -14 7.5 -22c0 -8.66699 -2.33301 -16.167 -7 -22.5s-12.667 -9.5 -24 -9.5c-10 0 -17.5 3.5 -22.5 10.5s-7.5 14.167 -7.5 21.5z" />
    <glyph glyph-name="Ocircumflex" unicode="&#xd4;" horiz-adv-x="812" 
d="M31 350c0 48.667 7.83301 95 23.5 139s39.167 82.833 70.5 116.5s70.333 60.334 117 80.001s101.334 29.5 164.001 29.5s117.334 -9.83301 164.001 -29.5s85.667 -46.334 117 -80.001s54.833 -72.5 70.5 -116.5s23.5 -90.333 23.5 -139s-7.83301 -95 -23.5 -139
s-39.167 -82.833 -70.5 -116.5s-70.333 -60.334 -117 -80.001s-101.334 -29.5 -164.001 -29.5s-117.334 9.83301 -164.001 29.5s-85.667 46.334 -117 80.001s-54.833 72.5 -70.5 116.5s-23.5 90.333 -23.5 139zM591 350c0 28 -4 53.833 -12 77.5s-19.667 44.334 -35 62.001
s-34.666 31.334 -57.999 41.001s-50 14.5 -80 14.5s-56.667 -4.83301 -80 -14.5s-42.666 -23.334 -57.999 -41.001s-27 -38.334 -35 -62.001s-12 -49.5 -12 -77.5s4 -53.833 12 -77.5s19.667 -44.334 35 -62.001s34.666 -31.334 57.999 -41.001s50 -14.5 80 -14.5
s56.667 4.83301 80 14.5s42.666 23.334 57.999 41.001s27 38.334 35 62.001s12 49.5 12 77.5zM153 914h500v-165h-500v165zM210 787h31c15.333 0 27 4 35 12s12 18.667 12 32c0 12 -4 22.333 -12 31s-19.667 13 -35 13h-31v-88zM225 859h16c10 0 17.667 -2.66699 23 -8
s8 -12 8 -20c0 -19.333 -10.333 -29 -31 -29h-16v57zM329 802v21h46v16h-46v20h46v16h-62v-88h62v15h-46zM494 787v88h-21l-26 -36l-26 36h-21v-88h17v66l30 -39l31 40v-67h16zM564 880c-12.667 0 -23.332 -4.5 -31.999 -13.5s-13 -20.167 -13 -33.5
c0 -12.667 3.66699 -23.667 11 -33s18.666 -14 33.999 -14c16 0 27.833 4.66699 35.5 14s11.5 20.333 11.5 33c0 14.667 -4.5 26.167 -13.5 34.5s-20.167 12.5 -33.5 12.5zM534.002 833c0 8 2.5 15.333 7.5 22s12.5 10 22.5 10c10.667 0 18.5 -3.33301 23.5 -10
s7.5 -14 7.5 -22c0 -8.66699 -2.33301 -16.167 -7 -22.5s-12.667 -9.5 -24 -9.5c-10 0 -17.5 3.5 -22.5 10.5s-7.5 14.167 -7.5 21.5z" />
    <glyph glyph-name="Otilde" unicode="&#xd5;" horiz-adv-x="812" 
d="M31 350c0 48.667 7.83301 95 23.5 139s39.167 82.833 70.5 116.5s70.333 60.334 117 80.001s101.334 29.5 164.001 29.5s117.334 -9.83301 164.001 -29.5s85.667 -46.334 117 -80.001s54.833 -72.5 70.5 -116.5s23.5 -90.333 23.5 -139s-7.83301 -95 -23.5 -139
s-39.167 -82.833 -70.5 -116.5s-70.333 -60.334 -117 -80.001s-101.334 -29.5 -164.001 -29.5s-117.334 9.83301 -164.001 29.5s-85.667 46.334 -117 80.001s-54.833 72.5 -70.5 116.5s-23.5 90.333 -23.5 139zM591 350c0 28 -4 53.833 -12 77.5s-19.667 44.334 -35 62.001
s-34.666 31.334 -57.999 41.001s-50 14.5 -80 14.5s-56.667 -4.83301 -80 -14.5s-42.666 -23.334 -57.999 -41.001s-27 -38.334 -35 -62.001s-12 -49.5 -12 -77.5s4 -53.833 12 -77.5s19.667 -44.334 35 -62.001s34.666 -31.334 57.999 -41.001s50 -14.5 80 -14.5
s56.667 4.83301 80 14.5s42.666 23.334 57.999 41.001s27 38.334 35 62.001s12 49.5 12 77.5zM150 914h500v-165h-500v165zM207 787h31c15.333 0 27 4 35 12s12 18.667 12 32c0 12 -4 22.333 -12 31s-19.667 13 -35 13h-31v-88zM222 859h16c10 0 17.667 -2.66699 23 -8
s8 -12 8 -20c0 -19.333 -10.333 -29 -31 -29h-16v57zM326 802v21h46v16h-46v20h46v16h-62v-88h62v15h-46zM491 787v88h-21l-26 -36l-26 36h-21v-88h17v66l30 -39l31 40v-67h16zM561 880c-12.667 0 -23.332 -4.5 -31.999 -13.5s-13 -20.167 -13 -33.5
c0 -12.667 3.66699 -23.667 11 -33s18.666 -14 33.999 -14c16 0 27.833 4.66699 35.5 14s11.5 20.333 11.5 33c0 14.667 -4.5 26.167 -13.5 34.5s-20.167 12.5 -33.5 12.5zM531.002 833c0 8 2.5 15.333 7.5 22s12.5 10 22.5 10c10.667 0 18.5 -3.33301 23.5 -10
s7.5 -14 7.5 -22c0 -8.66699 -2.33301 -16.167 -7 -22.5s-12.667 -9.5 -24 -9.5c-10 0 -17.5 3.5 -22.5 10.5s-7.5 14.167 -7.5 21.5z" />
    <glyph glyph-name="Odieresis" unicode="&#xd6;" horiz-adv-x="812" 
d="M31 350c0 48.667 7.83301 95 23.5 139s39.167 82.833 70.5 116.5s70.333 60.334 117 80.001s101.334 29.5 164.001 29.5s117.334 -9.83301 164.001 -29.5s85.667 -46.334 117 -80.001s54.833 -72.5 70.5 -116.5s23.5 -90.333 23.5 -139s-7.83301 -95 -23.5 -139
s-39.167 -82.833 -70.5 -116.5s-70.333 -60.334 -117 -80.001s-101.334 -29.5 -164.001 -29.5s-117.334 9.83301 -164.001 29.5s-85.667 46.334 -117 80.001s-54.833 72.5 -70.5 116.5s-23.5 90.333 -23.5 139zM591 350c0 28 -4 53.833 -12 77.5s-19.667 44.334 -35 62.001
s-34.666 31.334 -57.999 41.001s-50 14.5 -80 14.5s-56.667 -4.83301 -80 -14.5s-42.666 -23.334 -57.999 -41.001s-27 -38.334 -35 -62.001s-12 -49.5 -12 -77.5s4 -53.833 12 -77.5s19.667 -44.334 35 -62.001s34.666 -31.334 57.999 -41.001s50 -14.5 80 -14.5
s56.667 4.83301 80 14.5s42.666 23.334 57.999 41.001s27 38.334 35 62.001s12 49.5 12 77.5zM160 914h500v-165h-500v165zM217 787h31c15.333 0 27 4 35 12s12 18.667 12 32c0 12 -4 22.333 -12 31s-19.667 13 -35 13h-31v-88zM232 859h16c10 0 17.667 -2.66699 23 -8
s8 -12 8 -20c0 -19.333 -10.333 -29 -31 -29h-16v57zM336 802v21h46v16h-46v20h46v16h-62v-88h62v15h-46zM501 787v88h-21l-26 -36l-26 36h-21v-88h17v66l30 -39l31 40v-67h16zM571 880c-12.667 0 -23.332 -4.5 -31.999 -13.5s-13 -20.167 -13 -33.5
c0 -12.667 3.66699 -23.667 11 -33s18.666 -14 33.999 -14c16 0 27.833 4.66699 35.5 14s11.5 20.333 11.5 33c0 14.667 -4.5 26.167 -13.5 34.5s-20.167 12.5 -33.5 12.5zM541.002 833c0 8 2.5 15.333 7.5 22s12.5 10 22.5 10c10.667 0 18.5 -3.33301 23.5 -10
s7.5 -14 7.5 -22c0 -8.66699 -2.33301 -16.167 -7 -22.5s-12.667 -9.5 -24 -9.5c-10 0 -17.5 3.5 -22.5 10.5s-7.5 14.167 -7.5 21.5z" />
    <glyph glyph-name="multiply" unicode="&#xd7;" 
d="M71 0v700h232v-700h-232zM247 77l-0.000976562 47.999c0 21.333 -6.33301 36.833 -19 46.5s-26.667 14.167 -42 13.5c-15.333 0 -29.166 -4.66699 -41.499 -14s-18.5 -24.666 -18.5 -45.999v-48h121zM147.999 124.999c-0.666992 13.333 3.16797 22.668 11.501 28.001
s17.166 8.66602 26.499 9.99902c9.33301 0 18.333 -2.83301 27 -8.5s13 -15.5 13 -29.5v-26h-78v26zM226.001 243.001h-28v65h-21v-65h-28v67h-23v-90h121v90h-21v-67zM247.001 477.001h-121v-26l53 -39l-53 -37v-26h121v22h-87l53 39v4l-53 41h87v22zM123.001 574.001
c0 -17.333 6.00098 -32.001 18.001 -44.001s27.667 -18 47 -18c15.333 0 29.666 5 42.999 15s20 25.667 20 47s-6.83301 36.833 -20.5 46.5s-28.167 14.834 -43.5 15.501c-15.333 0 -29.833 -5 -43.5 -15s-20.5 -25.667 -20.5 -47zM188.002 534
c-12 -0.666992 -22.333 2.49902 -31 9.49902s-12.667 17.167 -12 30.5c0 14.667 4.66699 25 14 31s19 9 29 9c10 -1.33301 19.333 -4.66602 28 -9.99902s13 -15.333 13 -30s-4.33301 -25 -13 -31s-18 -9 -28 -9z" />
    <glyph glyph-name="Oslash" unicode="&#xd8;" horiz-adv-x="812" 
d="M31 350c0 48.667 7.83301 95 23.5 139s39.167 82.833 70.5 116.5s70.333 60.334 117 80.001s101.334 29.5 164.001 29.5s117.334 -9.83301 164.001 -29.5s85.667 -46.334 117 -80.001s54.833 -72.5 70.5 -116.5s23.5 -90.333 23.5 -139s-7.83301 -95 -23.5 -139
s-39.167 -82.833 -70.5 -116.5s-70.333 -60.334 -117 -80.001s-101.334 -29.5 -164.001 -29.5s-117.334 9.83301 -164.001 29.5s-85.667 46.334 -117 80.001s-54.833 72.5 -70.5 116.5s-23.5 90.333 -23.5 139zM591 350c0 28 -4 53.833 -12 77.5s-19.667 44.334 -35 62.001
s-34.666 31.334 -57.999 41.001s-50 14.5 -80 14.5s-56.667 -4.83301 -80 -14.5s-42.666 -23.334 -57.999 -41.001s-27 -38.334 -35 -62.001s-12 -49.5 -12 -77.5s4 -53.833 12 -77.5s19.667 -44.334 35 -62.001s34.666 -31.334 57.999 -41.001s50 -14.5 80 -14.5
s56.667 4.83301 80 14.5s42.666 23.334 57.999 41.001s27 38.334 35 62.001s12 49.5 12 77.5z" />
    <glyph glyph-name="Ugrave" unicode="&#xd9;" horiz-adv-x="748" 
d="M689 700l0.00390625 -433c0 -52.667 -9.16699 -97 -27.5 -133s-42.333 -65 -72 -87s-63.334 -37.833 -101.001 -47.5s-75.834 -14.5 -114.501 -14.5s-76.834 4.83301 -114.501 14.5s-71.334 25.5 -101.001 47.5s-53.667 51 -72 87s-27.5 80.333 -27.5 133v433h185v-423
c0 -47.333 11.833 -80.333 35.5 -99s55.167 -28 94.5 -28s70.833 9.33301 94.5 28s35.5 51.667 35.5 99v423h185zM88.0039 914h500v-165h-500v165zM145.004 787h31c15.333 0 27 4 35 12s12 18.667 12 32c0 12 -4 22.333 -12 31s-19.667 13 -35 13h-31v-88zM160.004 859h16
c10 0 17.667 -2.66699 23 -8s8 -12 8 -20c0 -19.333 -10.333 -29 -31 -29h-16v57zM264.004 802v21h46v16h-46v20h46v16h-62v-88h62v15h-46zM429.004 787v88h-21l-26 -36l-26 36h-21v-88h17v66l30 -39l31 40v-67h16zM499.004 880c-12.667 0 -23.332 -4.5 -31.999 -13.5
s-13 -20.167 -13 -33.5c0 -12.667 3.66699 -23.667 11 -33s18.666 -14 33.999 -14c16 0 27.833 4.66699 35.5 14s11.5 20.333 11.5 33c0 14.667 -4.5 26.167 -13.5 34.5s-20.167 12.5 -33.5 12.5zM469.006 833c0 8 2.5 15.333 7.5 22s12.5 10 22.5 10
c10.667 0 18.5 -3.33301 23.5 -10s7.5 -14 7.5 -22c0 -8.66699 -2.33301 -16.167 -7 -22.5s-12.667 -9.5 -24 -9.5c-10 0 -17.5 3.5 -22.5 10.5s-7.5 14.167 -7.5 21.5z" />
    <glyph glyph-name="Uacute" unicode="&#xda;" horiz-adv-x="748" 
d="M689 700l0.00390625 -433c0 -52.667 -9.16699 -97 -27.5 -133s-42.333 -65 -72 -87s-63.334 -37.833 -101.001 -47.5s-75.834 -14.5 -114.501 -14.5s-76.834 4.83301 -114.501 14.5s-71.334 25.5 -101.001 47.5s-53.667 51 -72 87s-27.5 80.333 -27.5 133v433h185v-423
c0 -47.333 11.833 -80.333 35.5 -99s55.167 -28 94.5 -28s70.833 9.33301 94.5 28s35.5 51.667 35.5 99v423h185zM140.004 914h500v-165h-500v165zM197.004 787h31c15.333 0 27 4 35 12s12 18.667 12 32c0 12 -4 22.333 -12 31s-19.667 13 -35 13h-31v-88zM212.004 859h16
c10 0 17.667 -2.66699 23 -8s8 -12 8 -20c0 -19.333 -10.333 -29 -31 -29h-16v57zM316.004 802v21h46v16h-46v20h46v16h-62v-88h62v15h-46zM481.004 787v88h-21l-26 -36l-26 36h-21v-88h17v66l30 -39l31 40v-67h16zM551.004 880c-12.667 0 -23.332 -4.5 -31.999 -13.5
s-13 -20.167 -13 -33.5c0 -12.667 3.66699 -23.667 11 -33s18.666 -14 33.999 -14c16 0 27.833 4.66699 35.5 14s11.5 20.333 11.5 33c0 14.667 -4.5 26.167 -13.5 34.5s-20.167 12.5 -33.5 12.5zM521.006 833c0 8 2.5 15.333 7.5 22s12.5 10 22.5 10
c10.667 0 18.5 -3.33301 23.5 -10s7.5 -14 7.5 -22c0 -8.66699 -2.33301 -16.167 -7 -22.5s-12.667 -9.5 -24 -9.5c-10 0 -17.5 3.5 -22.5 10.5s-7.5 14.167 -7.5 21.5z" />
    <glyph glyph-name="Ucircumflex" unicode="&#xdb;" horiz-adv-x="748" 
d="M689 700l0.00390625 -433c0 -52.667 -9.16699 -97 -27.5 -133s-42.333 -65 -72 -87s-63.334 -37.833 -101.001 -47.5s-75.834 -14.5 -114.501 -14.5s-76.834 4.83301 -114.501 14.5s-71.334 25.5 -101.001 47.5s-53.667 51 -72 87s-27.5 80.333 -27.5 133v433h185v-423
c0 -47.333 11.833 -80.333 35.5 -99s55.167 -28 94.5 -28s70.833 9.33301 94.5 28s35.5 51.667 35.5 99v423h185zM121.004 914h500v-165h-500v165zM178.004 787h31c15.333 0 27 4 35 12s12 18.667 12 32c0 12 -4 22.333 -12 31s-19.667 13 -35 13h-31v-88zM193.004 859h16
c10 0 17.667 -2.66699 23 -8s8 -12 8 -20c0 -19.333 -10.333 -29 -31 -29h-16v57zM297.004 802v21h46v16h-46v20h46v16h-62v-88h62v15h-46zM462.004 787v88h-21l-26 -36l-26 36h-21v-88h17v66l30 -39l31 40v-67h16zM532.004 880c-12.667 0 -23.332 -4.5 -31.999 -13.5
s-13 -20.167 -13 -33.5c0 -12.667 3.66699 -23.667 11 -33s18.666 -14 33.999 -14c16 0 27.833 4.66699 35.5 14s11.5 20.333 11.5 33c0 14.667 -4.5 26.167 -13.5 34.5s-20.167 12.5 -33.5 12.5zM502.006 833c0 8 2.5 15.333 7.5 22s12.5 10 22.5 10
c10.667 0 18.5 -3.33301 23.5 -10s7.5 -14 7.5 -22c0 -8.66699 -2.33301 -16.167 -7 -22.5s-12.667 -9.5 -24 -9.5c-10 0 -17.5 3.5 -22.5 10.5s-7.5 14.167 -7.5 21.5z" />
    <glyph glyph-name="Udieresis" unicode="&#xdc;" horiz-adv-x="748" 
d="M689 700l0.00390625 -433c0 -52.667 -9.16699 -97 -27.5 -133s-42.333 -65 -72 -87s-63.334 -37.833 -101.001 -47.5s-75.834 -14.5 -114.501 -14.5s-76.834 4.83301 -114.501 14.5s-71.334 25.5 -101.001 47.5s-53.667 51 -72 87s-27.5 80.333 -27.5 133v433h185v-423
c0 -47.333 11.833 -80.333 35.5 -99s55.167 -28 94.5 -28s70.833 9.33301 94.5 28s35.5 51.667 35.5 99v423h185zM128.004 914h500v-165h-500v165zM185.004 787h31c15.333 0 27 4 35 12s12 18.667 12 32c0 12 -4 22.333 -12 31s-19.667 13 -35 13h-31v-88zM200.004 859h16
c10 0 17.667 -2.66699 23 -8s8 -12 8 -20c0 -19.333 -10.333 -29 -31 -29h-16v57zM304.004 802v21h46v16h-46v20h46v16h-62v-88h62v15h-46zM469.004 787v88h-21l-26 -36l-26 36h-21v-88h17v66l30 -39l31 40v-67h16zM539.004 880c-12.667 0 -23.332 -4.5 -31.999 -13.5
s-13 -20.167 -13 -33.5c0 -12.667 3.66699 -23.667 11 -33s18.666 -14 33.999 -14c16 0 27.833 4.66699 35.5 14s11.5 20.333 11.5 33c0 14.667 -4.5 26.167 -13.5 34.5s-20.167 12.5 -33.5 12.5zM509.006 833c0 8 2.5 15.333 7.5 22s12.5 10 22.5 10
c10.667 0 18.5 -3.33301 23.5 -10s7.5 -14 7.5 -22c0 -8.66699 -2.33301 -16.167 -7 -22.5s-12.667 -9.5 -24 -9.5c-10 0 -17.5 3.5 -22.5 10.5s-7.5 14.167 -7.5 21.5z" />
    <glyph glyph-name="Yacute" unicode="&#xdd;" horiz-adv-x="728" 
d="M272 0v239l-273 461h210l155 -289l155 289h210l-273 -461v-239h-184zM128 914h500v-165h-500v165zM185 787h31c15.333 0 27 4 35 12s12 18.667 12 32c0 12 -4 22.333 -12 31s-19.667 13 -35 13h-31v-88zM200 859h16c10 0 17.667 -2.66699 23 -8s8 -12 8 -20
c0 -19.333 -10.333 -29 -31 -29h-16v57zM304 802v21h46v16h-46v20h46v16h-62v-88h62v15h-46zM469 787v88h-21l-26 -36l-26 36h-21v-88h17v66l30 -39l31 40v-67h16zM539 880c-12.667 0 -23.332 -4.5 -31.999 -13.5s-13 -20.167 -13 -33.5c0 -12.667 3.66699 -23.667 11 -33
s18.666 -14 33.999 -14c16 0 27.833 4.66699 35.5 14s11.5 20.333 11.5 33c0 14.667 -4.5 26.167 -13.5 34.5s-20.167 12.5 -33.5 12.5zM509.002 833c0 8 2.5 15.333 7.5 22s12.5 10 22.5 10c10.667 0 18.5 -3.33301 23.5 -10s7.5 -14 7.5 -22
c0 -8.66699 -2.33301 -16.167 -7 -22.5s-12.667 -9.5 -24 -9.5c-10 0 -17.5 3.5 -22.5 10.5s-7.5 14.167 -7.5 21.5z" />
    <glyph glyph-name="Thorn" unicode="&#xde;" horiz-adv-x="668" 
d="M343 590c43.333 0 83.5 -3.83105 120.5 -11.498s69.167 -20.834 96.5 -39.501s48.833 -43.334 64.5 -74.001s23.5 -69 23.5 -115s-7.83301 -84.333 -23.5 -115s-37.167 -55.167 -64.5 -73.5s-59.5 -31.5 -96.5 -39.5s-77.167 -12 -120.5 -12h-92v-110h-185v700h185v-110
h92zM352 270.002c14 0 27.333 1.16699 40 3.5s24 6.5 34 12.5s17.833 14.167 23.5 24.5s8.5 23.5 8.5 39.5s-2.83301 29.167 -8.5 39.5s-13.5 18.5 -23.5 24.5s-21.333 10.167 -34 12.5s-26 3.5 -40 3.5h-101v-160h101z" />
    <glyph glyph-name="germandbls" unicode="&#xdf;" horiz-adv-x="588" 
d="M573 141c0 -27.333 -5.66406 -50.832 -16.9971 -70.499s-26.333 -35.834 -45 -48.501s-39.834 -22 -63.501 -28s-47.834 -9 -72.501 -9c-20.667 0 -40.667 2.16699 -60 6.5s-37.333 10.166 -54 17.499v130c14.667 -8 28.834 -13.833 42.501 -17.5s26.167 -5.5 37.5 -5.5
c17.333 0 31.166 3.5 41.499 10.5s15.5 16.833 15.5 29.5c0 8.66699 -3.33301 17.5 -10 26.5s-15 18.667 -25 29s-21 20.833 -33 31.5s-23 22.167 -33 34.5s-18.333 25 -25 38s-10 26.833 -10 41.5c0 18.667 3.66699 34.667 11 48s15.5 25.833 24.5 37.5s17.333 24 25 37
s11.5 29.167 11.5 48.5c0 22 -5.83301 37 -17.5 45s-24.5 12 -38.5 12c-17.333 0 -31.166 -5 -41.499 -15s-15.5 -23.667 -15.5 -41v-529h-170v486c0 74 19.333 130.5 58 169.5s95 58.833 169 59.5c39.333 0 72.666 -5 99.999 -15s49.666 -22.667 66.999 -38
s29.833 -32.166 37.5 -50.499s11.5 -35.833 11.5 -52.5c0 -21.333 -4.33301 -40.5 -13 -57.5s-18 -32.5 -28 -46.5l-28 -39c-8.66699 -12 -13 -23.667 -13 -35c0 -10.667 4 -21 12 -31s18 -20.5 30 -31.5l38.5 -34.5c13.667 -12 26.5 -25.167 38.5 -39.5s22 -30 30 -47
s12 -35.833 12 -56.5z" />
    <glyph glyph-name="agrave" unicode="&#xe0;" horiz-adv-x="567" 
d="M505 137c0 -11.333 3.33008 -19.1641 9.99707 -23.4971s14.334 -6.5 23.001 -6.5c6.66699 0 13 1 19 3v-105c-11.333 -4.66699 -24.5 -8.33398 -39.5 -11.001s-30.5 -4 -46.5 -4c-53.333 0 -91.333 17.667 -114 53c-23.333 -18 -48.5 -32.167 -75.5 -42.5
s-57.5 -15.5 -91.5 -15.5c-23.333 0 -45 3.33301 -65 10s-37.667 16.334 -53 29.001s-27.333 28.167 -36 46.5s-13 39.166 -13 62.499c0 30 6.5 55.167 19.5 75.5s29.5 36.666 49.5 48.999s42.333 21 67 26s48.667 7.5 72 7.5c36 0 70.667 -3.66699 104 -11v17
c0 17.333 -8.16699 31.666 -24.5 42.999s-41.5 17 -75.5 17c-32 0 -62.167 -3.83301 -90.5 -11.5s-54.166 -16.167 -77.499 -25.5v143c10 3.33301 22 6.83301 36 10.5s29.333 7.16699 46 10.5s33.834 6 51.501 8s35.5 3 53.5 3c38 0 72.5 -3.66699 103.5 -11
s57.5 -19.666 79.5 -36.999s38.833 -40.333 50.5 -69s17.5 -64.334 17.5 -107.001v-134zM197.997 147.002c0 -12.667 5.16699 -23.668 15.5 -33.001s24.5 -14 42.5 -14c14 0 27.333 1.83301 40 5.5s25.667 10.167 39 19.5v65c-7.33301 2.66699 -16.5 4.83398 -27.5 6.50098
s-22.167 2.5 -33.5 2.5c-20 0 -37.667 -3.83301 -53 -11.5s-23 -21.167 -23 -40.5zM-24.0029 704.001h500v-165h-500v165zM32.9971 577.001h31c15.333 0 27 4 35 12s12 18.667 12 32c0 12 -4 22.333 -12 31s-19.667 13 -35 13h-31v-88zM47.9971 649.001h16
c10 0 17.667 -2.66699 23 -8s8 -12 8 -20c0 -19.333 -10.333 -29 -31 -29h-16v57zM151.997 592.001v21h46v16h-46v20h46v16h-62v-88h62v15h-46zM316.997 577.001v88h-21l-26 -36l-26 36h-21v-88h17v66l30 -39l31 40v-67h16zM386.997 670.001
c-12.667 0 -23.332 -4.5 -31.999 -13.5s-13 -20.167 -13 -33.5c0 -12.667 3.66699 -23.667 11 -33s18.666 -14 33.999 -14c16 0 27.833 4.66699 35.5 14s11.5 20.333 11.5 33c0 14.667 -4.5 26.167 -13.5 34.5s-20.167 12.5 -33.5 12.5zM356.999 623.001
c0 8 2.5 15.333 7.5 22s12.5 10 22.5 10c10.667 0 18.5 -3.33301 23.5 -10s7.5 -14 7.5 -22c0 -8.66699 -2.33301 -16.167 -7 -22.5s-12.667 -9.5 -24 -9.5c-10 0 -17.5 3.5 -22.5 10.5s-7.5 14.167 -7.5 21.5z" />
    <glyph glyph-name="aacute" unicode="&#xe1;" horiz-adv-x="567" 
d="M505 137c0 -11.333 3.33008 -19.1641 9.99707 -23.4971s14.334 -6.5 23.001 -6.5c6.66699 0 13 1 19 3v-105c-11.333 -4.66699 -24.5 -8.33398 -39.5 -11.001s-30.5 -4 -46.5 -4c-53.333 0 -91.333 17.667 -114 53c-23.333 -18 -48.5 -32.167 -75.5 -42.5
s-57.5 -15.5 -91.5 -15.5c-23.333 0 -45 3.33301 -65 10s-37.667 16.334 -53 29.001s-27.333 28.167 -36 46.5s-13 39.166 -13 62.499c0 30 6.5 55.167 19.5 75.5s29.5 36.666 49.5 48.999s42.333 21 67 26s48.667 7.5 72 7.5c36 0 70.667 -3.66699 104 -11v17
c0 17.333 -8.16699 31.666 -24.5 42.999s-41.5 17 -75.5 17c-32 0 -62.167 -3.83301 -90.5 -11.5s-54.166 -16.167 -77.499 -25.5v143c10 3.33301 22 6.83301 36 10.5s29.333 7.16699 46 10.5s33.834 6 51.501 8s35.5 3 53.5 3c38 0 72.5 -3.66699 103.5 -11
s57.5 -19.666 79.5 -36.999s38.833 -40.333 50.5 -69s17.5 -64.334 17.5 -107.001v-134zM197.997 147.002c0 -12.667 5.16699 -23.668 15.5 -33.001s24.5 -14 42.5 -14c14 0 27.333 1.83301 40 5.5s25.667 10.167 39 19.5v65c-7.33301 2.66699 -16.5 4.83398 -27.5 6.50098
s-22.167 2.5 -33.5 2.5c-20 0 -37.667 -3.83301 -53 -11.5s-23 -21.167 -23 -40.5zM27.9971 704.001h500v-165h-500v165zM84.9971 577.001h31c15.333 0 27 4 35 12s12 18.667 12 32c0 12 -4 22.333 -12 31s-19.667 13 -35 13h-31v-88zM99.9971 649.001h16
c10 0 17.667 -2.66699 23 -8s8 -12 8 -20c0 -19.333 -10.333 -29 -31 -29h-16v57zM203.997 592.001v21h46v16h-46v20h46v16h-62v-88h62v15h-46zM368.997 577.001v88h-21l-26 -36l-26 36h-21v-88h17v66l30 -39l31 40v-67h16zM438.997 670.001
c-12.667 0 -23.332 -4.5 -31.999 -13.5s-13 -20.167 -13 -33.5c0 -12.667 3.66699 -23.667 11 -33s18.666 -14 33.999 -14c16 0 27.833 4.66699 35.5 14s11.5 20.333 11.5 33c0 14.667 -4.5 26.167 -13.5 34.5s-20.167 12.5 -33.5 12.5zM408.999 623.001
c0 8 2.5 15.333 7.5 22s12.5 10 22.5 10c10.667 0 18.5 -3.33301 23.5 -10s7.5 -14 7.5 -22c0 -8.66699 -2.33301 -16.167 -7 -22.5s-12.667 -9.5 -24 -9.5c-10 0 -17.5 3.5 -22.5 10.5s-7.5 14.167 -7.5 21.5z" />
    <glyph glyph-name="acircumflex" unicode="&#xe2;" horiz-adv-x="567" 
d="M505 137c0 -11.333 3.33008 -19.1641 9.99707 -23.4971s14.334 -6.5 23.001 -6.5c6.66699 0 13 1 19 3v-105c-11.333 -4.66699 -24.5 -8.33398 -39.5 -11.001s-30.5 -4 -46.5 -4c-53.333 0 -91.333 17.667 -114 53c-23.333 -18 -48.5 -32.167 -75.5 -42.5
s-57.5 -15.5 -91.5 -15.5c-23.333 0 -45 3.33301 -65 10s-37.667 16.334 -53 29.001s-27.333 28.167 -36 46.5s-13 39.166 -13 62.499c0 30 6.5 55.167 19.5 75.5s29.5 36.666 49.5 48.999s42.333 21 67 26s48.667 7.5 72 7.5c36 0 70.667 -3.66699 104 -11v17
c0 17.333 -8.16699 31.666 -24.5 42.999s-41.5 17 -75.5 17c-32 0 -62.167 -3.83301 -90.5 -11.5s-54.166 -16.167 -77.499 -25.5v143c10 3.33301 22 6.83301 36 10.5s29.333 7.16699 46 10.5s33.834 6 51.501 8s35.5 3 53.5 3c38 0 72.5 -3.66699 103.5 -11
s57.5 -19.666 79.5 -36.999s38.833 -40.333 50.5 -69s17.5 -64.334 17.5 -107.001v-134zM197.997 147.002c0 -12.667 5.16699 -23.668 15.5 -33.001s24.5 -14 42.5 -14c14 0 27.333 1.83301 40 5.5s25.667 10.167 39 19.5v65c-7.33301 2.66699 -16.5 4.83398 -27.5 6.50098
s-22.167 2.5 -33.5 2.5c-20 0 -37.667 -3.83301 -53 -11.5s-23 -21.167 -23 -40.5zM8.99707 704.001h500v-165h-500v165zM65.9971 577.001h31c15.333 0 27 4 35 12s12 18.667 12 32c0 12 -4 22.333 -12 31s-19.667 13 -35 13h-31v-88zM80.9971 649.001h16
c10 0 17.667 -2.66699 23 -8s8 -12 8 -20c0 -19.333 -10.333 -29 -31 -29h-16v57zM184.997 592.001v21h46v16h-46v20h46v16h-62v-88h62v15h-46zM349.997 577.001v88h-21l-26 -36l-26 36h-21v-88h17v66l30 -39l31 40v-67h16zM419.997 670.001
c-12.667 0 -23.332 -4.5 -31.999 -13.5s-13 -20.167 -13 -33.5c0 -12.667 3.66699 -23.667 11 -33s18.666 -14 33.999 -14c16 0 27.833 4.66699 35.5 14s11.5 20.333 11.5 33c0 14.667 -4.5 26.167 -13.5 34.5s-20.167 12.5 -33.5 12.5zM389.999 623.001
c0 8 2.5 15.333 7.5 22s12.5 10 22.5 10c10.667 0 18.5 -3.33301 23.5 -10s7.5 -14 7.5 -22c0 -8.66699 -2.33301 -16.167 -7 -22.5s-12.667 -9.5 -24 -9.5c-10 0 -17.5 3.5 -22.5 10.5s-7.5 14.167 -7.5 21.5z" />
    <glyph glyph-name="atilde" unicode="&#xe3;" horiz-adv-x="567" 
d="M505 137c0 -11.333 3.33008 -19.1641 9.99707 -23.4971s14.334 -6.5 23.001 -6.5c6.66699 0 13 1 19 3v-105c-11.333 -4.66699 -24.5 -8.33398 -39.5 -11.001s-30.5 -4 -46.5 -4c-53.333 0 -91.333 17.667 -114 53c-23.333 -18 -48.5 -32.167 -75.5 -42.5
s-57.5 -15.5 -91.5 -15.5c-23.333 0 -45 3.33301 -65 10s-37.667 16.334 -53 29.001s-27.333 28.167 -36 46.5s-13 39.166 -13 62.499c0 30 6.5 55.167 19.5 75.5s29.5 36.666 49.5 48.999s42.333 21 67 26s48.667 7.5 72 7.5c36 0 70.667 -3.66699 104 -11v17
c0 17.333 -8.16699 31.666 -24.5 42.999s-41.5 17 -75.5 17c-32 0 -62.167 -3.83301 -90.5 -11.5s-54.166 -16.167 -77.499 -25.5v143c10 3.33301 22 6.83301 36 10.5s29.333 7.16699 46 10.5s33.834 6 51.501 8s35.5 3 53.5 3c38 0 72.5 -3.66699 103.5 -11
s57.5 -19.666 79.5 -36.999s38.833 -40.333 50.5 -69s17.5 -64.334 17.5 -107.001v-134zM197.997 147.002c0 -12.667 5.16699 -23.668 15.5 -33.001s24.5 -14 42.5 -14c14 0 27.333 1.83301 40 5.5s25.667 10.167 39 19.5v65c-7.33301 2.66699 -16.5 4.83398 -27.5 6.50098
s-22.167 2.5 -33.5 2.5c-20 0 -37.667 -3.83301 -53 -11.5s-23 -21.167 -23 -40.5zM5.99707 704.001h500v-165h-500v165zM62.9971 577.001h31c15.333 0 27 4 35 12s12 18.667 12 32c0 12 -4 22.333 -12 31s-19.667 13 -35 13h-31v-88zM77.9971 649.001h16
c10 0 17.667 -2.66699 23 -8s8 -12 8 -20c0 -19.333 -10.333 -29 -31 -29h-16v57zM181.997 592.001v21h46v16h-46v20h46v16h-62v-88h62v15h-46zM346.997 577.001v88h-21l-26 -36l-26 36h-21v-88h17v66l30 -39l31 40v-67h16zM416.997 670.001
c-12.667 0 -23.332 -4.5 -31.999 -13.5s-13 -20.167 -13 -33.5c0 -12.667 3.66699 -23.667 11 -33s18.666 -14 33.999 -14c16 0 27.833 4.66699 35.5 14s11.5 20.333 11.5 33c0 14.667 -4.5 26.167 -13.5 34.5s-20.167 12.5 -33.5 12.5zM386.999 623.001
c0 8 2.5 15.333 7.5 22s12.5 10 22.5 10c10.667 0 18.5 -3.33301 23.5 -10s7.5 -14 7.5 -22c0 -8.66699 -2.33301 -16.167 -7 -22.5s-12.667 -9.5 -24 -9.5c-10 0 -17.5 3.5 -22.5 10.5s-7.5 14.167 -7.5 21.5z" />
    <glyph glyph-name="adieresis" unicode="&#xe4;" horiz-adv-x="567" 
d="M505 137c0 -11.333 3.33008 -19.1641 9.99707 -23.4971s14.334 -6.5 23.001 -6.5c6.66699 0 13 1 19 3v-105c-11.333 -4.66699 -24.5 -8.33398 -39.5 -11.001s-30.5 -4 -46.5 -4c-53.333 0 -91.333 17.667 -114 53c-23.333 -18 -48.5 -32.167 -75.5 -42.5
s-57.5 -15.5 -91.5 -15.5c-23.333 0 -45 3.33301 -65 10s-37.667 16.334 -53 29.001s-27.333 28.167 -36 46.5s-13 39.166 -13 62.499c0 30 6.5 55.167 19.5 75.5s29.5 36.666 49.5 48.999s42.333 21 67 26s48.667 7.5 72 7.5c36 0 70.667 -3.66699 104 -11v17
c0 17.333 -8.16699 31.666 -24.5 42.999s-41.5 17 -75.5 17c-32 0 -62.167 -3.83301 -90.5 -11.5s-54.166 -16.167 -77.499 -25.5v143c10 3.33301 22 6.83301 36 10.5s29.333 7.16699 46 10.5s33.834 6 51.501 8s35.5 3 53.5 3c38 0 72.5 -3.66699 103.5 -11
s57.5 -19.666 79.5 -36.999s38.833 -40.333 50.5 -69s17.5 -64.334 17.5 -107.001v-134zM197.997 147.002c0 -12.667 5.16699 -23.668 15.5 -33.001s24.5 -14 42.5 -14c14 0 27.333 1.83301 40 5.5s25.667 10.167 39 19.5v65c-7.33301 2.66699 -16.5 4.83398 -27.5 6.50098
s-22.167 2.5 -33.5 2.5c-20 0 -37.667 -3.83301 -53 -11.5s-23 -21.167 -23 -40.5zM15.9971 704.001h500v-165h-500v165zM72.9971 577.001h31c15.333 0 27 4 35 12s12 18.667 12 32c0 12 -4 22.333 -12 31s-19.667 13 -35 13h-31v-88zM87.9971 649.001h16
c10 0 17.667 -2.66699 23 -8s8 -12 8 -20c0 -19.333 -10.333 -29 -31 -29h-16v57zM191.997 592.001v21h46v16h-46v20h46v16h-62v-88h62v15h-46zM356.997 577.001v88h-21l-26 -36l-26 36h-21v-88h17v66l30 -39l31 40v-67h16zM426.997 670.001
c-12.667 0 -23.332 -4.5 -31.999 -13.5s-13 -20.167 -13 -33.5c0 -12.667 3.66699 -23.667 11 -33s18.666 -14 33.999 -14c16 0 27.833 4.66699 35.5 14s11.5 20.333 11.5 33c0 14.667 -4.5 26.167 -13.5 34.5s-20.167 12.5 -33.5 12.5zM396.999 623.001
c0 8 2.5 15.333 7.5 22s12.5 10 22.5 10c10.667 0 18.5 -3.33301 23.5 -10s7.5 -14 7.5 -22c0 -8.66699 -2.33301 -16.167 -7 -22.5s-12.667 -9.5 -24 -9.5c-10 0 -17.5 3.5 -22.5 10.5s-7.5 14.167 -7.5 21.5z" />
    <glyph glyph-name="aring" unicode="&#xe5;" horiz-adv-x="567" 
d="M505 137c0 -11.333 3.33008 -19.1641 9.99707 -23.4971s14.334 -6.5 23.001 -6.5c6.66699 0 13 1 19 3v-105c-11.333 -4.66699 -24.5 -8.33398 -39.5 -11.001s-30.5 -4 -46.5 -4c-53.333 0 -91.333 17.667 -114 53c-23.333 -18 -48.5 -32.167 -75.5 -42.5
s-57.5 -15.5 -91.5 -15.5c-23.333 0 -45 3.33301 -65 10s-37.667 16.334 -53 29.001s-27.333 28.167 -36 46.5s-13 39.166 -13 62.499c0 30 6.5 55.167 19.5 75.5s29.5 36.666 49.5 48.999s42.333 21 67 26s48.667 7.5 72 7.5c36 0 70.667 -3.66699 104 -11v17
c0 17.333 -8.16699 31.666 -24.5 42.999s-41.5 17 -75.5 17c-32 0 -62.167 -3.83301 -90.5 -11.5s-54.166 -16.167 -77.499 -25.5v143c10 3.33301 22 6.83301 36 10.5s29.333 7.16699 46 10.5s33.834 6 51.501 8s35.5 3 53.5 3c38 0 72.5 -3.66699 103.5 -11
s57.5 -19.666 79.5 -36.999s38.833 -40.333 50.5 -69s17.5 -64.334 17.5 -107.001v-134zM197.997 147.002c0 -12.667 5.16699 -23.668 15.5 -33.001s24.5 -14 42.5 -14c14 0 27.333 1.83301 40 5.5s25.667 10.167 39 19.5v65c-7.33301 2.66699 -16.5 4.83398 -27.5 6.50098
s-22.167 2.5 -33.5 2.5c-20 0 -37.667 -3.83301 -53 -11.5s-23 -21.167 -23 -40.5zM25.9971 704.001h500v-165h-500v165zM82.9971 577.001h31c15.333 0 27 4 35 12s12 18.667 12 32c0 12 -4 22.333 -12 31s-19.667 13 -35 13h-31v-88zM97.9971 649.001h16
c10 0 17.667 -2.66699 23 -8s8 -12 8 -20c0 -19.333 -10.333 -29 -31 -29h-16v57zM201.997 592.001v21h46v16h-46v20h46v16h-62v-88h62v15h-46zM366.997 577.001v88h-21l-26 -36l-26 36h-21v-88h17v66l30 -39l31 40v-67h16zM436.997 670.001
c-12.667 0 -23.332 -4.5 -31.999 -13.5s-13 -20.167 -13 -33.5c0 -12.667 3.66699 -23.667 11 -33s18.666 -14 33.999 -14c16 0 27.833 4.66699 35.5 14s11.5 20.333 11.5 33c0 14.667 -4.5 26.167 -13.5 34.5s-20.167 12.5 -33.5 12.5zM406.999 623.001
c0 8 2.5 15.333 7.5 22s12.5 10 22.5 10c10.667 0 18.5 -3.33301 23.5 -10s7.5 -14 7.5 -22c0 -8.66699 -2.33301 -16.167 -7 -22.5s-12.667 -9.5 -24 -9.5c-10 0 -17.5 3.5 -22.5 10.5s-7.5 14.167 -7.5 21.5z" />
    <glyph glyph-name="ae" unicode="&#xe6;" 
d="M71 0v700h232v-700h-232zM247 77l-0.000976562 47.999c0 21.333 -6.33301 36.833 -19 46.5s-26.667 14.167 -42 13.5c-15.333 0 -29.166 -4.66699 -41.499 -14s-18.5 -24.666 -18.5 -45.999v-48h121zM147.999 124.999c-0.666992 13.333 3.16797 22.668 11.501 28.001
s17.166 8.66602 26.499 9.99902c9.33301 0 18.333 -2.83301 27 -8.5s13 -15.5 13 -29.5v-26h-78v26zM226.001 243.001h-28v65h-21v-65h-28v67h-23v-90h121v90h-21v-67zM247.001 477.001h-121v-26l53 -39l-53 -37v-26h121v22h-87l53 39v4l-53 41h87v22zM123.001 574.001
c0 -17.333 6.00098 -32.001 18.001 -44.001s27.667 -18 47 -18c15.333 0 29.666 5 42.999 15s20 25.667 20 47s-6.83301 36.833 -20.5 46.5s-28.167 14.834 -43.5 15.501c-15.333 0 -29.833 -5 -43.5 -15s-20.5 -25.667 -20.5 -47zM188.002 534
c-12 -0.666992 -22.333 2.49902 -31 9.49902s-12.667 17.167 -12 30.5c0 14.667 4.66699 25 14 31s19 9 29 9c10 -1.33301 19.333 -4.66602 28 -9.99902s13 -15.333 13 -30s-4.33301 -25 -13 -31s-18 -9 -28 -9z" />
    <glyph glyph-name="ccedilla" unicode="&#xe7;" horiz-adv-x="490" 
d="M27 230c0 47.333 8.00391 87.834 24.0039 121.501s37 61.167 63 82.5s55.667 37 89 47s67 15 101 15c26 0 51.667 -2.83301 77 -8.5s49 -13.834 71 -24.501v-145c-16.667 9.33301 -35.834 17.166 -57.501 23.499s-43.167 9.5 -64.5 9.5c-16.667 0 -32.667 -2 -48 -6
s-29 -10.333 -41 -19s-21.5 -20 -28.5 -34s-10.5 -31.333 -10.5 -52c0 -19.333 3.5 -35.833 10.5 -49.5s16.167 -25 27.5 -34s24.666 -15.667 39.999 -20s31 -6.5 47 -6.5c25.333 0 49.166 3 71.499 9s41.833 13.667 58.5 23v-145c-24 -10 -49.833 -17.833 -77.5 -23.5
s-56.834 -8.5 -87.501 -8.5c-33.333 0 -66 4.83301 -98 14.5s-60.333 24.5 -85 44.5s-44.5 45.333 -59.5 76s-22.5 67.334 -22.5 110.001z" />
    <glyph glyph-name="egrave" unicode="&#xe8;" horiz-adv-x="548" 
d="M27 240c0 46.667 8.16992 86.3311 24.5029 118.998s37 59 62 79s52.333 34.5 82 43.5s57.5 13.5 83.5 13.5c51.333 0 94 -9.16699 128 -27.5s60.333 -42 79 -71s30 -61.667 34 -98s1.66699 -72.833 -7 -109.5h-314c4.66699 -13.333 12 -24.666 22 -33.999
s21.833 -17 35.5 -23s28.667 -10.333 45 -13s33.166 -4 50.499 -4c27.333 0 52.166 2 74.499 6s43.5 9.66699 63.5 17v-126c-22.667 -8 -48.5 -14.5 -77.5 -19.5s-62.5 -7.5 -100.5 -7.5c-39.333 0 -76.333 5.5 -111 16.5s-64.834 27.333 -90.501 49s-46 48.334 -61 80.001
s-22.5 68.167 -22.5 109.5zM358.003 290.997c1.33301 6 1.33301 13.499 0 22.499s-4.66602 17.833 -9.99902 26.5s-13.333 16.167 -24 22.5s-24.334 9.5 -41.001 9.5c-23.333 0 -43.5 -7.16699 -60.5 -21.5s-25.5 -34.166 -25.5 -59.499h161zM-7.99707 693.996h500v-165
h-500v165zM49.0029 566.996h31c15.333 0 27 4 35 12s12 18.667 12 32c0 12 -4 22.333 -12 31s-19.667 13 -35 13h-31v-88zM64.0029 638.996h16c10 0 17.667 -2.66699 23 -8s8 -12 8 -20c0 -19.333 -10.333 -29 -31 -29h-16v57zM168.003 581.996v21h46v16h-46v20h46v16h-62
v-88h62v15h-46zM333.003 566.996v88h-21l-26 -36l-26 36h-21v-88h17v66l30 -39l31 40v-67h16zM403.003 659.996c-12.667 0 -23.332 -4.5 -31.999 -13.5s-13 -20.167 -13 -33.5c0 -12.667 3.66699 -23.667 11 -33s18.666 -14 33.999 -14c16 0 27.833 4.66699 35.5 14
s11.5 20.333 11.5 33c0 14.667 -4.5 26.167 -13.5 34.5s-20.167 12.5 -33.5 12.5zM373.005 612.996c0 8 2.5 15.333 7.5 22s12.5 10 22.5 10c10.667 0 18.5 -3.33301 23.5 -10s7.5 -14 7.5 -22c0 -8.66699 -2.33301 -16.167 -7 -22.5s-12.667 -9.5 -24 -9.5
c-10 0 -17.5 3.5 -22.5 10.5s-7.5 14.167 -7.5 21.5z" />
    <glyph glyph-name="eacute" unicode="&#xe9;" horiz-adv-x="548" 
d="M27 240c0 46.667 8.16992 86.3311 24.5029 118.998s37 59 62 79s52.333 34.5 82 43.5s57.5 13.5 83.5 13.5c51.333 0 94 -9.16699 128 -27.5s60.333 -42 79 -71s30 -61.667 34 -98s1.66699 -72.833 -7 -109.5h-314c4.66699 -13.333 12 -24.666 22 -33.999
s21.833 -17 35.5 -23s28.667 -10.333 45 -13s33.166 -4 50.499 -4c27.333 0 52.166 2 74.499 6s43.5 9.66699 63.5 17v-126c-22.667 -8 -48.5 -14.5 -77.5 -19.5s-62.5 -7.5 -100.5 -7.5c-39.333 0 -76.333 5.5 -111 16.5s-64.834 27.333 -90.501 49s-46 48.334 -61 80.001
s-22.5 68.167 -22.5 109.5zM358.003 290.997c1.33301 6 1.33301 13.499 0 22.499s-4.66602 17.833 -9.99902 26.5s-13.333 16.167 -24 22.5s-24.334 9.5 -41.001 9.5c-23.333 0 -43.5 -7.16699 -60.5 -21.5s-25.5 -34.166 -25.5 -59.499h161zM44.0029 693.996h500v-165h-500
v165zM101.003 566.996h31c15.333 0 27 4 35 12s12 18.667 12 32c0 12 -4 22.333 -12 31s-19.667 13 -35 13h-31v-88zM116.003 638.996h16c10 0 17.667 -2.66699 23 -8s8 -12 8 -20c0 -19.333 -10.333 -29 -31 -29h-16v57zM220.003 581.996v21h46v16h-46v20h46v16h-62v-88h62
v15h-46zM385.003 566.996v88h-21l-26 -36l-26 36h-21v-88h17v66l30 -39l31 40v-67h16zM455.003 659.996c-12.667 0 -23.332 -4.5 -31.999 -13.5s-13 -20.167 -13 -33.5c0 -12.667 3.66699 -23.667 11 -33s18.666 -14 33.999 -14c16 0 27.833 4.66699 35.5 14
s11.5 20.333 11.5 33c0 14.667 -4.5 26.167 -13.5 34.5s-20.167 12.5 -33.5 12.5zM425.005 612.996c0 8 2.5 15.333 7.5 22s12.5 10 22.5 10c10.667 0 18.5 -3.33301 23.5 -10s7.5 -14 7.5 -22c0 -8.66699 -2.33301 -16.167 -7 -22.5s-12.667 -9.5 -24 -9.5
c-10 0 -17.5 3.5 -22.5 10.5s-7.5 14.167 -7.5 21.5z" />
    <glyph glyph-name="ecircumflex" unicode="&#xea;" horiz-adv-x="548" 
d="M27 240c0 46.667 8.16992 86.3311 24.5029 118.998s37 59 62 79s52.333 34.5 82 43.5s57.5 13.5 83.5 13.5c51.333 0 94 -9.16699 128 -27.5s60.333 -42 79 -71s30 -61.667 34 -98s1.66699 -72.833 -7 -109.5h-314c4.66699 -13.333 12 -24.666 22 -33.999
s21.833 -17 35.5 -23s28.667 -10.333 45 -13s33.166 -4 50.499 -4c27.333 0 52.166 2 74.499 6s43.5 9.66699 63.5 17v-126c-22.667 -8 -48.5 -14.5 -77.5 -19.5s-62.5 -7.5 -100.5 -7.5c-39.333 0 -76.333 5.5 -111 16.5s-64.834 27.333 -90.501 49s-46 48.334 -61 80.001
s-22.5 68.167 -22.5 109.5zM358.003 290.997c1.33301 6 1.33301 13.499 0 22.499s-4.66602 17.833 -9.99902 26.5s-13.333 16.167 -24 22.5s-24.334 9.5 -41.001 9.5c-23.333 0 -43.5 -7.16699 -60.5 -21.5s-25.5 -34.166 -25.5 -59.499h161zM25.0029 693.996h500v-165h-500
v165zM82.0029 566.996h31c15.333 0 27 4 35 12s12 18.667 12 32c0 12 -4 22.333 -12 31s-19.667 13 -35 13h-31v-88zM97.0029 638.996h16c10 0 17.667 -2.66699 23 -8s8 -12 8 -20c0 -19.333 -10.333 -29 -31 -29h-16v57zM201.003 581.996v21h46v16h-46v20h46v16h-62v-88h62
v15h-46zM366.003 566.996v88h-21l-26 -36l-26 36h-21v-88h17v66l30 -39l31 40v-67h16zM436.003 659.996c-12.667 0 -23.332 -4.5 -31.999 -13.5s-13 -20.167 -13 -33.5c0 -12.667 3.66699 -23.667 11 -33s18.666 -14 33.999 -14c16 0 27.833 4.66699 35.5 14
s11.5 20.333 11.5 33c0 14.667 -4.5 26.167 -13.5 34.5s-20.167 12.5 -33.5 12.5zM406.005 612.996c0 8 2.5 15.333 7.5 22s12.5 10 22.5 10c10.667 0 18.5 -3.33301 23.5 -10s7.5 -14 7.5 -22c0 -8.66699 -2.33301 -16.167 -7 -22.5s-12.667 -9.5 -24 -9.5
c-10 0 -17.5 3.5 -22.5 10.5s-7.5 14.167 -7.5 21.5z" />
    <glyph glyph-name="edieresis" unicode="&#xeb;" horiz-adv-x="548" 
d="M27 240c0 46.667 8.16992 86.3311 24.5029 118.998s37 59 62 79s52.333 34.5 82 43.5s57.5 13.5 83.5 13.5c51.333 0 94 -9.16699 128 -27.5s60.333 -42 79 -71s30 -61.667 34 -98s1.66699 -72.833 -7 -109.5h-314c4.66699 -13.333 12 -24.666 22 -33.999
s21.833 -17 35.5 -23s28.667 -10.333 45 -13s33.166 -4 50.499 -4c27.333 0 52.166 2 74.499 6s43.5 9.66699 63.5 17v-126c-22.667 -8 -48.5 -14.5 -77.5 -19.5s-62.5 -7.5 -100.5 -7.5c-39.333 0 -76.333 5.5 -111 16.5s-64.834 27.333 -90.501 49s-46 48.334 -61 80.001
s-22.5 68.167 -22.5 109.5zM358.003 290.997c1.33301 6 1.33301 13.499 0 22.499s-4.66602 17.833 -9.99902 26.5s-13.333 16.167 -24 22.5s-24.334 9.5 -41.001 9.5c-23.333 0 -43.5 -7.16699 -60.5 -21.5s-25.5 -34.166 -25.5 -59.499h161zM32.0029 693.996h500v-165h-500
v165zM89.0029 566.996h31c15.333 0 27 4 35 12s12 18.667 12 32c0 12 -4 22.333 -12 31s-19.667 13 -35 13h-31v-88zM104.003 638.996h16c10 0 17.667 -2.66699 23 -8s8 -12 8 -20c0 -19.333 -10.333 -29 -31 -29h-16v57zM208.003 581.996v21h46v16h-46v20h46v16h-62v-88h62
v15h-46zM373.003 566.996v88h-21l-26 -36l-26 36h-21v-88h17v66l30 -39l31 40v-67h16zM443.003 659.996c-12.667 0 -23.332 -4.5 -31.999 -13.5s-13 -20.167 -13 -33.5c0 -12.667 3.66699 -23.667 11 -33s18.666 -14 33.999 -14c16 0 27.833 4.66699 35.5 14
s11.5 20.333 11.5 33c0 14.667 -4.5 26.167 -13.5 34.5s-20.167 12.5 -33.5 12.5zM413.005 612.996c0 8 2.5 15.333 7.5 22s12.5 10 22.5 10c10.667 0 18.5 -3.33301 23.5 -10s7.5 -14 7.5 -22c0 -8.66699 -2.33301 -16.167 -7 -22.5s-12.667 -9.5 -24 -9.5
c-10 0 -17.5 3.5 -22.5 10.5s-7.5 14.167 -7.5 21.5z" />
    <glyph glyph-name="igrave" unicode="&#xec;" horiz-adv-x="274" 
d="M52 0v480h170v-480h-170z" />
    <glyph glyph-name="iacute" unicode="&#xed;" horiz-adv-x="274" 
d="M222 480v-480h-170v480h170zM-97 694h500v-165h-500v165zM-40 567h31c15.333 0 27 4 35 12s12 18.667 12 32c0 12 -4 22.333 -12 31s-19.667 13 -35 13h-31v-88zM-25 639h16c10 0 17.667 -2.66699 23 -8s8 -12 8 -20c0 -19.333 -10.333 -29 -31 -29h-16v57zM79 582v21h46
v16h-46v20h46v16h-62v-88h62v15h-46zM244 567v88h-21l-26 -36l-26 36h-21v-88h17v66l30 -39l31 40v-67h16zM314 660c-12.667 0 -23.332 -4.5 -31.999 -13.5s-13 -20.167 -13 -33.5c0 -12.667 3.66699 -23.667 11 -33s18.666 -14 33.999 -14c16 0 27.833 4.66699 35.5 14
s11.5 20.333 11.5 33c0 14.667 -4.5 26.167 -13.5 34.5s-20.167 12.5 -33.5 12.5zM284.002 613c0 8 2.5 15.333 7.5 22s12.5 10 22.5 10c10.667 0 18.5 -3.33301 23.5 -10s7.5 -14 7.5 -22c0 -8.66699 -2.33301 -16.167 -7 -22.5s-12.667 -9.5 -24 -9.5
c-10 0 -17.5 3.5 -22.5 10.5s-7.5 14.167 -7.5 21.5z" />
    <glyph glyph-name="icircumflex" unicode="&#xee;" horiz-adv-x="274" 
d="M222 480v-480h-170v480h170z" />
    <glyph glyph-name="idieresis" unicode="&#xef;" horiz-adv-x="274" 
d="M222 480v-480h-170v480h170z" />
    <glyph glyph-name="eth" unicode="&#xf0;" horiz-adv-x="582" 
d="M549 280c0 -55.333 -6.83496 -101.669 -20.502 -139.002s-32.167 -67.666 -55.5 -90.999s-50.833 -40 -82.5 -50s-65.5 -15 -101.5 -15s-69.833 4.66699 -101.5 14s-59.167 23.5 -82.5 42.5s-41.833 43 -55.5 72s-20.5 62.833 -20.5 101.5c0 34.667 5 65.667 15 93
s24 50.5 42 69.5s39.167 33.333 63.5 43s50.833 14.5 79.5 14.5c31.333 0 59.833 -5.16699 85.5 -15.5s45.5 -24.166 59.5 -41.499c0 4.66699 -0.166992 9.16699 -0.5 13.5s-0.833008 8.83301 -1.5 13.5c-3.33301 26 -12.166 50.5 -26.499 73.5s-33.166 43.167 -56.499 60.5
l-74 -74l-73 74l46 46c-26 6.66699 -55 10 -87 10v120c32.667 0 64.667 -2.5 96 -7.5s61.333 -12.833 90 -23.5l69 69l73 -74l-45 -45c50 -36 90 -83 120 -141s45 -129 45 -213zM203.998 214.997c0 -8.66699 1.16699 -18.167 3.5 -28.5s6.66602 -20 12.999 -29
s15 -16.667 26 -23s25.167 -9.5 42.5 -9.5s31.5 3.16699 42.5 9.5s19.667 14 26 23s10.666 18.667 12.999 29s3.5 19.833 3.5 28.5s-1.16699 18.167 -3.5 28.5s-6.66602 20 -12.999 29s-15 16.667 -26 23s-25.167 9.5 -42.5 9.5s-31.5 -3.16699 -42.5 -9.5
s-19.667 -14 -26 -23s-10.666 -18.667 -12.999 -29s-3.5 -19.833 -3.5 -28.5z" />
    <glyph glyph-name="ntilde" unicode="&#xf1;" horiz-adv-x="592" 
d="M201 425c20 21.333 42.499 38.333 67.499 51s53.5 19 85.5 19c32.667 0 61.167 -5.16699 85.5 -15.5s44.333 -24.5 60 -42.5s27.334 -39 35.001 -63s11.5 -49.333 11.5 -76v-298h-170v275c0 25.333 -6.83301 44.166 -20.5 56.499s-31.167 18.5 -52.5 18.5
c-19.333 0 -36 -4.66699 -50 -14s-24.667 -18.666 -32 -27.999v-308h-170v480h150v-55v0zM29.999 694h500v-165h-500v165zM86.999 567h31c15.333 0 27 4 35 12s12 18.667 12 32c0 12 -4 22.333 -12 31s-19.667 13 -35 13h-31v-88zM101.999 639h16
c10 0 17.667 -2.66699 23 -8s8 -12 8 -20c0 -19.333 -10.333 -29 -31 -29h-16v57zM205.999 582v21h46v16h-46v20h46v16h-62v-88h62v15h-46zM370.999 567v88h-21l-26 -36l-26 36h-21v-88h17v66l30 -39l31 40v-67h16zM440.999 660c-12.667 0 -23.332 -4.5 -31.999 -13.5
s-13 -20.167 -13 -33.5c0 -12.667 3.66699 -23.667 11 -33s18.666 -14 33.999 -14c16 0 27.833 4.66699 35.5 14s11.5 20.333 11.5 33c0 14.667 -4.5 26.167 -13.5 34.5s-20.167 12.5 -33.5 12.5zM411.001 613c0 8 2.5 15.333 7.5 22s12.5 10 22.5 10
c10.667 0 18.5 -3.33301 23.5 -10s7.5 -14 7.5 -22c0 -8.66699 -2.33301 -16.167 -7 -22.5s-12.667 -9.5 -24 -9.5c-10 0 -17.5 3.5 -22.5 10.5s-7.5 14.167 -7.5 21.5z" />
    <glyph glyph-name="ograve" unicode="&#xf2;" horiz-adv-x="594" 
d="M27 240c0 42.667 7.33301 79.834 22 111.501s34.334 58.167 59.001 79.5s53.334 37.333 86.001 48s67 16 103 16s70.333 -5.33301 103 -16s61.334 -26.667 86.001 -48s44.334 -47.833 59.001 -79.5s22 -68.834 22 -111.501s-7.33301 -79.834 -22 -111.501
s-34.334 -58.167 -59.001 -79.5s-53.334 -37.333 -86.001 -48s-67 -16 -103 -16s-70.333 5.33301 -103 16s-61.334 26.667 -86.001 48s-44.334 47.833 -59.001 79.5s-22 68.834 -22 111.501zM392 240c0 13.333 -1.66699 26.333 -5 39s-8.83301 23.834 -16.5 33.501
s-17.5 17.5 -29.5 23.5s-26.667 9 -44 9s-32.166 -3 -44.499 -9s-22.166 -13.833 -29.499 -23.5s-12.666 -20.834 -15.999 -33.501s-5 -25.667 -5 -39s1.66699 -26.333 5 -39s8.66602 -23.834 15.999 -33.501s17.166 -17.5 29.499 -23.5s27.166 -9 44.499 -9s32 3 44 9
s21.833 13.833 29.5 23.5s13.167 20.834 16.5 33.501s5 25.667 5 39zM12 684h500v-165h-500v165zM69 557h31c15.333 0 27 4 35 12s12 18.667 12 32c0 12 -4 22.333 -12 31s-19.667 13 -35 13h-31v-88zM84 629h16c10 0 17.667 -2.66699 23 -8s8 -12 8 -20
c0 -19.333 -10.333 -29 -31 -29h-16v57zM188 572v21h46v16h-46v20h46v16h-62v-88h62v15h-46zM353 557v88h-21l-26 -36l-26 36h-21v-88h17v66l30 -39l31 40v-67h16zM423 650c-12.667 0 -23.332 -4.5 -31.999 -13.5s-13 -20.167 -13 -33.5c0 -12.667 3.66699 -23.667 11 -33
s18.666 -14 33.999 -14c16 0 27.833 4.66699 35.5 14s11.5 20.333 11.5 33c0 14.667 -4.5 26.167 -13.5 34.5s-20.167 12.5 -33.5 12.5zM393.002 603c0 8 2.5 15.333 7.5 22s12.5 10 22.5 10c10.667 0 18.5 -3.33301 23.5 -10s7.5 -14 7.5 -22
c0 -8.66699 -2.33301 -16.167 -7 -22.5s-12.667 -9.5 -24 -9.5c-10 0 -17.5 3.5 -22.5 10.5s-7.5 14.167 -7.5 21.5z" />
    <glyph glyph-name="oacute" unicode="&#xf3;" horiz-adv-x="594" 
d="M27 240c0 42.667 7.33301 79.834 22 111.501s34.334 58.167 59.001 79.5s53.334 37.333 86.001 48s67 16 103 16s70.333 -5.33301 103 -16s61.334 -26.667 86.001 -48s44.334 -47.833 59.001 -79.5s22 -68.834 22 -111.501s-7.33301 -79.834 -22 -111.501
s-34.334 -58.167 -59.001 -79.5s-53.334 -37.333 -86.001 -48s-67 -16 -103 -16s-70.333 5.33301 -103 16s-61.334 26.667 -86.001 48s-44.334 47.833 -59.001 79.5s-22 68.834 -22 111.501zM392 240c0 13.333 -1.66699 26.333 -5 39s-8.83301 23.834 -16.5 33.501
s-17.5 17.5 -29.5 23.5s-26.667 9 -44 9s-32.166 -3 -44.499 -9s-22.166 -13.833 -29.499 -23.5s-12.666 -20.834 -15.999 -33.501s-5 -25.667 -5 -39s1.66699 -26.333 5 -39s8.66602 -23.834 15.999 -33.501s17.166 -17.5 29.499 -23.5s27.166 -9 44.499 -9s32 3 44 9
s21.833 13.833 29.5 23.5s13.167 20.834 16.5 33.501s5 25.667 5 39zM64 684h500v-165h-500v165zM121 557h31c15.333 0 27 4 35 12s12 18.667 12 32c0 12 -4 22.333 -12 31s-19.667 13 -35 13h-31v-88zM136 629h16c10 0 17.667 -2.66699 23 -8s8 -12 8 -20
c0 -19.333 -10.333 -29 -31 -29h-16v57zM240 572v21h46v16h-46v20h46v16h-62v-88h62v15h-46zM405 557v88h-21l-26 -36l-26 36h-21v-88h17v66l30 -39l31 40v-67h16zM475 650c-12.667 0 -23.332 -4.5 -31.999 -13.5s-13 -20.167 -13 -33.5c0 -12.667 3.66699 -23.667 11 -33
s18.666 -14 33.999 -14c16 0 27.833 4.66699 35.5 14s11.5 20.333 11.5 33c0 14.667 -4.5 26.167 -13.5 34.5s-20.167 12.5 -33.5 12.5zM445.002 603c0 8 2.5 15.333 7.5 22s12.5 10 22.5 10c10.667 0 18.5 -3.33301 23.5 -10s7.5 -14 7.5 -22
c0 -8.66699 -2.33301 -16.167 -7 -22.5s-12.667 -9.5 -24 -9.5c-10 0 -17.5 3.5 -22.5 10.5s-7.5 14.167 -7.5 21.5z" />
    <glyph glyph-name="ocircumflex" unicode="&#xf4;" horiz-adv-x="594" 
d="M27 240c0 42.667 7.33301 79.834 22 111.501s34.334 58.167 59.001 79.5s53.334 37.333 86.001 48s67 16 103 16s70.333 -5.33301 103 -16s61.334 -26.667 86.001 -48s44.334 -47.833 59.001 -79.5s22 -68.834 22 -111.501s-7.33301 -79.834 -22 -111.501
s-34.334 -58.167 -59.001 -79.5s-53.334 -37.333 -86.001 -48s-67 -16 -103 -16s-70.333 5.33301 -103 16s-61.334 26.667 -86.001 48s-44.334 47.833 -59.001 79.5s-22 68.834 -22 111.501zM392 240c0 13.333 -1.66699 26.333 -5 39s-8.83301 23.834 -16.5 33.501
s-17.5 17.5 -29.5 23.5s-26.667 9 -44 9s-32.166 -3 -44.499 -9s-22.166 -13.833 -29.499 -23.5s-12.666 -20.834 -15.999 -33.501s-5 -25.667 -5 -39s1.66699 -26.333 5 -39s8.66602 -23.834 15.999 -33.501s17.166 -17.5 29.499 -23.5s27.166 -9 44.499 -9s32 3 44 9
s21.833 13.833 29.5 23.5s13.167 20.834 16.5 33.501s5 25.667 5 39zM45 684h500v-165h-500v165zM102 557h31c15.333 0 27 4 35 12s12 18.667 12 32c0 12 -4 22.333 -12 31s-19.667 13 -35 13h-31v-88zM117 629h16c10 0 17.667 -2.66699 23 -8s8 -12 8 -20
c0 -19.333 -10.333 -29 -31 -29h-16v57zM221 572v21h46v16h-46v20h46v16h-62v-88h62v15h-46zM386 557v88h-21l-26 -36l-26 36h-21v-88h17v66l30 -39l31 40v-67h16zM456 650c-12.667 0 -23.332 -4.5 -31.999 -13.5s-13 -20.167 -13 -33.5c0 -12.667 3.66699 -23.667 11 -33
s18.666 -14 33.999 -14c16 0 27.833 4.66699 35.5 14s11.5 20.333 11.5 33c0 14.667 -4.5 26.167 -13.5 34.5s-20.167 12.5 -33.5 12.5zM426.002 603c0 8 2.5 15.333 7.5 22s12.5 10 22.5 10c10.667 0 18.5 -3.33301 23.5 -10s7.5 -14 7.5 -22
c0 -8.66699 -2.33301 -16.167 -7 -22.5s-12.667 -9.5 -24 -9.5c-10 0 -17.5 3.5 -22.5 10.5s-7.5 14.167 -7.5 21.5z" />
    <glyph glyph-name="otilde" unicode="&#xf5;" horiz-adv-x="594" 
d="M27 240c0 42.667 7.33301 79.834 22 111.501s34.334 58.167 59.001 79.5s53.334 37.333 86.001 48s67 16 103 16s70.333 -5.33301 103 -16s61.334 -26.667 86.001 -48s44.334 -47.833 59.001 -79.5s22 -68.834 22 -111.501s-7.33301 -79.834 -22 -111.501
s-34.334 -58.167 -59.001 -79.5s-53.334 -37.333 -86.001 -48s-67 -16 -103 -16s-70.333 5.33301 -103 16s-61.334 26.667 -86.001 48s-44.334 47.833 -59.001 79.5s-22 68.834 -22 111.501zM392 240c0 13.333 -1.66699 26.333 -5 39s-8.83301 23.834 -16.5 33.501
s-17.5 17.5 -29.5 23.5s-26.667 9 -44 9s-32.166 -3 -44.499 -9s-22.166 -13.833 -29.499 -23.5s-12.666 -20.834 -15.999 -33.501s-5 -25.667 -5 -39s1.66699 -26.333 5 -39s8.66602 -23.834 15.999 -33.501s17.166 -17.5 29.499 -23.5s27.166 -9 44.499 -9s32 3 44 9
s21.833 13.833 29.5 23.5s13.167 20.834 16.5 33.501s5 25.667 5 39zM42 684h500v-165h-500v165zM99 557h31c15.333 0 27 4 35 12s12 18.667 12 32c0 12 -4 22.333 -12 31s-19.667 13 -35 13h-31v-88zM114 629h16c10 0 17.667 -2.66699 23 -8s8 -12 8 -20
c0 -19.333 -10.333 -29 -31 -29h-16v57zM218 572v21h46v16h-46v20h46v16h-62v-88h62v15h-46zM383 557v88h-21l-26 -36l-26 36h-21v-88h17v66l30 -39l31 40v-67h16zM453 650c-12.667 0 -23.332 -4.5 -31.999 -13.5s-13 -20.167 -13 -33.5c0 -12.667 3.66699 -23.667 11 -33
s18.666 -14 33.999 -14c16 0 27.833 4.66699 35.5 14s11.5 20.333 11.5 33c0 14.667 -4.5 26.167 -13.5 34.5s-20.167 12.5 -33.5 12.5zM423.002 603c0 8 2.5 15.333 7.5 22s12.5 10 22.5 10c10.667 0 18.5 -3.33301 23.5 -10s7.5 -14 7.5 -22
c0 -8.66699 -2.33301 -16.167 -7 -22.5s-12.667 -9.5 -24 -9.5c-10 0 -17.5 3.5 -22.5 10.5s-7.5 14.167 -7.5 21.5z" />
    <glyph glyph-name="odieresis" unicode="&#xf6;" horiz-adv-x="594" 
d="M27 240c0 42.667 7.33301 79.834 22 111.501s34.334 58.167 59.001 79.5s53.334 37.333 86.001 48s67 16 103 16s70.333 -5.33301 103 -16s61.334 -26.667 86.001 -48s44.334 -47.833 59.001 -79.5s22 -68.834 22 -111.501s-7.33301 -79.834 -22 -111.501
s-34.334 -58.167 -59.001 -79.5s-53.334 -37.333 -86.001 -48s-67 -16 -103 -16s-70.333 5.33301 -103 16s-61.334 26.667 -86.001 48s-44.334 47.833 -59.001 79.5s-22 68.834 -22 111.501zM392 240c0 13.333 -1.66699 26.333 -5 39s-8.83301 23.834 -16.5 33.501
s-17.5 17.5 -29.5 23.5s-26.667 9 -44 9s-32.166 -3 -44.499 -9s-22.166 -13.833 -29.499 -23.5s-12.666 -20.834 -15.999 -33.501s-5 -25.667 -5 -39s1.66699 -26.333 5 -39s8.66602 -23.834 15.999 -33.501s17.166 -17.5 29.499 -23.5s27.166 -9 44.499 -9s32 3 44 9
s21.833 13.833 29.5 23.5s13.167 20.834 16.5 33.501s5 25.667 5 39zM52 684h500v-165h-500v165zM109 557h31c15.333 0 27 4 35 12s12 18.667 12 32c0 12 -4 22.333 -12 31s-19.667 13 -35 13h-31v-88zM124 629h16c10 0 17.667 -2.66699 23 -8s8 -12 8 -20
c0 -19.333 -10.333 -29 -31 -29h-16v57zM228 572v21h46v16h-46v20h46v16h-62v-88h62v15h-46zM393 557v88h-21l-26 -36l-26 36h-21v-88h17v66l30 -39l31 40v-67h16zM463 650c-12.667 0 -23.332 -4.5 -31.999 -13.5s-13 -20.167 -13 -33.5c0 -12.667 3.66699 -23.667 11 -33
s18.666 -14 33.999 -14c16 0 27.833 4.66699 35.5 14s11.5 20.333 11.5 33c0 14.667 -4.5 26.167 -13.5 34.5s-20.167 12.5 -33.5 12.5zM433.002 603c0 8 2.5 15.333 7.5 22s12.5 10 22.5 10c10.667 0 18.5 -3.33301 23.5 -10s7.5 -14 7.5 -22
c0 -8.66699 -2.33301 -16.167 -7 -22.5s-12.667 -9.5 -24 -9.5c-10 0 -17.5 3.5 -22.5 10.5s-7.5 14.167 -7.5 21.5z" />
    <glyph glyph-name="divide" unicode="&#xf7;" horiz-adv-x="373" 
d="M71 0v700h232v-700h-232zM247 77l-0.000976562 47.999c0 21.333 -6.33301 36.833 -19 46.5s-26.667 14.167 -42 13.5c-15.333 0 -29.166 -4.66699 -41.499 -14s-18.5 -24.666 -18.5 -45.999v-48h121zM147.999 124.999c-0.666992 13.333 3.16797 22.668 11.501 28.001
s17.166 8.66602 26.499 9.99902c9.33301 0 18.333 -2.83301 27 -8.5s13 -15.5 13 -29.5v-26h-78v26zM226.001 243.001h-28v65h-21v-65h-28v67h-23v-90h121v90h-21v-67zM247.001 477.001h-121v-26l53 -39l-53 -37v-26h121v22h-87l53 39v4l-53 41h87v22zM123.001 574.001
c0 -17.333 6.00098 -32.001 18.001 -44.001s27.667 -18 47 -18c15.333 0 29.666 5 42.999 15s20 25.667 20 47s-6.83301 36.833 -20.5 46.5s-28.167 14.834 -43.5 15.501c-15.333 0 -29.833 -5 -43.5 -15s-20.5 -25.667 -20.5 -47zM188.002 534
c-12 -0.666992 -22.333 2.49902 -31 9.49902s-12.667 17.167 -12 30.5c0 14.667 4.66699 25 14 31s19 9 29 9c10 -1.33301 19.333 -4.66602 28 -9.99902s13 -15.333 13 -30s-4.33301 -25 -13 -31s-18 -9 -28 -9z" />
    <glyph glyph-name="oslash" unicode="&#xf8;" horiz-adv-x="594" 
d="M27 240c0 42.667 7.33301 79.834 22 111.501s34.334 58.167 59.001 79.5s53.334 37.333 86.001 48s67 16 103 16s70.333 -5.33301 103 -16s61.334 -26.667 86.001 -48s44.334 -47.833 59.001 -79.5s22 -68.834 22 -111.501s-7.33301 -79.834 -22 -111.501
s-34.334 -58.167 -59.001 -79.5s-53.334 -37.333 -86.001 -48s-67 -16 -103 -16s-70.333 5.33301 -103 16s-61.334 26.667 -86.001 48s-44.334 47.833 -59.001 79.5s-22 68.834 -22 111.501zM392 240c0 13.333 -1.66699 26.333 -5 39s-8.83301 23.834 -16.5 33.501
s-17.5 17.5 -29.5 23.5s-26.667 9 -44 9s-32.166 -3 -44.499 -9s-22.166 -13.833 -29.499 -23.5s-12.666 -20.834 -15.999 -33.501s-5 -25.667 -5 -39s1.66699 -26.333 5 -39s8.66602 -23.834 15.999 -33.501s17.166 -17.5 29.499 -23.5s27.166 -9 44.499 -9s32 3 44 9
s21.833 13.833 29.5 23.5s13.167 20.834 16.5 33.501s5 25.667 5 39z" />
    <glyph glyph-name="ugrave" unicode="&#xf9;" horiz-adv-x="592" 
d="M541 480l0.000976562 -480h-150v55c-20 -21.333 -42.5 -38.333 -67.5 -51s-53.5 -19 -85.5 -19c-33.333 0 -62 5.16699 -86 15.5s-43.833 24.5 -59.5 42.5s-27.334 38.833 -35.001 62.5s-11.5 49.167 -11.5 76.5v298h170v-275c0 -25.333 6.83301 -44.166 20.5 -56.499
s31.167 -18.5 52.5 -18.5c19.333 0 36 4.66699 50 14s24.667 18.666 32 27.999v308h170zM10.001 694h500v-165h-500v165zM67.001 567h31c15.333 0 27 4 35 12s12 18.667 12 32c0 12 -4 22.333 -12 31s-19.667 13 -35 13h-31v-88zM82.001 639h16c10 0 17.667 -2.66699 23 -8
s8 -12 8 -20c0 -19.333 -10.333 -29 -31 -29h-16v57zM186.001 582v21h46v16h-46v20h46v16h-62v-88h62v15h-46zM351.001 567v88h-21l-26 -36l-26 36h-21v-88h17v66l30 -39l31 40v-67h16zM421.001 660c-12.667 0 -23.332 -4.5 -31.999 -13.5s-13 -20.167 -13 -33.5
c0 -12.667 3.66699 -23.667 11 -33s18.666 -14 33.999 -14c16 0 27.833 4.66699 35.5 14s11.5 20.333 11.5 33c0 14.667 -4.5 26.167 -13.5 34.5s-20.167 12.5 -33.5 12.5zM391.003 613c0 8 2.5 15.333 7.5 22s12.5 10 22.5 10c10.667 0 18.5 -3.33301 23.5 -10
s7.5 -14 7.5 -22c0 -8.66699 -2.33301 -16.167 -7 -22.5s-12.667 -9.5 -24 -9.5c-10 0 -17.5 3.5 -22.5 10.5s-7.5 14.167 -7.5 21.5z" />
    <glyph glyph-name="uacute" unicode="&#xfa;" horiz-adv-x="592" 
d="M541 480l0.000976562 -480h-150v55c-20 -21.333 -42.5 -38.333 -67.5 -51s-53.5 -19 -85.5 -19c-33.333 0 -62 5.16699 -86 15.5s-43.833 24.5 -59.5 42.5s-27.334 38.833 -35.001 62.5s-11.5 49.167 -11.5 76.5v298h170v-275c0 -25.333 6.83301 -44.166 20.5 -56.499
s31.167 -18.5 52.5 -18.5c19.333 0 36 4.66699 50 14s24.667 18.666 32 27.999v308h170zM62.001 694h500v-165h-500v165zM119.001 567h31c15.333 0 27 4 35 12s12 18.667 12 32c0 12 -4 22.333 -12 31s-19.667 13 -35 13h-31v-88zM134.001 639h16
c10 0 17.667 -2.66699 23 -8s8 -12 8 -20c0 -19.333 -10.333 -29 -31 -29h-16v57zM238.001 582v21h46v16h-46v20h46v16h-62v-88h62v15h-46zM403.001 567v88h-21l-26 -36l-26 36h-21v-88h17v66l30 -39l31 40v-67h16zM473.001 660c-12.667 0 -23.332 -4.5 -31.999 -13.5
s-13 -20.167 -13 -33.5c0 -12.667 3.66699 -23.667 11 -33s18.666 -14 33.999 -14c16 0 27.833 4.66699 35.5 14s11.5 20.333 11.5 33c0 14.667 -4.5 26.167 -13.5 34.5s-20.167 12.5 -33.5 12.5zM443.003 613c0 8 2.5 15.333 7.5 22s12.5 10 22.5 10
c10.667 0 18.5 -3.33301 23.5 -10s7.5 -14 7.5 -22c0 -8.66699 -2.33301 -16.167 -7 -22.5s-12.667 -9.5 -24 -9.5c-10 0 -17.5 3.5 -22.5 10.5s-7.5 14.167 -7.5 21.5z" />
    <glyph glyph-name="ucircumflex" unicode="&#xfb;" horiz-adv-x="592" 
d="M541 480l0.000976562 -480h-150v55c-20 -21.333 -42.5 -38.333 -67.5 -51s-53.5 -19 -85.5 -19c-33.333 0 -62 5.16699 -86 15.5s-43.833 24.5 -59.5 42.5s-27.334 38.833 -35.001 62.5s-11.5 49.167 -11.5 76.5v298h170v-275c0 -25.333 6.83301 -44.166 20.5 -56.499
s31.167 -18.5 52.5 -18.5c19.333 0 36 4.66699 50 14s24.667 18.666 32 27.999v308h170zM43.001 694h500v-165h-500v165zM100.001 567h31c15.333 0 27 4 35 12s12 18.667 12 32c0 12 -4 22.333 -12 31s-19.667 13 -35 13h-31v-88zM115.001 639h16
c10 0 17.667 -2.66699 23 -8s8 -12 8 -20c0 -19.333 -10.333 -29 -31 -29h-16v57zM219.001 582v21h46v16h-46v20h46v16h-62v-88h62v15h-46zM384.001 567v88h-21l-26 -36l-26 36h-21v-88h17v66l30 -39l31 40v-67h16zM454.001 660c-12.667 0 -23.332 -4.5 -31.999 -13.5
s-13 -20.167 -13 -33.5c0 -12.667 3.66699 -23.667 11 -33s18.666 -14 33.999 -14c16 0 27.833 4.66699 35.5 14s11.5 20.333 11.5 33c0 14.667 -4.5 26.167 -13.5 34.5s-20.167 12.5 -33.5 12.5zM424.003 613c0 8 2.5 15.333 7.5 22s12.5 10 22.5 10
c10.667 0 18.5 -3.33301 23.5 -10s7.5 -14 7.5 -22c0 -8.66699 -2.33301 -16.167 -7 -22.5s-12.667 -9.5 -24 -9.5c-10 0 -17.5 3.5 -22.5 10.5s-7.5 14.167 -7.5 21.5z" />
    <glyph glyph-name="udieresis" unicode="&#xfc;" horiz-adv-x="592" 
d="M541 480l0.000976562 -480h-150v55c-20 -21.333 -42.5 -38.333 -67.5 -51s-53.5 -19 -85.5 -19c-33.333 0 -62 5.16699 -86 15.5s-43.833 24.5 -59.5 42.5s-27.334 38.833 -35.001 62.5s-11.5 49.167 -11.5 76.5v298h170v-275c0 -25.333 6.83301 -44.166 20.5 -56.499
s31.167 -18.5 52.5 -18.5c19.333 0 36 4.66699 50 14s24.667 18.666 32 27.999v308h170zM50.001 694h500v-165h-500v165zM107.001 567h31c15.333 0 27 4 35 12s12 18.667 12 32c0 12 -4 22.333 -12 31s-19.667 13 -35 13h-31v-88zM122.001 639h16
c10 0 17.667 -2.66699 23 -8s8 -12 8 -20c0 -19.333 -10.333 -29 -31 -29h-16v57zM226.001 582v21h46v16h-46v20h46v16h-62v-88h62v15h-46zM391.001 567v88h-21l-26 -36l-26 36h-21v-88h17v66l30 -39l31 40v-67h16zM461.001 660c-12.667 0 -23.332 -4.5 -31.999 -13.5
s-13 -20.167 -13 -33.5c0 -12.667 3.66699 -23.667 11 -33s18.666 -14 33.999 -14c16 0 27.833 4.66699 35.5 14s11.5 20.333 11.5 33c0 14.667 -4.5 26.167 -13.5 34.5s-20.167 12.5 -33.5 12.5zM431.003 613c0 8 2.5 15.333 7.5 22s12.5 10 22.5 10
c10.667 0 18.5 -3.33301 23.5 -10s7.5 -14 7.5 -22c0 -8.66699 -2.33301 -16.167 -7 -22.5s-12.667 -9.5 -24 -9.5c-10 0 -17.5 3.5 -22.5 10.5s-7.5 14.167 -7.5 21.5z" />
    <glyph glyph-name="yacute" unicode="&#xfd;" horiz-adv-x="577" 
d="M395 480l174.999 0.00195312l-201 -530c-14 -36 -29.333 -65.833 -46 -89.5s-34.5 -42.334 -53.5 -56.001s-38.667 -23.334 -59 -29.001s-40.833 -8.5 -61.5 -8.5c-15.333 0 -30.333 1.33301 -45 4s-29 5.66699 -43 9v140c22.667 -5.33301 44.334 -8 65.001 -8
c21.333 0 40.5 6.16699 57.5 18.5s31.167 31.5 42.5 57.5l-226 492h180l117 -286zM46.999 694.002h500v-165h-500v165zM103.999 567.002h31c15.333 0 27 4 35 12s12 18.667 12 32c0 12 -4 22.333 -12 31s-19.667 13 -35 13h-31v-88zM118.999 639.002h16
c10 0 17.667 -2.66699 23 -8s8 -12 8 -20c0 -19.333 -10.333 -29 -31 -29h-16v57zM222.999 582.002v21h46v16h-46v20h46v16h-62v-88h62v15h-46zM387.999 567.002v88h-21l-26 -36l-26 36h-21v-88h17v66l30 -39l31 40v-67h16zM457.999 660.002
c-12.667 0 -23.332 -4.5 -31.999 -13.5s-13 -20.167 -13 -33.5c0 -12.667 3.66699 -23.667 11 -33s18.666 -14 33.999 -14c16 0 27.833 4.66699 35.5 14s11.5 20.333 11.5 33c0 14.667 -4.5 26.167 -13.5 34.5s-20.167 12.5 -33.5 12.5zM428.001 613.002
c0 8 2.5 15.333 7.5 22s12.5 10 22.5 10c10.667 0 18.5 -3.33301 23.5 -10s7.5 -14 7.5 -22c0 -8.66699 -2.33301 -16.167 -7 -22.5s-12.667 -9.5 -24 -9.5c-10 0 -17.5 3.5 -22.5 10.5s-7.5 14.167 -7.5 21.5z" />
    <glyph glyph-name="thorn" unicode="&#xfe;" horiz-adv-x="623" 
d="M221 700v-269.999c17.333 19.333 38.333 35 63 47s53 18 85 18c40 0 74.333 -7.66699 103 -23s52.167 -35.333 70.5 -60s31.833 -52 40.5 -82s13 -60 13 -90c0 -32 -4.66699 -63.333 -14 -94s-23.5 -58 -42.5 -82s-42.667 -43.167 -71 -57.5s-61.5 -21.5 -99.5 -21.5
c-33.333 0 -62.5 6.16699 -87.5 18.5s-45.167 26.166 -60.5 41.499v-265h-170v920h170zM421 240.001c0 14 -2.00391 27.8359 -6.00391 41.5029s-10 26 -18 37s-18.5 19.833 -31.5 26.5s-28.5 10 -46.5 10c-23.333 0 -43.666 -6.33301 -60.999 -19s-29.666 -28 -36.999 -46
v-100c10 -16.667 23.5 -30.667 40.5 -42s36.167 -17.333 57.5 -18c16.667 -0.666992 31.334 2.16602 44.001 8.49902s23.334 14.666 32.001 24.999s15.167 22.166 19.5 35.499s6.5 27 6.5 41z" />
    <glyph glyph-name="ydieresis" unicode="&#xff;" horiz-adv-x="577" 
d="M395 480l174.999 0.00195312l-201 -530c-14 -36 -29.333 -65.833 -46 -89.5s-34.5 -42.334 -53.5 -56.001s-38.667 -23.334 -59 -29.001s-40.833 -8.5 -61.5 -8.5c-15.333 0 -30.333 1.33301 -45 4s-29 5.66699 -43 9v140c22.667 -5.33301 44.334 -8 65.001 -8
c21.333 0 40.5 6.16699 57.5 18.5s31.167 31.5 42.5 57.5l-226 492h180l117 -286zM34.999 694.002h500v-165h-500v165zM91.999 567.002h31c15.333 0 27 4 35 12s12 18.667 12 32c0 12 -4 22.333 -12 31s-19.667 13 -35 13h-31v-88zM106.999 639.002h16
c10 0 17.667 -2.66699 23 -8s8 -12 8 -20c0 -19.333 -10.333 -29 -31 -29h-16v57zM210.999 582.002v21h46v16h-46v20h46v16h-62v-88h62v15h-46zM375.999 567.002v88h-21l-26 -36l-26 36h-21v-88h17v66l30 -39l31 40v-67h16zM445.999 660.002
c-12.667 0 -23.332 -4.5 -31.999 -13.5s-13 -20.167 -13 -33.5c0 -12.667 3.66699 -23.667 11 -33s18.666 -14 33.999 -14c16 0 27.833 4.66699 35.5 14s11.5 20.333 11.5 33c0 14.667 -4.5 26.167 -13.5 34.5s-20.167 12.5 -33.5 12.5zM416.001 613.002
c0 8 2.5 15.333 7.5 22s12.5 10 22.5 10c10.667 0 18.5 -3.33301 23.5 -10s7.5 -14 7.5 -22c0 -8.66699 -2.33301 -16.167 -7 -22.5s-12.667 -9.5 -24 -9.5c-10 0 -17.5 3.5 -22.5 10.5s-7.5 14.167 -7.5 21.5z" />
    <glyph glyph-name="Amacron" unicode="&#x100;" horiz-adv-x="752" 
d="M1 0l275 700h200l275 -700h-190l-40 110h-290l-40 -110h-190zM286 260h180l-72 202c-3.33301 8.66699 -6.33301 18 -9 28s-5.66699 24.333 -9 43c-3.33301 -18.667 -6.33301 -33 -9 -43s-5.66699 -19.333 -9 -28zM135 914h500v-165h-500v165zM192 787h31
c15.333 0 27 4 35 12s12 18.667 12 32c0 12 -4 22.333 -12 31s-19.667 13 -35 13h-31v-88zM207 859h16c10 0 17.667 -2.66699 23 -8s8 -12 8 -20c0 -19.333 -10.333 -29 -31 -29h-16v57zM311 802v21h46v16h-46v20h46v16h-62v-88h62v15h-46zM476 787v88h-21l-26 -36l-26 36
h-21v-88h17v66l30 -39l31 40v-67h16zM546 880c-12.667 0 -23.332 -4.5 -31.999 -13.5s-13 -20.167 -13 -33.5c0 -12.667 3.66699 -23.667 11 -33s18.666 -14 33.999 -14c16 0 27.833 4.66699 35.5 14s11.5 20.333 11.5 33c0 14.667 -4.5 26.167 -13.5 34.5
s-20.167 12.5 -33.5 12.5zM516.002 833c0 8 2.5 15.333 7.5 22s12.5 10 22.5 10c10.667 0 18.5 -3.33301 23.5 -10s7.5 -14 7.5 -22c0 -8.66699 -2.33301 -16.167 -7 -22.5s-12.667 -9.5 -24 -9.5c-10 0 -17.5 3.5 -22.5 10.5s-7.5 14.167 -7.5 21.5z" />
    <glyph glyph-name="amacron" unicode="&#x101;" horiz-adv-x="567" 
d="M505 137c0 -11.333 3.33008 -19.1641 9.99707 -23.4971s14.334 -6.5 23.001 -6.5c6.66699 0 13 1 19 3v-105c-11.333 -4.66699 -24.5 -8.33398 -39.5 -11.001s-30.5 -4 -46.5 -4c-53.333 0 -91.333 17.667 -114 53c-23.333 -18 -48.5 -32.167 -75.5 -42.5
s-57.5 -15.5 -91.5 -15.5c-23.333 0 -45 3.33301 -65 10s-37.667 16.334 -53 29.001s-27.333 28.167 -36 46.5s-13 39.166 -13 62.499c0 30 6.5 55.167 19.5 75.5s29.5 36.666 49.5 48.999s42.333 21 67 26s48.667 7.5 72 7.5c36 0 70.667 -3.66699 104 -11v17
c0 17.333 -8.16699 31.666 -24.5 42.999s-41.5 17 -75.5 17c-32 0 -62.167 -3.83301 -90.5 -11.5s-54.166 -16.167 -77.499 -25.5v143c10 3.33301 22 6.83301 36 10.5s29.333 7.16699 46 10.5s33.834 6 51.501 8s35.5 3 53.5 3c38 0 72.5 -3.66699 103.5 -11
s57.5 -19.666 79.5 -36.999s38.833 -40.333 50.5 -69s17.5 -64.334 17.5 -107.001v-134zM197.997 147.002c0 -12.667 5.16699 -23.668 15.5 -33.001s24.5 -14 42.5 -14c14 0 27.333 1.83301 40 5.5s25.667 10.167 39 19.5v65c-7.33301 2.66699 -16.5 4.83398 -27.5 6.50098
s-22.167 2.5 -33.5 2.5c-20 0 -37.667 -3.83301 -53 -11.5s-23 -21.167 -23 -40.5zM20.9971 704.001h500v-165h-500v165zM77.9971 577.001h31c15.333 0 27 4 35 12s12 18.667 12 32c0 12 -4 22.333 -12 31s-19.667 13 -35 13h-31v-88zM92.9971 649.001h16
c10 0 17.667 -2.66699 23 -8s8 -12 8 -20c0 -19.333 -10.333 -29 -31 -29h-16v57zM196.997 592.001v21h46v16h-46v20h46v16h-62v-88h62v15h-46zM361.997 577.001v88h-21l-26 -36l-26 36h-21v-88h17v66l30 -39l31 40v-67h16zM431.997 670.001
c-12.667 0 -23.332 -4.5 -31.999 -13.5s-13 -20.167 -13 -33.5c0 -12.667 3.66699 -23.667 11 -33s18.666 -14 33.999 -14c16 0 27.833 4.66699 35.5 14s11.5 20.333 11.5 33c0 14.667 -4.5 26.167 -13.5 34.5s-20.167 12.5 -33.5 12.5zM401.999 623.001
c0 8 2.5 15.333 7.5 22s12.5 10 22.5 10c10.667 0 18.5 -3.33301 23.5 -10s7.5 -14 7.5 -22c0 -8.66699 -2.33301 -16.167 -7 -22.5s-12.667 -9.5 -24 -9.5c-10 0 -17.5 3.5 -22.5 10.5s-7.5 14.167 -7.5 21.5z" />
    <glyph glyph-name="Abreve" unicode="&#x102;" horiz-adv-x="752" 
d="M1 0l275 700h200l275 -700h-190l-40 110h-290l-40 -110h-190zM286 260h180l-72 202c-3.33301 8.66699 -6.33301 18 -9 28s-5.66699 24.333 -9 43c-3.33301 -18.667 -6.33301 -33 -9 -43s-5.66699 -19.333 -9 -28zM115 919h500v-165h-500v165zM172 792h31
c15.333 0 27 4 35 12s12 18.667 12 32c0 12 -4 22.333 -12 31s-19.667 13 -35 13h-31v-88zM187 864h16c10 0 17.667 -2.66699 23 -8s8 -12 8 -20c0 -19.333 -10.333 -29 -31 -29h-16v57zM291 807v21h46v16h-46v20h46v16h-62v-88h62v15h-46zM456 792v88h-21l-26 -36l-26 36
h-21v-88h17v66l30 -39l31 40v-67h16zM526 885c-12.667 0 -23.332 -4.5 -31.999 -13.5s-13 -20.167 -13 -33.5c0 -12.667 3.66699 -23.667 11 -33s18.666 -14 33.999 -14c16 0 27.833 4.66699 35.5 14s11.5 20.333 11.5 33c0 14.667 -4.5 26.167 -13.5 34.5
s-20.167 12.5 -33.5 12.5zM496.002 838c0 8 2.5 15.333 7.5 22s12.5 10 22.5 10c10.667 0 18.5 -3.33301 23.5 -10s7.5 -14 7.5 -22c0 -8.66699 -2.33301 -16.167 -7 -22.5s-12.667 -9.5 -24 -9.5c-10 0 -17.5 3.5 -22.5 10.5s-7.5 14.167 -7.5 21.5z" />
    <glyph glyph-name="abreve" unicode="&#x103;" horiz-adv-x="567" 
d="M505 137c0 -11.333 3.33008 -19.1641 9.99707 -23.4971s14.334 -6.5 23.001 -6.5c6.66699 0 13 1 19 3v-105c-11.333 -4.66699 -24.5 -8.33398 -39.5 -11.001s-30.5 -4 -46.5 -4c-53.333 0 -91.333 17.667 -114 53c-23.333 -18 -48.5 -32.167 -75.5 -42.5
s-57.5 -15.5 -91.5 -15.5c-23.333 0 -45 3.33301 -65 10s-37.667 16.334 -53 29.001s-27.333 28.167 -36 46.5s-13 39.166 -13 62.499c0 30 6.5 55.167 19.5 75.5s29.5 36.666 49.5 48.999s42.333 21 67 26s48.667 7.5 72 7.5c36 0 70.667 -3.66699 104 -11v17
c0 17.333 -8.16699 31.666 -24.5 42.999s-41.5 17 -75.5 17c-32 0 -62.167 -3.83301 -90.5 -11.5s-54.166 -16.167 -77.499 -25.5v143c10 3.33301 22 6.83301 36 10.5s29.333 7.16699 46 10.5s33.834 6 51.501 8s35.5 3 53.5 3c38 0 72.5 -3.66699 103.5 -11
s57.5 -19.666 79.5 -36.999s38.833 -40.333 50.5 -69s17.5 -64.334 17.5 -107.001v-134zM197.997 147.002c0 -12.667 5.16699 -23.668 15.5 -33.001s24.5 -14 42.5 -14c14 0 27.333 1.83301 40 5.5s25.667 10.167 39 19.5v65c-7.33301 2.66699 -16.5 4.83398 -27.5 6.50098
s-22.167 2.5 -33.5 2.5c-20 0 -37.667 -3.83301 -53 -11.5s-23 -21.167 -23 -40.5zM0.99707 709.001h500v-165h-500v165zM57.9971 582.001h31c15.333 0 27 4 35 12s12 18.667 12 32c0 12 -4 22.333 -12 31s-19.667 13 -35 13h-31v-88zM72.9971 654.001h16
c10 0 17.667 -2.66699 23 -8s8 -12 8 -20c0 -19.333 -10.333 -29 -31 -29h-16v57zM176.997 597.001v21h46v16h-46v20h46v16h-62v-88h62v15h-46zM341.997 582.001v88h-21l-26 -36l-26 36h-21v-88h17v66l30 -39l31 40v-67h16zM411.997 675.001
c-12.667 0 -23.332 -4.5 -31.999 -13.5s-13 -20.167 -13 -33.5c0 -12.667 3.66699 -23.667 11 -33s18.666 -14 33.999 -14c16 0 27.833 4.66699 35.5 14s11.5 20.333 11.5 33c0 14.667 -4.5 26.167 -13.5 34.5s-20.167 12.5 -33.5 12.5zM381.999 628.001
c0 8 2.5 15.333 7.5 22s12.5 10 22.5 10c10.667 0 18.5 -3.33301 23.5 -10s7.5 -14 7.5 -22c0 -8.66699 -2.33301 -16.167 -7 -22.5s-12.667 -9.5 -24 -9.5c-10 0 -17.5 3.5 -22.5 10.5s-7.5 14.167 -7.5 21.5z" />
    <glyph glyph-name="Aogonek" unicode="&#x104;" horiz-adv-x="752" 
d="M1 0l275 700h200l275 -700h-190l-40 110h-290l-40 -110h-190zM286 260h180l-72 202c-3.33301 8.66699 -6.33301 18 -9 28s-5.66699 24.333 -9 43c-3.33301 -18.667 -6.33301 -33 -9 -43s-5.66699 -19.333 -9 -28z" />
    <glyph glyph-name="aogonek" unicode="&#x105;" horiz-adv-x="567" 
d="M505 137c0 -11.333 3.33008 -19.1641 9.99707 -23.4971s14.334 -6.5 23.001 -6.5c6.66699 0 13 1 19 3v-105c-11.333 -4.66699 -24.5 -8.33398 -39.5 -11.001s-30.5 -4 -46.5 -4c-53.333 0 -91.333 17.667 -114 53c-23.333 -18 -48.5 -32.167 -75.5 -42.5
s-57.5 -15.5 -91.5 -15.5c-23.333 0 -45 3.33301 -65 10s-37.667 16.334 -53 29.001s-27.333 28.167 -36 46.5s-13 39.166 -13 62.499c0 30 6.5 55.167 19.5 75.5s29.5 36.666 49.5 48.999s42.333 21 67 26s48.667 7.5 72 7.5c36 0 70.667 -3.66699 104 -11v17
c0 17.333 -8.16699 31.666 -24.5 42.999s-41.5 17 -75.5 17c-32 0 -62.167 -3.83301 -90.5 -11.5s-54.166 -16.167 -77.499 -25.5v143c10 3.33301 22 6.83301 36 10.5s29.333 7.16699 46 10.5s33.834 6 51.501 8s35.5 3 53.5 3c38 0 72.5 -3.66699 103.5 -11
s57.5 -19.666 79.5 -36.999s38.833 -40.333 50.5 -69s17.5 -64.334 17.5 -107.001v-134zM197.997 147.002c0 -12.667 5.16699 -23.668 15.5 -33.001s24.5 -14 42.5 -14c14 0 27.333 1.83301 40 5.5s25.667 10.167 39 19.5v65c-7.33301 2.66699 -16.5 4.83398 -27.5 6.50098
s-22.167 2.5 -33.5 2.5c-20 0 -37.667 -3.83301 -53 -11.5s-23 -21.167 -23 -40.5z" />
    <glyph glyph-name="Cacute" unicode="&#x106;" horiz-adv-x="655" 
d="M32 340c0 66 10.835 122.664 32.502 169.997s50.334 86.166 86.001 116.499s76.167 52.666 121.5 66.999s91.666 21.5 138.999 21.5c36 0 71.167 -3.66699 105.5 -11s66.833 -18.333 97.5 -33v-175c-21.333 18 -47.166 32 -77.499 42s-61.5 15 -93.5 15
c-28 0 -55.167 -4 -81.5 -12s-49.833 -20.5 -70.5 -37.5s-37.334 -39 -50.001 -66s-19 -59.5 -19 -97.5c0 -34 6.33301 -63.167 19 -87.5s29.167 -44.166 49.5 -59.499s43.666 -26.666 69.999 -33.999s53.166 -11 80.499 -11c36 0 69.667 5.33301 101 16s57 25.667 77 45
v-180c-62 -29.333 -130 -44 -204 -44c-48 0 -95 6.83301 -141 20.5s-86.833 34.834 -122.5 63.501s-64.5 65.334 -86.5 110.001s-33 98.334 -33 161.001zM173.002 913.997h500v-165h-500v165zM230.002 786.997h31c15.333 0 27 4 35 12s12 18.667 12 32
c0 12 -4 22.333 -12 31s-19.667 13 -35 13h-31v-88zM245.002 858.997h16c10 0 17.667 -2.66699 23 -8s8 -12 8 -20c0 -19.333 -10.333 -29 -31 -29h-16v57zM349.002 801.997v21h46v16h-46v20h46v16h-62v-88h62v15h-46zM514.002 786.997v88h-21l-26 -36l-26 36h-21v-88h17v66
l30 -39l31 40v-67h16zM584.002 879.997c-12.667 0 -23.332 -4.5 -31.999 -13.5s-13 -20.167 -13 -33.5c0 -12.667 3.66699 -23.667 11 -33s18.666 -14 33.999 -14c16 0 27.833 4.66699 35.5 14s11.5 20.333 11.5 33c0 14.667 -4.5 26.167 -13.5 34.5
s-20.167 12.5 -33.5 12.5zM554.004 832.997c0 8 2.5 15.333 7.5 22s12.5 10 22.5 10c10.667 0 18.5 -3.33301 23.5 -10s7.5 -14 7.5 -22c0 -8.66699 -2.33301 -16.167 -7 -22.5s-12.667 -9.5 -24 -9.5c-10 0 -17.5 3.5 -22.5 10.5s-7.5 14.167 -7.5 21.5z" />
    <glyph glyph-name="cacute" unicode="&#x107;" horiz-adv-x="490" 
d="M27 230c0 47.333 8.00391 87.834 24.0039 121.501s37 61.167 63 82.5s55.667 37 89 47s67 15 101 15c26 0 51.667 -2.83301 77 -8.5s49 -13.834 71 -24.501v-145c-16.667 9.33301 -35.834 17.166 -57.501 23.499s-43.167 9.5 -64.5 9.5c-16.667 0 -32.667 -2 -48 -6
s-29 -10.333 -41 -19s-21.5 -20 -28.5 -34s-10.5 -31.333 -10.5 -52c0 -19.333 3.5 -35.833 10.5 -49.5s16.167 -25 27.5 -34s24.666 -15.667 39.999 -20s31 -6.5 47 -6.5c25.333 0 49.166 3 71.499 9s41.833 13.667 58.5 23v-145c-24 -10 -49.833 -17.833 -77.5 -23.5
s-56.834 -8.5 -87.501 -8.5c-33.333 0 -66 4.83301 -98 14.5s-60.333 24.5 -85 44.5s-44.5 45.333 -59.5 76s-22.5 67.334 -22.5 110.001zM54.0039 694.001h500v-165h-500v165zM111.004 567.001h31c15.333 0 27 4 35 12s12 18.667 12 32c0 12 -4 22.333 -12 31
s-19.667 13 -35 13h-31v-88zM126.004 639.001h16c10 0 17.667 -2.66699 23 -8s8 -12 8 -20c0 -19.333 -10.333 -29 -31 -29h-16v57zM230.004 582.001v21h46v16h-46v20h46v16h-62v-88h62v15h-46zM395.004 567.001v88h-21l-26 -36l-26 36h-21v-88h17v66l30 -39l31 40v-67h16z
M465.004 660.001c-12.667 0 -23.332 -4.5 -31.999 -13.5s-13 -20.167 -13 -33.5c0 -12.667 3.66699 -23.667 11 -33s18.666 -14 33.999 -14c16 0 27.833 4.66699 35.5 14s11.5 20.333 11.5 33c0 14.667 -4.5 26.167 -13.5 34.5s-20.167 12.5 -33.5 12.5zM435.006 613.001
c0 8 2.5 15.333 7.5 22s12.5 10 22.5 10c10.667 0 18.5 -3.33301 23.5 -10s7.5 -14 7.5 -22c0 -8.66699 -2.33301 -16.167 -7 -22.5s-12.667 -9.5 -24 -9.5c-10 0 -17.5 3.5 -22.5 10.5s-7.5 14.167 -7.5 21.5z" />
    <glyph glyph-name="Cdotaccent" unicode="&#x10a;" horiz-adv-x="655" 
d="M32 340c0 66 10.835 122.664 32.502 169.997s50.334 86.166 86.001 116.499s76.167 52.666 121.5 66.999s91.666 21.5 138.999 21.5c36 0 71.167 -3.66699 105.5 -11s66.833 -18.333 97.5 -33v-175c-21.333 18 -47.166 32 -77.499 42s-61.5 15 -93.5 15
c-28 0 -55.167 -4 -81.5 -12s-49.833 -20.5 -70.5 -37.5s-37.334 -39 -50.001 -66s-19 -59.5 -19 -97.5c0 -34 6.33301 -63.167 19 -87.5s29.167 -44.166 49.5 -59.499s43.666 -26.666 69.999 -33.999s53.166 -11 80.499 -11c36 0 69.667 5.33301 101 16s57 25.667 77 45
v-180c-62 -29.333 -130 -44 -204 -44c-48 0 -95 6.83301 -141 20.5s-86.833 34.834 -122.5 63.501s-64.5 65.334 -86.5 110.001s-33 98.334 -33 161.001zM153.002 908.997h500v-165h-500v165zM210.002 781.997h31c15.333 0 27 4 35 12s12 18.667 12 32
c0 12 -4 22.333 -12 31s-19.667 13 -35 13h-31v-88zM225.002 853.997h16c10 0 17.667 -2.66699 23 -8s8 -12 8 -20c0 -19.333 -10.333 -29 -31 -29h-16v57zM329.002 796.997v21h46v16h-46v20h46v16h-62v-88h62v15h-46zM494.002 781.997v88h-21l-26 -36l-26 36h-21v-88h17v66
l30 -39l31 40v-67h16zM564.002 874.997c-12.667 0 -23.332 -4.5 -31.999 -13.5s-13 -20.167 -13 -33.5c0 -12.667 3.66699 -23.667 11 -33s18.666 -14 33.999 -14c16 0 27.833 4.66699 35.5 14s11.5 20.333 11.5 33c0 14.667 -4.5 26.167 -13.5 34.5
s-20.167 12.5 -33.5 12.5zM534.004 827.997c0 8 2.5 15.333 7.5 22s12.5 10 22.5 10c10.667 0 18.5 -3.33301 23.5 -10s7.5 -14 7.5 -22c0 -8.66699 -2.33301 -16.167 -7 -22.5s-12.667 -9.5 -24 -9.5c-10 0 -17.5 3.5 -22.5 10.5s-7.5 14.167 -7.5 21.5z" />
    <glyph glyph-name="cdotaccent" unicode="&#x10b;" horiz-adv-x="490" 
d="M27 230c0 47.333 8.00391 87.834 24.0039 121.501s37 61.167 63 82.5s55.667 37 89 47s67 15 101 15c26 0 51.667 -2.83301 77 -8.5s49 -13.834 71 -24.501v-145c-16.667 9.33301 -35.834 17.166 -57.501 23.499s-43.167 9.5 -64.5 9.5c-16.667 0 -32.667 -2 -48 -6
s-29 -10.333 -41 -19s-21.5 -20 -28.5 -34s-10.5 -31.333 -10.5 -52c0 -19.333 3.5 -35.833 10.5 -49.5s16.167 -25 27.5 -34s24.666 -15.667 39.999 -20s31 -6.5 47 -6.5c25.333 0 49.166 3 71.499 9s41.833 13.667 58.5 23v-145c-24 -10 -49.833 -17.833 -77.5 -23.5
s-56.834 -8.5 -87.501 -8.5c-33.333 0 -66 4.83301 -98 14.5s-60.333 24.5 -85 44.5s-44.5 45.333 -59.5 76s-22.5 67.334 -22.5 110.001zM34.0039 689.001h500v-165h-500v165zM91.0039 562.001h31c15.333 0 27 4 35 12s12 18.667 12 32c0 12 -4 22.333 -12 31
s-19.667 13 -35 13h-31v-88zM106.004 634.001h16c10 0 17.667 -2.66699 23 -8s8 -12 8 -20c0 -19.333 -10.333 -29 -31 -29h-16v57zM210.004 577.001v21h46v16h-46v20h46v16h-62v-88h62v15h-46zM375.004 562.001v88h-21l-26 -36l-26 36h-21v-88h17v66l30 -39l31 40v-67h16z
M445.004 655.001c-12.667 0 -23.332 -4.5 -31.999 -13.5s-13 -20.167 -13 -33.5c0 -12.667 3.66699 -23.667 11 -33s18.666 -14 33.999 -14c16 0 27.833 4.66699 35.5 14s11.5 20.333 11.5 33c0 14.667 -4.5 26.167 -13.5 34.5s-20.167 12.5 -33.5 12.5zM415.006 608.001
c0 8 2.5 15.333 7.5 22s12.5 10 22.5 10c10.667 0 18.5 -3.33301 23.5 -10s7.5 -14 7.5 -22c0 -8.66699 -2.33301 -16.167 -7 -22.5s-12.667 -9.5 -24 -9.5c-10 0 -17.5 3.5 -22.5 10.5s-7.5 14.167 -7.5 21.5z" />
    <glyph glyph-name="Ccaron" unicode="&#x10c;" horiz-adv-x="655" 
d="M32 340c0 66 10.835 122.664 32.502 169.997s50.334 86.166 86.001 116.499s76.167 52.666 121.5 66.999s91.666 21.5 138.999 21.5c36 0 71.167 -3.66699 105.5 -11s66.833 -18.333 97.5 -33v-175c-21.333 18 -47.166 32 -77.499 42s-61.5 15 -93.5 15
c-28 0 -55.167 -4 -81.5 -12s-49.833 -20.5 -70.5 -37.5s-37.334 -39 -50.001 -66s-19 -59.5 -19 -97.5c0 -34 6.33301 -63.167 19 -87.5s29.167 -44.166 49.5 -59.499s43.666 -26.666 69.999 -33.999s53.166 -11 80.499 -11c36 0 69.667 5.33301 101 16s57 25.667 77 45
v-180c-62 -29.333 -130 -44 -204 -44c-48 0 -95 6.83301 -141 20.5s-86.833 34.834 -122.5 63.501s-64.5 65.334 -86.5 110.001s-33 98.334 -33 161.001zM150.002 913.997h500v-165h-500v165zM207.002 786.997h31c15.333 0 27 4 35 12s12 18.667 12 32
c0 12 -4 22.333 -12 31s-19.667 13 -35 13h-31v-88zM222.002 858.997h16c10 0 17.667 -2.66699 23 -8s8 -12 8 -20c0 -19.333 -10.333 -29 -31 -29h-16v57zM326.002 801.997v21h46v16h-46v20h46v16h-62v-88h62v15h-46zM491.002 786.997v88h-21l-26 -36l-26 36h-21v-88h17v66
l30 -39l31 40v-67h16zM561.002 879.997c-12.667 0 -23.332 -4.5 -31.999 -13.5s-13 -20.167 -13 -33.5c0 -12.667 3.66699 -23.667 11 -33s18.666 -14 33.999 -14c16 0 27.833 4.66699 35.5 14s11.5 20.333 11.5 33c0 14.667 -4.5 26.167 -13.5 34.5
s-20.167 12.5 -33.5 12.5zM531.004 832.997c0 8 2.5 15.333 7.5 22s12.5 10 22.5 10c10.667 0 18.5 -3.33301 23.5 -10s7.5 -14 7.5 -22c0 -8.66699 -2.33301 -16.167 -7 -22.5s-12.667 -9.5 -24 -9.5c-10 0 -17.5 3.5 -22.5 10.5s-7.5 14.167 -7.5 21.5z" />
    <glyph glyph-name="ccaron" unicode="&#x10d;" horiz-adv-x="490" 
d="M27 230c0 47.333 8.00391 87.834 24.0039 121.501s37 61.167 63 82.5s55.667 37 89 47s67 15 101 15c26 0 51.667 -2.83301 77 -8.5s49 -13.834 71 -24.501v-145c-16.667 9.33301 -35.834 17.166 -57.501 23.499s-43.167 9.5 -64.5 9.5c-16.667 0 -32.667 -2 -48 -6
s-29 -10.333 -41 -19s-21.5 -20 -28.5 -34s-10.5 -31.333 -10.5 -52c0 -19.333 3.5 -35.833 10.5 -49.5s16.167 -25 27.5 -34s24.666 -15.667 39.999 -20s31 -6.5 47 -6.5c25.333 0 49.166 3 71.499 9s41.833 13.667 58.5 23v-145c-24 -10 -49.833 -17.833 -77.5 -23.5
s-56.834 -8.5 -87.501 -8.5c-33.333 0 -66 4.83301 -98 14.5s-60.333 24.5 -85 44.5s-44.5 45.333 -59.5 76s-22.5 67.334 -22.5 110.001zM31.0039 694.001h500v-165h-500v165zM88.0039 567.001h31c15.333 0 27 4 35 12s12 18.667 12 32c0 12 -4 22.333 -12 31
s-19.667 13 -35 13h-31v-88zM103.004 639.001h16c10 0 17.667 -2.66699 23 -8s8 -12 8 -20c0 -19.333 -10.333 -29 -31 -29h-16v57zM207.004 582.001v21h46v16h-46v20h46v16h-62v-88h62v15h-46zM372.004 567.001v88h-21l-26 -36l-26 36h-21v-88h17v66l30 -39l31 40v-67h16z
M442.004 660.001c-12.667 0 -23.332 -4.5 -31.999 -13.5s-13 -20.167 -13 -33.5c0 -12.667 3.66699 -23.667 11 -33s18.666 -14 33.999 -14c16 0 27.833 4.66699 35.5 14s11.5 20.333 11.5 33c0 14.667 -4.5 26.167 -13.5 34.5s-20.167 12.5 -33.5 12.5zM412.006 613.001
c0 8 2.5 15.333 7.5 22s12.5 10 22.5 10c10.667 0 18.5 -3.33301 23.5 -10s7.5 -14 7.5 -22c0 -8.66699 -2.33301 -16.167 -7 -22.5s-12.667 -9.5 -24 -9.5c-10 0 -17.5 3.5 -22.5 10.5s-7.5 14.167 -7.5 21.5z" />
    <glyph glyph-name="Dcaron" unicode="&#x10e;" horiz-adv-x="744" 
d="M345 700c62.667 0 117 -8.66699 163 -26s84 -41.5 114 -72.5s52.333 -68 67 -111s22 -89.833 22 -140.5c0 -51.333 -7.33301 -98.333 -22 -141s-37 -79.5 -67 -110.5s-68 -55.167 -114 -72.5s-100.333 -26 -163 -26h-279v700h279zM521 350
c0 66 -15.333 114.167 -46 144.5s-74 45.5 -130 45.5h-94v-380h94c56 0 99.333 15.167 130 45.5s46 78.5 46 144.5zM89 914h500v-165h-500v165zM146 787h31c15.333 0 27 4 35 12s12 18.667 12 32c0 12 -4 22.333 -12 31s-19.667 13 -35 13h-31v-88zM161 859h16
c10 0 17.667 -2.66699 23 -8s8 -12 8 -20c0 -19.333 -10.333 -29 -31 -29h-16v57zM265 802v21h46v16h-46v20h46v16h-62v-88h62v15h-46zM430 787v88h-21l-26 -36l-26 36h-21v-88h17v66l30 -39l31 40v-67h16zM500 880c-12.667 0 -23.332 -4.5 -31.999 -13.5
s-13 -20.167 -13 -33.5c0 -12.667 3.66699 -23.667 11 -33s18.666 -14 33.999 -14c16 0 27.833 4.66699 35.5 14s11.5 20.333 11.5 33c0 14.667 -4.5 26.167 -13.5 34.5s-20.167 12.5 -33.5 12.5zM470.002 833c0 8 2.5 15.333 7.5 22s12.5 10 22.5 10
c10.667 0 18.5 -3.33301 23.5 -10s7.5 -14 7.5 -22c0 -8.66699 -2.33301 -16.167 -7 -22.5s-12.667 -9.5 -24 -9.5c-10 0 -17.5 3.5 -22.5 10.5s-7.5 14.167 -7.5 21.5z" />
    <glyph glyph-name="dcaron" unicode="&#x10f;" horiz-adv-x="623" 
d="M572 700v-700.001h-150v65c-12 -20 -31.333 -38.333 -58 -55s-61.667 -25 -105 -25c-40 0 -74.667 7.5 -104 22.5s-53.5 34.5 -72.5 58.5s-33 51.167 -42 81.5s-13.5 61.166 -13.5 92.499c0 30.667 4.5 61.334 13.5 92.001s23 58 42 82s43.167 43.5 72.5 58.5
s64 22.5 104 22.5c34 0 62.667 -5.16699 86 -15.5s42.333 -23.166 57 -38.499v259h170zM402 294.999c-7.33301 15.333 -19.5 29.168 -36.5 41.501s-37.167 18.5 -60.5 18.5c-18 0 -33.5 -3.33301 -46.5 -10s-23.667 -15.5 -32 -26.5s-14.5 -23.333 -18.5 -37
s-6 -27.5 -6 -41.5s2 -27.833 6 -41.5s10.167 -26 18.5 -37s19 -19.833 32 -26.5s28.5 -10 46.5 -10c23.333 0 43.5 6.16699 60.5 18.5s29.167 26.166 36.5 41.499v110z" />
    <glyph glyph-name="Dcroat" unicode="&#x110;" horiz-adv-x="760" 
d="M361 700c62.667 0 117 -8.66699 163 -26s84 -41.5 114 -72.5s52.333 -68 67 -111s22 -89.833 22 -140.5c0 -51.333 -7.33301 -98.333 -22 -141s-37 -79.5 -67 -110.5s-68 -55.167 -114 -72.5s-100.333 -26 -163 -26h-279v700h279zM361 160c56 0 99.333 15.167 130 45.5
s46 78.5 46 144.5s-15.333 114.167 -46 144.5s-74 45.5 -130 45.5h-94v-380h94z" />
    <glyph glyph-name="dcroat" unicode="&#x111;" horiz-adv-x="623" 
d="M631 638v-100.001h-59v-538h-150v65c-12 -20 -31.333 -38.333 -58 -55s-61.667 -25 -105 -25c-40 0 -74.667 7.5 -104 22.5s-53.5 34.5 -72.5 58.5s-33 51.167 -42 81.5s-13.5 61.166 -13.5 92.499c0 30.667 4.5 61.334 13.5 92.001s23 58 42 82s43.167 43.5 72.5 58.5
s64 22.5 104 22.5c34 0 62.667 -5.16699 86 -15.5s42.333 -23.166 57 -38.499v97h-121v100h121v62h170v-62h59zM305 124.999c23.333 0 43.5 6.16895 60.5 18.502s29.167 26.166 36.5 41.499v110c-7.33301 15.333 -19.5 29.166 -36.5 41.499s-37.167 18.5 -60.5 18.5
c-18 0 -33.5 -3.33301 -46.5 -10s-23.667 -15.5 -32 -26.5s-14.5 -23.333 -18.5 -37s-6 -27.5 -6 -41.5s2 -27.833 6 -41.5s10.167 -26 18.5 -37s19 -19.833 32 -26.5s28.5 -10 46.5 -10z" />
    <glyph glyph-name="Emacron" unicode="&#x112;" horiz-adv-x="617" 
d="M570 700v-160h-319v-107h289v-159h-289v-114h325v-160h-510v700h504zM87 914h500v-165h-500v165zM144 787h31c15.333 0 27 4 35 12s12 18.667 12 32c0 12 -4 22.333 -12 31s-19.667 13 -35 13h-31v-88zM159 859h16c10 0 17.667 -2.66699 23 -8s8 -12 8 -20
c0 -19.333 -10.333 -29 -31 -29h-16v57zM263 802v21h46v16h-46v20h46v16h-62v-88h62v15h-46zM428 787v88h-21l-26 -36l-26 36h-21v-88h17v66l30 -39l31 40v-67h16zM498 880c-12.667 0 -23.332 -4.5 -31.999 -13.5s-13 -20.167 -13 -33.5c0 -12.667 3.66699 -23.667 11 -33
s18.666 -14 33.999 -14c16 0 27.833 4.66699 35.5 14s11.5 20.333 11.5 33c0 14.667 -4.5 26.167 -13.5 34.5s-20.167 12.5 -33.5 12.5zM468.002 833c0 8 2.5 15.333 7.5 22s12.5 10 22.5 10c10.667 0 18.5 -3.33301 23.5 -10s7.5 -14 7.5 -22
c0 -8.66699 -2.33301 -16.167 -7 -22.5s-12.667 -9.5 -24 -9.5c-10 0 -17.5 3.5 -22.5 10.5s-7.5 14.167 -7.5 21.5z" />
    <glyph glyph-name="emacron" unicode="&#x113;" horiz-adv-x="548" 
d="M27 240c0 46.667 8.16992 86.3311 24.5029 118.998s37 59 62 79s52.333 34.5 82 43.5s57.5 13.5 83.5 13.5c51.333 0 94 -9.16699 128 -27.5s60.333 -42 79 -71s30 -61.667 34 -98s1.66699 -72.833 -7 -109.5h-314c4.66699 -13.333 12 -24.666 22 -33.999
s21.833 -17 35.5 -23s28.667 -10.333 45 -13s33.166 -4 50.499 -4c27.333 0 52.166 2 74.499 6s43.5 9.66699 63.5 17v-126c-22.667 -8 -48.5 -14.5 -77.5 -19.5s-62.5 -7.5 -100.5 -7.5c-39.333 0 -76.333 5.5 -111 16.5s-64.834 27.333 -90.501 49s-46 48.334 -61 80.001
s-22.5 68.167 -22.5 109.5zM358.003 290.997c1.33301 6 1.33301 13.499 0 22.499s-4.66602 17.833 -9.99902 26.5s-13.333 16.167 -24 22.5s-24.334 9.5 -41.001 9.5c-23.333 0 -43.5 -7.16699 -60.5 -21.5s-25.5 -34.166 -25.5 -59.499h161zM37.0029 693.996h500v-165h-500
v165zM94.0029 566.996h31c15.333 0 27 4 35 12s12 18.667 12 32c0 12 -4 22.333 -12 31s-19.667 13 -35 13h-31v-88zM109.003 638.996h16c10 0 17.667 -2.66699 23 -8s8 -12 8 -20c0 -19.333 -10.333 -29 -31 -29h-16v57zM213.003 581.996v21h46v16h-46v20h46v16h-62v-88h62
v15h-46zM378.003 566.996v88h-21l-26 -36l-26 36h-21v-88h17v66l30 -39l31 40v-67h16zM448.003 659.996c-12.667 0 -23.332 -4.5 -31.999 -13.5s-13 -20.167 -13 -33.5c0 -12.667 3.66699 -23.667 11 -33s18.666 -14 33.999 -14c16 0 27.833 4.66699 35.5 14
s11.5 20.333 11.5 33c0 14.667 -4.5 26.167 -13.5 34.5s-20.167 12.5 -33.5 12.5zM418.005 612.996c0 8 2.5 15.333 7.5 22s12.5 10 22.5 10c10.667 0 18.5 -3.33301 23.5 -10s7.5 -14 7.5 -22c0 -8.66699 -2.33301 -16.167 -7 -22.5s-12.667 -9.5 -24 -9.5
c-10 0 -17.5 3.5 -22.5 10.5s-7.5 14.167 -7.5 21.5z" />
    <glyph glyph-name="Edotaccent" unicode="&#x116;" horiz-adv-x="617" 
d="M570 700v-160h-319v-107h289v-159h-289v-114h325v-160h-510v700h504zM74 909h500v-165h-500v165zM131 782h31c15.333 0 27 4 35 12s12 18.667 12 32c0 12 -4 22.333 -12 31s-19.667 13 -35 13h-31v-88zM146 854h16c10 0 17.667 -2.66699 23 -8s8 -12 8 -20
c0 -19.333 -10.333 -29 -31 -29h-16v57zM250 797v21h46v16h-46v20h46v16h-62v-88h62v15h-46zM415 782v88h-21l-26 -36l-26 36h-21v-88h17v66l30 -39l31 40v-67h16zM485 875c-12.667 0 -23.332 -4.5 -31.999 -13.5s-13 -20.167 -13 -33.5c0 -12.667 3.66699 -23.667 11 -33
s18.666 -14 33.999 -14c16 0 27.833 4.66699 35.5 14s11.5 20.333 11.5 33c0 14.667 -4.5 26.167 -13.5 34.5s-20.167 12.5 -33.5 12.5zM455.002 828c0 8 2.5 15.333 7.5 22s12.5 10 22.5 10c10.667 0 18.5 -3.33301 23.5 -10s7.5 -14 7.5 -22
c0 -8.66699 -2.33301 -16.167 -7 -22.5s-12.667 -9.5 -24 -9.5c-10 0 -17.5 3.5 -22.5 10.5s-7.5 14.167 -7.5 21.5z" />
    <glyph glyph-name="edotaccent" unicode="&#x117;" horiz-adv-x="548" 
d="M27 240c0 46.667 8.16992 86.3311 24.5029 118.998s37 59 62 79s52.333 34.5 82 43.5s57.5 13.5 83.5 13.5c51.333 0 94 -9.16699 128 -27.5s60.333 -42 79 -71s30 -61.667 34 -98s1.66699 -72.833 -7 -109.5h-314c4.66699 -13.333 12 -24.666 22 -33.999
s21.833 -17 35.5 -23s28.667 -10.333 45 -13s33.166 -4 50.499 -4c27.333 0 52.166 2 74.499 6s43.5 9.66699 63.5 17v-126c-22.667 -8 -48.5 -14.5 -77.5 -19.5s-62.5 -7.5 -100.5 -7.5c-39.333 0 -76.333 5.5 -111 16.5s-64.834 27.333 -90.501 49s-46 48.334 -61 80.001
s-22.5 68.167 -22.5 109.5zM358.003 290.997c1.33301 6 1.33301 13.499 0 22.499s-4.66602 17.833 -9.99902 26.5s-13.333 16.167 -24 22.5s-24.334 9.5 -41.001 9.5c-23.333 0 -43.5 -7.16699 -60.5 -21.5s-25.5 -34.166 -25.5 -59.499h161zM24.0029 688.996h500v-165h-500
v165zM81.0029 561.996h31c15.333 0 27 4 35 12s12 18.667 12 32c0 12 -4 22.333 -12 31s-19.667 13 -35 13h-31v-88zM96.0029 633.996h16c10 0 17.667 -2.66699 23 -8s8 -12 8 -20c0 -19.333 -10.333 -29 -31 -29h-16v57zM200.003 576.996v21h46v16h-46v20h46v16h-62v-88h62
v15h-46zM365.003 561.996v88h-21l-26 -36l-26 36h-21v-88h17v66l30 -39l31 40v-67h16zM435.003 654.996c-12.667 0 -23.332 -4.5 -31.999 -13.5s-13 -20.167 -13 -33.5c0 -12.667 3.66699 -23.667 11 -33s18.666 -14 33.999 -14c16 0 27.833 4.66699 35.5 14
s11.5 20.333 11.5 33c0 14.667 -4.5 26.167 -13.5 34.5s-20.167 12.5 -33.5 12.5zM405.005 607.996c0 8 2.5 15.333 7.5 22s12.5 10 22.5 10c10.667 0 18.5 -3.33301 23.5 -10s7.5 -14 7.5 -22c0 -8.66699 -2.33301 -16.167 -7 -22.5s-12.667 -9.5 -24 -9.5
c-10 0 -17.5 3.5 -22.5 10.5s-7.5 14.167 -7.5 21.5z" />
    <glyph glyph-name="Eogonek" unicode="&#x118;" horiz-adv-x="617" 
d="M570 700v-160h-319v-107h289v-159h-289v-114h325v-160h-510v700h504z" />
    <glyph glyph-name="eogonek" unicode="&#x119;" horiz-adv-x="548" 
d="M27 240c0 46.667 8.16992 86.3311 24.5029 118.998s37 59 62 79s52.333 34.5 82 43.5s57.5 13.5 83.5 13.5c51.333 0 94 -9.16699 128 -27.5s60.333 -42 79 -71s30 -61.667 34 -98s1.66699 -72.833 -7 -109.5h-314c4.66699 -13.333 12 -24.666 22 -33.999
s21.833 -17 35.5 -23s28.667 -10.333 45 -13s33.166 -4 50.499 -4c27.333 0 52.166 2 74.499 6s43.5 9.66699 63.5 17v-126c-22.667 -8 -48.5 -14.5 -77.5 -19.5s-62.5 -7.5 -100.5 -7.5c-39.333 0 -76.333 5.5 -111 16.5s-64.834 27.333 -90.501 49s-46 48.334 -61 80.001
s-22.5 68.167 -22.5 109.5zM358.003 290.997c1.33301 6 1.33301 13.499 0 22.499s-4.66602 17.833 -9.99902 26.5s-13.333 16.167 -24 22.5s-24.334 9.5 -41.001 9.5c-23.333 0 -43.5 -7.16699 -60.5 -21.5s-25.5 -34.166 -25.5 -59.499h161z" />
    <glyph glyph-name="Ecaron" unicode="&#x11a;" horiz-adv-x="617" 
d="M570 700v-160h-319v-107h289v-159h-289v-114h325v-160h-510v700h504zM71 914h500v-165h-500v165zM128 787h31c15.333 0 27 4 35 12s12 18.667 12 32c0 12 -4 22.333 -12 31s-19.667 13 -35 13h-31v-88zM143 859h16c10 0 17.667 -2.66699 23 -8s8 -12 8 -20
c0 -19.333 -10.333 -29 -31 -29h-16v57zM247 802v21h46v16h-46v20h46v16h-62v-88h62v15h-46zM412 787v88h-21l-26 -36l-26 36h-21v-88h17v66l30 -39l31 40v-67h16zM482 880c-12.667 0 -23.332 -4.5 -31.999 -13.5s-13 -20.167 -13 -33.5c0 -12.667 3.66699 -23.667 11 -33
s18.666 -14 33.999 -14c16 0 27.833 4.66699 35.5 14s11.5 20.333 11.5 33c0 14.667 -4.5 26.167 -13.5 34.5s-20.167 12.5 -33.5 12.5zM452.002 833c0 8 2.5 15.333 7.5 22s12.5 10 22.5 10c10.667 0 18.5 -3.33301 23.5 -10s7.5 -14 7.5 -22
c0 -8.66699 -2.33301 -16.167 -7 -22.5s-12.667 -9.5 -24 -9.5c-10 0 -17.5 3.5 -22.5 10.5s-7.5 14.167 -7.5 21.5z" />
    <glyph glyph-name="ecaron" unicode="&#x11b;" horiz-adv-x="548" 
d="M27 240c0 46.667 8.16992 86.3311 24.5029 118.998s37 59 62 79s52.333 34.5 82 43.5s57.5 13.5 83.5 13.5c51.333 0 94 -9.16699 128 -27.5s60.333 -42 79 -71s30 -61.667 34 -98s1.66699 -72.833 -7 -109.5h-314c4.66699 -13.333 12 -24.666 22 -33.999
s21.833 -17 35.5 -23s28.667 -10.333 45 -13s33.166 -4 50.499 -4c27.333 0 52.166 2 74.499 6s43.5 9.66699 63.5 17v-126c-22.667 -8 -48.5 -14.5 -77.5 -19.5s-62.5 -7.5 -100.5 -7.5c-39.333 0 -76.333 5.5 -111 16.5s-64.834 27.333 -90.501 49s-46 48.334 -61 80.001
s-22.5 68.167 -22.5 109.5zM358.003 290.997c1.33301 6 1.33301 13.499 0 22.499s-4.66602 17.833 -9.99902 26.5s-13.333 16.167 -24 22.5s-24.334 9.5 -41.001 9.5c-23.333 0 -43.5 -7.16699 -60.5 -21.5s-25.5 -34.166 -25.5 -59.499h161zM21.0029 693.996h500v-165h-500
v165zM78.0029 566.996h31c15.333 0 27 4 35 12s12 18.667 12 32c0 12 -4 22.333 -12 31s-19.667 13 -35 13h-31v-88zM93.0029 638.996h16c10 0 17.667 -2.66699 23 -8s8 -12 8 -20c0 -19.333 -10.333 -29 -31 -29h-16v57zM197.003 581.996v21h46v16h-46v20h46v16h-62v-88h62
v15h-46zM362.003 566.996v88h-21l-26 -36l-26 36h-21v-88h17v66l30 -39l31 40v-67h16zM432.003 659.996c-12.667 0 -23.332 -4.5 -31.999 -13.5s-13 -20.167 -13 -33.5c0 -12.667 3.66699 -23.667 11 -33s18.666 -14 33.999 -14c16 0 27.833 4.66699 35.5 14
s11.5 20.333 11.5 33c0 14.667 -4.5 26.167 -13.5 34.5s-20.167 12.5 -33.5 12.5zM402.005 612.996c0 8 2.5 15.333 7.5 22s12.5 10 22.5 10c10.667 0 18.5 -3.33301 23.5 -10s7.5 -14 7.5 -22c0 -8.66699 -2.33301 -16.167 -7 -22.5s-12.667 -9.5 -24 -9.5
c-10 0 -17.5 3.5 -22.5 10.5s-7.5 14.167 -7.5 21.5z" />
    <glyph glyph-name="Gbreve" unicode="&#x11e;" horiz-adv-x="699" 
d="M32 350c0 65.333 10.999 121 32.999 167s51 83.667 87 113s77.167 50.833 123.5 64.5s93.833 20.5 142.5 20.5c38 0 75.333 -3.83301 112 -11.5s71.667 -18.5 105 -32.5v-175c-26 18 -55.833 31.833 -89.5 41.5s-68.167 14.5 -103.5 14.5
c-28 0 -55.333 -3.83301 -82 -11.5s-50.167 -19.5 -70.5 -35.5s-36.666 -36.833 -48.999 -62.5s-18.5 -56.5 -18.5 -92.5c0 -43.333 7 -78.333 21 -105s31.5 -47.5 52.5 -62.5s43.5 -25.167 67.5 -30.5s46 -8 66 -8c18.667 0 34.667 1.66699 48 5v236h175v-353
c-36 -15.333 -73.667 -27 -113 -35s-79 -12 -119 -12c-50 0 -98.333 7.16699 -145 21.5s-88 36.333 -124 66s-64.833 67.5 -86.5 113.5s-32.5 100.667 -32.5 164zM132.999 919h500v-165h-500v165zM189.999 792h31c15.333 0 27 4 35 12s12 18.667 12 32
c0 12 -4 22.333 -12 31s-19.667 13 -35 13h-31v-88zM204.999 864h16c10 0 17.667 -2.66699 23 -8s8 -12 8 -20c0 -19.333 -10.333 -29 -31 -29h-16v57zM308.999 807v21h46v16h-46v20h46v16h-62v-88h62v15h-46zM473.999 792v88h-21l-26 -36l-26 36h-21v-88h17v66l30 -39
l31 40v-67h16zM543.999 885c-12.667 0 -23.332 -4.5 -31.999 -13.5s-13 -20.167 -13 -33.5c0 -12.667 3.66699 -23.667 11 -33s18.666 -14 33.999 -14c16 0 27.833 4.66699 35.5 14s11.5 20.333 11.5 33c0 14.667 -4.5 26.167 -13.5 34.5s-20.167 12.5 -33.5 12.5z
M514.001 838c0 8 2.5 15.333 7.5 22s12.5 10 22.5 10c10.667 0 18.5 -3.33301 23.5 -10s7.5 -14 7.5 -22c0 -8.66699 -2.33301 -16.167 -7 -22.5s-12.667 -9.5 -24 -9.5c-10 0 -17.5 3.5 -22.5 10.5s-7.5 14.167 -7.5 21.5z" />
    <glyph glyph-name="gbreve" unicode="&#x11f;" horiz-adv-x="623" 
d="M27 240c0 30.667 4.49902 61.335 13.499 92.002s23 58 42 82s43.167 43.5 72.5 58.5s64 22.5 104 22.5c43.333 0 78.333 -8.33301 105 -25s46 -35 58 -55v65h150v-460c0 -48 -8 -88.333 -24 -121s-37.167 -58.834 -63.5 -78.501s-56.666 -33.834 -90.999 -42.501
s-69.5 -13 -105.5 -13c-38.667 0 -75.5 4 -110.5 12s-67.167 19 -96.5 33v145c26 -16 55 -28.333 87 -37s64.333 -13 97 -13c19.333 0 37.333 1.66699 54 5s31.167 9 43.5 17s22 18.667 29 32s10.5 30.333 10.5 51v29c-14.667 -15.333 -33.667 -28.166 -57 -38.499
s-52 -15.5 -86 -15.5c-40 0 -74.667 7.5 -104 22.5s-53.5 34.5 -72.5 58.5s-33 51.167 -42 81.5s-13.5 61.166 -13.5 92.499zM401.999 295.001c-7.33301 15.333 -19.5 29.168 -36.5 41.501s-37.167 18.5 -60.5 18.5c-18 0 -33.5 -3.33301 -46.5 -10s-23.667 -15.5 -32 -26.5
s-14.5 -23.333 -18.5 -37s-6 -27.5 -6 -41.5s2 -27.833 6 -41.5s10.167 -26 18.5 -37s19 -19.833 32 -26.5s28.5 -10 46.5 -10c23.333 0 43.5 6.16699 60.5 18.5s29.167 26.166 36.5 41.499v110zM16.999 699.003h500v-165h-500v165zM73.999 572.003h31c15.333 0 27 4 35 12
s12 18.667 12 32c0 12 -4 22.333 -12 31s-19.667 13 -35 13h-31v-88zM88.999 644.003h16c10 0 17.667 -2.66699 23 -8s8 -12 8 -20c0 -19.333 -10.333 -29 -31 -29h-16v57zM192.999 587.003v21h46v16h-46v20h46v16h-62v-88h62v15h-46zM357.999 572.003v88h-21l-26 -36
l-26 36h-21v-88h17v66l30 -39l31 40v-67h16zM427.999 665.003c-12.667 0 -23.332 -4.5 -31.999 -13.5s-13 -20.167 -13 -33.5c0 -12.667 3.66699 -23.667 11 -33s18.666 -14 33.999 -14c16 0 27.833 4.66699 35.5 14s11.5 20.333 11.5 33c0 14.667 -4.5 26.167 -13.5 34.5
s-20.167 12.5 -33.5 12.5zM398.001 618.003c0 8 2.5 15.333 7.5 22s12.5 10 22.5 10c10.667 0 18.5 -3.33301 23.5 -10s7.5 -14 7.5 -22c0 -8.66699 -2.33301 -16.167 -7 -22.5s-12.667 -9.5 -24 -9.5c-10 0 -17.5 3.5 -22.5 10.5s-7.5 14.167 -7.5 21.5z" />
    <glyph glyph-name="Gdotaccent" unicode="&#x120;" horiz-adv-x="699" 
d="M32 350c0 65.333 10.999 121 32.999 167s51 83.667 87 113s77.167 50.833 123.5 64.5s93.833 20.5 142.5 20.5c38 0 75.333 -3.83301 112 -11.5s71.667 -18.5 105 -32.5v-175c-26 18 -55.833 31.833 -89.5 41.5s-68.167 14.5 -103.5 14.5
c-28 0 -55.333 -3.83301 -82 -11.5s-50.167 -19.5 -70.5 -35.5s-36.666 -36.833 -48.999 -62.5s-18.5 -56.5 -18.5 -92.5c0 -43.333 7 -78.333 21 -105s31.5 -47.5 52.5 -62.5s43.5 -25.167 67.5 -30.5s46 -8 66 -8c18.667 0 34.667 1.66699 48 5v236h175v-353
c-36 -15.333 -73.667 -27 -113 -35s-79 -12 -119 -12c-50 0 -98.333 7.16699 -145 21.5s-88 36.333 -124 66s-64.833 67.5 -86.5 113.5s-32.5 100.667 -32.5 164zM139.999 909h500v-165h-500v165zM196.999 782h31c15.333 0 27 4 35 12s12 18.667 12 32
c0 12 -4 22.333 -12 31s-19.667 13 -35 13h-31v-88zM211.999 854h16c10 0 17.667 -2.66699 23 -8s8 -12 8 -20c0 -19.333 -10.333 -29 -31 -29h-16v57zM315.999 797v21h46v16h-46v20h46v16h-62v-88h62v15h-46zM480.999 782v88h-21l-26 -36l-26 36h-21v-88h17v66l30 -39
l31 40v-67h16zM550.999 875c-12.667 0 -23.332 -4.5 -31.999 -13.5s-13 -20.167 -13 -33.5c0 -12.667 3.66699 -23.667 11 -33s18.666 -14 33.999 -14c16 0 27.833 4.66699 35.5 14s11.5 20.333 11.5 33c0 14.667 -4.5 26.167 -13.5 34.5s-20.167 12.5 -33.5 12.5z
M521.001 828c0 8 2.5 15.333 7.5 22s12.5 10 22.5 10c10.667 0 18.5 -3.33301 23.5 -10s7.5 -14 7.5 -22c0 -8.66699 -2.33301 -16.167 -7 -22.5s-12.667 -9.5 -24 -9.5c-10 0 -17.5 3.5 -22.5 10.5s-7.5 14.167 -7.5 21.5z" />
    <glyph glyph-name="gdotaccent" unicode="&#x121;" horiz-adv-x="623" 
d="M27 240c0 30.667 4.49902 61.335 13.499 92.002s23 58 42 82s43.167 43.5 72.5 58.5s64 22.5 104 22.5c43.333 0 78.333 -8.33301 105 -25s46 -35 58 -55v65h150v-460c0 -48 -8 -88.333 -24 -121s-37.167 -58.834 -63.5 -78.501s-56.666 -33.834 -90.999 -42.501
s-69.5 -13 -105.5 -13c-38.667 0 -75.5 4 -110.5 12s-67.167 19 -96.5 33v145c26 -16 55 -28.333 87 -37s64.333 -13 97 -13c19.333 0 37.333 1.66699 54 5s31.167 9 43.5 17s22 18.667 29 32s10.5 30.333 10.5 51v29c-14.667 -15.333 -33.667 -28.166 -57 -38.499
s-52 -15.5 -86 -15.5c-40 0 -74.667 7.5 -104 22.5s-53.5 34.5 -72.5 58.5s-33 51.167 -42 81.5s-13.5 61.166 -13.5 92.499zM401.999 295.001c-7.33301 15.333 -19.5 29.168 -36.5 41.501s-37.167 18.5 -60.5 18.5c-18 0 -33.5 -3.33301 -46.5 -10s-23.667 -15.5 -32 -26.5
s-14.5 -23.333 -18.5 -37s-6 -27.5 -6 -41.5s2 -27.833 6 -41.5s10.167 -26 18.5 -37s19 -19.833 32 -26.5s28.5 -10 46.5 -10c23.333 0 43.5 6.16699 60.5 18.5s29.167 26.166 36.5 41.499v110zM23.999 689.003h500v-165h-500v165zM80.999 562.003h31c15.333 0 27 4 35 12
s12 18.667 12 32c0 12 -4 22.333 -12 31s-19.667 13 -35 13h-31v-88zM95.999 634.003h16c10 0 17.667 -2.66699 23 -8s8 -12 8 -20c0 -19.333 -10.333 -29 -31 -29h-16v57zM199.999 577.003v21h46v16h-46v20h46v16h-62v-88h62v15h-46zM364.999 562.003v88h-21l-26 -36
l-26 36h-21v-88h17v66l30 -39l31 40v-67h16zM434.999 655.003c-12.667 0 -23.332 -4.5 -31.999 -13.5s-13 -20.167 -13 -33.5c0 -12.667 3.66699 -23.667 11 -33s18.666 -14 33.999 -14c16 0 27.833 4.66699 35.5 14s11.5 20.333 11.5 33c0 14.667 -4.5 26.167 -13.5 34.5
s-20.167 12.5 -33.5 12.5zM405.001 608.003c0 8 2.5 15.333 7.5 22s12.5 10 22.5 10c10.667 0 18.5 -3.33301 23.5 -10s7.5 -14 7.5 -22c0 -8.66699 -2.33301 -16.167 -7 -22.5s-12.667 -9.5 -24 -9.5c-10 0 -17.5 3.5 -22.5 10.5s-7.5 14.167 -7.5 21.5z" />
    <glyph glyph-name="Gcommaaccent" unicode="&#x122;" horiz-adv-x="699" 
d="M32 350c0 65.333 10.999 121 32.999 167s51 83.667 87 113s77.167 50.833 123.5 64.5s93.833 20.5 142.5 20.5c38 0 75.333 -3.83301 112 -11.5s71.667 -18.5 105 -32.5v-175c-26 18 -55.833 31.833 -89.5 41.5s-68.167 14.5 -103.5 14.5
c-28 0 -55.333 -3.83301 -82 -11.5s-50.167 -19.5 -70.5 -35.5s-36.666 -36.833 -48.999 -62.5s-18.5 -56.5 -18.5 -92.5c0 -43.333 7 -78.333 21 -105s31.5 -47.5 52.5 -62.5s43.5 -25.167 67.5 -30.5s46 -8 66 -8c18.667 0 34.667 1.66699 48 5v236h175v-353
c-36 -15.333 -73.667 -27 -113 -35s-79 -12 -119 -12c-50 0 -98.333 7.16699 -145 21.5s-88 36.333 -124 66s-64.833 67.5 -86.5 113.5s-32.5 100.667 -32.5 164zM183.999 -46h500v-165h-500v165zM240.999 -173h31c15.333 0 27 4 35 12s12 18.667 12 32
c0 12 -4 22.333 -12 31s-19.667 13 -35 13h-31v-88zM255.999 -101h16c10 0 17.667 -2.66699 23 -8s8 -12 8 -20c0 -19.333 -10.333 -29 -31 -29h-16v57zM359.999 -158v21h46v16h-46v20h46v16h-62v-88h62v15h-46zM524.999 -173v88h-21l-26 -36l-26 36h-21v-88h17v66l30 -39
l31 40v-67h16zM594.999 -80c-12.667 0 -23.332 -4.5 -31.999 -13.5s-13 -20.167 -13 -33.5c0 -12.667 3.66699 -23.667 11 -33s18.666 -14 33.999 -14c16 0 27.833 4.66699 35.5 14s11.5 20.333 11.5 33c0 14.667 -4.5 26.167 -13.5 34.5s-20.167 12.5 -33.5 12.5z
M565.001 -127c0 8 2.5 15.333 7.5 22s12.5 10 22.5 10c10.667 0 18.5 -3.33301 23.5 -10s7.5 -14 7.5 -22c0 -8.66699 -2.33301 -16.167 -7 -22.5s-12.667 -9.5 -24 -9.5c-10 0 -17.5 3.5 -22.5 10.5s-7.5 14.167 -7.5 21.5z" />
    <glyph glyph-name="gcommaaccent" unicode="&#x123;" horiz-adv-x="623" 
d="M27 240c0 30.667 4.49902 61.335 13.499 92.002s23 58 42 82s43.167 43.5 72.5 58.5s64 22.5 104 22.5c43.333 0 78.333 -8.33301 105 -25s46 -35 58 -55v65h150v-460c0 -48 -8 -88.333 -24 -121s-37.167 -58.834 -63.5 -78.501s-56.666 -33.834 -90.999 -42.501
s-69.5 -13 -105.5 -13c-38.667 0 -75.5 4 -110.5 12s-67.167 19 -96.5 33v145c26 -16 55 -28.333 87 -37s64.333 -13 97 -13c19.333 0 37.333 1.66699 54 5s31.167 9 43.5 17s22 18.667 29 32s10.5 30.333 10.5 51v29c-14.667 -15.333 -33.667 -28.166 -57 -38.499
s-52 -15.5 -86 -15.5c-40 0 -74.667 7.5 -104 22.5s-53.5 34.5 -72.5 58.5s-33 51.167 -42 81.5s-13.5 61.166 -13.5 92.499zM401.999 295.001c-7.33301 15.333 -19.5 29.168 -36.5 41.501s-37.167 18.5 -60.5 18.5c-18 0 -33.5 -3.33301 -46.5 -10s-23.667 -15.5 -32 -26.5
s-14.5 -23.333 -18.5 -37s-6 -27.5 -6 -41.5s2 -27.833 6 -41.5s10.167 -26 18.5 -37s19 -19.833 32 -26.5s28.5 -10 46.5 -10c23.333 0 43.5 6.16699 60.5 18.5s29.167 26.166 36.5 41.499v110z" />
    <glyph glyph-name="Hbar" unicode="&#x126;" horiz-adv-x="762" 
d="M696 700v-700h-185v267h-260v-267h-185v700h185v-268h260v268h185z" />
    <glyph glyph-name="hbar" unicode="&#x127;" horiz-adv-x="592" 
d="M221 444c18 16 37.832 28.5 59.499 37.5s46.167 13.5 73.5 13.5c32.667 0 61.167 -5.16699 85.5 -15.5s44.333 -24.5 60 -42.5s27.334 -39 35.001 -63s11.5 -49.333 11.5 -76v-298h-170v275c0 25.333 -6.83301 44.166 -20.5 56.499s-31.167 18.5 -52.5 18.5
c-19.333 0 -36 -4.66699 -50 -14s-24.667 -18.666 -32 -27.999v-308h-170v700h170v-256v0z" />
    <glyph glyph-name="Imacron" unicode="&#x12a;" horiz-adv-x="317" 
d="M251 700v-700h-185v700h185zM-82 914h500v-165h-500v165zM-25 787h31c15.333 0 27 4 35 12s12 18.667 12 32c0 12 -4 22.333 -12 31s-19.667 13 -35 13h-31v-88zM-10 859h16c10 0 17.667 -2.66699 23 -8s8 -12 8 -20c0 -19.333 -10.333 -29 -31 -29h-16v57zM94 802v21h46
v16h-46v20h46v16h-62v-88h62v15h-46zM259 787v88h-21l-26 -36l-26 36h-21v-88h17v66l30 -39l31 40v-67h16zM329 880c-12.667 0 -23.332 -4.5 -31.999 -13.5s-13 -20.167 -13 -33.5c0 -12.667 3.66699 -23.667 11 -33s18.666 -14 33.999 -14c16 0 27.833 4.66699 35.5 14
s11.5 20.333 11.5 33c0 14.667 -4.5 26.167 -13.5 34.5s-20.167 12.5 -33.5 12.5zM299.002 833c0 8 2.5 15.333 7.5 22s12.5 10 22.5 10c10.667 0 18.5 -3.33301 23.5 -10s7.5 -14 7.5 -22c0 -8.66699 -2.33301 -16.167 -7 -22.5s-12.667 -9.5 -24 -9.5
c-10 0 -17.5 3.5 -22.5 10.5s-7.5 14.167 -7.5 21.5z" />
    <glyph glyph-name="imacron" unicode="&#x12b;" horiz-adv-x="274" 
d="M267 668v-110h-260v110h260zM222 480v-480h-170v480h170z" />
    <glyph glyph-name="Iogonek" unicode="&#x12e;" horiz-adv-x="317" 
d="M251 700v-700h-185v700h185z" />
    </font>
</defs>
</svg>
