<?xml version="1.0" standalone="no"?>
<!DOCTYPE svg PUBLIC "-//W3C//DTD SVG 1.1//EN" "http://www.w3.org/Graphics/SVG/1.1/DTD/svg11.dtd" >
<svg>
<metadata>
Created by FontForge 20090914 at Wed Sep 14 18:59:18 2016
 By www-data
Copyright (c) 2011 Milena B Brandao (milenabbrandao@gmail.com), with Reserved Font Name "Fredoka"
</metadata>
<defs>
<font id="FredokaOne-Regular" horiz-adv-x="775" >
  <font-face 
    font-family="Fredoka One"
    font-weight="400"
    font-stretch="normal"
    units-per-em="1000"
    panose-1="2 0 0 0 0 0 0 0 0 0"
    ascent="800"
    descent="-200"
    x-height="527"
    cap-height="732.999"
    bbox="-131.999 -236.002 1183 974"
    underline-thickness="50"
    underline-position="-50"
    unicode-range="U+0020-U+FB03"
  />
<missing-glyph horiz-adv-x="500" 
 />
    <glyph glyph-name="f_f" unicode="ff" horiz-adv-x="803" 
d="M701 527c46 0 72.999 -12.666 80.999 -37.999c4 -12.667 6 -29.334 6 -50.001s-2.16699 -37.167 -6.5 -49.5s-11.166 -21.166 -20.499 -26.499c-14 -8 -34.333 -12 -61 -12l-64 4v-268c0 -25.333 -3.16699 -44.166 -9.5 -56.499s-16 -20.5 -29 -24.5s-29.833 -6 -50.5 -6
s-37.167 2.16699 -49.5 6.5s-21.166 11.333 -26.499 21s-8.5 18.5 -9.5 26.5s-1.5 19.667 -1.5 35v265c-32 -2 -58.333 -3 -79 -3l-98 4v-268c0 -25.333 -3.16699 -44.166 -9.5 -56.499s-16 -20.5 -29 -24.5s-29.833 -6 -50.5 -6s-37.167 2.16699 -49.5 6.5
s-21.166 11.333 -26.499 21s-8.5 18.5 -9.5 26.5s-1.5 19.667 -1.5 35v265c-12.667 -2 -26.334 -3 -41.001 -3s-26.834 5.66699 -36.501 17s-14.5 30.666 -14.5 57.999s1.66699 47.166 5 59.499s8 21.166 14 26.499c10.667 8.66699 24 13 40 13l33 -4v53
c0 51.333 18.333 97.833 55 139.5s89.667 62.5 159 62.5c15.333 0 26.833 -0.5 34.5 -1.5s16.5 -3.83301 26.5 -8.5c18 -9.33301 27 -35.333 27 -78c0 -32 -5.66699 -54.667 -17 -68c-9.33301 -11.333 -24 -17.333 -44 -18c-6 -0.666992 -15.333 -1 -28 -1
c-24.667 0 -37 -8.33301 -37 -25v-55c36 2.66699 67 4 93 4l84 -4v53c0 51.333 18.333 97.833 55 139.5s89.667 62.5 159 62.5c16 0 27.667 -0.5 35 -1.5s16 -3.83301 26 -8.5c18 -9.33301 27 -35.333 27 -78c0 -32 -5.66699 -54.667 -17 -68
c-9.33301 -11.333 -23.666 -17.333 -42.999 -18c-6.66699 -0.666992 -16.334 -1 -29.001 -1c-24.667 0 -37 -8.33301 -37 -25v-55z" />
    <glyph glyph-name="fi" unicode="fi" horiz-adv-x="709" 
d="M348 526c46 0 72.9971 -12.667 80.9971 -38c4 -12.667 6 -29.334 6 -50.001s-2.16699 -37.167 -6.5 -49.5s-11.166 -21.166 -20.499 -26.499c-14 -8 -34.333 -12 -61 -12l-64 4v-268c0 -25.333 -3.16699 -44.166 -9.5 -56.499s-16 -20.5 -29 -24.5s-29.833 -6 -50.5 -6
s-37.167 2.16699 -49.5 6.5s-21.166 11.333 -26.499 21s-8.5 18.5 -9.5 26.5s-1.5 19.667 -1.5 35v265h-36c-17.333 1.33301 -29.666 5.33301 -36.999 12c-12.667 12.667 -19 37 -19 73c0 54.667 19.667 82 59 82h33v53c0 51.333 18.333 97.833 55 139.5
s89.667 62.5 159 62.5c15.333 0 26.833 -0.5 34.5 -1.5s16.5 -4.16699 26.5 -9.5c18 -8.66699 27 -34.334 27 -77.001c0 -32 -5.66699 -55 -17 -69c-9.33301 -10.667 -24 -16.667 -44 -18h-28c-24.667 0 -37 -8.33301 -37 -25v-55zM493.997 439
c0 15.333 0.500977 26.833 1.50098 34.5s3.83301 16.5 8.5 26.5c9.33301 17.333 35.333 26 78 26c32 0 54.667 -5.66699 68 -17c11.333 -9.33301 17.333 -23.666 18 -42.999c0.666992 -6.66699 1 -16.334 1 -29.001v-350c0 -15.333 -0.5 -26.833 -1.5 -34.5
s-4.16699 -16.5 -9.5 -26.5c-8.66699 -17.333 -34.334 -26 -77.001 -26c-42 0 -67.667 9 -77 27c-4.66699 10 -7.5 18.667 -8.5 26s-1.5 19 -1.5 35v351zM631.998 604c-12.667 -4 -29.5 -5.99902 -50.5 -5.99902s-37.833 2 -50.5 6s-21.5 11 -26.5 21s-8 18.833 -9 26.5
s-1.5 19.167 -1.5 34.5s0.5 26.833 1.5 34.5s3.83301 16.167 8.5 25.5c9.33301 18 35.333 27 78 27c42 0 67.333 -9 76 -27c5.33301 -10 8.5 -18.833 9.5 -26.5s1.5 -19.167 1.5 -34.5s-0.5 -26.833 -1.5 -34.5s-4 -16.334 -9 -26.001s-13.833 -16.5 -26.5 -20.5z" />
    <glyph glyph-name="fl" unicode="fl" horiz-adv-x="774" 
d="M348 526c46 0 72.9971 -12.667 80.9971 -38c4 -12.667 6 -29.334 6 -50.001s-2.16699 -37.167 -6.5 -49.5s-11.166 -21.166 -20.499 -26.499c-14 -8 -34.333 -12 -61 -12l-64 4v-268c0 -25.333 -3.16699 -44.166 -9.5 -56.499s-16 -20.5 -29 -24.5s-29.833 -6 -50.5 -6
s-37.167 2.16699 -49.5 6.5s-21.166 11.333 -26.499 21s-8.5 18.5 -9.5 26.5s-1.5 19.667 -1.5 35v265h-36c-17.333 1.33301 -29.666 5.33301 -36.999 12c-12.667 12.667 -19 37 -19 73c0 54.667 19.667 82 59 82h33v53c0 51.333 18.333 97.833 55 139.5
s89.667 62.5 159 62.5c15.333 0 26.833 -0.5 34.5 -1.5s16.5 -4.16699 26.5 -9.5c18 -8.66699 27 -34.334 27 -77.001c0 -32 -5.66699 -55 -17 -69c-9.33301 -10.667 -24 -16.667 -44 -18h-28c-24.667 0 -37 -8.33301 -37 -25v-55zM486.997 687
c0 15.333 0.498047 26.834 1.49805 34.501s4.16699 16.5 9.5 26.5c8.66699 18 34.334 27 77.001 27c40.667 0 66 -9 76 -27c5.33301 -10 8.5 -19 9.5 -27s1.5 -19.667 1.5 -35v-463c0 -24 2 -39.167 6 -45.5s12.833 -9.5 26.5 -9.5s22.834 -0.5 27.501 -1.5
s10.667 -3.83301 18 -8.5c12.667 -8.66699 19 -32.334 19 -71.001c0 -42 -6.33301 -67.667 -19 -77c-18 -12 -59.667 -14 -125 -6c-51.333 6.66699 -85 23.667 -101 51c-18 32.667 -27 84.667 -27 156v476z" />
    <glyph glyph-name="f_f_i" unicode="ffi" horiz-adv-x="1059" 
d="M701 527c46 0 72.9971 -12.666 80.9971 -37.999c4 -12.667 6 -29.334 6 -50.001s-2.16699 -37.167 -6.5 -49.5s-11.166 -21.166 -20.499 -26.499c-14 -8 -34.333 -12 -61 -12l-64 4v-268c0 -25.333 -3.16699 -44.166 -9.5 -56.499s-16 -20.5 -29 -24.5
s-29.833 -6 -50.5 -6s-37.167 2.16699 -49.5 6.5s-21.166 11.333 -26.499 21s-8.5 18.5 -9.5 26.5s-1.5 19.667 -1.5 35v265c-32.667 -2 -59.334 -3 -80.001 -3l-97 4v-268c0 -25.333 -3.16699 -44.166 -9.5 -56.499s-16 -20.5 -29 -24.5s-29.833 -6 -50.5 -6
s-37.167 2.16699 -49.5 6.5s-21.166 11.333 -26.499 21s-8.5 18.5 -9.5 26.5s-1.5 19.667 -1.5 35v265c-13.333 -2 -27.166 -3 -41.499 -3s-26.333 5.66699 -36 17s-14.5 30.666 -14.5 57.999s1.66699 47.166 5 59.499s8 21.166 14 26.499c10.667 8.66699 24 13 40 13l33 -4
v53c0 51.333 18.333 97.833 55 139.5s89.667 62.5 159 62.5c15.333 0 26.833 -0.5 34.5 -1.5s16.5 -3.83301 26.5 -8.5c18 -9.33301 27 -35.333 27 -78c0 -32 -5.66699 -54.667 -17 -68c-9.33301 -11.333 -24 -17.333 -44 -18c-6 -0.666992 -15.333 -1 -28 -1
c-24.667 0 -37 -8.33301 -37 -25v-55c35.333 2.66699 66 4 92 4l85 -4v53c0 51.333 18.333 97.833 55 139.5s89.667 62.5 159 62.5c16 0 27.667 -0.5 35 -1.5s16 -3.83301 26 -8.5c18 -9.33301 27 -35.333 27 -78c0 -32 -5.66699 -54.667 -17 -68
c-9.33301 -11.333 -23.666 -17.333 -42.999 -18c-6.66699 -0.666992 -16.334 -1 -29.001 -1c-24.667 0 -37 -8.33301 -37 -25v-55zM931.997 594.001c-20.667 0 -37.333 2.00098 -50 6.00098s-21.5 11 -26.5 21s-8 18.833 -9 26.5s-1.5 19.167 -1.5 34.5s0.5 26.833 1.5 34.5
s4.16699 16.167 9.5 25.5c8.66699 17.333 34.334 26 77.001 26c41.333 0 66.333 -8.66699 75 -26c5.33301 -10 8.5 -18.833 9.5 -26.5s1.5 -19.167 1.5 -34.5s-0.5 -26.833 -1.5 -34.5s-4 -16.334 -9 -26.001s-13.833 -16.5 -26.5 -20.5s-29.334 -6 -50.001 -6z
M881.998 517.002c12.667 4 29.502 5.99707 50.502 5.99707s37.667 -2 50 -6s21 -11 26 -21s8 -18.833 9 -26.5s1.5 -19.5 1.5 -35.5v-348c0 -15.333 -0.5 -26.666 -1.5 -33.999s-4 -15.833 -9 -25.5s-13.833 -16.5 -26.5 -20.5s-29.334 -6 -50.001 -6s-37.334 2 -50.001 6
s-21.5 10.833 -26.5 20.5s-8 18.334 -9 26.001s-1.5 19.167 -1.5 34.5v349c0 15.333 0.5 26.833 1.5 34.5s4 16.334 9 26.001s13.833 16.5 26.5 20.5z" />
    <glyph glyph-name="f_t" unicode="ft" horiz-adv-x="814" 
d="M711 350l-65.002 4.00391v-138c0 -18 2.83301 -31 8.5 -39s16.334 -12 32.001 -12s27.667 -0.5 36 -1.5s16.833 -4.16699 25.5 -9.5c16 -8.66699 24 -31 24 -67c0 -42 -9.33301 -67.667 -28 -77c-10 -4.66699 -18.833 -7.5 -26.5 -8.5s-18.834 -1.5 -33.501 -1.5
c-65.333 0 -117 18.333 -155 55s-57 87 -57 151v148c-36 -2 -66.667 -3 -92 -3l-97 4v-268c0 -25.333 -3.16699 -44.166 -9.5 -56.499s-16 -20.5 -29 -24.5s-29.833 -6 -50.5 -6s-37.167 2.16699 -49.5 6.5s-21.166 11.333 -26.499 21s-8.5 18.5 -9.5 26.5
s-1.5 19.667 -1.5 35v265c-13.333 -2 -27.166 -3 -41.499 -3s-26.333 5.66699 -36 17s-14.5 30.666 -14.5 57.999s1.66699 47.166 5 59.499s8 21.166 14 26.499c10.667 8.66699 24 13 40 13l33 -4v53c0 51.333 18.333 97.833 55 139.5s89.667 62.5 159 62.5
c15.333 0 26.833 -0.5 34.5 -1.5s16.5 -3.83301 26.5 -8.5c18 -9.33301 27 -35.333 27 -78c0 -32 -5.66699 -54.667 -17 -68c-9.33301 -11.333 -24 -17.333 -44 -18c-6 -0.666992 -15.333 -1 -28 -1c-24.667 0 -37 -8.33301 -37 -25v-55c36.667 2.66699 68.667 4 96 4l93 -4
v103c0 15.333 0.5 26.666 1.5 33.999s3.83301 15.333 8.5 24c9.33301 16.667 35.333 25 78 25c45.333 0 72 -12.333 80 -37c4 -10.667 6 -27.667 6 -51v-98c29.333 2.66699 51.5 4 66.5 4s26.333 -0.5 34 -1.5s16.167 -4.16699 25.5 -9.5c18 -8.66699 27 -34.334 27 -77.001
c0 -42 -9 -67.667 -27 -77c-10 -4.66699 -18.833 -7.5 -26.5 -8.5s-19.167 -1.5 -34.5 -1.5z" />
    <glyph glyph-name="t_t" unicode="tt" horiz-adv-x="794" 
d="M691 350l-65.001 4.00586v-138c0 -18 2.83301 -31 8.5 -39s16.334 -12 32.001 -12s27.667 -0.5 36 -1.5s16.833 -4.16699 25.5 -9.5c16 -8.66699 24 -31 24 -67c0 -42 -9.33301 -67.667 -28 -77c-10 -4.66699 -18.833 -7.5 -26.5 -8.5s-18.834 -1.5 -33.501 -1.5
c-66.667 0 -118.667 17.333 -156 52s-56 86 -56 154v148c-32 -2.66699 -58.667 -4 -80 -4l-91 4v-138c0 -18 2.83301 -31 8.5 -39s16.334 -12 32.001 -12s27.667 -0.5 36 -1.5s17.166 -4.16699 26.499 -9.5c15.333 -8.66699 23 -31 23 -67c0 -42 -9.33301 -67.667 -28 -77
c-10 -4.66699 -18.833 -7.5 -26.5 -8.5s-18.834 -1.5 -33.501 -1.5c-66.667 0 -118.667 17.333 -156 52s-56 86 -56 154v148c-13.333 -2 -27.166 -3 -41.499 -3s-26.333 5.66699 -36 17s-14.5 30.666 -14.5 57.999s1.66699 47.166 5 59.499s8 21.166 14 26.499
c10.667 8.66699 24 13 40 13l33 -4v103c0 15.333 0.5 26.666 1.5 33.999s4.16699 15.333 9.5 24c8.66699 16.667 34.334 25 77.001 25c45.333 0 72.333 -12.333 81 -37c3.33301 -10.667 5 -27.667 5 -51v-95c31.333 0.666992 61 1 89 1l82 -1v100
c0 15.333 0.5 26.666 1.5 33.999s3.83301 15.333 8.5 24c9.33301 16.667 35.333 25 78 25c45.333 0 72 -12.333 80 -37c4 -10.667 6 -27.667 6 -51v-98c29.333 2.66699 51.5 4 66.5 4s26.333 -0.5 34 -1.5s16.167 -4.16699 25.5 -9.5c18 -8.66699 27 -34.334 27 -77.001
c0 -42 -9 -67.667 -27 -77c-10 -4.66699 -18.833 -7.5 -26.5 -8.5s-19.167 -1.5 -34.5 -1.5z" />
    <glyph glyph-name="l_l" unicode="ll" horiz-adv-x="626" 
d="M224 177c22 0 38.3311 -5.66699 48.998 -17s16 -34.666 16 -69.999s-5.66699 -58.833 -17 -70.5s-27.666 -17.5 -48.999 -17.5c-67.333 0 -114.666 16.167 -141.999 48.5s-41 86.166 -41 161.499v477c0 15.333 0.5 26.833 1.5 34.5s3.83301 16.5 8.5 26.5
c9.33301 17.333 35.333 26 78 26c40.667 0 66 -9.33301 76 -28c5.33301 -9.33301 8.5 -17.833 9.5 -25.5s1.5 -19.167 1.5 -34.5v-480c0 -20.667 3 -31 9 -31zM492.998 183c5.33301 -4 19 -6.00098 41 -6.00098s40.333 -5.66699 55 -17s22 -34.666 22 -69.999
s-7.83301 -58.833 -23.5 -70.5s-37.5 -17.5 -65.5 -17.5c-141.333 0 -212 70 -212 210l-1 477c0 15.333 0.5 26.833 1.5 34.5s4.16699 16.5 9.5 26.5c10 17.333 36 26 78 26c40.667 0 66 -9.33301 76 -28c7.33301 -14.667 11 -34.667 11 -60v-480
c0 -12.667 2.66699 -21 8 -25z" />
    <glyph glyph-name="j_j" unicode="jj" horiz-adv-x="521" 
d="M125 596c-20.667 0 -36.999 2 -48.999 6s-20.5 10.833 -25.5 20.5s-8 18.334 -9 26.001s-1.5 19.167 -1.5 34.5s0.5 26.666 1.5 33.999s4 15.666 9 24.999s13.667 16 26 20s28.833 6 49.5 6s37.167 -2 49.5 -6s21 -10.833 26 -20.5s8 -18.167 9 -25.5
s1.5 -18.666 1.5 -33.999s-0.5 -26.833 -1.5 -34.5s-4 -16.167 -9 -25.5s-13.833 -16 -26.5 -20s-29.334 -6 -50.001 -6zM212.001 439l-0.000976562 -413.003c0 -40 -8 -76.667 -24 -110s-36.667 -60.666 -62 -81.999c-52.667 -43.333 -110.334 -65 -173.001 -65
c-15.333 0 -26.666 0.5 -33.999 1.5s-15.666 4.16699 -24.999 9.5c-17.333 8.66699 -26 32.667 -26 72s7 64 21 74s31.167 15 51.5 15s36.333 1.83301 48 5.5s23.167 13 34.5 28s17 34.5 17 58.5v407c0 16 0.5 27.333 1.5 34s3.83301 15 8.5 25c8 17.333 33.667 26 77 26
c40.667 0 65.667 -9 75 -27c4.66699 -9.33301 7.5 -17.666 8.5 -24.999s1.5 -18.666 1.5 -33.999zM394 594.997c-16.667 0 -30.499 1.66699 -41.499 5s-19.5 7.16602 -25.5 11.499s-10.333 11.166 -13 20.499c-3.33301 10.667 -5 25.5 -5 44.5s0.5 32.167 1.5 39.5
s4 15.666 9 24.999s13.667 16 26 20s28.833 6 49.5 6s37.167 -2 49.5 -6s21 -10.833 26 -20.5s8 -18.167 9 -25.5s1.5 -18.166 1.5 -32.499s-0.333008 -24.166 -1 -29.499s-2.33398 -12.666 -5.00098 -21.999s-7 -16 -13 -20s-14.667 -7.66699 -26 -11s-25.333 -5 -42 -5z
M345.001 518.497c12.667 3.66699 29.4961 5.49902 50.4961 5.49902s37.5 -2 49.5 -6s20.5 -10.833 25.5 -20.5s8 -18.167 9 -25.5s1.5 -18.666 1.5 -33.999v-413c0 -82.667 -16.5 -146.167 -49.5 -190.5s-79.167 -66.5 -138.5 -66.5c-15.333 0 -26.666 0.5 -33.999 1.5
s-15.666 3.83301 -24.999 8.5c-17.333 9.33301 -26 35 -26 77c0 56.667 21.667 85 65 85c14.667 0 24.334 5 29.001 15s7 35.667 7 77v407c0 16 0.5 27.333 1.5 34s3.83301 15 8.5 25s13.334 16.833 26.001 20.5z" />
    <glyph glyph-name=".notdef" horiz-adv-x="500" 
 />
    <glyph glyph-name="space" unicode=" " horiz-adv-x="253" 
 />
    <glyph glyph-name="exclam" unicode="!" horiz-adv-x="267" 
d="M80.5 179c13.667 4.66699 34.999 7.00098 63.999 7.00098s50 -6.33301 63 -19s19.5 -32.667 19.5 -60v-16c0 -16 -0.5 -27.833 -1.5 -35.5s-4.16699 -16.834 -9.5 -27.501c-10.667 -19.333 -36.167 -29 -76.5 -29s-67 6.5 -80 19.5s-19.5 38.167 -19.5 75.5
c0 26 3.33301 45.5 10 58.5s16.834 21.833 30.501 26.5zM132.999 264.001c-21.333 0 -38.333 1.66406 -51 4.99707s-21.5 9.33301 -26.5 18s-8 16.334 -9 23.001s-1.5 17 -1.5 31v317c0 14 0.5 24.5 1.5 31.5s4.16699 14.833 9.5 23.5s14.333 14.834 27 18.501
s29.667 5.5 51 5.5s38.333 -1.83301 51 -5.5s21.5 -10 26.5 -19s8 -17 9 -24s1.5 -17.5 1.5 -31.5v-317c0 -14 -0.5 -24.333 -1.5 -31s-4.16699 -14.167 -9.5 -22.5s-14.333 -14.166 -27 -17.499s-29.667 -5 -51 -5z" />
    <glyph glyph-name="quotedbl" unicode="&#x22;" horiz-adv-x="429" 
d="M161 472c-14.667 -60.667 -33.834 -91 -57.501 -91s-42.667 30.333 -57 91s-21.5 115 -21.5 163c0 42 5.66699 68.333 17 79c14 12.667 32.5 19 55.5 19s40.333 -2.5 52 -7.5s19.834 -12.833 24.501 -23.5c6 -16.667 9 -44 9 -82s-7.33301 -87.333 -22 -148zM382 472
c-14.667 -60.667 -33.833 -90.999 -57.5 -90.999s-42.667 30.333 -57 91s-21.5 115 -21.5 163c0 51.333 11.333 81.666 34 90.999c11.333 4.66699 26.5 7 45.5 7s34.167 -2.5 45.5 -7.5s19 -12.833 23 -23.5c6.66699 -16.667 10 -44 10 -82s-7.33301 -87.333 -22 -148z" />
    <glyph glyph-name="numbersign" unicode="#" horiz-adv-x="749" 
d="M631 541l51.0039 -0.00292969c12.667 0 21.834 -0.5 27.501 -1.5s11.167 -4.5 16.5 -10.5s8 -14.833 8 -26.5s-1.16699 -24.334 -3.5 -38.001s-7.5 -25.5 -15.5 -35.5s-15.667 -15.667 -23 -17s-18.333 -2 -33 -2h-50l-18 -110h51c12.667 0 21.834 -0.5 27.501 -1.5
s11.167 -4.5 16.5 -10.5s8 -14.833 8 -26.5s-1 -23.167 -3 -34.5s-5.16699 -21.666 -9.5 -30.999s-10.166 -16 -17.499 -20c-10.667 -5.33301 -25.667 -8 -45 -8h-50c-6.66699 -41.333 -10.667 -67 -12 -77l-2 -11c-2.66699 -14.667 -4.83398 -25 -6.50098 -31
s-5.16699 -13.333 -10.5 -22c-10.667 -15.333 -35.334 -23 -74.001 -23s-58 12.333 -58 37c0 0.666992 2.66699 18 8 52l12 75h-149c-6.66699 -41.333 -10.667 -67 -12 -77l-2 -11c-2.66699 -14.667 -4.83398 -25 -6.50098 -31s-5.16699 -13.333 -10.5 -22
c-10.667 -15.333 -35.334 -23 -74.001 -23s-58 12.333 -58 37c0 0.666992 2.66699 18 8 52l12 75h-66c-28 0 -44.667 6 -50 18c-2 5.33301 -3 13.166 -3 23.499s1.16699 22.333 3.5 36s7.66602 25.5 15.999 35.5s16.166 15.667 23.499 17s18.333 2 33 2h65l18 110h-66
c-28.667 0 -45.334 5.66699 -50.001 17c-2 6 -3 14 -3 24s1.16699 21.833 3.5 35.5s7.66602 25.5 15.999 35.5s16.166 15.667 23.499 17s18.333 2 33 2h65l17 103c0.666992 4 1.5 10.5 2.5 19.5s2 15.333 3 19s2.5 8.83398 4.5 15.501s4.83301 11.334 8.5 14.001
s8.5 6 14.5 10c9.33301 6 26.333 9 51 9s41.834 -3.5 51.501 -10.5s14.5 -17.5 14.5 -31.5c0 -2 -1.66699 -13.667 -5 -35l-19 -113h149l17 103c0.666992 4 1.5 10.5 2.5 19.5s2 15.333 3 19s2.5 8.83398 4.5 15.501s4.83301 11.334 8.5 14.001s8.5 6 14.5 10
c9.33301 6 26.333 9 51 9s41.834 -3.5 51.501 -10.5s14.5 -17.5 14.5 -31.5c0 -2 -1.66699 -13.667 -5 -35zM448.004 299.997l18 110h-148l-19 -110h149z" />
    <glyph glyph-name="dollar" unicode="$" horiz-adv-x="475" 
d="M450 243c0 -52 -15.001 -93.667 -45.001 -125s-66.333 -52 -109 -62v-64c0 -23.333 -2.16699 -39.666 -6.5 -48.999s-10.666 -15.666 -18.999 -18.999s-19.5 -5 -33.5 -5s-25.167 1.66699 -33.5 5s-14.166 9.33301 -17.499 18c-4.66699 11.333 -7 28.333 -7 51v62
c-27.333 6 -52 16 -74 30s-37.333 26.333 -46 37l-13 17c-14 18 -21 33.667 -21 47s11.333 31 34 53c13.333 12.667 27.5 19 42.5 19s35.833 -13.333 62.5 -40c20.667 -25.333 44 -38 70 -38c49.333 0 74 20.333 74 61c0 14.667 -9.33301 26 -28 34
s-41.334 15.167 -68.001 21.5s-53.334 14.833 -80.001 25.5s-49.334 29 -68.001 55s-28 59 -28 99s12.667 76 38 108s60.333 52.667 105 62v56c0 22.667 2 39 6 49c6.66699 16 24.334 24 53.001 24c18 0 31.5 -3.83301 40.5 -11.5s14.167 -15.834 15.5 -24.501
s2 -21.334 2 -38.001v-56c18.667 -4 35.667 -9.66699 51 -17s26 -13.333 32 -18l9 -8l4 -3c16.667 -15.333 25 -28 25 -38s-7.83301 -26.667 -23.5 -50s-32.834 -35 -51.501 -35c-12 0 -22.167 3 -30.5 9s-14.833 11 -19.5 15s-9 7.33301 -13 10
c-11.333 7.33301 -25.666 11 -42.999 11s-31.666 -4.16699 -42.999 -12.5s-17 -19.833 -17 -34.5s6.83301 -26.5 20.5 -35.5s30.5 -15 50.5 -18s42 -8 66 -15s46 -15.167 66 -24.5s36.833 -25.833 50.5 -49.5s20.5 -53.167 20.5 -88.5z" />
    <glyph glyph-name="percent" unicode="%" horiz-adv-x="838" 
d="M506 321c30 34 71.833 51 125.5 51s94.834 -16.667 123.501 -50s43 -79.5 43 -138.5s-14.333 -104.667 -43 -137s-69.334 -48.5 -122.001 -48.5s-94.5 16.833 -125.5 50.5s-46.5 79 -46.5 136s15 102.5 45 136.5zM629 118c40.667 0 61 22.667 61 68
c0 24 -4.83301 41 -14.5 51s-25 15 -46 15s-36.167 -5.16699 -45.5 -15.5s-14 -27.5 -14 -51.5s4.83301 -41.167 14.5 -51.5s24.5 -15.5 44.5 -15.5zM85 685c30 34 71.667 51 125 51s94.5 -16.667 123.5 -50s43.5 -79.333 43.5 -138s-14.5 -104.167 -43.5 -136.5
s-69.667 -48.5 -122 -48.5s-94 16.667 -125 50s-46.5 78.5 -46.5 135.5s15 102.5 45 136.5zM208 483c40 0 60 22.333 60 67c0 24 -4.66699 41 -14 51s-24.5 15 -45.5 15s-36.333 -5.16699 -46 -15.5s-14.5 -27.333 -14.5 -51s5 -40.667 15 -51s25 -15.5 45 -15.5zM577 761
c8.66699 15.333 17.167 23 25.5 23s20.5 -4.33301 36.5 -13s24 -18 24 -28c0 -4.66699 -2.33301 -11 -7 -19l-387 -731l-2 -3c-7.33301 -13.333 -15 -20 -23 -20s-20 4.16699 -36 12.5s-24 16.5 -24 24.5s2.33301 16 7 24z" />
    <glyph glyph-name="ampersand" unicode="&#x26;" horiz-adv-x="748" 
d="M646 -1c-58 0 -115.334 15.001 -172.001 45.001c-63.333 -34.667 -127.333 -52 -192 -52c-171.333 0 -257 71.333 -257 214c0 74 38.333 142.667 115 206c-26.667 59.333 -40 113 -40 161c0 66.667 20 116 60 148s93.667 48 161 48s118.333 -16 153 -48
s52 -75.667 52 -131c0 -46.667 -19 -88.667 -57 -126c-28 -28 -67.333 -59 -118 -93c39.333 -52 82 -96 128 -132c18.667 28.667 31.667 58 39 88c6.66699 29.333 36.667 44 90 44c22.667 0 39.834 -3 51.501 -9s18.334 -12.167 20.001 -18.5s2.16699 -14.5 1.5 -24.5
c-2.66699 -50.667 -23.334 -101 -62.001 -151c10 -2 19.333 -3 28 -3c52 0 78 -26.333 78 -79c0 -36.667 -6 -60.334 -18 -71.001s-32.333 -16 -61 -16zM257.999 585.001c0 -24 5.66699 -51 17 -81c31.333 20 54.833 36.667 70.5 50s23.5 26 23.5 38
c0 29.333 -16.333 44 -49 44c-41.333 0 -62 -17 -62 -51zM288.999 140.001c16.667 0 31.668 1.33301 45.001 4c-38.667 34.667 -75.334 76 -110.001 124c-15.333 -19.333 -23 -39.333 -23 -60c0 -45.333 29.333 -68 88 -68z" />
    <glyph glyph-name="quotesingle" unicode="'" horiz-adv-x="208" 
d="M161 472c-14.667 -60.667 -33.834 -91 -57.501 -91s-42.667 30.333 -57 91s-21.5 115 -21.5 163c0 42 5.66699 68.333 17 79c14 12.667 32.5 19 55.5 19s40.333 -2.5 52 -7.5s19.834 -12.833 24.501 -23.5c6 -16.667 9 -44 9 -82s-7.33301 -87.333 -22 -148z" />
    <glyph glyph-name="parenleft" unicode="(" horiz-adv-x="384" 
d="M262.5 -76.5c14.333 -15 27.8311 -22.501 40.498 -22.501s21.834 -0.333008 27.501 -1s12 -3 19 -7s12 -10.667 15 -20s4.5 -21.666 4.5 -36.999s-1.5 -27.5 -4.5 -36.5s-8.16699 -15.5 -15.5 -19.5c-11.333 -5.33301 -26.333 -8 -45 -8
c-45.333 0 -86.166 15.833 -122.499 47.5s-65.166 72.5 -86.499 122.5c-43.333 102.667 -65 212.667 -65 330c0 116.667 20.667 226 62 328c21.333 52 50.333 94.167 87 126.5s78.667 48.5 126 48.5c20 0 34.333 -2.33301 43 -7c14 -8.66699 21 -28 21 -58
c0 -31.333 -6 -50 -18 -56c-9.33301 -5.33301 -23 -8 -41 -8h-6c-26 0 -52.667 -29.667 -80 -89c-12.667 -28.667 -23.167 -67.834 -31.5 -117.501s-12.5 -105.167 -12.5 -166.5s4 -116.666 12 -165.999s18.167 -88.5 30.5 -117.5s25.666 -51 39.999 -66z" />
    <glyph glyph-name="parenright" unicode=")" horiz-adv-x="384" 
d="M53.5 -100c5.66699 0.666992 14.8311 0.998047 27.498 0.998047s26.167 7.5 40.5 22.5s27.833 37.167 40.5 66.5c28 66 42 160.667 42 284c0 60.667 -4.16699 115.834 -12.5 165.501s-18.833 88.834 -31.5 117.501c-27.333 59.333 -54 89 -80 89h-6c-18 0 -31 2 -39 6
c-13.333 7.33301 -20 25.833 -20 55.5s5.33301 48.334 16 56.001s26.667 11.5 48 11.5c47.333 0 89.333 -16.167 126 -48.5s65.667 -74.5 87 -126.5c41.333 -102 62 -211.333 62 -328c0 -117.333 -21.667 -227.333 -65 -330c-21.333 -50 -50.166 -90.833 -86.499 -122.5
s-77.166 -47.5 -122.499 -47.5c-34 0 -54 9.33301 -60 28c-3.33301 8.66699 -5 20.667 -5 36s1.5 27.666 4.5 36.999s8 16 15 20s13.333 6.33301 19 7z" />
    <glyph glyph-name="asterisk" unicode="*" horiz-adv-x="503" 
d="M480 579c5.33301 -18 7.99707 -32.501 7.99707 -43.501s-3.33301 -20.833 -10 -29.5s-13.667 -14.667 -21 -18s-18.333 -7.66602 -33 -12.999l-42 -13l33 -46l8 -12c8.66699 -14.667 13 -25.667 13 -33c0 -19.333 -13 -38.333 -39 -57s-44.667 -28 -56 -28
s-20.666 2.33301 -27.999 7c-10 6.66699 -20.667 18 -32 34l-29 40l-37 -50c-14.667 -22 -29.5 -33 -44.5 -33s-36 9.66699 -63 29s-40.5 38.333 -40.5 57c0 11.333 7 26.666 21 45.999l33 46l-42 13c-24 4.66699 -42 14.334 -54 29.001c-6.66699 8.66699 -10 19 -10 31
s2.33301 25.333 7 40c14.667 44 34 66 58 66c9.33301 0 18.333 -1.5 27 -4.5l13 -4.5l51 -16v52c0 22.667 2.83301 39.334 8.5 50.001s14.334 17.667 26.001 21s27.167 5 46.5 5s34.833 -1.83301 46.5 -5.5s19.834 -9.83398 24.501 -18.501
c6.66699 -12.667 10 -31.667 10 -57v-47l49 16c21.333 6.66699 35.333 10 42 10c23.333 0 42 -21 56 -63z" />
    <glyph glyph-name="plus" unicode="+" horiz-adv-x="527" 
d="M343 353l80.9961 -0.00292969c23.333 0 40.333 -2.83301 51 -8.5s17.834 -14.167 21.501 -25.5s5.5 -26.5 5.5 -45.5s-1.66699 -34.167 -5 -45.5s-9 -19.333 -17 -24c-12 -6 -29 -9 -51 -9h-86v-81c0 -23.333 -2.83301 -40.333 -8.5 -51s-14.167 -17.834 -25.5 -21.501
s-26.5 -5.5 -45.5 -5.5s-34.167 1.83301 -45.5 5.5s-19.333 9.83398 -24 18.501c-6 12.667 -9 31 -9 55v80h-87c-22 0 -38 2.66699 -48 8s-16.667 13.833 -20 25.5s-5 26.834 -5 45.501s1.83301 33.834 5.5 45.501s10.167 19.834 19.5 24.501c12.667 6 31 9 55 9h80v81
c0 23.333 2.66699 40.333 8 51s13.833 17.834 25.5 21.501s26.834 5.5 45.501 5.5s33.834 -1.83301 45.501 -5.5s19.834 -9.83398 24.501 -18.501c6 -12.667 9 -31 9 -55v-80z" />
    <glyph glyph-name="comma" unicode="," horiz-adv-x="238" 
d="M66 179.5c13.333 4.33301 34.6689 6.49609 64.002 6.49609s50.5 -6.5 63.5 -19.5s19.5 -38.167 19.5 -75.5c0 -14 -1 -27 -3 -39c-6 -56.667 -24.667 -106 -56 -148s-68 -63 -110 -63c-4.66699 0 -8.83398 3.5 -12.501 10.5s-5.5 16 -5.5 27s1.5 19.833 4.5 26.5
s6.83301 10.834 11.5 12.501s9.5 4.33398 14.5 8.00098s11.833 12.5 20.5 26.5s13.667 30 15 48c-21.333 2.66699 -37.833 9.83398 -49.5 21.501s-17.334 30.667 -17.001 57s1 43.333 2 51s4.33301 16.834 10 27.501s15.167 18.167 28.5 22.5z" />
    <glyph glyph-name="hyphen" unicode="-" horiz-adv-x="433" 
d="M335 139l-238.001 0.00195312c-37.333 0 -59.666 11.333 -66.999 34c-3.33301 12 -5 27.333 -5 46s2 33.667 6 45s10.333 19.333 19 24c12 6 28 9 48 9h238c37.333 0 59.333 -11 66 -33c4 -12 6 -27.333 6 -46s-1.83301 -33.834 -5.5 -45.501s-9.5 -19.834 -17.5 -24.501
c-12 -6 -28.667 -9 -50 -9z" />
    <glyph glyph-name="period" unicode="." horiz-adv-x="237" 
d="M195 165c11.333 -11.333 17.001 -34.666 17.001 -69.999v-4c0 -16 -0.5 -27.833 -1.5 -35.5s-4.5 -16.834 -10.5 -27.501c-10 -19.333 -35.167 -29 -75.5 -29s-67 6.33301 -80 19s-19.5 36.667 -19.5 72v4c0 15.333 0.5 27 1.5 35s4.16699 17 9.5 27
c10 20 35.167 30 75.5 30s68.166 -7 83.499 -21z" />
    <glyph glyph-name="slash" unicode="/" horiz-adv-x="526" 
d="M176 -8c-5.33301 -11.333 -9.49805 -19.666 -12.498 -24.999s-8 -10.5 -15 -15.5s-16.167 -7.5 -27.5 -7.5s-28 5 -50 15s-36.833 18.833 -44.5 26.5s-11.5 16.167 -11.5 25.5s4 26 12 50l322 673c12.667 25.333 24 40 34 44c5.33301 2.66699 13.166 4 23.499 4
s27.166 -5.33301 50.499 -16c36 -17.333 54 -36.333 54 -57c0 -8.66699 -4.66699 -25.334 -14 -50.001z" />
    <glyph glyph-name="zero" unicode="0" horiz-adv-x="608" 
d="M182.5 716.5c35 18.333 75.499 27.501 121.499 27.501s86.167 -9 120.5 -27s61.333 -40.333 81 -67s35.5 -58 47.5 -94c20 -60 30 -123.667 30 -191c0 -120.667 -26 -216.334 -78 -287.001c-19.333 -26.667 -46.166 -48.667 -80.499 -66s-74.166 -26 -119.499 -26
s-85.5 8.83301 -120.5 26.5s-62.333 39.5 -82 65.5s-35.834 57 -48.501 93c-19.333 57.333 -29 122.333 -29 195c0 66.667 7.83301 123.667 23.5 171s33.167 84.5 52.5 111.5s46.5 49.667 81.5 68zM302.999 164.001c68.667 0 103 65.333 103 196v6c0 134 -34 201 -102 201
s-102 -67.167 -102 -201.5s33.667 -201.5 101 -201.5z" />
    <glyph glyph-name="one" unicode="1" horiz-adv-x="407" 
d="M218 708c17.333 17.333 36.167 25.999 56.5 25.999s36.166 -1.66699 47.499 -5s20 -7.16602 26 -11.499s10.667 -11.5 14 -21.5c3.33301 -11.333 5 -29 5 -53v-557c0 -15.333 -0.5 -26.833 -1.5 -34.5s-4.16699 -16.5 -9.5 -26.5c-9.33301 -18 -35.333 -27 -78 -27
c-41.333 0 -67 8.66699 -77 26c-5.33301 10 -8.5 19.167 -9.5 27.5s-1.5 20.5 -1.5 36.5v357l-13 -12c-27.333 -20.667 -50.666 -31 -69.999 -31s-39.5 11.667 -60.5 35s-31.5 44 -31.5 62s12 37.667 36 59l164 148z" />
    <glyph glyph-name="two" unicode="2" horiz-adv-x="609" 
d="M506 176c27.333 0 46.8359 -3.16699 58.5029 -9.5s19.5 -16 23.5 -29s6 -30 6 -51s-2.16699 -37.833 -6.5 -50.5s-11.5 -21.334 -21.5 -26.001c-14.667 -8 -35.334 -12 -62.001 -12h-391c-24 0 -44.667 9 -62 27s-26 39 -26 63c0 36 12.5 69.167 37.5 99.5
s55.167 56.333 90.5 78l106 64c35.333 21 65.5 44.833 90.5 71.5s37.5 55 37.5 85c0 6 -2.33301 14.5 -7 25.5s-9.83398 20 -15.501 27s-14.5 13.5 -26.5 19.5s-28.667 9 -50 9s-39.833 -7.83301 -55.5 -23.5s-24.5 -31.167 -26.5 -46.5l-4 -23v-6
c0 -14.667 -0.5 -25.667 -1.5 -33s-4.16699 -15.666 -9.5 -24.999c-10 -16 -36 -24 -78 -24c-46.667 0 -74.334 12.667 -83.001 38c-3.33301 10.667 -5 27.667 -5 51c0 69.333 24.833 131.5 74.5 186.5s114.667 82.5 195 82.5s145.5 -27.833 195.5 -83.5
s75 -119.167 75 -190.5c0 -38 -8.33301 -74 -25 -108s-36.667 -61.333 -60 -82c-49.333 -44 -93.333 -73.667 -132 -89l-25 -10v-5h183z" />
    <glyph glyph-name="three" unicode="3" horiz-adv-x="608" 
d="M496 674c47.333 -46.667 70.999 -99.1689 70.999 -157.502s-26 -100.5 -78 -126.5v-7c6.66699 -3.33301 16.5 -10.5 29.5 -21.5s23.5 -21.833 31.5 -32.5c22 -28 33 -60 33 -96c0 -71.333 -26.667 -130.166 -80 -176.499s-120.333 -69.5 -201 -69.5
c-80 0 -146.667 23.333 -200 70c-20 18 -37.667 41.667 -53 71c-5.33301 10.667 -9 19.334 -11 26.001l-2 10c-7.33301 22 -11 40 -11 54c0 38.667 32.667 58 98 58c26.667 0 44.334 -3.33301 53.001 -10c11.333 -8.66699 21.333 -26 30 -52
c6.66699 -21.333 25 -37.333 55 -48c12.667 -4 26.667 -6 42 -6c35.333 0 61.333 7.16699 78 21.5s25 30.5 25 48.5s-8.16699 33.833 -24.5 47.5s-35.666 20.5 -57.999 20.5s-37.5 0.666992 -45.5 2s-16.667 4.66602 -26 9.99902c-18 8.66699 -27 34.334 -27 77.001
c0 46.667 12.333 74.334 37 83.001c11.333 3.33301 28.666 5 51.999 5c50.667 0 76 13 76 39c0 14 -6.66699 27.333 -20 40s-31.833 19 -55.5 19s-42.5 -4 -56.5 -12s-22.667 -16 -26 -24l-6 -12c-15.333 -33.333 -37.333 -50 -66 -50c-16.667 0 -35 6 -55 18
c-33.333 19.333 -50 41.666 -50 66.999c0 10.667 7.66699 33.334 23 68.001c2.66699 6 10 16.5 22 31.5s25.833 28.167 41.5 39.5s37.667 21.666 66 30.999s59.833 14 94.5 14c82 0 146.667 -23.333 194 -70z" />
    <glyph glyph-name="four" unicode="4" horiz-adv-x="592" 
d="M412.5 728.5c13 3.66699 30 5.50195 51 5.50195s37.833 -2.16699 50.5 -6.5s21.667 -11.333 27 -21s8.5 -18.5 9.5 -26.5s1.5 -19.667 1.5 -35v-556c0 -26 -3.16699 -45.167 -9.5 -57.5s-16 -20.5 -29 -24.5s-29.167 -6 -48.5 -6s-34.666 1.66699 -45.999 5
s-20 7.33301 -26 12s-10.333 11.334 -13 20.001c-4 11.333 -6 28.666 -6 51.999v122h-271c-46.667 0 -74.334 12.667 -83.001 38c-3.33301 10.667 -5 25 -5 43s1 31.333 3 40l83 335c4 15.333 7.5 27 10.5 35s9 15.667 18 23s20.5 11 34.5 11s29.333 -2.33301 46 -7
c46.667 -12.667 70 -34 70 -64c0 -10.667 -2.33301 -24.667 -7 -42c-0.666992 -1.33301 -1 -2.33301 -1 -3l-61 -244h163v273c0 15.333 0.5 26.666 1.5 33.999s4.16699 15.666 9.5 24.999s14.5 15.833 27.5 19.5z" />
    <glyph glyph-name="five" unicode="5" horiz-adv-x="530" 
d="M156 735l151.997 -1.00195h94c16 0 27.667 -0.5 35 -1.5s16 -4.16699 26 -9.5c18 -9.33301 27 -36 27 -80c0 -40 -8.33301 -64.333 -25 -73c-9.33301 -5.33301 -17.5 -8.5 -24.5 -9.5s-17.833 -1.5 -32.5 -1.5h-175c-1.33301 -8 -4.66602 -33.333 -9.99902 -76
c7.33301 1.33301 19 2 35 2c63.333 0 120.333 -23.833 171 -71.5s76 -106 76 -175s-24 -128.333 -72 -178s-107.667 -74.5 -179 -74.5c-62 0 -118 15.667 -168 47c-11.333 7.33301 -19.666 13.666 -24.999 18.999l-8 7c-25.333 22 -38 42 -38 60s12.333 39.667 37 65
c20 22 39.333 33 58 33s41 -10.667 67 -32c12 -14 32.833 -21 62.5 -21s51.667 6.33301 66 19s21.5 30.167 21.5 52.5s-7.83301 40 -23.5 53s-33.5 19.5 -53.5 19.5s-36 -6 -48 -18c-18 -15.333 -36.167 -23 -54.5 -23s-39.333 6.33301 -63 19s-39.167 22.834 -46.5 30.501
s-11 15.834 -11 24.501s6.66699 62.334 20 161.001s20.333 150 21 154s3 11 7 21s8.83301 19 14.5 27s14.334 15.167 26.001 21.5s25.167 9.5 40.5 9.5z" />
    <glyph glyph-name="six" unicode="6" horiz-adv-x="560" 
d="M535 224c0 -67.333 -24.166 -123.667 -72.499 -169s-106.833 -68 -175.5 -68c-86.667 0 -152 27.833 -196 83.5s-66 127.5 -66 215.5c0 127.333 36.167 233.666 108.5 318.999s171.166 128 296.499 128c25.333 0 43.833 -3.16699 55.5 -9.5s19.5 -15.833 23.5 -28.5
s6 -28.667 6 -48s-1.66699 -34.666 -5 -45.999s-7.33301 -20 -12 -26s-11.334 -10.333 -20.001 -13c-11.333 -4 -30.666 -6 -57.999 -6s-53.833 -4.66699 -79.5 -14s-45.834 -20.666 -60.501 -33.999c-29.333 -27.333 -47.333 -52 -54 -74l-5 -14
c24.667 11.333 49.334 17 74.001 17c66 0 122.5 -21.833 169.5 -65.5s70.5 -92.834 70.5 -147.501zM283.001 150.999c51.333 0 77.002 22.335 77.002 67.002c0 15.333 -5.83301 29.666 -17.5 42.999s-30.334 20 -56.001 20s-45.334 -6.16699 -59.001 -18.5
s-20.5 -24.833 -20.5 -37.5s0.833008 -22.334 2.5 -29.001s4.83398 -14 9.50098 -22c9.33301 -15.333 30.666 -23 63.999 -23z" />
    <glyph glyph-name="seven" unicode="7" horiz-adv-x="561" 
d="M458 732c46.667 0 73.9922 -12.668 81.9922 -38.001c4 -10.667 6 -29.334 6 -56.001s-8.66699 -59.834 -26 -99.501s-38.166 -78.834 -62.499 -117.501l-73.5 -117c-58.667 -95.333 -88 -172 -88 -230c0 -14.667 -0.666992 -25.5 -2 -32.5s-4.66602 -14.333 -9.99902 -22
s-14.166 -12.834 -26.499 -15.501s-29.166 -4 -50.499 -4s-38.166 1.33301 -50.499 4s-21.166 8 -26.499 16s-8.5 15.5 -9.5 22.5s-1.5 18.167 -1.5 33.5c0 43.333 7.33301 87.833 22 133.5s32.334 86.5 53.001 122.5s41.334 69.167 62.001 99.5l53 78
c14.667 21.667 22 36.834 22 45.501h-228c-26.667 0 -46 3.33301 -58 10s-20 16.334 -24 29.001s-6 29.334 -6 50.001s2 37.334 6 50.001s10.333 21.334 19 26.001c14 8 33.333 12 58 12h360z" />
    <glyph glyph-name="eight" unicode="8" horiz-adv-x="582" 
d="M557 235c0 -74.667 -27.165 -134.832 -81.498 -180.499s-115.833 -68.5 -184.5 -68.5s-130.167 22.667 -184.5 68s-81.5 105.666 -81.5 180.999c0 28 6.83301 55.167 20.5 81.5s27.167 45.5 40.5 57.5l21 19c-4.66699 4 -10.334 9.33301 -17.001 16
s-15.5 21.167 -26.5 43.5s-16.5 45.5 -16.5 69.5c0 65.333 24.667 119.333 74 162s106.666 64 171.999 64s122 -21.667 170 -65s72 -98.666 72 -165.999c0 -20 -4.83301 -40.333 -14.5 -61s-19.5 -36.334 -29.5 -47.001l-15 -16c6 -4.66699 13.5 -11.5 22.5 -20.5
s21 -27.167 36 -54.5s22.5 -55 22.5 -83zM341.002 560.502c-11.333 11.667 -28.168 17.5 -50.501 17.5s-38.833 -5.66699 -49.5 -17s-16 -23.833 -16 -37.5s5.83301 -26.5 17.5 -38.5s28.334 -18 50.001 -18s38 6 49 18s16.5 24.667 16.5 38s-5.66699 25.833 -17 37.5z
M292 155.002c29.333 0 51.334 8.00098 66.001 24.001s22 33.167 22 51.5s-7.5 35.5 -22.5 51.5s-37 24 -66 24s-51.167 -7.83301 -66.5 -23.5s-23 -32.834 -23 -51.501s7.66699 -36 23 -52s37.666 -24 66.999 -24z" />
    <glyph glyph-name="nine" unicode="9" horiz-adv-x="560" 
d="M25 508c0 67.333 24.001 123.667 72.001 169s106.333 68 175 68c87.333 0 153 -27.833 197 -83.5s66 -127.5 66 -215.5c0 -127.333 -36 -233.666 -108 -318.999s-170.333 -128 -295 -128h-6c-25.333 0 -43.333 3.33301 -54 10c-18.667 11.333 -28 37.666 -28 78.999
c0 46.667 12.667 74 38 82c11.333 4 30.666 6 57.999 6s53.833 4.66699 79.5 14s45.5 20.666 59.5 33.999c28.667 27.333 47 52 55 74l5 14c-25.333 -11.333 -50.333 -17 -75 -17c-65.333 0 -121.5 21.833 -168.5 65.5s-70.5 92.834 -70.5 147.501zM276.001 581.001
c-51.333 0 -77 -22.333 -77 -67c0 -15.333 5.83301 -29.666 17.5 -42.999s30.5 -20 56.5 -20s45.833 6.16699 59.5 18.5s20.5 24.666 20.5 36.999s-0.833008 22 -2.5 29s-5.16699 14.5 -10.5 22.5c-10 15.333 -31.333 23 -64 23z" />
    <glyph glyph-name="colon" unicode=":" horiz-adv-x="238" 
d="M193.5 485c13 -13.333 19.5 -38.333 19.5 -75c-0.666992 -16 -1.5 -27.833 -2.5 -35.5s-4.5 -16.834 -10.5 -27.501c-10 -19.333 -35.167 -29 -75.5 -29s-67 6.5 -80 19.5s-19.5 38.167 -19.5 75.5c0 38.667 7 63.334 21 74.001c16.667 12 42.167 18 76.5 18
s58 -6.66699 71 -20zM193.5 166.5c13 -13 19.5 -38.167 19.5 -75.5c-0.666992 -16 -1.5 -27.833 -2.5 -35.5s-4.5 -16.834 -10.5 -27.501c-10 -19.333 -35.167 -29 -75.5 -29s-67 6.5 -80 19.5s-19.5 38.167 -19.5 75.5c0 38.667 7 63.334 21 74.001
c16.667 12 42.167 18 76.5 18s58 -6.5 71 -19.5z" />
    <glyph glyph-name="semicolon" unicode=";" horiz-adv-x="237" 
d="M195 484c11.333 -12 17.001 -35.332 17.001 -69.999v-4c0 -16 -0.5 -27.833 -1.5 -35.5s-4.5 -16.834 -10.5 -27.501c-10 -19.333 -35.167 -29 -75.5 -29s-67 6.33301 -80 19s-19.5 36.667 -19.5 72v4c0 15.333 0.5 27 1.5 35s4.16699 17.333 9.5 28
c10 19.333 35.167 29 75.5 29s68.166 -7 83.499 -21zM195.001 165.001c11.333 -11.333 17.001 -34.667 17.001 -70v-4c0 -73.333 -19.333 -136 -58 -188c-31.333 -42 -68 -63 -110 -63c-4.66699 0 -8.83398 3.5 -12.501 10.5s-5.5 16.167 -5.5 27.5s1.5 20.166 4.5 26.499
s6.83301 10.333 11.5 12s9.33398 4.33398 14.001 8.00098s11.5 12.667 20.5 27s14.167 30.5 15.5 48.5c-22 2.66699 -38.667 9.5 -50 20.5s-17 34.167 -17 69.5v4c0 15.333 0.5 27 1.5 35s4.16699 17 9.5 27c10 20 35.167 30 75.5 30s68.166 -7 83.499 -21z" />
    <glyph glyph-name="less" unicode="&#x3c;" horiz-adv-x="627" 
d="M54 275c-26 12.667 -39.001 35.666 -39.001 68.999s13.333 56.666 40 69.999l394 234c34 20.667 54.333 32 61 34c7.33301 3.33301 16 5 26 5c18 0 36.667 -16.333 56 -49c12.667 -20.667 19 -36.167 19 -46.5s-2.33301 -19.166 -7 -26.499
c-6 -10.667 -19.667 -23 -41 -37c-198.667 -117.333 -302 -178.666 -310 -183.999l310 -184c12.667 -7.33301 21.667 -13.333 27 -18c14.667 -12 22 -25 22 -39c0 -13.333 -5.83301 -29.5 -17.5 -48.5s-22.167 -32.5 -31.5 -40.5s-19 -12 -29 -12
c-13.333 0 -30.666 6.33301 -51.999 19z" />
    <glyph glyph-name="equal" unicode="=" horiz-adv-x="478" 
d="M383 254h-288.997c-34.667 0 -55.334 10.667 -62.001 32c-4 11.333 -6 25.833 -6 43.5s1.83301 32 5.5 43s9.5 18.5 17.5 22.5c12 6 27.333 9 46 9h289c35.333 0 56.666 -10.667 63.999 -32c3.33301 -10.667 5 -25 5 -43s-1.66699 -32.5 -5 -43.5s-9 -18.667 -17 -23
s-14.833 -6.83301 -20.5 -7.5s-14.834 -1 -27.501 -1zM383.003 42h-289.003c-35.333 0 -56.666 10.667 -63.999 32c-3.33301 11.333 -5 25.833 -5 43.5s1.83301 32 5.5 43s9.5 18.5 17.5 22.5c12.667 6 28.334 9 47.001 9h289c34.667 0 55.334 -10.667 62.001 -32
c4 -10.667 6 -25 6 -43s-1.66699 -32.5 -5 -43.5s-9 -18.667 -17 -23s-14.833 -6.83301 -20.5 -7.5s-14.5 -1 -26.5 -1z" />
    <glyph glyph-name="greater" unicode="&#x3e;" horiz-adv-x="627" 
d="M572 414c26.667 -13.333 40.001 -36.668 40.001 -70.001s-13 -56.333 -39 -69l-427 -254c-34 -22 -61.333 -24.333 -82 -7c-9.33301 8 -19 20 -29 36c-13.333 22 -20 38 -20 48s2 18.667 6 26c7.33301 11.333 21.666 23.333 42.999 36l311 184l-310 184
c-12 7.33301 -21 13.333 -27 18c-14.667 12.667 -22 26.334 -22 41.001c0 13.333 5.66699 29.333 17 48c20.667 34.667 40 52 58 52c16 0 34 -6.33301 54 -19z" />
    <glyph glyph-name="question" unicode="?" horiz-adv-x="512" 
d="M173 335l1.00391 7.99902c0 28.667 8.16699 51.334 24.5 68.001s34.166 27.667 53.499 33s37.166 14.333 53.499 27s24.5 29.834 24.5 51.501s-6.16699 38.5 -18.5 50.5s-30.833 18 -55.5 18s-42.834 -3.83301 -54.501 -11.5s-18.834 -15.5 -21.501 -23.5l-3 -12
c-6 -17.333 -13 -30.5 -21 -39.5s-18.333 -13.5 -31 -13.5s-29.334 4 -50.001 12c-40 15.333 -60 34.333 -60 57c0 10 2 20.167 6 30.5l10 26c2.66699 7 9.83398 19.167 21.501 36.5s25 32.5 40 45.5s36.167 25 63.5 36s57.666 16.5 90.999 16.5
c70.667 0 128.334 -22.667 173.001 -68s67 -98 67 -158c0 -28.667 -5.16699 -55.167 -15.5 -79.5s-22.833 -43.5 -37.5 -57.5c-29.333 -28 -56.666 -46.667 -81.999 -56l-16 -5c0 -11.333 -0.5 -20 -1.5 -26s-4 -12.5 -9 -19.5s-13.333 -12 -25 -15s-27.167 -4.5 -46.5 -4.5
s-34.833 1.66699 -46.5 5s-19.834 9 -24.501 17s-7.5 15.167 -8.5 21.5s-1.5 16.166 -1.5 29.499zM197.504 178.999c13.667 4.66699 35.1689 7.00098 64.502 7.00098s50.5 -6.5 63.5 -19.5s19.5 -38.167 19.5 -75.5c0 -26.667 -3.33301 -46.5 -10 -59.5
s-16.834 -21.667 -30.501 -26s-34.834 -6.5 -63.501 -6.5s-50.667 7 -66 21c-11.333 11.333 -17 30.666 -17 57.999v16c0 15.333 0.5 27 1.5 35s4.16699 17.167 9.5 27.5s14.833 17.833 28.5 22.5z" />
    <glyph glyph-name="at" unicode="@" horiz-adv-x="908" 
d="M847.5 443.5c23.667 -52.333 35.4971 -107.667 35.4971 -166s-8 -107.666 -24 -147.999s-37 -72.5 -63 -96.5c-52.667 -49.333 -110.667 -74 -174 -74c-44 0 -80.667 13.333 -110 40s-44 63 -44 109c0 5.33301 0.666992 13.333 2 24c-22 -24 -52.333 -36 -91 -36
s-73.167 16.5 -103.5 49.5s-45.5 72.833 -45.5 119.5c0 59.333 22 109.5 66 150.5s86.5 61.5 127.5 61.5s69.5 -13.333 85.5 -40c3.33301 13.333 9.83301 23.5 19.5 30.5s25.667 10.5 48 10.5s37.666 -3.5 45.999 -10.5s12.5 -15 12.5 -24s-0.666992 -18.833 -2 -29.5
l-34 -256c-4.66699 -27.333 -7 -45 -7 -53s2.5 -13.5 7.5 -16.5s12.833 -4.5 23.5 -4.5s21 1.33301 31 4s21.5 8.16699 34.5 16.5s24.5 19.166 34.5 32.499c24 32 36 74.667 36 128s-8.66699 97.666 -26 132.999s-41 63.333 -71 84c-61.333 41.333 -135.166 62 -221.499 62
s-156.333 -24.5 -210 -73.5s-80.5 -115.5 -80.5 -199.5s20.833 -151 62.5 -201s106.167 -75 193.5 -75h19c16 0 27.167 -3.83301 33.5 -11.5s9.5 -21.834 9.5 -42.501s-1.5 -35.5 -4.5 -44.5s-8.16699 -15.167 -15.5 -18.5c-9.33301 -5.33301 -23.666 -8 -42.999 -8
c-117.333 0 -210 36.167 -278 108.5s-102 169.5 -102 291.5c0 81.333 19.333 152.833 58 214.5s88.834 107.667 150.501 138s126.334 45.5 194.001 45.5s128 -8.16699 181 -24.5s100.167 -40.666 141.5 -72.999s73.833 -74.666 97.5 -126.999zM373.997 239.499
c10.667 -11 24.668 -16.5 42.001 -16.5s32.833 6.5 46.5 19.5s21.5 27.5 23.5 43.5v6c0 15.333 -4.83301 28.833 -14.5 40.5s-23.834 17.5 -42.501 17.5s-34.667 -6.5 -48 -19.5s-21 -27.833 -23 -44.5v-7c0 -15.333 5.33301 -28.5 16 -39.5z" />
    <glyph glyph-name="A" unicode="A" horiz-adv-x="765" 
d="M463 681l270.002 -557.999c11.333 -22.667 17 -39.667 17 -51c0 -24 -19.333 -45.667 -58 -65c-22.667 -11.333 -40.5 -17 -53.5 -17s-23.667 3 -32 9s-14.333 12.333 -18 19s-8.83398 16.667 -15.501 30l-52 108h-277l-52 -108
c-6.66699 -13.333 -11.834 -23 -15.501 -29s-9.66699 -12.167 -18 -18.5s-19 -9.5 -32 -9.5s-30.833 5.66699 -53.5 17c-38.667 18.667 -58 40 -58 64c0 11.333 5.66699 28.333 17 51l270 559c7.33301 15.333 18.5 27.666 33.5 36.999s30.833 14 47.5 14
c36 0 62.667 -17.333 80 -52zM382.002 441.001l-66 -137h133z" />
    <glyph glyph-name="B" unicode="B" horiz-adv-x="646" 
d="M562 393c39.333 -46.667 58.999 -98.999 58.999 -156.999c-1.33301 -66.667 -24.166 -122.5 -68.499 -167.5s-98.166 -67.5 -161.499 -67.5h-263c-46.667 0 -74 12.667 -82 38c-4 11.333 -6 28.666 -6 51.999v555c0 16 0.5 27.667 1.5 35s4.16699 16 9.5 26
c9.33301 18 35.333 27 78 27h252c61.333 0 112.666 -21.333 153.999 -64c43.333 -43.333 65 -95.333 65 -156c0 -44 -12.667 -84.333 -38 -121zM443.999 246.001c0 16 -1.83203 28.666 -5.49902 37.999s-9.83398 16 -18.501 20c-13.333 5.33301 -32 8 -56 8
s-42 4.66699 -54 14s-18 28.5 -18 57.5s6.16699 48.167 18.5 57.5s32.833 14 61.5 14c26.667 0 42.667 7 48 21c2 7.33301 3 19.333 3 36s-5.5 28.334 -16.5 35.001s-27.5 10 -49.5 10h-140v-379h164c42 0 63 22.667 63 68z" />
    <glyph glyph-name="C" unicode="C" horiz-adv-x="679" 
d="M498 192l17.999 13.0039c22.667 13.333 38.667 20 48 20c20.667 0 43 -18.667 67 -56c14.667 -23.333 22 -42 22 -56s-4.5 -25.667 -13.5 -35s-19.5 -17.666 -31.5 -24.999l-34.5 -21c-11 -6.66699 -33.5 -15.334 -67.5 -26.001s-66.833 -16 -98.5 -16
s-63.667 4.16699 -96 12.5s-65.666 22.333 -99.999 42s-65.166 43.667 -92.499 72s-49.833 64.666 -67.5 108.999s-26.5 92.5 -26.5 144.5s8.66699 99.167 26 141.5s39.5 77.333 66.5 105s57.833 50.834 92.5 69.501c65.333 36 131 54 197 54
c31.333 0 63.166 -4.83301 95.499 -14.5s56.833 -19.5 73.5 -29.5l24 -14c12 -7.33301 21.333 -13.333 28 -18c17.333 -14 26 -29.833 26 -47.5s-7 -36.167 -21 -55.5c-26 -36 -49.333 -54 -70 -54c-12 0 -29 7.33301 -51 22c-28 22.667 -65.333 34 -112 34
c-43.333 0 -86 -15 -128 -45c-20 -14.667 -36.667 -35.334 -50 -62.001s-20 -56.834 -20 -90.501s6.66699 -63.834 20 -90.501s30.333 -47.667 51 -63c40.667 -29.333 83 -44 127 -44c20.667 0 40.167 2.66699 58.5 8s31.5 10.666 39.5 15.999z" />
    <glyph glyph-name="D" unicode="D" horiz-adv-x="704" 
d="M129 734l185 -0.998047c96.667 0 181.667 -34.833 255 -104.5s110 -155.334 110 -257.001s-35.833 -188.834 -107.5 -261.501s-158.5 -109 -260.5 -109h-183c-40.667 0 -66 8.33301 -76 25c-8 14 -12 35.333 -12 64v556c0 16 0.5 27.667 1.5 35s4.16699 16 9.5 26
c9.33301 18 35.333 27 78 27zM444 231.502c38.667 35.667 58.001 80.5 58.001 134.5s-18.833 99.167 -56.5 135.5s-81.834 54.5 -132.501 54.5h-96v-378h97c48 0 91.333 17.833 130 53.5z" />
    <glyph glyph-name="E" unicode="E" horiz-adv-x="638" 
d="M217 177h307.997c15.333 0 26.833 -0.5 34.5 -1.5s16.5 -4.16699 26.5 -9.5c18 -9.33301 27 -35.333 27 -78c0 -46.667 -12.333 -74 -37 -82c-11.333 -4 -28.666 -6 -51.999 -6h-396c-46.667 0 -74 12.667 -82 38c-4 10.667 -6 27.667 -6 51v556
c0 34 6.33301 57.167 19 69.5s36.667 18.5 72 18.5h394c15.333 0 26.833 -0.5 34.5 -1.5s16.5 -4.16699 26.5 -9.5c18 -9.33301 27 -35.333 27 -78c0 -46.667 -12.333 -74 -37 -82c-11.333 -4 -28.666 -6 -51.999 -6h-307v-101h198c15.333 0 26.833 -0.5 34.5 -1.5
s16.5 -4.16699 26.5 -9.5c18 -9.33301 27 -35.333 27 -78c0 -46.667 -12.667 -74 -38 -82c-11.333 -4 -28.666 -6 -51.999 -6h-196v-101z" />
    <glyph glyph-name="F" unicode="F" horiz-adv-x="637" 
d="M525 733c15.333 0 26.832 -0.499023 34.499 -1.49902s16.334 -4.16699 26.001 -9.5s16.5 -14.333 20.5 -27s6 -29.667 6 -51s-2 -38.333 -6 -51s-11 -21.5 -21 -26.5s-18.833 -8 -26.5 -9s-19.5 -1.5 -35.5 -1.5h-306v-101h197c16 0 27.833 -0.5 35.5 -1.5
s16.5 -4.16699 26.5 -9.5c17.333 -10 26 -36.333 26 -79c0 -46.667 -12.667 -74.334 -38 -83.001c-10.667 -3.33301 -27.667 -5 -51 -5h-196v-189c0 -16 -0.5 -27.667 -1.5 -35s-4.16699 -16 -9.5 -26c-9.33301 -18 -35.333 -27 -78 -27c-46.667 0 -74 12.667 -82 38
c-4 10.667 -6 27.667 -6 51v556c0 34 6.33301 57.167 19 69.5s36.667 18.5 72 18.5h394z" />
    <glyph glyph-name="G" unicode="G" horiz-adv-x="714" 
d="M422 442l176.001 -0.00195312c36 -1.33301 58 -10.666 66 -27.999c6.66699 -12.667 10 -31.334 10 -56.001v-220c0 -21.333 -9.33301 -41.666 -28 -60.999c-56 -58 -140 -87 -252 -87c-99.333 0 -185.666 37.5 -258.999 112.5s-110 165.5 -110 271.5
s37.333 194.5 112 265.5s162.667 106.5 264 106.5c78.667 0 153 -26 223 -78c18 -13.333 27 -28.166 27 -44.499s-7.66699 -35.166 -23 -56.499c-26 -35.333 -49.667 -53 -71 -53c-12.667 0 -33 9.16699 -61 27.5s-61.333 27.5 -100 27.5
c-50.667 0 -95.667 -17.833 -135 -53.5s-59 -82.334 -59 -140.001s20 -106.667 60 -147s85.333 -60.5 136 -60.5c36.667 0 69.667 6 99 18v109h-79c-20.667 0 -35.334 2.66699 -44.001 8s-14.334 13.166 -17.001 23.499s-4 24.333 -4 42s1.5 31.834 4.5 42.501
s8.5 18 16.5 22c12 6 28 9 48 9z" />
    <glyph glyph-name="H" unicode="H" horiz-adv-x="699" 
d="M520 727c12.667 4 28.667 6.00098 48 6.00098s34.666 -1.66699 45.999 -5s20 -7.33301 26 -12s10.667 -11.334 14 -20.001c3.33301 -11.333 5 -28.666 5 -51.999v-555c0 -15.333 -0.5 -26.833 -1.5 -34.5s-4.16699 -16.5 -9.5 -26.5c-9.33301 -18 -35.333 -27 -78 -27
c-46.667 0 -74 12.333 -82 37c-4 11.333 -6 28.666 -6 51.999v203h-265v-204c0 -15.333 -0.5 -26.833 -1.5 -34.5s-4.16699 -16.5 -9.5 -26.5c-9.33301 -18 -35.333 -27 -78 -27c-46.667 0 -74 12.333 -82 37c-4 11.333 -6 28.666 -6 51.999v555
c0 15.333 0.5 26.833 1.5 34.5s4.16699 16.5 9.5 26.5c9.33301 18 35.333 27 78 27c46.667 0 74.334 -12.333 83.001 -37c3.33301 -11.333 5 -28.666 5 -51.999v-204h265v205c0 15.333 0.5 26.833 1.5 34.5s4.16699 16.5 9.5 26.5s14.333 17 27 21z" />
    <glyph glyph-name="I" unicode="I" horiz-adv-x="257" 
d="M40 645c0 15.333 0.499023 26.832 1.49902 34.499s4.16699 16.5 9.5 26.5c9.33301 18 35.333 27 78 27c46.667 0 74.334 -12.333 83.001 -37c3.33301 -11.333 5 -28.666 5 -51.999v-556c0 -16 -0.5 -27.667 -1.5 -35s-4.16699 -16 -9.5 -26
c-9.33301 -18 -35.333 -27 -78 -27c-46.667 0 -74 12.667 -82 38c-4 10.667 -6 27.667 -6 51v556z" />
    <glyph glyph-name="J" unicode="J" horiz-adv-x="549" 
d="M471.5 726.5c12.333 -4.33301 21.167 -11.501 26.5 -21.501c7.33301 -15.333 11 -36 11 -62v-387c0 -70 -25.333 -131.833 -76 -185.5s-115.334 -80.5 -194.001 -80.5c-44 0 -83 9.66699 -117 29c-30.667 16.667 -52 31.667 -64 45l-8 8
c-23.333 24.667 -35 45.834 -35 63.501s11.667 38.5 35 62.5s44 36 62 36s38 -11 60 -33s45.833 -33 71.5 -33s46.834 8.66699 63.501 26s25 40.333 25 69v374c0 40 6.66699 65.667 20 77c15.333 12.667 36 19 62 19s45.167 -2.16699 57.5 -6.5z" />
    <glyph glyph-name="K" unicode="K" horiz-adv-x="639" 
d="M354 368c102 -98 174.333 -171.668 217 -221.001c22 -24.667 33 -45.5 33 -62.5s-13.333 -37 -40 -60s-48.5 -34.5 -65.5 -34.5s-37.5 14 -61.5 42l-220 251v-195c0 -16 -0.5 -27.667 -1.5 -35s-4.16699 -16 -9.5 -26c-9.33301 -18 -35.333 -27 -78 -27
c-46.667 0 -74 12.667 -82 38c-4 10.667 -6 27.667 -6 51v556c0 15.333 0.5 26.833 1.5 34.5s4.16699 16.5 9.5 26.5c9.33301 18 35.333 27 78 27c46.667 0 74.334 -12.333 83.001 -37c3.33301 -11.333 5 -28.666 5 -51.999v-191l220 251c23.333 27.333 43.666 41 60.999 41
s39.333 -11.5 66 -34.5s40 -43 40 -60s-10 -37.167 -30 -60.5c-38.667 -44.667 -98.667 -106 -180 -184z" />
    <glyph glyph-name="L" unicode="L" horiz-adv-x="587" 
d="M217 148l271.999 0.000976562c22 0 38 -2.5 48 -7.5s16.667 -12.833 20 -23.5s5 -24.834 5 -42.501s-1.66699 -31.834 -5 -42.501s-9 -18 -17 -22c-12.667 -6.66699 -30 -10 -52 -10h-360c-46.667 0 -74 12.667 -82 38c-4 10.667 -6 27.667 -6 51v556
c0 15.333 0.5 26.833 1.5 34.5s4.16699 16.5 9.5 26.5c9.33301 18 35.333 27 78 27c46.667 0 74.334 -12.333 83.001 -37c3.33301 -11.333 5 -28.666 5 -51.999v-496z" />
    <glyph glyph-name="M" unicode="M" horiz-adv-x="870" 
d="M819 705c5.33301 -10 8.49805 -19 9.49805 -27s1.5 -19.667 1.5 -35v-555c0 -46 -12.667 -73 -38 -81c-12.667 -4 -28.667 -6 -48 -6s-34.666 1.66699 -45.999 5s-20 7.33301 -26 12s-10.667 11.334 -14 20.001c-3.33301 11.333 -5 28.666 -5 51.999v335
c-16.667 -20.667 -41 -53.5 -73 -98.5s-52.333 -73.167 -61 -84.5l-18 -23.5c-3.33301 -4.33301 -11.5 -10.333 -24.5 -18s-27 -11.5 -42 -11.5s-28.667 3.5 -41 10.5s-21.166 13.833 -26.499 20.5l-8 11c-13.333 16.667 -39.666 52.167 -78.999 106.5
s-60.666 83.5 -63.999 87.5v-337c0 -15.333 -0.5 -26.833 -1.5 -34.5s-4.16699 -16.167 -9.5 -25.5c-10 -18 -36 -27 -78 -27c-40.667 0 -66 9 -76 27c-5.33301 9.33301 -8.5 18 -9.5 26s-1.5 20 -1.5 36v555c0 15.333 0.5 26.833 1.5 34.5s4.16699 16.5 9.5 26.5
c10 17.333 36 26 78 26c18 0 33.5 -2.16699 46.5 -6.5s21.5 -8.83301 25.5 -13.5l6 -6l227 -298l227 297c11.333 18 38.166 27 80.499 27s68.166 -9 77.499 -27z" />
    <glyph glyph-name="N" unicode="N" horiz-adv-x="720" 
d="M542 726c12.667 4 28.4951 6.00098 47.4951 6.00098s34.333 -1.66699 46 -5s20.334 -7.33301 26.001 -12s9.83398 -11.667 12.501 -21c4 -10.667 6 -27.667 6 -51v-555c0 -16 -0.5 -27.667 -1.5 -35s-4.16699 -16 -9.5 -26c-9.33301 -18 -35.333 -27 -78 -27
c-26 0 -44 2 -54 6s-18.333 10.333 -25 19l-296 392v-329c0 -16 -0.5 -27.667 -1.5 -35s-4.16699 -16 -9.5 -26c-9.33301 -18 -35.333 -27 -78 -27c-41.333 0 -66.666 9 -75.999 27c-5.33301 10 -8.5 19 -9.5 27s-1.5 19.667 -1.5 35v558c0 25.333 3.16699 43.833 9.5 55.5
s15.833 19.5 28.5 23.5s29 6 49 6s35.833 -1.83301 47.5 -5.5s19.834 -7.83398 24.501 -12.501c2.66699 -2 10.334 -10.667 23.001 -26l282 -379v338c0 25.333 3.16699 43.833 9.5 55.5s15.833 19.5 28.5 23.5z" />
    <glyph glyph-name="O" unicode="O" 
d="M384 742c98.667 0 184.333 -35.666 257 -106.999s109 -159.833 109 -265.5s-34.667 -195.667 -104 -270s-154.666 -111.5 -255.999 -111.5s-187.5 36.667 -258.5 110s-106.5 160.666 -106.5 261.999c0 55.333 10 107.166 30 155.499s46.667 88.833 80 121.5
s71.666 58.334 114.999 77.001s88 28 134 28zM259.499 220.501c38.333 -37 81.166 -55.501 128.499 -55.501s90 18 128 54s57 84.333 57 145s-19.167 109.334 -57.5 146.001s-81.166 55 -128.499 55s-90 -18.5 -128 -55.5s-57 -85.167 -57 -144.5s19.167 -107.5 57.5 -144.5
z" />
    <glyph glyph-name="P" unicode="P" horiz-adv-x="632" 
d="M607 467c0 -43.333 -8.66797 -82.5 -26.001 -117.5s-39.666 -62.833 -66.999 -83.5c-55.333 -42.667 -112.666 -64 -171.999 -64h-125v-113c0 -15.333 -0.5 -26.833 -1.5 -34.5s-4.16699 -16.5 -9.5 -26.5c-9.33301 -18 -35.333 -27 -78 -27c-46.667 0 -74 12.333 -82 37
c-4 11.333 -6 28.666 -6 51.999v555c0 15.333 0.5 26.833 1.5 34.5s4.16699 16.5 9.5 26.5c9.33301 18 35.333 27 78 27h214c58.667 0 115.667 -21.333 171 -64c27.333 -20.667 49.666 -48.667 66.999 -84s26 -74.666 26 -117.999zM401.999 401
c19.333 14.667 29 36.667 29 66s-9.66699 51.5 -29 66.5s-39.333 22.5 -60 22.5h-125v-177h126c20 0 39.667 7.33301 59 22z" />
    <glyph glyph-name="Q" unicode="Q" horiz-adv-x="830" 
d="M713 199l65.999 -45.001c24 -18 36 -35.167 36 -51.5s-10 -39.166 -30 -68.499s-40.333 -44 -61 -44c-12.667 0 -32 9 -58 27c-3.33301 2 -12.666 8.33301 -27.999 19s-27.333 18.667 -36 24c-62 -48 -131.667 -72 -209 -72c-103.333 0 -190.5 36.667 -261.5 110
s-106.5 160.666 -106.5 261.999c0 55.333 10 107.166 30 155.499s46.667 88.833 80 121.5s71.666 58.334 114.999 77.001s88 28 134 28c98.667 0 184.334 -35.667 257.001 -107s109 -161.666 109 -270.999c0 -55.333 -12.333 -110.333 -37 -165zM259.499 220.499
c38.333 -37 81.166 -55.501 128.499 -55.501s90 18 128 54s57 84.333 57 145s-19.167 109.334 -57.5 146.001s-81.166 55 -128.499 55s-90 -18.5 -128 -55.5s-57 -85.167 -57 -144.5s19.167 -107.5 57.5 -144.5z" />
    <glyph glyph-name="R" unicode="R" horiz-adv-x="631" 
d="M601 124c10 -24 15 -41.334 15 -52.001c0 -25.333 -20.667 -46.666 -62 -63.999c-21.333 -9.33301 -38.5 -14 -51.5 -14s-23.667 3.16699 -32 9.5s-14.5 12.833 -18.5 19.5c-6.66699 12.667 -32.667 73 -78 181l-31 -2h-126v-113c0 -15.333 -0.5 -26.833 -1.5 -34.5
s-4.16699 -16.5 -9.5 -26.5c-9.33301 -18 -35.333 -27 -78 -27c-46.667 0 -74 12.333 -82 37c-4 11.333 -6 28.666 -6 51.999v555c0 15.333 0.5 26.833 1.5 34.5s4.16699 16.5 9.5 26.5c9.33301 18 35.333 27 78 27h216c58.667 0 115.667 -21.333 171 -64
c26.667 -20.667 48.667 -48.667 66 -84s26 -74.666 26 -117.999c0 -75.333 -25 -137.333 -75 -186zM217 378.999h128.001c19.333 0 38.666 7.33301 57.999 22s29 36.667 29 66s-9.66699 51.5 -29 66.5s-39.333 22.5 -60 22.5h-126v-177z" />
    <glyph glyph-name="S" unicode="S" horiz-adv-x="583" 
d="M51 103c-17.333 21.333 -26.001 40.4971 -26.001 57.4971s14.333 39.5 43 67.5c16.667 16 34.334 24 53.001 24s44.667 -16.667 78 -50c9.33301 -11.333 22.666 -22.166 39.999 -32.499s33.333 -15.5 48 -15.5c62 0 93 25.333 93 76c0 15.333 -8.5 28.166 -25.5 38.499
s-38.167 17.833 -63.5 22.5s-52.666 12.167 -81.999 22.5s-56.666 22.5 -81.999 36.5s-46.5 36.167 -63.5 66.5s-25.5 66.833 -25.5 109.5c0 58.667 21.833 109.834 65.5 153.501s103.167 65.5 178.5 65.5c40 0 76.5 -5.16699 109.5 -15.5s55.833 -20.833 68.5 -31.5l25 -19
c20.667 -19.333 31 -35.666 31 -48.999s-8 -31.666 -24 -54.999c-22.667 -33.333 -46 -50 -70 -50c-14 0 -31.333 6.66699 -52 20c-2 1.33301 -5.83301 4.66602 -11.5 9.99902s-10.834 9.66602 -15.501 12.999c-14 8.66699 -31.833 13 -53.5 13s-39.667 -5.16699 -54 -15.5
s-21.5 -24.666 -21.5 -42.999s8.5 -33.166 25.5 -44.499s38.167 -19 63.5 -23s53 -10.167 83 -18.5s57.667 -18.5 83 -30.5s46.5 -32.833 63.5 -62.5s25.5 -66.167 25.5 -109.5s-8.66699 -81.5 -26 -114.5s-40 -58.5 -68 -76.5c-54 -35.333 -111.667 -53 -173 -53
c-31.333 0 -61 3.83301 -89 11.5s-50.667 17.167 -68 28.5c-35.333 21.333 -60 42 -74 62z" />
    <glyph glyph-name="T" unicode="T" horiz-adv-x="731" 
d="M88 734l556.001 -0.00195312c21.333 0 37 -2.5 47 -7.5s16.667 -12.833 20 -23.5s5 -24.667 5 -42s-1.66699 -31.166 -5 -41.499s-9 -17.5 -17 -21.5c-12 -6 -29 -9 -51 -9h-191v-503c0 -15.333 -0.5 -26.666 -1.5 -33.999s-4 -15.833 -9 -25.5
s-13.833 -16.5 -26.5 -20.5s-29.334 -6 -50.001 -6s-37.167 2 -49.5 6s-21 10.833 -26 20.5s-8 18.334 -9 26.001s-1.5 19.167 -1.5 34.5v502h-192c-21.333 0 -37 2.5 -47 7.5s-16.667 12.833 -20 23.5s-5 24.667 -5 42s1.66699 31.166 5 41.499s9 17.5 17 21.5
c12 6 29 9 51 9z" />
    <glyph glyph-name="U" unicode="U" horiz-adv-x="726" 
d="M548 728c12.667 4 28.498 6 47.498 6s34.167 -1.66699 45.5 -5s20 -7.33301 26 -12s10.333 -11.667 13 -21c4 -11.333 6 -28.666 6 -51.999v-302c0 -88 -27.333 -168 -82 -240c-26.667 -34 -61 -61.5 -103 -82.5s-88.5 -31.5 -139.5 -31.5s-97.333 10.667 -139 32
s-75.5 49.333 -101.5 84c-54 70.667 -81 150.667 -81 240v301c0 16 0.5 27.833 1.5 35.5s4.16699 16.5 9.5 26.5s14.333 17 27 21s29.667 6 51 6s38.333 -2 51 -6s21.334 -11 26.001 -21c8 -15.333 12 -36.333 12 -63v-300c0 -40.667 10 -79.334 30 -116.001
c10 -18.667 25 -33.667 45 -45s43.667 -17 71 -17c48.667 0 85 18 109 54s36 77.667 36 125v306c0 26 3.33301 44.333 10 55s16.334 18 29.001 22z" />
    <glyph glyph-name="V" unicode="V" horiz-adv-x="783" 
d="M709 722c39.333 -19.333 59 -40.6641 59 -63.9971c0 -10.667 -5 -26.667 -15 -48l-276 -560c-7.33301 -14.667 -18.5 -26.5 -33.5 -35.5s-30.5 -13.5 -46.5 -13.5h-10c-16.667 0 -32.5 4.5 -47.5 13.5s-26.167 20.833 -33.5 35.5l-276 560c-10 21.333 -15 37.333 -15 48
c0 23.333 19.667 44.666 59 63.999c22 11.333 38.833 17 50.5 17s20.5 -1.33301 26.5 -4s11.667 -7.33398 17 -14.001c6 -8 11.5 -16.833 16.5 -26.5s17.833 -37.334 38.5 -83.001l66.5 -145.5l67 -145.5c21 -45.667 32.833 -71.167 35.5 -76.5l200 438
c5.33301 12.667 10 22.667 14 30c12 18 26.667 27 44 27s37 -5.66699 59 -17z" />
    <glyph glyph-name="W" unicode="W" horiz-adv-x="999" 
d="M917 729c44.667 -16 66.999 -37.3311 66.999 -63.998c0 -8.66699 -4 -25 -12 -49l-192 -555c-1.33301 -4.66699 -3.66602 -10.334 -6.99902 -17.001s-12.166 -15.5 -26.499 -26.5s-31.333 -16.5 -51 -16.5s-36.667 5.5 -51 16.5s-23.833 21.833 -28.5 32.5l-117 345
l-113 -334c-1.33301 -4 -4.33301 -9.66699 -9 -17s-10 -14 -16 -20c-15.333 -15.333 -33.666 -23 -54.999 -23s-38.833 5 -52.5 15s-22.834 20 -27.501 30l-7 15l-193 555c-7.33301 22 -11 38.333 -11 49c0 26.667 22.333 47.667 67 63c19.333 6.66699 36.833 10 52.5 10
s27.667 -5.33301 36 -16s15.833 -27 22.5 -49l110 -334l109 329c9.33301 28 26.333 47.333 51 58c10.667 4.66699 24.5 7 41.5 7s32.833 -5.5 47.5 -16.5s24 -21.833 28 -32.5l115 -347l110 336c5.33301 15.333 9.66602 26.666 12.999 33.999s9.5 14.5 18.5 21.5
s20.167 10.5 33.5 10.5s29 -3.33301 47 -10z" />
    <glyph glyph-name="X" unicode="X" horiz-adv-x="741" 
d="M491 371l201.001 -221.003c22.667 -25.333 34 -46.666 34 -63.999s-12.833 -37.666 -38.5 -60.999s-47.334 -35 -65.001 -35s-38.167 13.333 -61.5 40l-190 218l-190 -218c-24 -26.667 -44.5 -40 -61.5 -40s-38.667 11.833 -65 35.5s-39.5 43.834 -39.5 60.501
s11.667 38 35 64l201 221l-201 221c-23.333 24.667 -35 45.667 -35 63s13 37.833 39 61.5s47.833 35.5 65.5 35.5s38.167 -13.333 61.5 -40l190 -218l190 218c24 26.667 44.5 40 61.5 40s38.5 -11.667 64.5 -35s39 -44 39 -62s-11.333 -39 -34 -63z" />
    <glyph glyph-name="Y" unicode="Y" horiz-adv-x="686" 
d="M622 719c32.667 -22.667 49.001 -44.667 49.001 -66c0 -12.667 -7.66699 -30.334 -23 -53.001l-216 -323v-191c0 -15.333 -0.5 -26.833 -1.5 -34.5s-4.16699 -16.5 -9.5 -26.5s-14.333 -17 -27 -21s-29.667 -6 -51 -6s-38.333 2 -51 6s-21.667 11.167 -27 21.5
s-8.5 19.333 -9.5 27s-1.5 19.5 -1.5 35.5v189l-216 323c-15.333 22.667 -23 40.334 -23 53.001c0 21.333 14.667 41.833 44 61.5s50.333 29.5 63 29.5s22.667 -2.66699 30 -8c11.333 -7.33301 23.333 -21 36 -41l155 -248l155 248c12.667 20 23.667 33.167 33 39.5
s20.166 9.5 32.499 9.5s31.833 -8.33301 58.5 -25z" />
    <glyph glyph-name="Z" unicode="Z" horiz-adv-x="643" 
d="M531 171c26 0 44.834 -3.16699 56.501 -9.5s19.667 -15.5 24 -27.5s6.5 -27.333 6.5 -46s-1.66699 -33.667 -5 -45s-7.33301 -20 -12 -26s-11.667 -10.333 -21 -13c-10.667 -4 -27.667 -6 -51 -6h-416c-15.333 0 -30 4 -44 12c-29.333 16.667 -44 43 -44 79
c0 17.333 4 31.333 12 42l310 429h-230c-16 0 -27.833 0.5 -35.5 1.5s-16.834 3.83301 -27.501 8.5c-19.333 9.33301 -29 34.333 -29 75c0 42.667 9 68.667 27 78c10 5.33301 18.833 8.5 26.5 9.5s19.5 1.5 35.5 1.5h402c15.333 0 30 -4 44 -12s24.833 -18.667 32.5 -32
s11.5 -29 11.5 -47s-4 -32.333 -12 -43l-310 -429h249z" />
    <glyph glyph-name="bracketleft" unicode="[" horiz-adv-x="348" 
d="M202 -82h74.001c16.667 0 29 -2.66699 37 -8c13.333 -8 20 -29.667 20 -65c0 -34 -6 -54.667 -18 -62c-10 -6 -23.333 -9 -40 -9h-154c-38.667 0 -62.334 8.66699 -71.001 26c-6.66699 14 -10 34.333 -10 61v826c0 26 2.83301 44.833 8.5 56.5s14.5 19.5 26.5 23.5
s27.667 6 47 6h154c16.667 0 29 -2.33301 37 -7c13.333 -8.66699 20 -30.667 20 -66c0 -34 -6 -54.667 -18 -62c-10 -6 -23.333 -9 -40 -9h-73v-711z" />
    <glyph glyph-name="backslash" unicode="\" horiz-adv-x="528" 
d="M351 -8l-323 672.998c-8.66699 18 -13 32 -13 42c0 21.333 18.667 41 56 59c23.333 10.667 40.166 16 50.499 16s18.166 -1.16699 23.499 -3.5s10.333 -6.16602 15 -11.499c4.66699 -6.66699 11 -17.667 19 -33l320 -668c9.33301 -24.667 14 -42.167 14 -52.5
s-4 -19.5 -12 -27.5s-22.833 -17 -44.5 -27s-39.167 -15 -52.5 -15s-23.666 3.83301 -30.999 11.5s-14.666 19.834 -21.999 36.501z" />
    <glyph glyph-name="bracketright" unicode="]" horiz-adv-x="348" 
d="M226 773c39.333 0 63.334 -8.99902 72.001 -26.999c6.66699 -13.333 10 -33 10 -59v-826c0 -26.667 -2.83301 -45.834 -8.5 -57.501s-14.334 -19.5 -26.001 -23.5s-27.167 -6 -46.5 -6h-154c-30.667 0 -48.667 10 -54 30c-2.66699 10.667 -4 24.5 -4 41.5
s1.33301 30.833 4 41.5s7 18 13 22c10 6 23.333 9 40 9h74v711h-73c-30.667 0 -48.667 10.333 -54 31c-2.66699 10 -4 23.5 -4 40.5s1.33301 30.833 4 41.5s7 18 13 22c10 6 23.333 9 40 9h154z" />
    <glyph glyph-name="asciicircum" unicode="^" horiz-adv-x="526" 
d="M215 519c15.333 16.667 29.333 24.999 42 24.999h11c13.333 0 28 -8.33301 44 -25l147 -148c10.667 -10 17.667 -17.5 21 -22.5s5 -10 5 -15s-1 -11.833 -3 -20.5s-10.667 -20.667 -26 -36s-27.333 -24 -36 -26s-15.667 -3 -21 -3c-8 0 -20.333 8.33301 -37 25l-99 99
l-98 -99c-10 -10 -17.333 -16.667 -22 -20s-9.66699 -5 -15 -5s-12.5 1 -21.5 3s-21.167 10.667 -36.5 26s-24 27.333 -26 36s-3 15.334 -3 20.001c0 9.33301 8.66699 22 26 38z" />
    <glyph glyph-name="underscore" unicode="_" horiz-adv-x="826" 
d="M76 -228c-32 0 -50.666 9.66699 -55.999 29c-3.33301 10 -5 23.333 -5 40s1.5 30 4.5 40s7.83301 17 14.5 21c11.333 5.33301 25.666 8 42.999 8h673c32 0 50.667 -10 56 -30c3.33301 -10 5 -23.167 5 -39.5s-1.5 -29.5 -4.5 -39.5s-7.83301 -17 -14.5 -21
c-10 -5.33301 -24.333 -8 -43 -8h-673z" />
    <glyph glyph-name="grave" unicode="`" horiz-adv-x="482" 
d="M356 576c-4 -4 -9.83398 -6 -17.501 -6s-18.5 2 -32.5 6l-165 52c-17.333 6 -29 12.333 -35 19s-9 15 -9 25s2.66699 24 8 42c11.333 34 24.333 53 39 57c5.33301 1.33301 9.33301 2 12 2c6.66699 0 31.334 -6.66699 74.001 -20l99 -31
c23.333 -7.33301 37.333 -12 42 -14c14.667 -7.33301 22 -18 22 -32s-2.66699 -29 -8 -45s-10.5 -28.167 -15.5 -36.5s-9.5 -14.5 -13.5 -18.5z" />
    <glyph glyph-name="a" unicode="a" horiz-adv-x="596" 
d="M382 471c4 37.333 30.3311 55.999 78.998 55.999c26 0 45.333 -2 58 -6s21.5 -11 26.5 -21s8 -18.833 9 -26.5s1.5 -19.167 1.5 -34.5v-350c0 -15.333 -0.5 -26.833 -1.5 -34.5s-3.83301 -16.5 -8.5 -26.5c-9.33301 -17.333 -32.166 -26 -68.499 -26
s-60.666 4.5 -72.999 13.5s-19.5 22.167 -21.5 39.5c-24.667 -35.333 -65.834 -53 -123.501 -53s-111.167 26.333 -160.5 79s-74 113.834 -74 183.501s24.833 130.667 74.5 183s104.167 78.5 163.5 78.5c22.667 0 43.334 -4 62.001 -12s31.667 -15.5 39 -22.5
s13.333 -13.833 18 -20.5zM225.998 203.499c17.333 -17.667 38.332 -26.501 62.999 -26.501s45.167 9 61.5 27s24.5 37.833 24.5 59.5s-7.83301 41.834 -23.5 60.501s-36.667 28 -63 28s-47.666 -9.33301 -63.999 -28s-24.5 -39 -24.5 -61s8.66699 -41.833 26 -59.5z" />
    <glyph glyph-name="b" unicode="b" horiz-adv-x="592" 
d="M329 526c59.333 0 113.833 -26.332 163.5 -78.999s74.5 -113.834 74.5 -183.501s-24.667 -130.667 -74 -183s-102.333 -78.5 -159 -78.5s-97 16 -121 48c-5.33301 -32.667 -34 -49 -86 -49c-42 0 -67.667 9 -77 27c-4.66699 10 -7.5 18.833 -8.5 26.5
s-1.5 19.167 -1.5 34.5v597c0 15.333 0.5 26.833 1.5 34.5s3.83301 16.167 8.5 25.5c9.33301 18 35.333 27 78 27c42 0 67.333 -9 76 -27c5.33301 -10 8.5 -18.833 9.5 -26.5s1.5 -19.167 1.5 -34.5v-208c26.667 32.667 64.667 49 114 49zM303 176.001
c24.667 0 45.668 9.00098 63.001 27.001s26 38 26 60s-8 42.167 -24 60.5s-37.333 27.5 -64 27.5s-47.834 -9.33301 -63.501 -28s-23.5 -38.834 -23.5 -60.501s8.16699 -41.5 24.5 -59.5s36.833 -27 61.5 -27z" />
    <glyph glyph-name="c" unicode="c" horiz-adv-x="517" 
d="M233 197.5c18.667 -15.667 38.5 -23.501 59.5 -23.501s40.667 6.16699 59 18.5s33.166 18.5 44.499 18.5c20 0 44.333 -17.667 73 -53c15.333 -19.333 23 -36.666 23 -51.999c0 -25.333 -18.333 -49 -55 -71c-38 -26.667 -84.667 -40 -140 -40
c-62 0 -121.667 22.333 -179 67c-27.333 21.333 -49.666 49.833 -66.999 85.5s-26 75 -26 118s8.66699 82 26 117s39.666 63.167 66.999 84.5c55.333 44 114.333 66 177 66c25.333 0 50 -3.5 74 -10.5s41.667 -13.833 53 -20.5l16 -10l28 -19
c17.333 -13.333 26 -28.5 26 -45.5s-7 -36.167 -21 -57.5c-24 -36.667 -47 -55 -69 -55c-12.667 0 -30.667 7.33301 -54 22c-12 11.333 -29.167 17 -51.5 17s-43.166 -8 -62.499 -24s-29 -38.167 -29 -66.5s9.33301 -50.333 28 -66z" />
    <glyph glyph-name="d" unicode="d" horiz-adv-x="598" 
d="M420 767c12.667 4 29.5 5.99805 50.5 5.99805s37.833 -2 50.5 -6s21.5 -11 26.5 -21s8 -18.833 9 -26.5s1.5 -19.167 1.5 -34.5v-597c0 -15.333 -0.5 -26.833 -1.5 -34.5s-4.16699 -16.167 -9.5 -25.5c-10 -18 -38.167 -27 -84.5 -27s-72.166 16.333 -77.499 49
c-28 -32 -67 -48 -117 -48c-60 0 -114.667 26.167 -164 78.5s-74 113.333 -74 183s24.833 130.834 74.5 183.501s104.167 79 163.5 79c49.333 0 87.666 -16.667 114.999 -50v210c0 15.333 0.5 26.833 1.5 34.5s4 16.334 9 26.001s13.833 16.5 26.5 20.5zM294 175.998
c24.667 0 45.168 8.99902 61.501 26.999s24.5 37.833 24.5 59.5s-7.83301 41.834 -23.5 60.501s-36.834 28 -63.501 28s-48 -9.16699 -64 -27.5s-24 -38.5 -24 -60.5s8.66699 -42 26 -60s38.333 -27 63 -27z" />
    <glyph glyph-name="e" unicode="e" horiz-adv-x="573" 
d="M517.5 235.5c-20.333 -19.667 -42.833 -29.499 -67.5 -29.499h-237c0 -18.667 11 -34.334 33 -47.001s44 -19 66 -19c38.667 0 69 4 91 12l11 4c16 7.33301 29.333 11 40 11c21.333 0 39.666 -15 54.999 -45c8.66699 -18 13 -33.333 13 -46c0 -59.333 -71 -89 -213 -89
c-49.333 0 -93.166 8.5 -131.499 25.5s-68.166 39.5 -89.499 67.5c-42 54 -63 114.333 -63 181c0 84 27.167 151.167 81.5 201.5s122.166 75.5 203.499 75.5c92.667 0 160.667 -32.667 204 -98c22.667 -34.667 34 -72.5 34 -113.5s-10.167 -71.333 -30.5 -91zM337 297.001
c25.333 0 38.001 10.668 38.001 32.001c0 15.333 -5.83301 27.666 -17.5 36.999s-28.334 14 -50.001 14s-43.167 -8.83301 -64.5 -26.5s-32 -36.5 -32 -56.5h126z" />
    <glyph glyph-name="f" unicode="f" horiz-adv-x="450" 
d="M348 526c46 0 72.9971 -12.667 80.9971 -38c4 -12.667 6 -29.334 6 -50.001s-2.16699 -37.167 -6.5 -49.5s-11.166 -21.166 -20.499 -26.499c-14 -8 -34.333 -12 -61 -12l-64 4v-268c0 -25.333 -3.16699 -44.166 -9.5 -56.499s-16 -20.5 -29 -24.5s-29.833 -6 -50.5 -6
s-37.167 2.16699 -49.5 6.5s-21.166 11.333 -26.499 21s-8.5 18.5 -9.5 26.5s-1.5 19.667 -1.5 35v265h-36c-17.333 1.33301 -29.666 5.33301 -36.999 12c-12.667 12.667 -19 37 -19 73c0 54.667 19.667 82 59 82h33v53c0 51.333 18.333 97.833 55 139.5
s89.667 62.5 159 62.5c15.333 0 26.833 -0.5 34.5 -1.5s16.5 -4.16699 26.5 -9.5c18 -8.66699 27 -34.334 27 -77.001c0 -32 -5.66699 -55 -17 -69c-9.33301 -10.667 -24 -16.667 -44 -18h-28c-24.667 0 -37 -8.33301 -37 -25v-55z" />
    <glyph glyph-name="g" unicode="g" horiz-adv-x="585" 
d="M374 66c-25.333 -33.333 -65.6689 -50.002 -121.002 -50.002s-107.166 25.5 -155.499 76.5s-72.5 110.5 -72.5 178.5s24.333 127.667 73 179s102 77 160 77c22.667 0 43.334 -4.16699 62.001 -12.5s31.5 -16 38.5 -23s12.5 -13.5 16.5 -19.5
c2 18.667 8.83301 32.834 20.5 42.501s30.5 14.5 56.5 14.5s45 -2 57 -6s20.5 -10.833 25.5 -20.5s8 -18.167 9 -25.5s1.5 -18.666 1.5 -33.999v-414c0 -76.667 -26.667 -138.5 -80 -185.5s-113.333 -70.5 -180 -70.5c-50.667 0 -99 12.333 -145 37s-69 47 -69 67
c0 26 10 49 30 69c12.667 14 22.5 23.667 29.5 29s15.167 8 24.5 8s19 -4 29 -12c32 -24.667 66.667 -37 104 -37c25.333 0 46 10 62 30s24 44 24 72v30zM221.497 211.998c17 -17.333 37.667 -26 62 -26s44.5 8.83301 60.5 26.5s24 37 24 58s-7.66699 40.667 -23 59
s-36 27.5 -62 27.5s-47 -9 -63 -27s-24 -37.833 -24 -59.5s8.5 -41.167 25.5 -58.5z" />
    <glyph glyph-name="h" unicode="h" horiz-adv-x="605" 
d="M332 525c66.667 0 122.169 -25.332 166.502 -75.999s66.5 -112.667 66.5 -186v-176c0 -15.333 -0.5 -26.833 -1.5 -34.5s-4.16699 -16.5 -9.5 -26.5c-8.66699 -17.333 -34.334 -26 -77.001 -26c-40.667 0 -66 8.66699 -76 26c-5.33301 10 -8.5 19 -9.5 27
s-1.5 20 -1.5 36v175c0 27.333 -7.66699 48.666 -23 63.999s-34.833 23 -58.5 23s-44.5 -7.16699 -62.5 -21.5s-28.333 -30.5 -31 -48.5v-194c0 -15.333 -0.5 -26.833 -1.5 -34.5s-4.16699 -16.5 -9.5 -26.5c-8.66699 -17.333 -34.334 -26 -77.001 -26
c-42 0 -67.667 9 -77 27c-4.66699 10 -7.5 18.667 -8.5 26s-1.5 19 -1.5 35v598c0 15.333 0.5 26.833 1.5 34.5s3.83301 16.167 8.5 25.5c9.33301 18 35.333 27 78 27c42 0 67.333 -9 76 -27c5.33301 -10 8.5 -18.833 9.5 -26.5s1.5 -19.167 1.5 -34.5v-221
c33.333 40.667 72.333 61 117 61z" />
    <glyph glyph-name="i" unicode="i" horiz-adv-x="255" 
d="M40 439c0 15.333 0.500977 26.833 1.50098 34.5s3.83301 16.5 8.5 26.5c9.33301 17.333 35.333 26 78 26c32 0 54.667 -5.66699 68 -17c11.333 -9.33301 17.333 -23.666 18 -42.999c0.666992 -6.66699 1 -16.334 1 -29.001v-350c0 -15.333 -0.5 -26.833 -1.5 -34.5
s-4.16699 -16.5 -9.5 -26.5c-8.66699 -17.333 -34.334 -26 -77.001 -26c-42 0 -67.667 9 -77 27c-4.66699 10 -7.5 18.667 -8.5 26s-1.5 19 -1.5 35v351zM178.001 604c-12.667 -4 -29.5 -5.99902 -50.5 -5.99902s-37.833 2 -50.5 6s-21.5 11 -26.5 21s-8 18.833 -9 26.5
s-1.5 19.167 -1.5 34.5s0.5 26.833 1.5 34.5s3.83301 16.167 8.5 25.5c9.33301 18 35.333 27 78 27c42 0 67.333 -9 76 -27c5.33301 -10 8.5 -18.833 9.5 -26.5s1.5 -19.167 1.5 -34.5s-0.5 -26.833 -1.5 -34.5s-4 -16.334 -9 -26.001s-13.833 -16.5 -26.5 -20.5z" />
    <glyph glyph-name="j" unicode="j" horiz-adv-x="252" 
d="M125 600c-20.667 0 -37.001 2 -49.001 6s-20.5 10.833 -25.5 20.5s-8 18.334 -9 26.001s-1.5 19.167 -1.5 34.5s0.5 26.666 1.5 33.999s3.83301 15.666 8.5 24.999c9.33301 17.333 35 26 77 26c40 0 65 -8.66699 75 -26c4.66699 -8.66699 7.5 -16.667 8.5 -24
s1.5 -18.333 1.5 -33v-6c0 -14.667 -0.5 -25.667 -1.5 -33s-4.16699 -15.666 -9.5 -24.999s-14.166 -15.833 -26.499 -19.5s-28.833 -5.5 -49.5 -5.5zM126.999 530c20.667 0 37 -1.99805 49 -5.99805s20.5 -10.833 25.5 -20.5s8 -18.334 9 -26.001s1.5 -19.167 1.5 -34.5
v-412c0 -78 -27 -140.333 -81 -187s-113.333 -70 -178 -70c-15.333 0 -26.666 0.5 -33.999 1.5s-15.666 3.83301 -24.999 8.5c-17.333 9.33301 -26 33.666 -26 72.999s7.16699 64 21.5 74s33.666 15 57.999 15s45.833 6.66699 64.5 20s28 37.333 28 72v412
c0 23.333 3.16699 40.5 9.5 51.5s15.666 18.5 27.999 22.5s28.833 6 49.5 6z" />
    <glyph glyph-name="k" unicode="k" horiz-adv-x="536" 
d="M350 264l133 -110.001c16.667 -14 27.167 -24.667 31.5 -32s6.5 -14.333 6.5 -21c0 -16 -10.333 -37.667 -31 -65c-22.667 -28 -42.667 -42 -60 -42c-14.667 0 -35 9.66699 -61 29l-10 7c-15.333 12.667 -39 34.834 -71 66.501s-56.333 54.167 -73 67.5v-77
c0 -15.333 -0.5 -26.833 -1.5 -34.5s-4.16699 -16.5 -9.5 -26.5c-8.66699 -17.333 -34.334 -26 -77.001 -26c-42 0 -67.667 9 -77 27c-4.66699 10 -7.5 18.833 -8.5 26.5s-1.5 19.167 -1.5 34.5v599c0 15.333 0.5 26.833 1.5 34.5s3.83301 16.5 8.5 26.5
c9.33301 18 35.333 27 78 27c32 0 54.667 -5.66699 68 -17c11.333 -9.33301 17.333 -24 18 -44c0.666992 -6 1 -15.333 1 -28v-317c12 10 30.167 27 54.5 51s42.5 41 54.5 51l12 8c23.333 18 43.333 27 60 27s35.834 -13.5 57.501 -40.5s32.5 -48.167 32.5 -63.5
s-12.333 -33.333 -37 -54z" />
    <glyph glyph-name="l" unicode="l" horiz-adv-x="327" 
d="M40 687c0 15.333 0.496094 26.834 1.49609 34.501s3.83301 16.5 8.5 26.5c9.33301 18 35.333 27 78 27c40.667 0 66 -9 76 -27c5.33301 -10 8.5 -19 9.5 -27s1.5 -19.667 1.5 -35v-463c0 -24 2 -39.167 6 -45.5s12.833 -9.5 26.5 -9.5s22.834 -0.5 27.501 -1.5
s10.334 -3.83301 17.001 -8.5c13.333 -8.66699 20 -32.334 20 -71.001c0 -42 -6.66699 -67.667 -20 -77c-17.333 -12 -58.666 -14 -123.999 -6c-51.333 6.66699 -84.666 23.667 -99.999 51c-18.667 32.667 -28 84.667 -28 156v476z" />
    <glyph glyph-name="m" unicode="m" horiz-adv-x="851" 
d="M212 457c31.333 47.333 69.002 71 113.002 71c68 0 118.667 -29 152 -87c7.33301 10 16.166 20.5 26.499 31.5s26.833 23 49.5 36s46 19.5 70 19.5c53.333 0 98 -20.5 134 -61.5s54 -108.833 54 -203.5v-175c0 -15.333 -0.5 -26.833 -1.5 -34.5
s-4.16699 -16.5 -9.5 -26.5c-8.66699 -18 -34.334 -27 -77.001 -27c-42 -0 -67.667 9.33301 -77 28c-4.66699 10 -7.5 18.833 -8.5 26.5s-1.5 19.167 -1.5 34.5v175c0 58 -20.667 87 -62 87c-23.333 0 -39.166 -7.66699 -47.499 -23s-12.5 -37 -12.5 -65v-175
c0 -16 -0.5 -27.667 -1.5 -35s-4.16699 -16 -9.5 -26c-9.33301 -18 -35.333 -27 -78 -27c-42 -0 -67.667 9.33301 -77 28c-4.66699 10 -7.5 18.833 -8.5 26.5s-1.5 19.167 -1.5 34.5v175c0 58 -20.667 87 -62 87c-40 0 -60 -29 -60 -87v-177
c0 -15.333 -0.5 -26.833 -1.5 -34.5s-4.16699 -16.5 -9.5 -26.5c-10 -17.333 -36 -26 -78 -26s-67.667 9 -77 27c-4.66699 10 -7.5 18.667 -8.5 26s-1.5 19 -1.5 35v352c0 15.333 0.5 26.833 1.5 34.5s4.16699 16.167 9.5 25.5c10 18 33.667 27 71 27s61.666 -6 72.999 -18
s17 -29.333 17 -52z" />
    <glyph glyph-name="n" unicode="n" horiz-adv-x="606" 
d="M333 527c66.667 0 122.166 -25.501 166.499 -76.501s66.5 -113.167 66.5 -186.5v-176c0 -15.333 -0.5 -26.833 -1.5 -34.5s-3.83301 -16.167 -8.5 -25.5c-9.33301 -18 -35.333 -27 -78 -27c-47.333 0 -74.666 12.333 -81.999 37c-4 11.333 -6 28.333 -6 51v176
c0 27.333 -7.83301 48.666 -23.5 63.999s-36.667 23 -63 23s-47.666 -8 -63.999 -24s-24.5 -37 -24.5 -63v-177c0 -15.333 -0.5 -26.833 -1.5 -34.5s-4.16699 -16.167 -9.5 -25.5c-8.66699 -18 -34.334 -27 -77.001 -27c-42 0 -67.667 9 -77 27
c-4.66699 10 -7.5 18.833 -8.5 26.5s-1.5 19.167 -1.5 34.5v354c0 14.667 0.5 25.834 1.5 33.501s4.16699 16.167 9.5 25.5c9.33301 16.667 35 25 77 25c40.667 0 65.667 -7.66699 75 -23c6.66699 -11.333 10 -25 10 -41c2.66699 4.66699 8.66699 11.334 18 20.001
s18.333 15.667 27 21c22.667 15.333 47.667 23 75 23z" />
    <glyph glyph-name="o" unicode="o" horiz-adv-x="600" 
d="M109 461c56 52 119.999 78.001 191.999 78.001s135.667 -25.833 191 -77.5s83 -117.5 83 -197.5c0 -55.333 -14.333 -104.5 -43 -147.5s-63.5 -74.667 -104.5 -95s-83.5 -30.5 -127.5 -30.5s-86.667 10.833 -128 32.5s-76.166 53.667 -104.499 96
s-42.5 90.166 -42.5 143.499c0 80 28 146 84 198zM298.999 167.001c22 0 44 8.33105 66 24.998s33 41.334 33 74.001s-10.333 57 -31 73s-43 24 -67 24s-46.333 -8.33301 -67 -25s-31 -41.167 -31 -73.5s10.667 -56.666 32 -72.999s43 -24.5 65 -24.5z" />
    <glyph glyph-name="p" unicode="p" horiz-adv-x="582" 
d="M40 -143l0.00390625 584.003c0 15.333 0.5 26.666 1.5 33.999s3.83301 15.666 8.5 24.999c9.33301 18 31.666 27 66.999 27s59.166 -4.5 71.499 -13.5s19.5 -22.167 21.5 -39.5c25.333 34.667 65.166 52 119.499 52s105.833 -25.667 154.5 -77s73 -111 73 -179
s-24.167 -127.667 -72.5 -179s-99.833 -77 -154.5 -77s-94.334 15.333 -119.001 46v-202c0 -15.333 -0.5 -26.666 -1.5 -33.999s-4 -15.833 -9 -25.5s-13.5 -16.5 -25.5 -20.5s-28.333 -6 -49 -6s-37.167 2 -49.5 6s-21 10.667 -26 20s-8 17.666 -9 24.999
s-1.5 18.666 -1.5 33.999zM215.004 269.003c0 -21.333 7.83301 -40.833 23.5 -58.5s35.667 -26.5 60 -26.5s45 8.66699 62 26s25.5 37 25.5 59s-8 41.833 -24 59.5s-36.833 26.5 -62.5 26.5s-46.167 -9 -61.5 -27s-23 -37.667 -23 -59z" />
    <glyph glyph-name="q" unicode="q" horiz-adv-x="582" 
d="M372 474c4 35.333 30.002 52.998 78.002 52.998c25.333 0 44 -2 56 -6s20.5 -10.833 25.5 -20.5s8 -18.167 9 -25.5s1.5 -18.666 1.5 -33.999v-584c0 -15.333 -0.5 -26.666 -1.5 -33.999s-4 -15.666 -9 -24.999s-13.667 -16 -26 -20s-28.833 -6 -49.5 -6s-37 2 -49 6
s-20.5 10.833 -25.5 20.5s-8 18.167 -9 25.5s-1.5 18.666 -1.5 33.999v202c-26.667 -30.667 -64.334 -46 -113.001 -46c-59.333 0 -113 25.667 -161 77s-72 111 -72 179s24.333 127.667 73 179s100.167 77 154.5 77s94.166 -17.333 119.499 -52zM283.002 183.998
c24 0 44 8.83301 60 26.5s24 37 24 58s-7.66699 40.667 -23 59s-35.833 27.5 -61.5 27.5s-46.5 -8.83301 -62.5 -26.5s-24 -37.5 -24 -59.5s8.5 -41.667 25.5 -59s37.5 -26 61.5 -26z" />
    <glyph glyph-name="r" unicode="r" horiz-adv-x="457" 
d="M429.5 500.5c8.33301 -9.66699 12.498 -25.168 12.498 -46.501s-6.33301 -44.666 -19 -69.999s-31 -38 -55 -38c-12 0 -23.5 2.66699 -34.5 8s-25.5 8 -43.5 8s-34.833 -6.33301 -50.5 -19s-23.5 -28 -23.5 -46v-210c0 -15.333 -0.5 -26.833 -1.5 -34.5
s-4.16699 -16.5 -9.5 -26.5c-10 -17.333 -36 -26 -78 -26c-32 0 -55 5.66699 -69 17c-10.667 9.33301 -16.667 23.666 -18 42.999v29v351c0 15.333 0.5 26.833 1.5 34.5s3.83301 16.167 8.5 25.5c9.33301 18 35.333 27 78 27c40 0 65 -7.66699 75 -23
c7.33301 -10.667 11 -21.667 11 -33c3.33301 4.66699 8.16602 10.334 14.499 17.001s19.833 15.667 40.5 27s38.834 17 54.501 17s28.834 -0.833008 39.501 -2.5s22.334 -4.5 35.001 -8.5s23.167 -10.833 31.5 -20.5z" />
    <glyph glyph-name="s" unicode="s" horiz-adv-x="489" 
d="M44 47c-12.667 8 -19 20.6689 -19 38.002s12.667 43.666 38 78.999c7.33301 11.333 19.166 17 35.499 17s38.5 -8.16699 66.5 -24.5s53.333 -24.5 76 -24.5c40.667 0 61 8 61 24c0 12.667 -22.333 22 -67 28c-42 6 -83.667 21.667 -125 47
c-19.333 12 -35.333 30.833 -48 56.5s-19 56.167 -19 91.5c0 105.333 72.333 158 217 158c47.333 0 96 -11.333 146 -34c23.333 -10.667 35 -24 35 -40s-7.33301 -35.667 -22 -59s-29.667 -35 -45 -35c-8 0 -22.833 5 -44.5 15s-45.167 15 -70.5 15
c-39.333 0 -59 -7.33301 -59 -22c0 -20 22.667 -33 68 -39c44 -4.66699 86.667 -17.334 128 -38.001c19.333 -9.33301 35.5 -25.5 48.5 -48.5s19.5 -51.833 19.5 -86.5s-6.5 -64.167 -19.5 -88.5s-31.167 -42.5 -54.5 -54.5c-42.667 -20.667 -96.167 -31 -160.5 -31
s-126.166 18.667 -185.499 56z" />
    <glyph glyph-name="t" unicode="t" horiz-adv-x="449" 
d="M346 350l-64.998 4.00488v-138c0 -18 2.83301 -31 8.5 -39s16.334 -12 32.001 -12s27.667 -0.5 36 -1.5s17.166 -4.16699 26.499 -9.5c15.333 -8.66699 23 -31 23 -67c0 -42 -9.33301 -67.667 -28 -77c-10 -4.66699 -18.833 -7.5 -26.5 -8.5s-18.834 -1.5 -33.501 -1.5
c-69.333 0 -122 15.667 -158 47s-54 84.333 -54 159v148c-12.667 -2 -26.334 -3 -41.001 -3s-26.834 5.66699 -36.501 17s-14.5 30.666 -14.5 57.999s1.66699 47.166 5 59.499s8 21.166 14 26.499c10.667 8.66699 24 13 40 13l33 -4v103c0 15.333 0.5 26.666 1.5 33.999
s4.16699 15.333 9.5 24c8.66699 16.667 34.334 25 77.001 25c45.333 0 72.333 -12.333 81 -37c3.33301 -10.667 5 -27.667 5 -51v-98c29.333 2.66699 51.5 4 66.5 4s26.333 -0.5 34 -1.5s16.5 -4.16699 26.5 -9.5c17.333 -8.66699 26 -34.334 26 -77.001
c0 -42 -9 -67.667 -27 -77c-10 -4.66699 -18.833 -7.5 -26.5 -8.5s-19.167 -1.5 -34.5 -1.5z" />
    <glyph glyph-name="u" unicode="u" horiz-adv-x="606" 
d="M274 2c-67.333 0 -123.166 25.501 -167.499 76.501s-66.5 113.167 -66.5 186.5v175c0 16 0.5 27.667 1.5 35s3.83301 16 8.5 26c9.33301 18 35.333 27 78 27c46.667 0 74 -12.667 82 -38c4 -10.667 6 -27.667 6 -51v-175c0 -27.333 7.83301 -48.666 23.5 -63.999
s36.667 -23 63 -23s47.666 8 63.999 24s24.5 37 24.5 63v177c0 15.333 0.5 26.833 1.5 34.5s4.16699 16.5 9.5 26.5c8.66699 17.333 34.334 26 77.001 26c42 0 67.667 -9 77 -27c4.66699 -10 7.5 -18.833 8.5 -26.5s1.5 -19.167 1.5 -34.5v-354
c0 -14.667 -0.5 -25.834 -1.5 -33.501s-4.16699 -16.167 -9.5 -25.5c-10 -17.333 -35.667 -26 -77 -26c-40.667 0 -65.667 8 -75 24c-6.66699 11.333 -10 25 -10 41c-2.66699 -4.66699 -8.66699 -11.334 -18 -20.001s-18.333 -16 -27 -22
c-22.667 -14.667 -47.334 -22 -74.001 -22z" />
    <glyph glyph-name="v" unicode="v" horiz-adv-x="638" 
d="M571 515c34.667 -20.667 52.0029 -42.6699 52.0029 -66.0029c0 -13.333 -6.66699 -31.666 -20 -54.999l-207 -355c-6.66699 -11.333 -17.334 -21.5 -32.001 -30.5s-29.167 -13.5 -43.5 -13.5s-28 3.5 -41 10.5s-22.167 14.167 -27.5 21.5l-9 11l-208 356
c-13.333 22 -20 40 -20 54c0 24 17.333 46.333 52 67c25.333 14.667 45.333 22 60 22s26.167 -4.5 34.5 -13.5s17.166 -22.5 26.499 -40.5l131 -252l131 252c7.33301 12.667 12.833 21.834 16.5 27.501s9.5 11.334 17.5 17.001s18.667 8.5 32 8.5s31.666 -7 54.999 -21z" />
    <glyph glyph-name="w" unicode="w" horiz-adv-x="793" 
d="M714 523c42.667 -18.667 64.0029 -41.665 64.0029 -68.998c0 -11.333 -5.33301 -29.5 -16 -54.5l-27 -65.5l-110 -268c-10 -29.333 -26.667 -50 -50 -62c-10 -4.66699 -22.667 -7 -38 -7s-30.166 5.83301 -44.499 17.5s-23.833 23.5 -28.5 35.5l-8 17
c-5.33301 13.333 -25 65.333 -59 156c-6.66699 -16 -16.5 -42.167 -29.5 -78.5s-21.333 -59 -25 -68s-6 -15 -7 -18s-3.83301 -8.5 -8.5 -16.5s-10 -15 -16 -21c-16 -16 -34.333 -24 -55 -24s-38 5.83301 -52 17.5s-23.333 23.5 -28 35.5l-151 368
c-6.66699 20 -10 33 -10 39c0 26.667 19 47.667 57 63c21.333 8.66699 38.666 13 51.999 13s24.166 -2.83301 32.499 -8.5s14.166 -11.334 17.499 -17.001s6 -11.5 8 -17.5c11.333 -26.667 35 -89.334 71 -188.001l59 162c4 13.333 11.333 25 22 35
c19.333 19.333 39 29 59 29s37.167 -5.33301 51.5 -16s24.166 -21.334 29.499 -32.001l8 -17c33.333 -93.333 53 -146.666 59 -159.999l61 166c16 42.667 40 64 72 64c12.667 0 26 -3.33301 40 -10z" />
    <glyph glyph-name="x" unicode="x" horiz-adv-x="567" 
d="M405 264l111 -112c24 -24 36 -44.5 36 -61.5s-12 -37.333 -36 -61s-44.333 -35.5 -61 -35.5s-37 12 -61 36l-110 111l-111 -111c-24 -24 -44.167 -36 -60.5 -36s-36.666 11.833 -60.999 35.5s-36.5 44 -36.5 61s12 37.5 36 61.5l111 112l-111 112
c-24 24 -36 44.5 -36 61.5s12.167 37.5 36.5 61.5s44.666 36 60.999 36s36.5 -12 60.5 -36l111 -112l110 112c24 24 44.333 36 61 36s37 -12 61 -36s36 -44.5 36 -61.5s-12 -37.5 -36 -61.5z" />
    <glyph glyph-name="y" unicode="y" horiz-adv-x="604" 
d="M530 521c39.333 -17.333 58.999 -38.333 58.999 -63c0 -12 -2.66699 -23.333 -8 -34s-8 -16.334 -8 -17.001l-262 -586c-5.33301 -12.667 -9.83301 -22.334 -13.5 -29.001s-9.5 -13 -17.5 -19s-18 -9 -30 -9s-29.667 5 -53 15c-39.333 17.333 -59 38 -59 62
c0 16 32 92.333 96 229l-199 335c-13.333 22 -20 38.333 -20 49c0 21.333 18 42.666 54 63.999c22.667 13.333 40.334 20 53.001 20s23 -2.66699 31 -8s13.833 -10.833 17.5 -16.5s22 -36.667 55 -93l94.5 -157.5c3.33301 10.667 21.333 51.834 54 123.501
s50.167 109.834 52.5 114.501s6.16602 10.334 11.499 17.001c8.66699 11.333 20.834 17 36.501 17s34.167 -4.66699 55.5 -14z" />
    <glyph glyph-name="z" unicode="z" horiz-adv-x="586" 
d="M303 176l170.999 0.000976562c26.667 0 45.834 -3.33301 57.501 -10s19.5 -16.334 23.5 -29.001s6 -29.334 6 -50.001s-2 -37.334 -6 -50.001s-11 -21.5 -21 -26.5s-18.833 -8 -26.5 -9s-19.167 -1.5 -34.5 -1.5h-361c-23.333 0 -43.666 8.66699 -60.999 26
s-26 38 -26 62s8.66699 44.5 26 61.5s44 41.5 80 73.5l98 86.5c29.333 25.667 45.333 39.834 48 42.501h-141c-38 0 -62 6.33301 -72 19c-11.333 14.667 -17 34 -17 58s1.66699 41.833 5 53.5s7.33301 20.334 12 26.001s11.334 10.167 20.001 13.5
c11.333 3.33301 28.666 5 51.999 5h325c23.333 0 43.666 -8.33301 60.999 -25s26 -37.5 26 -62.5s-10 -47.167 -30 -66.5s-91.667 -85 -215 -197z" />
    <glyph glyph-name="braceleft" unicode="{" horiz-adv-x="381" 
d="M130 -28l1.00195 92.998c0 42.667 -0.666992 72 -2 88c0 32 -20 48 -60 48h-6c-22.667 0 -37 10.333 -43 31c-3.33301 10.667 -5 24.334 -5 41.001s1.5 30.334 4.5 41.001s7.16699 18 12.5 22c8.66699 6 18.667 9 30 9h4c42 0 63 16.333 63 49c0.666992 122 1 190 1 204
c0 51.333 15.5 93.333 46.5 126s69.833 49 116.5 49c22 0 38 -2.5 48 -7.5s16.667 -12.667 20 -23s5 -23.833 5 -40.5s-1.66699 -30.167 -5 -40.5s-9 -17.5 -17 -21.5c-12.667 -7.33301 -29.334 -11 -50.001 -11c-13.333 0 -20 -13 -20 -39v-170
c0 -29.333 -5 -56.333 -15 -81s-19.667 -42 -29 -52l-15 -15c4 -2 10.167 -8 18.5 -18s15.166 -20.667 20.499 -32c13.333 -30 19.833 -72 19.5 -126s-0.5 -97 -0.5 -129v-24c0 -8 1.66699 -14.333 5 -19c4.66699 -4.66699 11.5 -7 20.5 -7s16.667 -0.5 23 -1.5
s13.833 -3.5 22.5 -7.5c14.667 -7.33301 22 -28 22 -62c0 -34.667 -7.66699 -55.667 -23 -63c-12 -6 -28.333 -9 -49 -9c-46.667 0 -85.667 16.667 -117 50s-47 76.333 -47 129v19z" />
    <glyph glyph-name="bar" unicode="|" horiz-adv-x="217" 
d="M40 687c0 45.333 9.66699 72.001 29 80.001c10 4 23.167 6 39.5 6s29.5 -2 39.5 -6s17 -11 21 -21c5.33301 -12.667 8 -32.667 8 -60v-832c0 -45.333 -9.66699 -72 -29 -80c-10 -4 -23.167 -6 -39.5 -6s-29.5 2 -39.5 6s-17 11 -21 21
c-5.33301 13.333 -8 33.666 -8 60.999v831z" />
    <glyph glyph-name="braceright" unicode="}" horiz-adv-x="381" 
d="M249 65l1.00098 -92.9941v-19c0 -52.667 -15.667 -95.667 -47 -129s-70.333 -50 -117 -50c-37.333 0 -59.333 10 -66 30c-3.33301 10.667 -5 24.667 -5 42s1.66699 31 5 41s9 17 17 21c12 6 23.833 9 35.5 9s18.5 0.166992 20.5 0.5s4.83301 2.66602 8.5 6.99902
s5.5 10.5 5.5 18.5v24l-1 146c0 36.667 5 68.167 15 94.5s20 43.833 30 52.5l15 12c-4.66699 4 -10.334 9.66699 -17.001 17s-15.5 23.666 -26.5 48.999s-16.5 52.666 -16.5 81.999l1 170c0 22 -3.66699 34.667 -11 38c-2.66699 0.666992 -8.16699 1 -16.5 1
s-15.666 0.666992 -21.999 2s-13.333 4.16602 -21 8.49902s-13.167 11.666 -16.5 21.999s-5 23.833 -5 40.5s1.66699 30.167 5 40.5s8.66602 17.5 15.999 21.5c12 6 29 9 51 9c46.667 0 85.5 -16.333 116.5 -49s46.5 -74.667 46.5 -126l1 -204c0 -32.667 21 -49 63 -49h4
c23.333 0 38 -10.333 44 -31c2.66699 -10.667 4 -25.5 4 -44.5s-3 -34.333 -9 -46s-12 -18.334 -18 -20.001s-13.333 -2.5 -22 -2.5h-6c-40 0 -60 -16 -60 -48c-1.33301 -16 -2 -45.333 -2 -88z" />
    <glyph glyph-name="asciitilde" unicode="~" horiz-adv-x="651" 
d="M526 360c31.333 -21.333 46.999 -41.0039 46.999 -59.0039c0 -10 -3.33301 -20.5 -10 -31.5l-14 -23c-2.66699 -4.33301 -9 -12.166 -19 -23.499s-21 -21.333 -33 -30s-28.167 -16.5 -48.5 -23.5s-42.666 -10.5 -66.999 -10.5s-46.333 5.16699 -66 15.5
s-36 20.833 -49 31.5s-23.333 16 -31 16s-14.167 -1.33301 -19.5 -4c-8.66699 -4.66699 -13 -8.66699 -13 -12c-20.667 -32 -39.834 -48 -57.501 -48s-38.167 9.83301 -61.5 29.5s-35 35.834 -35 48.501c0 10.667 4.83301 23.834 14.5 39.501s19.5 29 29.5 40
s21 20.5 33 28.5c32 22.667 70 34 114 34c20 0 38.5 -3.16699 55.5 -9.5s29.833 -13.166 38.5 -20.499c22.667 -20.667 39 -31 49 -31c16.667 0 27.667 3.66699 33 11l3 4c20.667 30.667 39.334 46 56.001 46s33.667 -6 51 -18z" />
    <glyph glyph-name="exclamdown" unicode="&#xa1;" horiz-adv-x="268" 
d="M59.5 342c-13 13.333 -19.5 38.666 -19.5 75.999c0 38.667 7.33301 63.334 22 74.001c16 12 41.167 18 75.5 18s58 -6.66699 71 -20s19.5 -38.333 19.5 -75c0 -39.333 -7.33301 -64.333 -22 -75c-16 -12 -41.167 -18 -75.5 -18s-58 6.66699 -71 20zM135 245
c21.333 0 38.333 -1.66406 51 -4.99707s21.5 -9.33301 26.5 -18s8 -16.334 9 -23.001s1.5 -17 1.5 -31v-317c0 -14 -0.5 -24.5 -1.5 -31.5s-4.16699 -14.833 -9.5 -23.5s-14.5 -14.834 -27.5 -18.501s-30.167 -5.5 -51.5 -5.5s-38.333 1.83301 -51 5.5s-21.5 10 -26.5 19
s-8 17 -9 24s-1.5 17.5 -1.5 31.5v317c0 14 0.5 24.333 1.5 31s4.16699 14.167 9.5 22.5s14.5 14.166 27.5 17.499s30.167 5 51.5 5z" />
    <glyph glyph-name="cent" unicode="&#xa2;" horiz-adv-x="434" 
d="M196.5 231.5c15.667 -13 32.167 -19.501 49.5 -19.501s33 5 47 15s26.333 15 37 15c16.667 0 36.667 -14.333 60 -43c12.667 -15.333 19 -29.666 19 -42.999c0 -20.667 -15 -40 -45 -58c-16 -11.333 -36.667 -20 -62 -26v-80c0 -22.667 -2 -38.834 -6 -48.501
s-10.167 -16.167 -18.5 -19.5s-19.5 -5 -33.5 -5s-25.167 1.66699 -33.5 5s-14.166 9.33301 -17.499 18c-4.66699 11.333 -7 28.333 -7 51v81c-45.333 14 -83.5 39.333 -114.5 76s-46.5 82.167 -46.5 136.5s15.667 99.833 47 136.5s69.333 61.667 114 75v95
c0 39.333 8 62.333 24 69c8.66699 3.33301 20 5 34 5s25.167 -1.66699 33.5 -5s14.166 -9.33301 17.499 -18c4.66699 -11.333 7 -28.666 7 -51.999v-92c27.333 -6.66699 55.333 -20.667 84 -42c14.667 -10 22 -22.167 22 -36.5s-5.66699 -30.5 -17 -48.5
c-19.333 -30 -38.333 -45 -57 -45c-10.667 0 -25 6 -43 18c-10.667 9.33301 -25.167 14 -43.5 14s-35.333 -6.5 -51 -19.5s-23.5 -31.167 -23.5 -54.5s7.83301 -41.5 23.5 -54.5z" />
    <glyph glyph-name="sterling" unicode="&#xa3;" horiz-adv-x="675" 
d="M298 163l280 -0.00292969c24.667 0 42.667 -2.83301 54 -8.5s18.833 -14.5 22.5 -26.5s5.5 -27.667 5.5 -47s-2 -34.833 -6 -46.5s-10.667 -19.834 -20 -24.501c-12.667 -6.66699 -31.667 -10 -57 -10h-416c-21.333 0 -40.166 6.66699 -56.499 20s-24.5 34 -24.5 62
c0 16 5.33301 30.667 16 44s21.5 29 32.5 47s16.5 40.667 16.5 68c0 9.33301 -3 26 -9 50h-60c-32.667 0 -51.667 9.66699 -57 29c-2.66699 10 -4 22.833 -4 38.5s1.5 28.334 4.5 38.001s8.5 16.5 16.5 20.5c10 5.33301 25.667 8 47 8h23
c-0.666992 6.66699 -1 16.334 -1 29.001c0 50.667 10.5 97.834 31.5 141.501s55 77.834 102 102.501s97.833 37 152.5 37c72.667 0 135 -17.667 187 -53c14.667 -10 23.334 -16.667 26.001 -20l10 -9c18 -22 27 -42.5 27 -61.5s-9.83301 -37.333 -29.5 -55
s-39.834 -26.5 -60.501 -26.5s-38.334 9.33301 -53.001 28c-6 8 -19.333 15.667 -40 23s-41.667 11 -63 11c-48.667 0 -82.167 -11.833 -100.5 -35.5s-27.5 -50.5 -27.5 -80.5v-10c0 -10 1 -17 3 -21h101c19.333 0 33.333 -2.33301 42 -7c14 -8 21 -28.333 21 -61
c0 -30.667 -6.33301 -49.667 -19 -57c-10 -6 -24.333 -9 -43 -9h-69c4 -20 6 -40 6 -60s-3.66699 -42.667 -11 -68z" />
    <glyph glyph-name="currency" unicode="&#xa4;" horiz-adv-x="677" 
d="M572 191c4.66699 -2.66699 14.999 -13.668 30.999 -33.001c32.667 -39.333 49 -67.5 49 -84.5s-11.167 -32.667 -33.5 -47s-40.5 -21.5 -54.5 -21.5s-28.667 13.667 -44 41c-2.66699 2.66699 -8.33398 11.334 -17.001 26.001c-10 20 -63.667 30 -161 30h-20
c-85.333 0 -134.666 -9.66699 -147.999 -29l-16 -28c-10 -17.333 -18.5 -28.333 -25.5 -33s-15.167 -7 -24.5 -7s-23.333 5 -42 15c-27.333 15.333 -41 32.333 -41 51c0 11.333 5.33301 25.333 16 42c22 38.667 44 65 66 79c-40.667 48.667 -61 113.667 -61 195
s20.333 147 61 197c-7.33301 4.66699 -18.333 15 -33 31s-26 32.5 -34 49.5s-12 30.167 -12 39.5c0 18 10.667 33.833 32 47.5s36.833 20.5 46.5 20.5s17.667 -2.33301 24 -7s11 -9.16699 14 -13.5s6.83301 -10.5 11.5 -18.5l14 -23
c4.66699 -7.33301 9.33398 -12.666 14.001 -15.999s20.334 -7.5 47.001 -12.5s61.667 -7.5 105 -7.5h12c94 0 146 10 156 30l15 25c10.667 17.333 19.667 28.333 27 33s15.666 7 24.999 7s23 -5 41 -15c26 -15.333 39 -32.333 39 -51c0 -10.667 -5 -24.667 -15 -42
c-22 -37.333 -44 -63.333 -66 -78c40.667 -48.667 61 -113.834 61 -195.501s-19.667 -147.167 -59 -196.5zM332.999 243.999c48 0 84.834 10.167 110.501 30.5s38.5 57.333 38.5 111s-12.333 91.167 -37 112.5s-60.334 32 -107.001 32s-82 -10.833 -106 -32.5
s-36 -58.167 -36 -109.5c0 -96 45.667 -144 137 -144z" />
    <glyph glyph-name="yen" unicode="&#xa5;" horiz-adv-x="677" 
d="M527.5 729.5c7.66699 5 17.9951 7.50293 30.9951 7.50293s33.5 -9.66699 61.5 -29s42 -39.333 42 -60c0 -13.333 -8.33301 -32.666 -25 -57.999l-154 -229h15c30 0 48.333 -3 55 -9c12 -10.667 18 -24.167 18 -40.5s-1.66699 -28.333 -5 -36
s-8.66602 -12.834 -15.999 -15.501c-11.333 -4.66699 -27.666 -7 -48.999 -7h-74v-66h71c30 0 48.333 -3 55 -9c12 -10.667 18 -24 18 -40s-1.66699 -27.833 -5 -35.5s-8.66602 -13.167 -15.999 -16.5c-11.333 -4 -27.666 -6 -48.999 -6h-74
c0 -40.667 -13.667 -65.334 -41 -74.001c-12 -3.33301 -27.833 -5 -47.5 -5s-35.667 1.83301 -48 5.5s-21.166 9.5 -26.499 17.5c-8.66699 14 -13 32.667 -13 56h-75c-14.667 0 -26 0.666992 -34 2s-15.833 6.16602 -23.5 14.499s-11.5 20.833 -11.5 37.5
s4.33301 29.167 13 37.5s17 13 25 14s20 1.5 36 1.5h70v66h-75c-14.667 0 -26 0.666992 -34 2s-15.833 6.16602 -23.5 14.499s-11.5 19.833 -11.5 34.5s2 26 6 34s10.333 13.333 19 16c12.667 4.66699 29 7 49 7h14l-157 234c-15.333 23.333 -23 40.666 -23 51.999
c0 20.667 14.333 40.834 43 60.501s49.334 29.5 62.001 29.5s22.834 -2.5 30.501 -7.5s13.667 -10.333 18 -16s10.166 -13.834 17.499 -24.501l153 -245l153 245c7.33301 10.667 13.166 18.834 17.499 24.501s10.333 11 18 16z" />
    <glyph glyph-name="brokenbar" unicode="&#xa6;" horiz-adv-x="215" 
d="M70 226c10 4 22.833 5.99805 38.5 5.99805s28.5 -2.16699 38.5 -6.5s16.667 -10.833 20 -19.5c5.33301 -13.333 8 -26.333 8 -39v-305c0 -26.667 -2.33301 -45.5 -7 -56.5s-12 -18.5 -22 -22.5s-23 -6 -39 -6s-28.833 2 -38.5 6s-16.5 11 -20.5 21
c-5.33301 12.667 -8 32.334 -8 59.001v304c0 30.667 10 50.334 30 59.001zM108 772.998c16 0 28.833 -1.99902 38.5 -5.99902s16.5 -11 20.5 -21c5.33301 -12.667 8 -32.334 8 -59.001v-304c0 -30 -9.66699 -49 -29 -57c-10 -4.66699 -22.833 -7 -38.5 -7
s-28.5 2.16699 -38.5 6.5s-17 10.5 -21 18.5c-5.33301 12.667 -8 25.667 -8 39v305c0 44.667 10 71 30 79c9.33301 4 22 6 38 6z" />
    <glyph glyph-name="section" unicode="&#xa7;" horiz-adv-x="560" 
d="M490 140c30 -32 45 -76.3301 45 -132.997c0 -40.667 -8.33301 -76.834 -25 -108.501s-38 -55.834 -64 -72.501c-53.333 -34.667 -109 -52 -167 -52c-60 0 -110.333 12.667 -151 38c-33.333 21.333 -56.666 41 -69.999 59l-8 11c-16.667 20.667 -25 37.667 -25 51
c0 20.667 13.667 43.667 41 69c16 15.333 32.833 23 50.5 23s39.834 -13.333 66.501 -40l8 -8c8.66699 -11.333 21.5 -21.833 38.5 -31.5s32.5 -14.5 46.5 -14.5c59.333 0 89 24.333 89 73c0 23.333 -21.667 41 -65 53c-19.333 5.33301 -40.5 10.833 -63.5 16.5
s-46.167 13.334 -69.5 23.001s-44.666 21.834 -63.999 36.501s-35 35.167 -47 61.5s-18 57.166 -18 92.499c0 51.333 16.333 95.666 49 132.999c-32.667 34 -49 79.5 -49 136.5s20.833 106.5 62.5 148.5s98.5 63 170.5 63c38 0 72.833 -5 104.5 -15
s53.834 -19.667 66.501 -29l23 -19c20 -18.667 30 -34.167 30 -46.5s-8 -29.833 -24 -52.5c-22 -32.667 -44.333 -49 -67 -49c-19.333 0 -39.333 9.66699 -60 29c-17.333 16.667 -42 25 -74 25c-15.333 0 -29.833 -4.83301 -43.5 -14.5s-20.5 -23.334 -20.5 -41.001
s8.16699 -32 24.5 -43s36.666 -18.333 60.999 -22s50.666 -9.5 78.999 -17.5s54.666 -17.833 78.999 -29.5s44.666 -31.5 60.999 -59.5s24.5 -66 24.5 -114s-15 -91.333 -45 -130zM328 211.003c24.667 11.333 37 32.666 37 63.999c0 18 -10.667 31.667 -32 41
c-22.667 8.66699 -47 16.334 -73 23.001c-14 -2 -26.5 -7.66699 -37.5 -17s-16.5 -23.333 -16.5 -42c0 -34.667 40.667 -57.667 122 -69z" />
    <glyph glyph-name="dieresis" unicode="&#xa8;" horiz-adv-x="489" 
d="M129 595c-21.333 0 -38.333 2.00195 -51 6.00195s-21.667 11.167 -27 21.5s-8.5 19.333 -9.5 27s-1.33301 19.667 -1 36s1 28 2 35s4 15.5 9 25.5s14 17 27 21s30.167 6 51.5 6s38.333 -2 51 -6s21.667 -11.167 27 -21.5s8.5 -19.333 9.5 -27s1.5 -19.334 1.5 -35.001
s-0.5 -27.334 -1.5 -35.001s-4.16699 -16.5 -9.5 -26.5s-14.5 -17 -27.5 -21s-30.167 -6 -51.5 -6zM399 595.002c-21.333 0 -38.333 2.00098 -51 6.00098s-21.667 11.167 -27 21.5s-8.5 19.333 -9.5 27s-1.5 19.5 -1.5 35.5s0.5 27.833 1.5 35.5s4.16699 16.334 9.5 26.001
s14.5 16.5 27.5 20.5s30.167 6 51.5 6s38.333 -2 51 -6s21.667 -11.167 27 -21.5s8.5 -19.333 9.5 -27s1.5 -19.334 1.5 -35.001s-0.5 -27.334 -1.5 -35.001s-4.16699 -16.5 -9.5 -26.5s-14.5 -17 -27.5 -21s-30.167 -6 -51.5 -6z" />
    <glyph glyph-name="copyright" unicode="&#xa9;" horiz-adv-x="711" 
d="M598 672c58.667 -56.667 88.001 -140.667 88.001 -252c0 -40 -5.33301 -81.5 -16 -124.5s-29.167 -79.167 -55.5 -108.5s-59.333 -51.833 -99 -67.5s-93.167 -23.5 -160.5 -23.5c-110.667 0 -190.667 24 -240 72c-60 58 -90 143.167 -90 255.5s28.167 194.333 84.5 246
s139.166 77.5 248.499 77.5s189.333 -25 240 -75zM535.001 228c42.667 36.667 63.999 99.332 63.999 187.999s-18.167 151.834 -54.5 189.501s-98 56.5 -185 56.5s-148.5 -16.333 -184.5 -49c-42 -38 -63 -101.667 -63 -191s18.833 -151.833 56.5 -187.5
s99.334 -53.5 185.001 -53.5s146.167 15.667 181.5 47zM425 486.998c-18.667 16 -39.999 24.001 -63.999 24.001s-45 -8.16699 -63 -24.5s-27 -38.5 -27 -66.5s9.33301 -50 28 -66s39.334 -24 62.001 -24c18.667 0 34.5 4.83301 47.5 14.5s23.667 14.5 32 14.5s14 -1 17 -3
s8.83301 -8 17.5 -18c12.667 -16.667 19 -31 19 -43v-4c-0.666992 -10.667 -7.33398 -20.334 -20.001 -29.001c-34 -24 -69.667 -36 -107 -36c-54.667 0 -101.834 18.167 -141.501 54.5s-59.5 85.5 -59.5 147.5c0 47.333 18.5 90.333 55.5 129s82.167 58 135.5 58
c48.667 0 88 -13 118 -39c13.333 -11.333 20 -20 20 -26c0 -22.667 -10 -42 -30 -58c-7.33301 -6 -14.5 -9 -21.5 -9s-13.167 1.33301 -18.5 4z" />
    <glyph glyph-name="ordfeminine" unicode="&#xaa;" horiz-adv-x="445" 
d="M280 673c4 26.667 23 39.999 57 39.999c33.333 0 53.666 -6.33301 60.999 -19c4.66699 -10 7 -24.667 7 -44v-250c0 -15.333 -0.666992 -26.5 -2 -33.5s-6.83301 -13.667 -16.5 -20s-24.5 -9.5 -44.5 -9.5c-37.333 0 -57.666 12.667 -60.999 38
c-16.667 -25.333 -46 -38 -88 -38s-80.5 19 -115.5 57s-52.5 81.833 -52.5 131.5s17.667 93.334 53 131.001s74.333 56.5 117 56.5c16 0 30.667 -3 44 -9c20 -8 33.667 -18.333 41 -31zM169 481.499c12.667 -12.333 27.833 -18.499 45.5 -18.499s32.167 6.5 43.5 19.5
s17 27.167 17 42.5s-5.5 29.666 -16.5 42.999s-26 20 -45 20s-34.333 -6.66699 -46 -20s-17.5 -28 -17.5 -44s6.33301 -30.167 19 -42.5z" />
    <glyph glyph-name="guillemotleft" unicode="&#xab;" horiz-adv-x="668" 
d="M311 147l12.501 -11.999c7 -6.66699 11.833 -11.667 14.5 -15c10 -10.667 15 -22.667 15 -36s-10.333 -30.333 -31 -51s-38.334 -31 -53.001 -31s-32.334 10.333 -53.001 31l-173 172c-18.667 18.667 -28 37.667 -28 57s9.33301 38.333 28 57l175 174
c19.333 19.333 36.5 29 51.5 29s32.667 -10.167 53 -30.5s30.5 -38.5 30.5 -54.5c0 -11.333 -3.16699 -20.5 -9.5 -27.5s-12.666 -13.333 -18.999 -19s-10.5 -9.83398 -12.5 -12.501l-116 -116zM610.001 147.001l12.502 -11.999l15.5 -15c9.33301 -10.667 14 -22.667 14 -36
s-10.333 -30.333 -31 -51s-38.334 -31 -53.001 -31s-32.334 10.333 -53.001 31l-173 172c-18.667 20 -28 39.667 -28 59s9.33301 37.666 28 54.999l175 174c19.333 19.333 36.5 29 51.5 29s32.833 -10.333 53.5 -31s31 -38.667 31 -54c0 -12 -3.33301 -21.333 -10 -28
l-19 -18.5l-13 -12.5l-116 -116z" />
    <glyph glyph-name="logicalnot" unicode="&#xac;" horiz-adv-x="526" 
d="M473 436c16.667 -4 27.167 -10.999 31.5 -20.999s6.5 -24 6.5 -42v-182c0 -34 -9.66699 -54.333 -29 -61c-10 -3.33301 -23 -5 -39 -5s-28.833 1.83301 -38.5 5.5s-16.5 9.5 -20.5 17.5c-5.33301 13.333 -8 29 -8 47v73h-294c-34 0 -54.667 12.333 -62 37
c-3.33301 12.667 -5 29.167 -5 49.5s1.83301 36.666 5.5 48.999s9.66699 21 18 26s15.333 8 21 9s14.167 1.5 25.5 1.5h354c16 0 27.333 -1.33301 34 -4z" />
    <glyph glyph-name="registered" unicode="&#xae;" horiz-adv-x="711" 
d="M477 383l28.002 -65.5c2.66699 -6.33301 5.5 -12.5 8.5 -18.5s4.5 -13.167 4.5 -21.5s-6.16699 -17.666 -18.5 -27.999s-27 -15.5 -44 -15.5s-28.833 8.33301 -35.5 25c-8.66699 17.333 -20.334 44 -35.001 80c-6.66699 -0.666992 -16.334 -1 -29.001 -1h-30v-51
c0 -10.667 -0.666992 -18.834 -2 -24.501s-6 -11.167 -14 -16.5s-19.833 -8 -35.5 -8s-27.5 2.83301 -35.5 8.5s-12.5 11.167 -13.5 16.5s-1.5 13.333 -1.5 24v289c0 14 3.83301 24.5 11.5 31.5s24.167 10.5 49.5 10.5h83c38.667 0 72.667 -12.5 102 -37.5
s44 -57.5 44 -97.5s-12.333 -73.333 -37 -100zM399.002 450.5c8 6.33301 12.167 15.333 12.5 27s-3.66699 21 -12 28s-18.5 10.5 -30.5 10.5h-43v-75h45c10.667 0 20 3.16699 28 9.5zM598.002 672c58.667 -56.667 88.001 -140.667 88.001 -252
c0 -40 -5.33301 -81.5 -16 -124.5s-29.167 -79.167 -55.5 -108.5s-59.333 -51.833 -99 -67.5s-93.167 -23.5 -160.5 -23.5c-110.667 0 -190.667 24 -240 72c-60 58 -90 143.167 -90 255.5s28.167 194.333 84.5 246s139.166 77.5 248.499 77.5s189.333 -25 240 -75z
M175.003 613c-42 -38 -62.999 -101.668 -62.999 -191.001s18.833 -151.833 56.5 -187.5s99.167 -53.5 184.5 -53.5s147.666 18.5 186.999 55.5s59 98.333 59 184s-18.167 147.334 -54.5 185.001s-98 56.5 -185 56.5s-148.5 -16.333 -184.5 -49z" />
    <glyph glyph-name="degree" unicode="&#xb0;" horiz-adv-x="407" 
d="M79.5 716.5c36.333 34.333 77.833 51.501 124.5 51.501s88 -17 124 -51s54 -77.667 54 -131s-18.5 -96.5 -55.5 -129.5s-78 -49.5 -123 -49.5s-86 16.833 -123 50.5s-55.5 76.667 -55.5 129s18.167 95.666 54.5 129.999zM203 523.001
c14.667 0 28.998 5.33105 42.998 15.998s21 26.834 21 48.501s-6.66699 37.834 -20 48.501s-27.666 16 -42.999 16s-29.833 -5.5 -43.5 -16.5s-20.5 -27.167 -20.5 -48.5s6.83301 -37.333 20.5 -48s27.834 -16 42.501 -16z" />
    <glyph glyph-name="plusminus" unicode="&#xb1;" horiz-adv-x="505" 
d="M405 432c22.667 0 39.1689 -2.66699 49.502 -8s17.166 -13.5 20.499 -24.5s5 -25.5 5 -43.5s-1.66699 -32.333 -5 -43s-9 -18 -17 -22c-11.333 -6 -22.833 -9 -34.5 -9h-19.5h-76v-30c0 -22.667 -2.66699 -39.167 -8 -49.5s-13.5 -17.166 -24.5 -20.499
s-25.5 -5 -43.5 -5s-32.333 1.83301 -43 5.5s-18.334 9.5 -23.001 17.5c-6 12.667 -9 30.334 -9 53.001v29h-77c-28.667 0 -47.334 3.33301 -56.001 10c-12.667 11.333 -19 29.5 -19 54.5s1.83301 42.833 5.5 53.5s9.5 18 17.5 22c12.667 6.66699 30.334 10 53.001 10h76v36
c0 22.667 2.66699 39.167 8 49.5s13.5 17.166 24.5 20.499s25.5 5 43.5 5s32.333 -1.83301 43 -5.5s18 -9.5 22 -17.5c6.66699 -12.667 10 -30.334 10 -53.001v-35h77zM396.002 1l-288.001 0.000976562c-35.333 0 -56.666 9.66699 -63.999 29
c-3.33301 9.33301 -5 22.166 -5 38.499s1.83301 29.5 5.5 39.5s9.5 16.667 17.5 20c13.333 6 29 9 47 9h288c35.333 0 56.333 -9.66699 63 -29c4 -10 6 -23.167 6 -39.5s-1.66699 -29.5 -5 -39.5s-9 -17 -17 -21c-10.667 -4.66699 -26.667 -7 -48 -7z" />
    <glyph glyph-name="twosuperior" unicode="&#xb2;" horiz-adv-x="455" 
d="M291 362l90.002 -0.00390625c30.667 0 49 -10.667 55 -32c2.66699 -10.667 4 -24.667 4 -42s-1.5 -31.166 -4.5 -41.499s-7.83301 -17.5 -14.5 -21.5c-10 -6 -23.333 -9 -40 -9h-273c-19.333 0 -37.833 5.83301 -55.5 17.5s-26.5 31.334 -26.5 59.001
s8.5 51.834 25.5 72.501s37.667 38 62 52l73 41c24.333 13.333 45 29 62 47s25.5 37.667 25.5 59c0 10 -5.16699 19.5 -15.5 28.5s-22.5 13.5 -36.5 13.5s-25.333 -4.66699 -34 -14c-10.667 -12 -16 -27.5 -16 -46.5s-4.83301 -34.5 -14.5 -46.5s-31.167 -18 -64.5 -18
c-32.667 0 -52.334 8.33301 -59.001 25c-6 12.667 -9 28 -9 46c0 52.667 18.5 99 55.5 139s84 60 141 60s104.5 -19.333 142.5 -58s57 -86 57 -142c0 -25.333 -5.33301 -49.5 -16 -72.5s-24.334 -42.5 -41.001 -58.5c-28 -27.333 -52.333 -46.666 -73 -57.999z" />
    <glyph glyph-name="threesuperior" unicode="&#xb3;" horiz-adv-x="457" 
d="M376 494c37.333 -27.333 56.001 -63.832 56.001 -109.499s-18.333 -86.5 -55 -122.5s-87.334 -54 -152.001 -54c-26.667 0 -51.167 3.66699 -73.5 11s-39.833 16.333 -52.5 27c-28 23.333 -45.333 42.666 -52 57.999l-5 11c-11.333 22.667 -17 44.334 -17 65.001
c0 34 26.333 51 79 51c32 0 52 -9.66699 60 -29c8.66699 -30 21.334 -48.667 38.001 -56c7.33301 -4 17.333 -6 30 -6s23.667 3.33301 33 10c14 10.667 21 22.667 21 36v4c0 8.66699 -0.666992 15 -2 19s-6.5 8 -15.5 12s-20.5 6 -34.5 6s-23.5 0.333008 -28.5 1
s-10.833 2.66699 -17.5 6c-12 6 -18 23.667 -18 53c0 13.333 3.33301 23.666 10 30.999s13.167 11.5 19.5 12.5s14.833 1.5 25.5 1.5h4c30.667 0 46 15 46 45c0 11.333 -4.83301 20.666 -14.5 27.999s-20.334 11 -32.001 11s-21 -2 -28 -6s-11.833 -8 -14.5 -12
s-5.16699 -9.33301 -7.5 -16s-4.33301 -11.667 -6 -15s-3.83398 -6.66602 -6.50098 -9.99902c-7.33301 -9.33301 -20.166 -14 -38.499 -14s-37.833 8.33301 -58.5 25c-14.667 13.333 -22 30.5 -22 51.5s16.833 48.167 50.5 81.5s78.167 50 133.5 50
s100.833 -16.5 136.5 -49.5s53.5 -70.5 53.5 -112.5s-15 -73.667 -45 -95z" />
    <glyph glyph-name="acute" unicode="&#xb4;" horiz-adv-x="605" 
d="M238 576c-9.33301 -4.66699 -19.333 -7 -30 -7c-20 0 -36.333 19.667 -49 59c-5.33301 16 -8 29.667 -8 41s2.33301 20 7 26c6 8.66699 18 15.667 36 21l165 51c17.333 4.66699 27.333 7 30 7c20 0 36 -19.667 48 -59c5.33301 -16 8 -29.5 8 -40.5
s-2.33301 -19.5 -7 -25.5c-6 -8.66699 -18 -15.667 -36 -21z" />
    <glyph glyph-name="mu" unicode="&#xb5;" horiz-adv-x="601" 
d="M389 69c-24.667 -41.333 -57.668 -62.001 -99.001 -62.001c-22 0 -39.167 3.83301 -51.5 11.5s-20.5 12.167 -24.5 13.5v-166c0 -15.333 -0.5 -26.833 -1.5 -34.5s-4.16699 -16.167 -9.5 -25.5s-14.333 -16 -27 -20s-29.334 -6 -50.001 -6s-37.167 2 -49.5 6
s-21 10.833 -26 20.5s-8 18.334 -9 26.001s-1.5 19.167 -1.5 34.5v574c0 15.333 0.5 26.666 1.5 33.999s4 15.833 9 25.5s13.833 16.5 26.5 20.5s29.334 6 50.001 6s37.334 -2 50.001 -6s21.5 -10.833 26.5 -20.5s8 -18.334 9 -26.001s1.5 -19.167 1.5 -34.5v-174
c0 -27.333 7.66699 -48.5 23 -63.5s36.166 -22.5 62.499 -22.5s47.5 7.83301 63.5 23.5s24 36.834 24 63.501v174c0 15.333 0.5 26.833 1.5 34.5s4 16.334 9 26.001s13.833 16.5 26.5 20.5s29.334 6 50.001 6s37.334 -2 50.001 -6s21.5 -11 26.5 -21s8 -18.833 9 -26.5
s1.5 -19.167 1.5 -34.5v-347c0 -15.333 -0.5 -26.833 -1.5 -34.5s-4.16699 -16.167 -9.5 -25.5c-8.66699 -17.333 -34.334 -26 -77.001 -26c-39.333 0 -64 7.66699 -74 23c-6.66699 10.667 -10 23.667 -10 39z" />
    <glyph glyph-name="paragraph" unicode="&#xb6;" horiz-adv-x="614" 
d="M208 613l280 0.000976562c32.667 0 52.667 -9 60 -27c5.33301 -12.667 8 -32.667 8 -60v-672c0 -45.333 -9.66699 -72 -29 -80c-10 -4 -23.167 -6 -39.5 -6s-29.5 2 -39.5 6s-17 11 -21 21c-5.33301 13.333 -8 33.666 -8 60.999v656h-74v-658
c0 -45.333 -9.66699 -72 -29 -80c-10 -4 -23.167 -6 -39.5 -6s-29.5 2 -39.5 6s-17 11 -21 21c-5.33301 13.333 -8 33.666 -8 60.999v408c-72 0.666992 -119.667 14.834 -143 42.501s-35 71.5 -35 131.5c0 33.333 1.66699 59.333 5 78s10.833 36.167 22.5 52.5
s29.667 27.833 54 34.5s56.5 10 96.5 10z" />
    <glyph glyph-name="periodcentered" unicode="&#xb7;" horiz-adv-x="237" 
d="M195 381c11.333 -11.333 17.001 -34.666 17.001 -69.999v-4c0 -16 -0.5 -27.833 -1.5 -35.5s-4.5 -16.834 -10.5 -27.501c-10 -19.333 -35.167 -29 -75.5 -29s-67 6.33301 -80 19s-19.5 36.667 -19.5 72v4c0 15.333 0.5 27 1.5 35s4.16699 17 9.5 27
c10 20 35.167 30 75.5 30s68.166 -7 83.499 -21z" />
    <glyph glyph-name="cedilla" unicode="&#xb8;" horiz-adv-x="559" 
d="M260 30c26.667 0 52.002 -9.83105 76.002 -29.498s36 -47 36 -82s-13 -62.5 -39 -82.5c-20.667 -18.667 -43.667 -28 -69 -28s-45.833 5.33301 -61.5 16s-24.5 21 -26.5 31v4c0 10 3.66699 19 11 27c13.333 16 24.166 24 32.499 24s17.5 -3.66699 27.5 -11
c2.66699 -0.666992 5 -1.33398 7 -2.00098s5 -1 9 -1s8.5 1.83301 13.5 5.5s7.5 9.5 7.5 17.5s-2.66699 14 -8 18s-10.833 6 -16.5 6s-10.167 -1.66699 -13.5 -5c-10.667 -6.66699 -20.334 -10 -29.001 -10s-19 8.33301 -31 25c-6.66699 11.333 -9.66699 20.666 -9 27.999
c2 18 13.167 30.667 33.5 38s36.833 11 49.5 11z" />
    <glyph glyph-name="onesuperior" unicode="&#xb9;" horiz-adv-x="321" 
d="M208 745c48.667 0 72.999 -20.333 72.999 -61v-410c0 -30 -11 -48 -33 -54c-10.667 -2.66699 -24.667 -4 -42 -4s-31.166 1.66699 -41.499 5s-17.5 8.66602 -21.5 15.999c-6 11.333 -9 24.333 -9 39v233c-15.333 -10.667 -30.166 -16 -44.499 -16
s-30.333 8.16699 -48 24.5s-26.5 33.833 -26.5 52.5c0 14.667 5 26.667 15 36l11 12c74 66.667 112.333 101.334 115 104.001c15.333 15.333 32.666 23 51.999 23z" />
    <glyph glyph-name="ordmasculine" unicode="&#xba;" horiz-adv-x="439" 
d="M84.5 654c39.667 36.667 85 55 136 55s96 -18.333 135 -55s58.5 -83.667 58.5 -141s-20 -103.5 -60 -138.5s-84.5 -52.5 -133.5 -52.5s-93.833 18 -134.5 54s-61 82.167 -61 138.5s19.833 102.833 59.5 139.5zM173.5 463.5c15 -11.667 30.335 -17.498 46.002 -17.498
s31.167 5.83301 46.5 17.5s23 29.167 23 52.5s-7.33301 40.5 -22 51.5s-30.334 16.5 -47.001 16.5s-32.334 -5.83301 -47.001 -17.5s-22 -28.834 -22 -51.501s7.5 -39.834 22.5 -51.501z" />
    <glyph glyph-name="guillemotright" unicode="&#xbb;" horiz-adv-x="669" 
d="M358 147l115.002 115l-117 116c-1.33301 1.33301 -4.83301 4.5 -10.5 9.5s-9.5 8.5 -11.5 10.5l-9 11c-6.66699 8 -10 18.5 -10 31.5s10.333 29.833 31 50.5s38.5 31 53.5 31s32.833 -10.333 53.5 -31l172 -172c19.333 -19.333 29 -38.333 29 -57
s-9.66699 -37.667 -29 -57l-172 -172c-20.667 -20.667 -38.334 -31 -53.001 -31s-32.334 10.333 -53.001 31s-31 38.667 -31 54c0 11.333 3.16699 20.5 9.5 27.5s13 13.833 20 20.5zM58.002 147l115.998 115.001l-117 116c-2 2 -5 4.66699 -9 8
s-7.16699 6.16602 -9.5 8.49902s-5.16602 5.33301 -8.49902 9s-6 7.16699 -8 10.5c-4.66699 6.66699 -7 15.834 -7 27.501s10.5 28 31.5 49s39.167 31.5 54.5 31.5s32.666 -10.333 51.999 -31l173 -172c18.667 -18.667 28 -37.667 28 -57s-9.33301 -38.333 -28 -57
l-177 -176c-17.333 -17.333 -33.666 -26 -48.999 -26s-33.166 10.167 -53.499 30.5s-30.5 38.166 -30.5 53.499c0 11.333 3.16699 20.5 9.5 27.5s13 13.833 20 20.5z" />
    <glyph glyph-name="onequarter" unicode="&#xbc;" horiz-adv-x="786" 
d="M635.5 416.5c8.33301 2.33301 19.334 3.5 33.001 3.5s24.667 -1.33301 33 -4s14.166 -7 17.499 -13c4.66699 -8.66699 7 -20.667 7 -36v-319c0 -23.333 -8 -37.333 -24 -42c-8.66699 -2 -19.834 -3 -33.501 -3s-24.667 1.33301 -33 4s-14.166 6.33398 -17.499 11.001
c-4.66699 7.33301 -7 17.666 -7 30.999v68h-148c-14 0 -25.333 4.16699 -34 12.5s-13 19.666 -13 33.999s1.66699 28.833 5 43.5l42 169c6.66699 30 20 45 40 45c21.333 0 39.333 -4.16699 54 -12.5s22 -19.166 22 -32.499l-9 -48l-26 -101h67v142c0 16 2 27.333 6 34
s10.167 11.167 18.5 13.5zM511.001 761c8.66699 15.333 17.167 23 25.5 23s20.5 -4.33301 36.5 -13s24 -18 24 -28c0 -4.66699 -2.33301 -11 -7 -19l-387 -731l-2 -3c-7.33301 -13.333 -15 -20 -23 -20s-20 4.16699 -36 12.5s-24 16.5 -24 24.5s2.33301 16 7 24z
M145.001 396l0.00195312 186.002c-12.667 -8.66699 -24.667 -13 -36 -13s-24 6.5 -38 19.5s-21 26.5 -21 40.5s7 27 21 39c58.667 52.667 89 80 91 82c12 12 25.667 18 41 18c38 0 57 -16 57 -48v-324c0 -24 -8.33301 -38 -25 -42c-8.66699 -2.66699 -20.834 -4 -36.501 -4
s-27.834 2.66699 -36.501 8s-13.667 10.666 -15 15.999s-2 12.666 -2 21.999z" />
    <glyph glyph-name="onehalf" unicode="&#xbd;" horiz-adv-x="804" 
d="M626 116l71.0039 0.000976562c23.333 0 37.666 -8 42.999 -24c2.66699 -8.66699 4 -21 4 -37s-2.5 -28.333 -7.5 -37s-10.167 -13.667 -15.5 -15s-13.333 -2 -24 -2h-216c-15.333 0 -30 4.5 -44 13.5s-21 24.5 -21 46.5s6.66699 41.167 20 57.5
s29.666 30.166 48.999 41.499s38.666 22 57.999 32c46 24.667 69 52.667 69 84c0 8.66699 -4 16.334 -12 23.001s-17.5 10 -28.5 10s-19.833 -3.66699 -26.5 -11c-8.66699 -10 -13 -20.833 -13 -32.5s-1 -21 -3 -28s-7.83301 -13.333 -17.5 -19s-23.334 -8.5 -41.001 -8.5
s-30.667 3.5 -39 10.5s-13 13.667 -14 20s-1.5 15.166 -1.5 26.499c0 41.333 14.667 77.833 44 109.5s66.333 47.5 111 47.5s82 -15.333 112 -46s45 -68 45 -112c0 -41.333 -15 -76.333 -45 -105c-21.333 -20 -40.333 -35 -57 -45zM511.004 761.001
c8.66699 15.333 17.167 23 25.5 23s20.5 -4.33301 36.5 -13s24 -18 24 -28c0 -4.66699 -2.33301 -11 -7 -19l-387 -731l-2 -3c-7.33301 -13.333 -15 -20 -23 -20s-20 4.16699 -36 12.5s-24 16.5 -24 24.5s2.33301 16 7 24zM145.004 396.001l0.00195312 186.002
c-12.667 -8.66699 -24.667 -13 -36 -13s-24 6.5 -38 19.5s-21 26.5 -21 40.5s7 27 21 39c58.667 52.667 89 80 91 82c12 12 25.667 18 41 18c38 0 57 -16 57 -48v-324c0 -24 -8.33301 -38 -25 -42c-8.66699 -2.66699 -20.834 -4 -36.501 -4s-27.834 2.66699 -36.501 8
s-13.667 10.666 -15 15.999s-2 12.666 -2 21.999z" />
    <glyph glyph-name="threequarters" unicode="&#xbe;" horiz-adv-x="842" 
d="M328 565c29.333 -21.333 44 -50.0049 44 -86.0049s-14.5 -68.333 -43.5 -97s-69.167 -43 -120.5 -43s-93.333 18.333 -126 55c-6.66699 8 -13.667 19.667 -21 35s-11 30.666 -11 45.999c0 27.333 20.667 41 62 41c27.333 0 44 -9.66699 50 -29
c0.666992 -3.33301 1.5 -6.66602 2.5 -9.99902s3 -7.16602 6 -11.499s6.16699 -8.16602 9.5 -11.499c8.66699 -7.33301 19 -11 31 -11s22.667 3.5 32 10.5s14 14.833 14 23.5s-0.333008 14.334 -1 17.001s-2.33398 5.66699 -5.00098 9
c-5.33301 6.66699 -15.666 10 -30.999 10s-25 0.333008 -29 1s-8.33301 2.33398 -13 5.00098s-8 7.33398 -10 14.001s-3 15.334 -3 26.001s2.5 18.834 7.5 24.501s10 9 15 10s11.833 1.5 20.5 1.5h4c24 0 36 12 36 36c0 9.33301 -3.83301 16.666 -11.5 21.999
s-16.167 8 -25.5 8s-16.833 -1.5 -22.5 -4.5s-9.16699 -6.16699 -10.5 -9.5c-6 -11.333 -9 -18.333 -9 -21c-8.66699 -14.667 -20.834 -22 -36.501 -22s-30.5 6 -44.5 18s-21 26.167 -21 42.5s13.333 37.666 40 63.999s61.834 39.5 105.501 39.5s79.667 -13 108 -39
s42.5 -55.667 42.5 -89s-11.667 -58.333 -35 -75zM691 416.495c8.66699 2.33301 19.834 3.49902 33.501 3.49902s24.667 -1.33301 33 -4s14.166 -7 17.499 -13c4.66699 -8.66699 7 -20.667 7 -36v-319c0 -23.333 -8 -37.333 -24 -42c-8.66699 -2 -19.834 -3 -33.501 -3
s-24.667 1.33301 -33 4s-14.166 6.33398 -17.499 11.001c-4.66699 7.33301 -7 17.666 -7 30.999l-1 68h-147c-14 0 -25.333 4.16699 -34 12.5s-13 20.666 -13 36.999s1.66699 29.833 5 40.5l42 169c6.66699 30 20 45 40 45c21.333 0 39.333 -4.16699 54 -12.5
s22 -19.166 22 -32.499l-9 -48l-26 -101h66v141c0 16.667 2 28.334 6 35.001s10.333 11.167 19 13.5zM567 760.994c8.66699 15.333 17.167 23 25.5 23s20.5 -4.33301 36.5 -13s24 -18 24 -28c0 -4.66699 -2.33301 -11 -7 -19l-387 -731l-2 -3
c-7.33301 -13.333 -15 -20 -23 -20s-20 4.16699 -36 12.5s-24 16.5 -24 24.5s2.33301 16 7 24z" />
    <glyph glyph-name="questiondown" unicode="&#xbf;" horiz-adv-x="511" 
d="M430 29c44 -17.333 65.999 -36.999 65.999 -58.999c0 -13.333 -1.66699 -23.333 -5 -30s-5.33301 -11.167 -6 -13.5s-2.33398 -7 -5.00098 -14s-9.83398 -19.167 -21.501 -36.5s-25 -32.5 -40 -45.5s-36.167 -25 -63.5 -36s-57.666 -16.5 -90.999 -16.5
c-70.667 0 -128.167 22.667 -172.5 68s-66.5 98 -66.5 158c0 28.667 5.16699 55.167 15.5 79.5s22.833 43.5 37.5 57.5c29.333 28 56.666 46.333 81.999 55l16 6c0 12 0.5 20.833 1.5 26.5s4 12 9 19s13.333 12 25 15s27.167 4.5 46.5 4.5s34.666 -1.5 45.999 -4.5
s19.333 -8.5 24 -16.5c6.66699 -11.333 10 -28.666 10 -51.999v-8c0 -28.667 -8.16699 -51.334 -24.5 -68.001s-34.166 -27.834 -53.499 -33.501s-37.166 -14.667 -53.499 -27s-24.5 -29.333 -24.5 -51s6.16699 -38.5 18.5 -50.5s30.833 -18 55.5 -18s42.834 4 54.501 12
s18.834 16 21.501 24l3 11c5.33301 16.667 12 29.667 20 39s18.5 14 31.5 14s27.5 -3 43.5 -9zM313.499 350.001c-13.667 -4.66699 -34.999 -7.00098 -63.999 -7.00098s-50 6.33301 -63 19s-19.5 32.667 -19.5 60v16c0 16 0.5 27.833 1.5 35.5s4.16699 16.834 9.5 27.501
c10.667 19.333 36.167 29 76.5 29s67 -6.66699 80 -20s19.5 -38.333 19.5 -75c0 -26 -3.33301 -45.5 -10 -58.5s-16.834 -21.833 -30.501 -26.5z" />
    <glyph glyph-name="Agrave" unicode="&#xc0;" horiz-adv-x="765" 
d="M446 756c-6 0 -15.999 2.33398 -29.999 7.00098l-165 52c-18 5.33301 -29.667 11.666 -35 18.999s-8 16.5 -8 27.5s2.66699 24.5 8 40.5c12.667 39.333 29 59 49 59c2.66699 0 12.667 -2.33301 30 -7l165 -51c9.33301 -3.33301 16.666 -6.33301 21.999 -9
c14 -6.66699 21 -17.5 21 -32.5s-2.66699 -30.5 -8 -46.5c-12.667 -39.333 -29 -59 -49 -59zM463.001 681.001l270.002 -557.999c11.333 -22.667 17 -39.667 17 -51c0 -24 -19.333 -45.667 -58 -65c-22.667 -11.333 -40.5 -17 -53.5 -17s-23.667 3 -32 9
s-14.333 12.333 -18 19s-8.83398 16.667 -15.501 30l-52 108h-277l-52 -108c-6.66699 -13.333 -11.834 -23 -15.501 -29s-9.66699 -12.167 -18 -18.5s-19 -9.5 -32 -9.5s-30.833 5.66699 -53.5 17c-38.667 18.667 -58 40 -58 64c0 11.333 5.66699 28.333 17 51l270 559
c7.33301 15.333 18.5 27.666 33.5 36.999s30.833 14 47.5 14c36 0 62.667 -17.333 80 -52zM382.003 441.002l-66 -137h133z" />
    <glyph glyph-name="Aacute" unicode="&#xc1;" horiz-adv-x="765" 
d="M353 776l-30 -7c-20 0 -36.333 19.667 -49 59c-5.33301 16 -8 29.667 -8 41s2 20 6 26c6.66699 8.66699 19 15.667 37 21l165 51c17.333 4.66699 27.333 7 30 7c20 0 36 -19.667 48 -59c5.33301 -16 8 -29.5 8 -40.5s-2 -19.5 -6 -25.5
c-6.66699 -8.66699 -19 -15.667 -37 -21zM463 681l270.002 -557.999c11.333 -22.667 17 -39.667 17 -51c0 -24 -19.333 -45.667 -58 -65c-22.667 -11.333 -40.5 -17 -53.5 -17s-23.667 3 -32 9s-14.333 12.333 -18 19s-8.83398 16.667 -15.501 30l-52 108h-277l-52 -108
c-6.66699 -13.333 -11.834 -23 -15.501 -29s-9.66699 -12.167 -18 -18.5s-19 -9.5 -32 -9.5s-30.833 5.66699 -53.5 17c-38.667 18.667 -58 40 -58 64c0 11.333 5.66699 28.333 17 51l270 559c7.33301 15.333 18.5 27.666 33.5 36.999s30.833 14 47.5 14
c36 0 62.667 -17.333 80 -52zM382.002 441.001l-66 -137h133z" />
    <glyph glyph-name="Acircumflex" unicode="&#xc2;" horiz-adv-x="765" 
d="M384 974l23 -5.00098l134.5 -44c27.667 -9.33301 41.5 -25.666 41.5 -48.999c0 -12.667 -3.66699 -26 -11 -40c-17.333 -35.333 -37.333 -53 -60 -53c-6 0 -16.667 2.33301 -32 7l-96 42l-93 -40h-1c-13.333 -4.66699 -24.333 -7 -33 -7c-25.333 0 -46 17 -62 51
c-8 17.333 -12 31.333 -12 42c0 21.333 12.667 36.333 38 45l139 46zM463 680.999l270.002 -557.999c11.333 -22.667 17 -39.667 17 -51c0 -24 -19.333 -45.667 -58 -65c-22.667 -11.333 -40.5 -17 -53.5 -17s-23.667 3 -32 9s-14.333 12.333 -18 19
s-8.83398 16.667 -15.501 30l-52 108h-277l-52 -108c-6.66699 -13.333 -11.834 -23 -15.501 -29s-9.66699 -12.167 -18 -18.5s-19 -9.5 -32 -9.5s-30.833 5.66699 -53.5 17c-38.667 18.667 -58 40 -58 64c0 11.333 5.66699 28.333 17 51l270 559
c7.33301 15.333 18.5 27.666 33.5 36.999s30.833 14 47.5 14c36 0 62.667 -17.333 80 -52zM382.002 441l-66 -137h133z" />
    <glyph glyph-name="Atilde" unicode="&#xc3;" horiz-adv-x="765" 
d="M546 958c24 -16.667 35.9961 -32.6699 35.9961 -48.0029c0 -9.33301 -2.66699 -18.333 -8 -27s-9 -14.834 -11 -18.501s-6.66699 -10.167 -14 -19.5s-15.666 -17.666 -24.999 -24.999c-25.333 -18.667 -51 -28 -77 -28s-46.5 4.33301 -61.5 13s-27.333 17.334 -37 26.001
s-17.5 13 -23.5 13c-9.33301 0 -18 -4 -26 -12c-15.333 -26.667 -29.5 -40 -42.5 -40s-28.667 8 -47 24s-27.5 29.167 -27.5 39.5s2.66699 19.833 8 28.5s9 14.834 11 18.501s6.83301 10 14.5 19s16.167 17.167 25.5 24.5c24.667 18 50.334 27 77.001 27
s47.334 -4.16699 62.001 -12.5s26.667 -16.666 36 -24.999s17 -12.5 23 -12.5c10.667 0 19.334 4 26.001 12c14 25.333 29 38 45 38c10 0 22 -5 36 -15zM462.996 680.997l270.002 -557.999c11.333 -22.667 17 -39.667 17 -51c0 -24 -19.333 -45.667 -58 -65
c-22.667 -11.333 -40.5 -17 -53.5 -17s-23.667 3 -32 9s-14.333 12.333 -18 19s-8.83398 16.667 -15.501 30l-52 108h-277l-52 -108c-6.66699 -13.333 -11.834 -23 -15.501 -29s-9.66699 -12.167 -18 -18.5s-19 -9.5 -32 -9.5s-30.833 5.66699 -53.5 17
c-38.667 18.667 -58 40 -58 64c0 11.333 5.66699 28.333 17 51l270 559c7.33301 15.333 18.5 27.666 33.5 36.999s30.833 14 47.5 14c36 0 62.667 -17.333 80 -52zM381.998 440.998l-66 -137h133z" />
    <glyph glyph-name="Adieresis" unicode="&#xc4;" horiz-adv-x="765" 
d="M250 795c-21.333 0 -38.333 2.00195 -51 6.00195s-21.667 11.167 -27 21.5s-8.5 19.333 -9.5 27s-1.33301 19.667 -1 36s1 28 2 35s4 15.5 9 25.5s14 17 27 21s30.167 6 51.5 6s38.333 -2 51 -6s21.667 -11.167 27 -21.5s8.5 -19.333 9.5 -27s1.5 -19.334 1.5 -35.001
s-0.5 -27.334 -1.5 -35.001s-4.16699 -16.5 -9.5 -26.5s-14.5 -17 -27.5 -21s-30.167 -6 -51.5 -6zM520 795.002c-21.333 0 -38.333 2.00098 -51 6.00098s-21.667 11.167 -27 21.5s-8.5 19.333 -9.5 27s-1.5 19.5 -1.5 35.5s0.5 27.833 1.5 35.5s4.16699 16.334 9.5 26.001
s14.5 16.5 27.5 20.5s30.167 6 51.5 6s38.333 -2 51 -6s21.667 -11.167 27 -21.5s8.5 -19.333 9.5 -27s1.5 -19.334 1.5 -35.001s-0.5 -27.334 -1.5 -35.001s-4.16699 -16.5 -9.5 -26.5s-14.5 -17 -27.5 -21s-30.167 -6 -51.5 -6zM463 681.003l270.002 -557.999
c11.333 -22.667 17 -39.667 17 -51c0 -24 -19.333 -45.667 -58 -65c-22.667 -11.333 -40.5 -17 -53.5 -17s-23.667 3 -32 9s-14.333 12.333 -18 19s-8.83398 16.667 -15.501 30l-52 108h-277l-52 -108c-6.66699 -13.333 -11.834 -23 -15.501 -29s-9.66699 -12.167 -18 -18.5
s-19 -9.5 -32 -9.5s-30.833 5.66699 -53.5 17c-38.667 18.667 -58 40 -58 64c0 11.333 5.66699 28.333 17 51l270 559c7.33301 15.333 18.5 27.666 33.5 36.999s30.833 14 47.5 14c36 0 62.667 -17.333 80 -52zM382.002 441.004l-66 -137h133z" />
    <glyph glyph-name="Aring" unicode="&#xc5;" horiz-adv-x="765" 
d="M292.5 882.5c26.333 24.333 56.335 36.502 90.002 36.502s63.5 -12 89.5 -36s39 -56.167 39 -96.5s-17 -73.5 -51 -99.5l273 -564c11.333 -22.667 17 -39.667 17 -51c0 -24 -19.333 -45.667 -58 -65c-22.667 -11.333 -40.5 -17 -53.5 -17s-23.667 3 -32 9
s-14.333 12.333 -18 19s-8.83398 16.667 -15.501 30l-52 108h-277l-52 -108c-6.66699 -13.333 -11.834 -23 -15.501 -29s-9.66699 -12.167 -18 -18.5s-19 -9.5 -32 -9.5s-30.833 5.66699 -53.5 17c-38.667 18.667 -58 40 -58 64c0 11.333 2.83301 22.5 8.5 33.5
s99.5 204.833 281.5 581.5c-34.667 25.333 -52 58.166 -52 98.499s13.167 72.666 39.5 96.999zM382.002 729.002c14 0 27.667 5.16699 41 15.5s20 25.666 20 45.999s-6.5 35.5 -19.5 45.5s-26.833 15 -41.5 15s-28.5 -5.16699 -41.5 -15.5s-19.5 -25.666 -19.5 -45.999
s6.66699 -35.5 20 -45.5s27 -15 41 -15zM382.002 441.002l-66 -137h133z" />
    <glyph glyph-name="AE" unicode="&#xc6;" horiz-adv-x="1148" 
d="M730 178l310.999 0.000976562c24.667 0 42.667 -3.33301 54 -10c18.667 -11.333 28 -37.666 28 -78.999c0 -46.667 -12.333 -74.334 -37 -83.001c-11.333 -3.33301 -28.666 -5 -51.999 -5h-394c-24 0 -44.667 9 -62 27s-26 39 -26 63v58h-283l-110 -121
c-22 -24.667 -43.333 -37 -64 -37s-41.667 12.833 -63 38.5s-32 46.334 -32 62.001s11 35.834 33 60.501l504 556c16.667 17.333 38 26 64 26h434c15.333 0 26.833 -0.5 34.5 -1.5s16.5 -4.16699 26.5 -9.5c18 -9.33301 27 -35.333 27 -78c0 -41.333 -8.33301 -67 -25 -77
c-14 -7.33301 -33.333 -11 -58 -11h-310v-101h195c26.667 0 46 -3.33301 58 -10s20 -16.334 24 -29.001s6 -29.334 6 -50.001s-2 -37.334 -6 -50.001s-10.833 -21.667 -20.5 -27s-18.5 -8.5 -26.5 -9.5s-20 -1.5 -36 -1.5h-194v-101zM402.999 297.001h149.001v164
c-2.66699 -3.33301 -52.334 -58 -149.001 -164z" />
    <glyph glyph-name="Ccedilla" unicode="&#xc7;" horiz-adv-x="679" 
d="M309 -27c2 12 7.99707 21.0029 17.9971 27.0029c-73.333 16 -140.333 52.667 -201 110c-30.667 29.333 -55.167 66.666 -73.5 111.999s-27.5 94.5 -27.5 147.5s8.66699 100.833 26 143.5s39.5 77.667 66.5 105s57.833 50.666 92.5 69.999c64.667 36 130.667 54 198 54
c31.333 0 63 -5 95 -15s56.333 -19.667 73 -29l25 -15l27 -19c17.333 -13.333 26 -28.833 26 -46.5s-7 -36.167 -21 -55.5c-25.333 -36 -48.333 -54 -69 -54c-11.333 0 -28.666 7.33301 -51.999 22c-28 22.667 -65.333 34 -112 34c-43.333 0 -86 -15 -128 -45
c-20 -14.667 -36.667 -35.334 -50 -62.001s-20 -56.834 -20 -90.501s6.66699 -64 20 -91s30.666 -48.167 51.999 -63.5c41.333 -29.333 83.333 -44 126 -44c20.667 0 40.167 2.66699 58.5 8s31.5 10.666 39.5 15.999l12 9l7 4c21.333 14 37.333 21 48 21
c20 0 42 -18.667 66 -56c14.667 -23.333 22 -41 22 -53s-3 -22.333 -9 -31s-11.833 -15.167 -17.5 -19.5s-14.5 -10.166 -26.5 -17.499c-37.333 -26.667 -84 -44.667 -140 -54c25.333 -20.667 38 -47.667 38 -81s-11.5 -59.5 -34.5 -78.5s-47.5 -28.5 -73.5 -28.5
c-17.333 0 -30.666 2.33301 -39.999 7c-25.333 12.667 -38.666 25.334 -39.999 38.001l-1 5c0 8 5 18 15 30s18.5 18 25.5 18s12.833 -1.5 17.5 -4.5s8.33398 -4.83301 11.001 -5.5c2.66699 -2.66699 6.66699 -4 12 -4s10.5 2 15.5 6s7.5 9.66699 7.5 17s-2.5 13 -7.5 17
s-10.333 6 -16 6s-11.5 -2.33301 -17.5 -7s-14.167 -7 -24.5 -7s-19.333 6.83301 -27 20.5s-11.5 23.5 -11.5 29.5z" />
    <glyph glyph-name="Egrave" unicode="&#xc8;" horiz-adv-x="638" 
d="M217 177h307.997c15.333 0 26.833 -0.5 34.5 -1.5s16.5 -4.16699 26.5 -9.5c18 -9.33301 27 -35.333 27 -78c0 -46.667 -12.333 -74 -37 -82c-11.333 -4 -28.666 -6 -51.999 -6h-396c-46.667 0 -74 12.667 -82 38c-4 10.667 -6 27.667 -6 51v556
c0 34 6.33301 57.167 19 69.5s36.667 18.5 72 18.5h394c15.333 0 26.833 -0.5 34.5 -1.5s16.5 -4.16699 26.5 -9.5c18 -9.33301 27 -35.333 27 -78c0 -46.667 -12.333 -74 -37 -82c-11.333 -4 -28.666 -6 -51.999 -6h-307v-101h198c15.333 0 26.833 -0.5 34.5 -1.5
s16.5 -4.16699 26.5 -9.5c18 -9.33301 27 -35.333 27 -78c0 -46.667 -12.667 -74 -38 -82c-11.333 -4 -28.666 -6 -51.999 -6h-196v-101zM424.997 756l-30 7.00098l-165 52c-18 5.33301 -29.667 11.666 -35 18.999s-8 16.5 -8 27.5s2.66699 24.5 8 40.5
c12.667 39.333 29 59 49 59c2.66699 0 12.667 -2.33301 30 -7l165 -51c9.33301 -3.33301 16.333 -6.33301 21 -9c14.667 -6.66699 22 -17.5 22 -32.5s-2.66699 -30.5 -8 -46.5c-12.667 -39.333 -29 -59 -49 -59z" />
    <glyph glyph-name="Eacute" unicode="&#xc9;" horiz-adv-x="638" 
d="M217 177h307.997c15.333 0 26.833 -0.5 34.5 -1.5s16.5 -4.16699 26.5 -9.5c18 -9.33301 27 -35.333 27 -78c0 -46.667 -12.333 -74 -37 -82c-11.333 -4 -28.666 -6 -51.999 -6h-396c-46.667 0 -74 12.667 -82 38c-4 10.667 -6 27.667 -6 51v556
c0 34 6.33301 57.167 19 69.5s36.667 18.5 72 18.5h394c15.333 0 26.833 -0.5 34.5 -1.5s16.5 -4.16699 26.5 -9.5c18 -9.33301 27 -35.333 27 -78c0 -46.667 -12.333 -74 -37 -82c-11.333 -4 -28.666 -6 -51.999 -6h-307v-101h198c15.333 0 26.833 -0.5 34.5 -1.5
s16.5 -4.16699 26.5 -9.5c18 -9.33301 27 -35.333 27 -78c0 -46.667 -12.667 -74 -38 -82c-11.333 -4 -28.666 -6 -51.999 -6h-196v-101zM287.997 776c-9.33301 -4.66699 -19.333 -7 -30 -7c-20 0 -36.333 19.667 -49 59c-5.33301 16 -8 29.667 -8 41s2.33301 20 7 26
c6 8.66699 18 15.667 36 21l165 51c17.333 4.66699 27.333 7 30 7c20 0 36 -19.667 48 -59c5.33301 -16 8 -29.5 8 -40.5s-2.33301 -19.5 -7 -25.5c-6 -8.66699 -18 -15.667 -36 -21z" />
    <glyph glyph-name="Ecircumflex" unicode="&#xca;" horiz-adv-x="638" 
d="M217 177h307.997c15.333 0 26.833 -0.5 34.5 -1.5s16.5 -4.16699 26.5 -9.5c18 -9.33301 27 -35.333 27 -78c0 -46.667 -12.333 -74 -37 -82c-11.333 -4 -28.666 -6 -51.999 -6h-396c-46.667 0 -74 12.667 -82 38c-4 10.667 -6 27.667 -6 51v556
c0 34 6.33301 57.167 19 69.5s36.667 18.5 72 18.5h394c15.333 0 26.833 -0.5 34.5 -1.5s16.5 -4.16699 26.5 -9.5c18 -9.33301 27 -35.333 27 -78c0 -46.667 -12.333 -74 -37 -82c-11.333 -4 -28.666 -6 -51.999 -6h-307v-101h198c15.333 0 26.833 -0.5 34.5 -1.5
s16.5 -4.16699 26.5 -9.5c18 -9.33301 27 -35.333 27 -78c0 -46.667 -12.667 -74 -38 -82c-11.333 -4 -28.666 -6 -51.999 -6h-196v-101zM323.997 974l23 -5.00098l134.5 -44c27.667 -9.33301 41.5 -25.666 41.5 -48.999c0 -12.667 -3.66699 -26 -11 -40
c-17.333 -35.333 -37.333 -53 -60 -53c-6 0 -16.667 2.33301 -32 7l-96 42l-93 -40h-1c-13.333 -4.66699 -24.333 -7 -33 -7c-25.333 0 -46 17 -62 51c-8 17.333 -12 31.333 -12 42c0 21.333 12.667 36.333 38 45l139 46z" />
    <glyph glyph-name="Edieresis" unicode="&#xcb;" horiz-adv-x="638" 
d="M217 177h307.997c15.333 0 26.833 -0.5 34.5 -1.5s16.5 -4.16699 26.5 -9.5c18 -9.33301 27 -35.333 27 -78c0 -46.667 -12.333 -74 -37 -82c-11.333 -4 -28.666 -6 -51.999 -6h-396c-46.667 0 -74 12.667 -82 38c-4 10.667 -6 27.667 -6 51v556
c0 34 6.33301 57.167 19 69.5s36.667 18.5 72 18.5h394c15.333 0 26.833 -0.5 34.5 -1.5s16.5 -4.16699 26.5 -9.5c18 -9.33301 27 -35.333 27 -78c0 -46.667 -12.333 -74 -37 -82c-11.333 -4 -28.666 -6 -51.999 -6h-307v-101h198c15.333 0 26.833 -0.5 34.5 -1.5
s16.5 -4.16699 26.5 -9.5c18 -9.33301 27 -35.333 27 -78c0 -46.667 -12.667 -74 -38 -82c-11.333 -4 -28.666 -6 -51.999 -6h-196v-101zM193.997 795c-21.333 0 -38.333 2.00195 -51 6.00195s-21.667 11.167 -27 21.5s-8.5 19.333 -9.5 27s-1.33301 19.667 -1 36s1 28 2 35
s4 15.5 9 25.5s14 17 27 21s30.167 6 51.5 6s38.333 -2 51 -6s21.667 -11.167 27 -21.5s8.5 -19.333 9.5 -27s1.5 -19.334 1.5 -35.001s-0.5 -27.334 -1.5 -35.001s-4.16699 -16.5 -9.5 -26.5s-14.5 -17 -27.5 -21s-30.167 -6 -51.5 -6zM463.997 795.002
c-21.333 0 -38.333 2.00098 -51 6.00098s-21.667 11.167 -27 21.5s-8.5 19.333 -9.5 27s-1.5 19.5 -1.5 35.5s0.5 27.833 1.5 35.5s4.16699 16.334 9.5 26.001s14.5 16.5 27.5 20.5s30.167 6 51.5 6s38.333 -2 51 -6s21.667 -11.167 27 -21.5s8.5 -19.333 9.5 -27
s1.5 -19.334 1.5 -35.001s-0.5 -27.334 -1.5 -35.001s-4.16699 -16.5 -9.5 -26.5s-14.5 -17 -27.5 -21s-30.167 -6 -51.5 -6z" />
    <glyph glyph-name="Igrave" unicode="&#xcc;" horiz-adv-x="267" 
d="M45 645c0 15.333 0.500977 26.832 1.50098 34.499s4.16699 16.5 9.5 26.5c9.33301 18 35.333 27 78 27c46.667 0 74 -12.333 82 -37c4 -11.333 6 -28.666 6 -51.999v-556c0 -16 -0.5 -27.667 -1.5 -35s-4.16699 -16 -9.5 -26c-9.33301 -18 -35.333 -27 -78 -27
c-46.667 0 -74.334 12.667 -83.001 38c-3.33301 10.667 -5 27.667 -5 51v556zM189.001 755.999l-30 7.00098l-165 52c-18 5.33301 -29.667 11.666 -35 18.999s-8 16.5 -8 27.5s2.66699 24.5 8 40.5c12.667 39.333 29 59 49 59c2.66699 0 12.667 -2.33301 30 -7l165 -51
c9.33301 -3.33301 16.333 -6.33301 21 -9c14.667 -6.66699 22 -17.5 22 -32.5s-2.66699 -30.5 -8 -46.5c-12.667 -39.333 -29 -59 -49 -59z" />
    <glyph glyph-name="Iacute" unicode="&#xcd;" horiz-adv-x="269" 
d="M46 645c0 15.333 0.499023 26.832 1.49902 34.499s4.16699 16.5 9.5 26.5c9.33301 18 35.333 27 78 27c46.667 0 74.334 -12.333 83.001 -37c3.33301 -11.333 5 -28.666 5 -51.999v-556c0 -16 -0.5 -27.667 -1.5 -35s-4.16699 -16 -9.5 -26
c-9.33301 -18 -35.333 -27 -78 -27c-46.667 0 -74 12.667 -82 38c-4 10.667 -6 27.667 -6 51v556zM109.999 775.999c-9.33301 -4.66699 -19.333 -7 -30 -7c-20 0 -36.333 19.667 -49 59c-5.33301 16 -8 29.667 -8 41s2.33301 20 7 26c6 8.66699 18 15.667 36 21l165 51
c17.333 4.66699 27.333 7 30 7c20 0 36 -19.667 48 -59c5.33301 -16 8 -29.5 8 -40.5s-2.33301 -19.5 -7 -25.5c-6 -8.66699 -18 -15.667 -36 -21z" />
    <glyph glyph-name="Icircumflex" unicode="&#xce;" horiz-adv-x="270" 
d="M46 645c0 15.333 0.499023 26.832 1.49902 34.499s4.16699 16.5 9.5 26.5c9.33301 18 35.333 27 78 27c46.667 0 74.334 -12.333 83.001 -37c3.33301 -11.333 5 -28.666 5 -51.999v-556c0 -16 -0.5 -27.667 -1.5 -35s-4.16699 -16 -9.5 -26
c-9.33301 -18 -35.333 -27 -78 -27c-46.667 0 -74 12.667 -82 38c-4 10.667 -6 27.667 -6 51v556zM135.999 973.999l23 -5.00098l134.5 -44c27.667 -9.33301 41.5 -25.666 41.5 -48.999c0 -12.667 -3.66699 -26 -11 -40c-17.333 -35.333 -37.333 -53 -60 -53
c-6 0 -16.667 2.33301 -32 7l-96 42l-93 -40h-1c-13.333 -4.66699 -24.333 -7 -33 -7c-25.333 0 -46 17 -62 51c-8 17.333 -12 31.333 -12 42c0 21.333 12.667 36.333 38 45l139 46z" />
    <glyph glyph-name="Idieresis" unicode="&#xcf;" horiz-adv-x="268" 
d="M47 645c0 15.333 0.500977 26.832 1.50098 34.499s4.16699 16.5 9.5 26.5c9.33301 18 35.333 27 78 27c46.667 0 74 -12.333 82 -37c4 -11.333 6 -28.666 6 -51.999v-556c0 -16 -0.5 -27.667 -1.5 -35s-4.16699 -16 -9.5 -26c-9.33301 -18 -35.333 -27 -78 -27
c-46.667 0 -74.334 12.667 -83.001 38c-3.33301 10.667 -5 27.667 -5 51v556zM1.00098 794.999c-21.333 0 -38.333 2.00195 -51 6.00195s-21.667 11.167 -27 21.5s-8.5 19.333 -9.5 27s-1.33301 19.667 -1 36s1 28 2 35s4 15.5 9 25.5s14 17 27 21s30.167 6 51.5 6
s38.333 -2 51 -6s21.667 -11.167 27 -21.5s8.5 -19.333 9.5 -27s1.5 -19.334 1.5 -35.001s-0.5 -27.334 -1.5 -35.001s-4.16699 -16.5 -9.5 -26.5s-14.5 -17 -27.5 -21s-30.167 -6 -51.5 -6zM271.001 795.001c-21.333 0 -38.333 2.00098 -51 6.00098
s-21.667 11.167 -27 21.5s-8.5 19.333 -9.5 27s-1.5 19.5 -1.5 35.5s0.5 27.833 1.5 35.5s4.16699 16.334 9.5 26.001s14.5 16.5 27.5 20.5s30.167 6 51.5 6s38.333 -2 51 -6s21.667 -11.167 27 -21.5s8.5 -19.333 9.5 -27s1.5 -19.334 1.5 -35.001
s-0.5 -27.334 -1.5 -35.001s-4.16699 -16.5 -9.5 -26.5s-14.5 -17 -27.5 -21s-30.167 -6 -51.5 -6z" />
    <glyph glyph-name="Eth" unicode="&#xd0;" 
d="M200 734l185.002 -0.998047c96.667 0 181.667 -34.833 255 -104.5s110 -155.334 110 -257.001s-35.833 -188.834 -107.5 -261.501s-158.5 -109 -260.5 -109h-183c-40.667 0 -66 8.33301 -76 25c-8 14 -12 35.333 -12 64v211h-25c-30.667 0 -49.334 9.66699 -56.001 29
c-3.33301 10 -5 23 -5 39s1.66699 28.833 5 38.5s8.66602 16.5 15.999 20.5c11.333 5.33301 25 8 41 8h24v210c0 16 0.5 27.667 1.5 35s4.16699 16 9.5 26c9.33301 18 35.333 27 78 27zM312.002 301.002h-24v-123h97c48 0 91.333 17.833 130 53.5s58 80.5 58 134.5
s-18.833 99.167 -56.5 135.5s-81.834 54.5 -132.501 54.5h-96v-120h25c30.667 0 49.334 -9.66699 56.001 -29c3.33301 -10 5 -23 5 -39s-1.5 -28.833 -4.5 -38.5s-8.16699 -16.5 -15.5 -20.5c-9.33301 -5.33301 -23.333 -8 -42 -8z" />
    <glyph glyph-name="Ntilde" unicode="&#xd1;" horiz-adv-x="720" 
d="M542 726c12.667 4 28.4951 6.00098 47.4951 6.00098s34.333 -1.66699 46 -5s20.334 -7.33301 26.001 -12s9.83398 -11.667 12.501 -21c4 -10.667 6 -27.667 6 -51v-555c0 -16 -0.5 -27.667 -1.5 -35s-4.16699 -16 -9.5 -26c-9.33301 -18 -35.333 -27 -78 -27
c-26 0 -44 2 -54 6s-18.333 10.333 -25 19l-296 392v-329c0 -16 -0.5 -27.667 -1.5 -35s-4.16699 -16 -9.5 -26c-9.33301 -18 -35.333 -27 -78 -27c-41.333 0 -66.666 9 -75.999 27c-5.33301 10 -8.5 19 -9.5 27s-1.5 19.667 -1.5 35v558c0 25.333 3.16699 43.833 9.5 55.5
s15.833 19.5 28.5 23.5s29 6 49 6s35.833 -1.83301 47.5 -5.5s19.834 -7.83398 24.501 -12.501c2.66699 -2 10.334 -10.667 23.001 -26l282 -379v338c0 25.333 3.16699 43.833 9.5 55.5s15.833 19.5 28.5 23.5zM523.995 958.001
c24 -16.667 35.9961 -32.6699 35.9961 -48.0029c0 -9.33301 -2.66699 -18.333 -8 -27s-9 -14.834 -11 -18.501s-6.66699 -10.167 -14 -19.5s-15.666 -17.666 -24.999 -24.999c-25.333 -18.667 -51 -28 -77 -28s-46.5 4.33301 -61.5 13s-27.333 17.334 -37 26.001
s-17.5 13 -23.5 13c-9.33301 0 -18 -4 -26 -12c-15.333 -26.667 -29.5 -40 -42.5 -40s-28.667 8 -47 24s-27.5 29.167 -27.5 39.5s2.66699 19.833 8 28.5s9 14.834 11 18.501s6.83301 10 14.5 19s16.167 17.167 25.5 24.5c24.667 18 50.334 27 77.001 27
s47.334 -4.16699 62.001 -12.5s26.667 -16.666 36 -24.999s17 -12.5 23 -12.5c10.667 0 19.334 4 26.001 12c14 25.333 29 38 45 38c10 0 22 -5 36 -15z" />
    <glyph glyph-name="Ograve" unicode="&#xd2;" 
d="M384 742c98.667 0 184.333 -35.666 257 -106.999s109 -159.833 109 -265.5s-34.667 -195.667 -104 -270s-154.666 -111.5 -255.999 -111.5s-187.5 36.667 -258.5 110s-106.5 160.666 -106.5 261.999c0 55.333 10 107.166 30 155.499s46.667 88.833 80 121.5
s71.666 58.334 114.999 77.001s88 28 134 28zM259.499 220.501c38.333 -37 81.166 -55.501 128.499 -55.501s90 18 128 54s57 84.333 57 145s-19.167 109.334 -57.5 146.001s-81.166 55 -128.499 55s-90 -18.5 -128 -55.5s-57 -85.167 -57 -144.5s19.167 -107.5 57.5 -144.5
zM455.999 756c-6 0 -15.999 2.33398 -29.999 7.00098l-165 52c-18 5.33301 -29.667 11.666 -35 18.999s-8 16.5 -8 27.5s2.66699 24.5 8 40.5c12.667 39.333 29 59 49 59c2.66699 0 12.667 -2.33301 30 -7l165 -51c9.33301 -3.33301 16.666 -6.33301 21.999 -9
c14 -6.66699 21 -17.5 21 -32.5s-2.66699 -30.5 -8 -46.5c-12.667 -39.333 -29 -59 -49 -59z" />
    <glyph glyph-name="Oacute" unicode="&#xd3;" 
d="M384 742c98.667 0 184.333 -35.666 257 -106.999s109 -159.833 109 -265.5s-34.667 -195.667 -104 -270s-154.666 -111.5 -255.999 -111.5s-187.5 36.667 -258.5 110s-106.5 160.666 -106.5 261.999c0 55.333 10 107.166 30 155.499s46.667 88.833 80 121.5
s71.666 58.334 114.999 77.001s88 28 134 28zM259.499 220.501c38.333 -37 81.166 -55.501 128.499 -55.501s90 18 128 54s57 84.333 57 145s-19.167 109.334 -57.5 146.001s-81.166 55 -128.499 55s-90 -18.5 -128 -55.5s-57 -85.167 -57 -144.5s19.167 -107.5 57.5 -144.5
zM348.999 776l-30 -7c-20 0 -36.333 19.667 -49 59c-5.33301 16 -8 29.667 -8 41s2 20 6 26c6.66699 8.66699 19 15.667 37 21l165 51c17.333 4.66699 27.333 7 30 7c20 0 36 -19.667 48 -59c5.33301 -16 8 -29.5 8 -40.5s-2 -19.5 -6 -25.5
c-6.66699 -8.66699 -19 -15.667 -37 -21z" />
    <glyph glyph-name="Ocircumflex" unicode="&#xd4;" 
d="M384 742c98.667 0 184.333 -35.666 257 -106.999s109 -159.833 109 -265.5s-34.667 -195.667 -104 -270s-154.666 -111.5 -255.999 -111.5s-187.5 36.667 -258.5 110s-106.5 160.666 -106.5 261.999c0 55.333 10 107.166 30 155.499s46.667 88.833 80 121.5
s71.666 58.334 114.999 77.001s88 28 134 28zM259.499 220.501c38.333 -37 81.166 -55.501 128.499 -55.501s90 18 128 54s57 84.333 57 145s-19.167 109.334 -57.5 146.001s-81.166 55 -128.499 55s-90 -18.5 -128 -55.5s-57 -85.167 -57 -144.5s19.167 -107.5 57.5 -144.5
zM389.999 974l23 -5.00098l134.5 -44c27.667 -9.33301 41.5 -25.666 41.5 -48.999c0 -12.667 -3.66699 -26 -11 -40c-17.333 -35.333 -37.333 -53 -60 -53c-6 0 -16.667 2.33301 -32 7l-96 42l-93 -40h-1c-13.333 -4.66699 -24.333 -7 -33 -7c-25.333 0 -46 17 -62 51
c-8 17.333 -12 31.333 -12 42c0 21.333 12.667 36.333 38 45l139 46z" />
    <glyph glyph-name="Otilde" unicode="&#xd5;" 
d="M384 742c98.667 0 184.333 -35.666 257 -106.999s109 -159.833 109 -265.5s-34.667 -195.667 -104 -270s-154.666 -111.5 -255.999 -111.5s-187.5 36.667 -258.5 110s-106.5 160.666 -106.5 261.999c0 55.333 10 107.166 30 155.499s46.667 88.833 80 121.5
s71.666 58.334 114.999 77.001s88 28 134 28zM259.499 220.501c38.333 -37 81.166 -55.501 128.499 -55.501s90 18 128 54s57 84.333 57 145s-19.167 109.334 -57.5 146.001s-81.166 55 -128.499 55s-90 -18.5 -128 -55.5s-57 -85.167 -57 -144.5s19.167 -107.5 57.5 -144.5
zM572.999 958c24 -16.667 35.9971 -32.6699 35.9971 -48.0029c0 -9.33301 -2.66699 -18.333 -8 -27s-9 -14.834 -11 -18.501s-6.66699 -10.167 -14 -19.5s-15.666 -17.666 -24.999 -24.999c-25.333 -18.667 -51 -28 -77 -28s-46.5 4.33301 -61.5 13
s-27.333 17.334 -37 26.001s-17.5 13 -23.5 13c-9.33301 0 -18 -4 -26 -12c-15.333 -26.667 -29.5 -40 -42.5 -40s-28.667 8 -47 24s-27.5 29.167 -27.5 39.5s2.66699 19.833 8 28.5s9 14.834 11 18.501s6.83301 10 14.5 19s16.167 17.167 25.5 24.5
c24.667 18 50.334 27 77.001 27s47.334 -4.16699 62.001 -12.5s26.667 -16.666 36 -24.999s17 -12.5 23 -12.5c12 0 20.667 4 26 12c14 25.333 29 38 45 38c10 0 22 -5 36 -15z" />
    <glyph glyph-name="Odieresis" unicode="&#xd6;" 
d="M384 742c98.667 0 184.333 -35.666 257 -106.999s109 -159.833 109 -265.5s-34.667 -195.667 -104 -270s-154.666 -111.5 -255.999 -111.5s-187.5 36.667 -258.5 110s-106.5 160.666 -106.5 261.999c0 55.333 10 107.166 30 155.499s46.667 88.833 80 121.5
s71.666 58.334 114.999 77.001s88 28 134 28zM259.499 220.501c38.333 -37 81.166 -55.501 128.499 -55.501s90 18 128 54s57 84.333 57 145s-19.167 109.334 -57.5 146.001s-81.166 55 -128.499 55s-90 -18.5 -128 -55.5s-57 -85.167 -57 -144.5s19.167 -107.5 57.5 -144.5
zM247.999 795c-21.333 0 -38.333 2.00195 -51 6.00195s-21.667 11.167 -27 21.5s-8.5 19.333 -9.5 27s-1.33301 19.667 -1 36s1 28 2 35s4 15.5 9 25.5s14 17 27 21s30.167 6 51.5 6s38.333 -2 51 -6s21.667 -11.167 27 -21.5s8.5 -19.333 9.5 -27s1.5 -19.334 1.5 -35.001
s-0.5 -27.334 -1.5 -35.001s-4.16699 -16.5 -9.5 -26.5s-14.5 -17 -27.5 -21s-30.167 -6 -51.5 -6zM517.999 795.002c-21.333 0 -38.333 2.00098 -51 6.00098s-21.667 11.167 -27 21.5s-8.5 19.333 -9.5 27s-1.5 19.5 -1.5 35.5s0.5 27.833 1.5 35.5
s4.16699 16.334 9.5 26.001s14.5 16.5 27.5 20.5s30.167 6 51.5 6s38.333 -2 51 -6s21.667 -11.167 27 -21.5s8.5 -19.333 9.5 -27s1.5 -19.334 1.5 -35.001s-0.5 -27.334 -1.5 -35.001s-4.16699 -16.5 -9.5 -26.5s-14.5 -17 -27.5 -21s-30.167 -6 -51.5 -6z" />
    <glyph glyph-name="multiply" unicode="&#xd7;" horiz-adv-x="521" 
d="M372 265l90.998 -91c22 -22 33 -41 33 -57s-10.5 -34.5 -31.5 -55.5s-39.667 -31.5 -56 -31.5s-35.166 10.667 -56.499 32l-92 92l-91 -92c-21.333 -21.333 -40.166 -32 -56.499 -32s-35 10.5 -56 31.5s-31.5 39.5 -31.5 55.5s11 35 33 57l91 91l-92 92
c-21.333 21.333 -32 39.5 -32 54.5s10.833 33.333 32.5 55s40.5 32.5 56.5 32.5s34.667 -10.667 56 -32l90 -91l91 91c21.333 21.333 40 32 56 32s34.833 -10.833 56.5 -32.5s32.5 -40 32.5 -55s-11.333 -33.833 -34 -56.5z" />
    <glyph glyph-name="Oslash" unicode="&#xd8;" 
d="M310 -2c-12 -36 -29.999 -53.998 -53.999 -53.998c-13.333 0 -31 5 -53 15s-36.833 18.833 -44.5 26.5s-11.5 16.167 -11.5 25.5s4 26 12 50l4 8c-43.333 34.667 -77.166 77.5 -101.499 128.5s-36.5 104.667 -36.5 161s10 108.666 30 156.999s46.667 88.833 80 121.5
s71.666 58.334 114.999 77.001s84.833 28 124.5 28s74.5 -4.33301 104.5 -13c10.667 27.333 22.667 43.666 36 48.999c5.33301 2.66699 13.166 4 23.499 4s27.166 -5.33301 50.499 -16c36 -17.333 54 -36.333 54 -57c0 -12.667 -6 -32.334 -18 -59.001
c83.333 -74.667 125 -170 125 -286c0 -102 -34.667 -190.167 -104 -264.5s-153.666 -111.5 -252.999 -111.5c-25.333 0 -53 3.33301 -83 10zM259.001 509.502c-38 -37 -57 -82.832 -57 -137.499s13.667 -99.334 41 -134.001l157 326c-2.66699 0.666992 -6.66699 1 -12 1
c-48 0 -91 -18.5 -129 -55.5zM573.001 365.003c0 42.667 -10.667 80 -32 112l-150 -312c47.333 1.33301 89.5 20 126.5 56s55.5 84 55.5 144z" />
    <glyph glyph-name="Ugrave" unicode="&#xd9;" horiz-adv-x="726" 
d="M548 728c12.667 4 28.498 6 47.498 6s34.167 -1.66699 45.5 -5s20 -7.33301 26 -12s10.333 -11.667 13 -21c4 -11.333 6 -28.666 6 -51.999v-302c0 -88 -27.333 -168 -82 -240c-26.667 -34 -61 -61.5 -103 -82.5s-88.5 -31.5 -139.5 -31.5s-97.333 10.667 -139 32
s-75.5 49.333 -101.5 84c-54 70.667 -81 150.667 -81 240v301c0 16 0.5 27.833 1.5 35.5s4.16699 16.5 9.5 26.5s14.333 17 27 21s29.667 6 51 6s38.333 -2 51 -6s21.334 -11 26.001 -21c8 -15.333 12 -36.333 12 -63v-300c0 -40.667 10 -79.334 30 -116.001
c10 -18.667 25 -33.667 45 -45s43.667 -17 71 -17c48.667 0 85 18 109 54s36 77.667 36 125v306c0 26 3.33301 44.333 10 55s16.334 18 29.001 22zM396.998 756l-30 7.00098l-165 52c-18 5.33301 -29.667 11.666 -35 18.999s-8 16.5 -8 27.5s2.66699 24.5 8 40.5
c12.667 39.333 29 59 49 59c2.66699 0 12.667 -2.33301 30 -7l165 -51c9.33301 -3.33301 16.333 -6.33301 21 -9c14.667 -6.66699 22 -17.5 22 -32.5s-2.66699 -30.5 -8 -46.5c-12.667 -39.333 -29 -59 -49 -59z" />
    <glyph glyph-name="Uacute" unicode="&#xda;" horiz-adv-x="726" 
d="M548 728c12.667 4 28.498 6 47.498 6s34.167 -1.66699 45.5 -5s20 -7.33301 26 -12s10.333 -11.667 13 -21c4 -11.333 6 -28.666 6 -51.999v-302c0 -88 -27.333 -168 -82 -240c-26.667 -34 -61 -61.5 -103 -82.5s-88.5 -31.5 -139.5 -31.5s-97.333 10.667 -139 32
s-75.5 49.333 -101.5 84c-54 70.667 -81 150.667 -81 240v301c0 16 0.5 27.833 1.5 35.5s4.16699 16.5 9.5 26.5s14.333 17 27 21s29.667 6 51 6s38.333 -2 51 -6s21.334 -11 26.001 -21c8 -15.333 12 -36.333 12 -63v-300c0 -40.667 10 -79.334 30 -116.001
c10 -18.667 25 -33.667 45 -45s43.667 -17 71 -17c48.667 0 85 18 109 54s36 77.667 36 125v306c0 26 3.33301 44.333 10 55s16.334 18 29.001 22zM348.998 776l-30 -7c-20 0 -36.333 19.667 -49 59c-5.33301 16 -8 29.667 -8 41s2 20 6 26c6.66699 8.66699 19 15.667 37 21
l165 51c17.333 4.66699 27.333 7 30 7c20 0 36 -19.667 48 -59c5.33301 -16 8 -29.5 8 -40.5s-2 -19.5 -6 -25.5c-6.66699 -8.66699 -19 -15.667 -37 -21z" />
    <glyph glyph-name="Ucircumflex" unicode="&#xdb;" horiz-adv-x="726" 
d="M548 728c12.667 4 28.498 6 47.498 6s34.167 -1.66699 45.5 -5s20 -7.33301 26 -12s10.333 -11.667 13 -21c4 -11.333 6 -28.666 6 -51.999v-302c0 -88 -27.333 -168 -82 -240c-26.667 -34 -61 -61.5 -103 -82.5s-88.5 -31.5 -139.5 -31.5s-97.333 10.667 -139 32
s-75.5 49.333 -101.5 84c-54 70.667 -81 150.667 -81 240v301c0 16 0.5 27.833 1.5 35.5s4.16699 16.5 9.5 26.5s14.333 17 27 21s29.667 6 51 6s38.333 -2 51 -6s21.334 -11 26.001 -21c8 -15.333 12 -36.333 12 -63v-300c0 -40.667 10 -79.334 30 -116.001
c10 -18.667 25 -33.667 45 -45s43.667 -17 71 -17c48.667 0 85 18 109 54s36 77.667 36 125v306c0 26 3.33301 44.333 10 55s16.334 18 29.001 22zM376.998 974l22.999 -5.00098l134.5 -44c27.667 -9.33301 41.5 -25.666 41.5 -48.999c0 -12.667 -3.66699 -26 -11 -40
c-18 -35.333 -38 -53 -60 -53c-6 0 -16.667 2.33301 -32 7l-96 42l-93 -40c-9.33301 -4.66699 -20.666 -7 -33.999 -7c-25.333 0 -46 17 -62 51c-8 17.333 -12 31.333 -12 42c0 21.333 12.667 36.333 38 45l139 46z" />
    <glyph glyph-name="Udieresis" unicode="&#xdc;" horiz-adv-x="726" 
d="M548 728c12.667 4 28.498 6 47.498 6s34.167 -1.66699 45.5 -5s20 -7.33301 26 -12s10.333 -11.667 13 -21c4 -11.333 6 -28.666 6 -51.999v-302c0 -88 -27.333 -168 -82 -240c-26.667 -34 -61 -61.5 -103 -82.5s-88.5 -31.5 -139.5 -31.5s-97.333 10.667 -139 32
s-75.5 49.333 -101.5 84c-54 70.667 -81 150.667 -81 240v301c0 16 0.5 27.833 1.5 35.5s4.16699 16.5 9.5 26.5s14.333 17 27 21s29.667 6 51 6s38.333 -2 51 -6s21.334 -11 26.001 -21c8 -15.333 12 -36.333 12 -63v-300c0 -40.667 10 -79.334 30 -116.001
c10 -18.667 25 -33.667 45 -45s43.667 -17 71 -17c48.667 0 85 18 109 54s36 77.667 36 125v306c0 26 3.33301 44.333 10 55s16.334 18 29.001 22zM497.998 795c-21.333 0 -38.333 2.00098 -51 6.00098s-21.667 11.167 -27 21.5s-8.5 19.333 -9.5 27s-1.5 19.5 -1.5 35.5
s0.5 27.833 1.5 35.5s4.16699 16.334 9.5 26.001s14.5 16.5 27.5 20.5s30.167 6 51.5 6s38.333 -2 51 -6s21.667 -11.167 27 -21.5s8.5 -19.333 9.5 -27s1.5 -19.334 1.5 -35.001s-0.5 -27.334 -1.5 -35.001s-4.16699 -16.5 -9.5 -26.5s-14.5 -17 -27.5 -21
s-30.167 -6 -51.5 -6zM227.998 795.001c-21.333 0 -38.333 2.00195 -51 6.00195s-21.667 11.167 -27 21.5s-8.5 19.333 -9.5 27s-1.33301 19.667 -1 36s1 28 2 35s4 15.5 9 25.5s14 17 27 21s30.167 6 51.5 6s38.333 -2 51 -6s21.667 -11.167 27 -21.5s8.5 -19.333 9.5 -27
s1.5 -19.334 1.5 -35.001s-0.5 -27.334 -1.5 -35.001s-4.16699 -16.5 -9.5 -26.5s-14.5 -17 -27.5 -21s-30.167 -6 -51.5 -6z" />
    <glyph glyph-name="Yacute" unicode="&#xdd;" horiz-adv-x="686" 
d="M622 719c32.667 -22.667 49.001 -44.667 49.001 -66c0 -12.667 -7.66699 -30.334 -23 -53.001l-216 -323v-191c0 -15.333 -0.5 -26.833 -1.5 -34.5s-4.16699 -16.5 -9.5 -26.5s-14.333 -17 -27 -21s-29.667 -6 -51 -6s-38.333 2 -51 6s-21.667 11.167 -27 21.5
s-8.5 19.333 -9.5 27s-1.5 19.5 -1.5 35.5v189l-216 323c-15.333 22.667 -23 40.334 -23 53.001c0 21.333 14.667 41.833 44 61.5s50.333 29.5 63 29.5s22.667 -2.66699 30 -8c11.333 -7.33301 23.333 -21 36 -41l155 -248l155 248c12.667 20 23.667 33.167 33 39.5
s20.166 9.5 32.499 9.5s31.833 -8.33301 58.5 -25zM302.001 776c-9.33301 -4.66699 -19.333 -7 -30 -7c-20 0 -36.333 19.667 -49 59c-5.33301 16 -8 29.667 -8 41s2.33301 20 7 26c6 8.66699 18 15.667 36 21l165 51c17.333 4.66699 27.333 7 30 7c20 0 36 -19.667 48 -59
c5.33301 -16 8 -29.5 8 -40.5s-2.33301 -19.5 -7 -25.5c-6 -8.66699 -18 -15.667 -36 -21z" />
    <glyph glyph-name="Thorn" unicode="&#xde;" horiz-adv-x="634" 
d="M40 645c0 15.333 0.498047 26.832 1.49805 34.499s4.16699 16.5 9.5 26.5c9.33301 18 35.333 27 78 27c46.667 0 74.334 -12.333 83.001 -37c3.33301 -11.333 5 -28.666 5 -51.999v-12h126c58.667 0 115.667 -21.333 171 -64c27.333 -20.667 49.666 -48.667 66.999 -84
s26 -74.666 26 -117.999s-8.66699 -82.5 -26 -117.5s-39.666 -62.833 -66.999 -83.5c-55.333 -42.667 -112.666 -64 -171.999 -64h-125v-12c0 -15.333 -0.5 -26.833 -1.5 -34.5s-4.16699 -16.5 -9.5 -26.5c-9.33301 -18 -35.333 -27 -78 -27c-46.667 0 -74 12.333 -82 37
c-4 11.333 -6 28.666 -6 51.999v555zM401.998 299.999c19.333 14.667 29 36.667 29 66s-9.66699 51.5 -29 66.5s-39.333 22.5 -60 22.5h-125v-177h126c20 0 39.667 7.33301 59 22z" />
    <glyph glyph-name="germandbls" unicode="&#xdf;" horiz-adv-x="633" 
d="M455 460c-14 -14.667 -21.001 -27.1729 -21.001 -37.5059s6 -21.166 18 -32.499s26.5 -22.333 43.5 -33s34 -23 51 -37s31.5 -33.333 43.5 -58s18 -53.334 18 -86.001c0 -119.333 -61 -179 -183 -179c-24 0 -50.833 2.33301 -80.5 7s-50.834 11.334 -63.501 20.001
s-19 21.834 -19 39.501s2.33301 35.834 7 54.501c10 38.667 25.667 58 47 58c8.66699 0 24.334 -4.5 47.001 -13.5s38.334 -13.5 47.001 -13.5c22.667 0 34 18.333 34 55c0 10 -8.66699 21.5 -26 34.5s-36.333 25.667 -57 38s-39.667 30.333 -57 54s-26 48.667 -26 75
s3.83301 48.833 11.5 67.5s15.834 32.667 24.501 42c24.667 25.333 37 47 37 65c0 16.667 -16 25 -48 25c-60 0 -90 -26 -90 -78v-474c0 -15.333 -0.5 -26.666 -1.5 -33.999s-4 -15.666 -9 -24.999s-13.833 -16 -26.5 -20s-29.334 -6 -50.001 -6s-37.167 2 -49.5 6
s-21 10.833 -26 20.5s-8 18.334 -9 26.001s-1.5 19.167 -1.5 34.5v463c0 56.667 6.66699 100 20 130s41.333 54.833 84 74.5s95 29.5 157 29.5c145.333 0 218 -46 218 -138c0 -36 -7.16699 -67 -21.5 -93s-28.5 -46.333 -42.5 -61z" />
    <glyph glyph-name="agrave" unicode="&#xe0;" horiz-adv-x="596" 
d="M382 471c4 37.333 30.3311 55.999 78.998 55.999c26 0 45.333 -2 58 -6s21.5 -11 26.5 -21s8 -18.833 9 -26.5s1.5 -19.167 1.5 -34.5v-350c0 -15.333 -0.5 -26.833 -1.5 -34.5s-3.83301 -16.5 -8.5 -26.5c-9.33301 -17.333 -32.166 -26 -68.499 -26
s-60.666 4.5 -72.999 13.5s-19.5 22.167 -21.5 39.5c-24.667 -35.333 -65.834 -53 -123.501 -53s-111.167 26.333 -160.5 79s-74 113.834 -74 183.501s24.833 130.667 74.5 183s104.167 78.5 163.5 78.5c22.667 0 43.334 -4 62.001 -12s31.667 -15.5 39 -22.5
s13.333 -13.833 18 -20.5zM401.998 568.999c-9.33301 0 -19.333 2.33398 -30 7.00098l-165 52c-18 5.33301 -29.667 11.666 -35 18.999s-8 16.5 -8 27.5s2.66699 24.5 8 40.5c12.667 39.333 29 59 49 59c2.66699 0 12.667 -2.33301 30 -7l165 -51l22 -8
c14 -7.33301 21 -18.5 21 -33.5s-2.66699 -30.5 -8 -46.5c-12.667 -39.333 -29 -59 -49 -59zM225.998 203.5c17.333 -17.667 38.332 -26.501 62.999 -26.501s45.167 9 61.5 27s24.5 37.833 24.5 59.5s-7.83301 41.834 -23.5 60.501s-36.667 28 -63 28
s-47.666 -9.33301 -63.999 -28s-24.5 -39 -24.5 -61s8.66699 -41.833 26 -59.5z" />
    <glyph glyph-name="aacute" unicode="&#xe1;" horiz-adv-x="596" 
d="M382 471c4 37.333 30.3311 55.999 78.998 55.999c26 0 45.333 -2 58 -6s21.5 -11 26.5 -21s8 -18.833 9 -26.5s1.5 -19.167 1.5 -34.5v-350c0 -15.333 -0.5 -26.833 -1.5 -34.5s-3.83301 -16.5 -8.5 -26.5c-9.33301 -17.333 -32.166 -26 -68.499 -26
s-60.666 4.5 -72.999 13.5s-19.5 22.167 -21.5 39.5c-24.667 -35.333 -65.834 -53 -123.501 -53s-111.167 26.333 -160.5 79s-74 113.834 -74 183.501s24.833 130.667 74.5 183s104.167 78.5 163.5 78.5c22.667 0 43.334 -4 62.001 -12s31.667 -15.5 39 -22.5
s13.333 -13.833 18 -20.5zM264.998 575.999l-30 -7c-20 0 -36.333 19.667 -49 59c-5.33301 16 -8 29.667 -8 41s2 20 6 26c6.66699 8.66699 19 15.667 37 21l165 51c17.333 4.66699 27.333 7 30 7c20 0 36 -19.667 48 -59c5.33301 -16 8 -29.5 8 -40.5s-2 -19.5 -6 -25.5
c-6.66699 -8.66699 -19 -15.667 -37 -21zM225.998 203.499c17.333 -17.667 38.332 -26.501 62.999 -26.501s45.167 9 61.5 27s24.5 37.833 24.5 59.5s-7.83301 41.834 -23.5 60.501s-36.667 28 -63 28s-47.666 -9.33301 -63.999 -28s-24.5 -39 -24.5 -61
s8.66699 -41.833 26 -59.5z" />
    <glyph glyph-name="acircumflex" unicode="&#xe2;" horiz-adv-x="596" 
d="M382 471c4 37.333 30.3311 55.999 78.998 55.999c26 0 45.333 -2 58 -6s21.5 -11 26.5 -21s8 -18.833 9 -26.5s1.5 -19.167 1.5 -34.5v-350c0 -15.333 -0.5 -26.833 -1.5 -34.5s-3.83301 -16.5 -8.5 -26.5c-9.33301 -17.333 -32.166 -26 -68.499 -26
s-60.666 4.5 -72.999 13.5s-19.5 22.167 -21.5 39.5c-24.667 -35.333 -65.834 -53 -123.501 -53s-111.167 26.333 -160.5 79s-74 113.834 -74 183.501s24.833 130.667 74.5 183s104.167 78.5 163.5 78.5c22.667 0 43.334 -4 62.001 -12s31.667 -15.5 39 -22.5
s13.333 -13.833 18 -20.5zM225.998 203.499c17.333 -17.667 38.332 -26.501 62.999 -26.501s45.167 9 61.5 27s24.5 37.833 24.5 59.5s-7.83301 41.834 -23.5 60.501s-36.667 28 -63 28s-47.666 -9.33301 -63.999 -28s-24.5 -39 -24.5 -61s8.66699 -41.833 26 -59.5z
M326.997 773.998l22.999 -5.00098l134.5 -44c27.667 -9.33301 41.5 -25.666 41.5 -48.999c0 -12.667 -3.66699 -26 -11 -40c-18 -35.333 -38 -53 -60 -53c-6 0 -16.667 2.33301 -32 7l-96 42l-93 -40c-9.33301 -4.66699 -20.666 -7 -33.999 -7c-25.333 0 -46 17 -62 51
c-8 17.333 -12 31.333 -12 42c0 21.333 12.667 36.333 38 45l139 46z" />
    <glyph glyph-name="atilde" unicode="&#xe3;" horiz-adv-x="596" 
d="M382 471c4 37.333 30.3311 55.999 78.998 55.999c26 0 45.333 -2 58 -6s21.5 -11 26.5 -21s8 -18.833 9 -26.5s1.5 -19.167 1.5 -34.5v-350c0 -15.333 -0.5 -26.833 -1.5 -34.5s-3.83301 -16.5 -8.5 -26.5c-9.33301 -17.333 -32.166 -26 -68.499 -26
s-60.666 4.5 -72.999 13.5s-19.5 22.167 -21.5 39.5c-24.667 -35.333 -65.834 -53 -123.501 -53s-111.167 26.333 -160.5 79s-74 113.834 -74 183.501s24.833 130.667 74.5 183s104.167 78.5 163.5 78.5c22.667 0 43.334 -4 62.001 -12s31.667 -15.5 39 -22.5
s13.333 -13.833 18 -20.5zM225.998 203.499c17.333 -17.667 38.332 -26.501 62.999 -26.501s45.167 9 61.5 27s24.5 37.833 24.5 59.5s-7.83301 41.834 -23.5 60.501s-36.667 28 -63 28s-47.666 -9.33301 -63.999 -28s-24.5 -39 -24.5 -61s8.66699 -41.833 26 -59.5z
M488.997 757.998c24 -16.667 35.999 -32.6689 35.999 -48.002c0 -9.33301 -2.66699 -18.333 -8 -27s-9 -14.834 -11 -18.501s-6.66699 -10.167 -14 -19.5s-15.666 -17.666 -24.999 -24.999c-25.333 -18.667 -51 -28 -77 -28s-46.5 4.33301 -61.5 13
s-27.333 17.334 -37 26.001s-17.5 13 -23.5 13c-9.33301 0 -18 -4 -26 -12c-15.333 -26.667 -29.5 -40 -42.5 -40s-28.667 8 -47 24s-27.5 29.167 -27.5 39.5s2.66699 19.833 8 28.5s9 14.834 11 18.501s6.83301 10 14.5 19s16.167 17.167 25.5 24.5
c24.667 18 53.667 27 87 27c30.667 0 60 -12.333 88 -37c9.33301 -8.66699 17 -13 23 -13c12 0 20.667 4 26 12c14 25.333 29 38 45 38c10 0 22 -5 36 -15z" />
    <glyph glyph-name="adieresis" unicode="&#xe4;" horiz-adv-x="596" 
d="M382 471c4 37.333 30.3311 55.999 78.998 55.999c26 0 45.333 -2 58 -6s21.5 -11 26.5 -21s8 -18.833 9 -26.5s1.5 -19.167 1.5 -34.5v-350c0 -15.333 -0.5 -26.833 -1.5 -34.5s-3.83301 -16.5 -8.5 -26.5c-9.33301 -17.333 -32.166 -26 -68.499 -26
s-60.666 4.5 -72.999 13.5s-19.5 22.167 -21.5 39.5c-24.667 -35.333 -65.834 -53 -123.501 -53s-111.167 26.333 -160.5 79s-74 113.834 -74 183.501s24.833 130.667 74.5 183s104.167 78.5 163.5 78.5c22.667 0 43.334 -4 62.001 -12s31.667 -15.5 39 -22.5
s13.333 -13.833 18 -20.5zM225.998 203.499c17.333 -17.667 38.332 -26.501 62.999 -26.501s45.167 9 61.5 27s24.5 37.833 24.5 59.5s-7.83301 41.834 -23.5 60.501s-36.667 28 -63 28s-47.666 -9.33301 -63.999 -28s-24.5 -39 -24.5 -61s8.66699 -41.833 26 -59.5z
M189.997 594.998c-21.333 0 -38.333 2.00195 -51 6.00195s-21.667 11.167 -27 21.5s-8.5 19.333 -9.5 27s-1.33301 19.667 -1 36s1 28 2 35s4 15.5 9 25.5s14 17 27 21s30.167 6 51.5 6s38.333 -2 51 -6s21.667 -11.167 27 -21.5s8.5 -19.333 9.5 -27
s1.5 -19.334 1.5 -35.001s-0.5 -27.334 -1.5 -35.001s-4.16699 -16.5 -9.5 -26.5s-14.5 -17 -27.5 -21s-30.167 -6 -51.5 -6zM459.997 595c-21.333 0 -38.333 2.00098 -51 6.00098s-21.667 11.167 -27 21.5s-8.5 19.333 -9.5 27s-1.5 19.5 -1.5 35.5s0.5 27.833 1.5 35.5
s4.16699 16.334 9.5 26.001s14.5 16.5 27.5 20.5s30.167 6 51.5 6s38.333 -2 51 -6s21.667 -11.167 27 -21.5s8.5 -19.333 9.5 -27s1.5 -19.334 1.5 -35.001s-0.5 -27.334 -1.5 -35.001s-4.16699 -16.5 -9.5 -26.5s-14.5 -17 -27.5 -21s-30.167 -6 -51.5 -6z" />
    <glyph glyph-name="aring" unicode="&#xe5;" horiz-adv-x="596" 
d="M257.5 722c21 19.333 44.833 29.001 71.5 29.001s50.167 -9.5 70.5 -28.5s30.5 -43.5 30.5 -73.5s-10.5 -54.333 -31.5 -73s-44.333 -28 -70 -28s-49.167 9.5 -70.5 28.5s-32 43.167 -32 72.5s10.5 53.666 31.5 72.999zM328 602.001c11.333 0 22.168 4 32.501 12
s15.5 20 15.5 36s-5 28 -15 36s-20.833 12 -32.5 12s-22.667 -4.16699 -33 -12.5s-15.5 -20.333 -15.5 -36s5.16699 -27.5 15.5 -35.5s21.166 -12 32.499 -12zM382.002 471.001c4 37.333 30.3311 55.999 78.998 55.999c26 0 45.333 -2 58 -6s21.5 -11 26.5 -21
s8 -18.833 9 -26.5s1.5 -19.167 1.5 -34.5v-350c0 -15.333 -0.5 -26.833 -1.5 -34.5s-3.83301 -16.5 -8.5 -26.5c-9.33301 -17.333 -32.166 -26 -68.499 -26s-60.666 4.5 -72.999 13.5s-19.5 22.167 -21.5 39.5c-24.667 -35.333 -65.834 -53 -123.501 -53
s-111.167 26.333 -160.5 79s-74 113.834 -74 183.501s24.833 130.667 74.5 183s104.167 78.5 163.5 78.5c22.667 0 43.334 -4 62.001 -12s31.667 -15.5 39 -22.5s13.333 -13.833 18 -20.5zM226 203.5c17.333 -17.667 38.332 -26.501 62.999 -26.501s45.167 9 61.5 27
s24.5 37.833 24.5 59.5s-7.83301 41.834 -23.5 60.501s-36.667 28 -63 28s-47.666 -9.33301 -63.999 -28s-24.5 -39 -24.5 -61s8.66699 -41.833 26 -59.5z" />
    <glyph glyph-name="ae" unicode="&#xe6;" horiz-adv-x="910" 
d="M752 159c17.333 6.66699 30.3359 10 39.0029 10c22 0 40.333 -14.333 55 -43c8.66699 -17.333 13 -32.333 13 -45s-3.66699 -23.5 -11 -32.5s-14.333 -15 -21 -18s-12.834 -5.5 -18.501 -7.5l-10 -3.5c-1 -0.333008 -1.83301 -0.833008 -2.5 -1.5
c-46 -16.667 -95 -25 -147 -25c-91.333 0 -162.333 28.333 -213 85l-2 -4c-26 -26.667 -55.167 -47.167 -87.5 -61.5s-78.833 -21.5 -139.5 -21.5c-121.333 0 -182 52.667 -182 158c0 43.333 19.333 76 58 98s87 33 145 33s102.333 -10.333 133 -31v6
c-6.66699 78.667 -34.667 118 -84 118c-29.333 0 -55 -11.667 -77 -35s-43.167 -35 -63.5 -35s-41.666 13.333 -63.999 40s-33.5 48.667 -33.5 66s10.667 35.833 32 55.5s49.666 36.334 84.999 50.001s74.666 20.5 117.999 20.5c69.333 0 129 -24 179 -72
c51.333 46 116.666 69 195.999 69c38.667 0 73.834 -6.5 105.501 -19.5s56.5 -29.833 74.5 -50.5c37.333 -42 56 -85.167 56 -129.5s-10.167 -76 -30.5 -95s-42.833 -28.5 -67.5 -28.5h-233c0 -18.667 10.833 -34.334 32.5 -47.001s43.167 -19 64.5 -19
c39.333 0 69.666 4 90.999 12zM245.003 109c25.333 0 50.167 4.83301 74.5 14.5s42.833 22.5 55.5 38.5l-3 9c-30.667 12 -70.667 18 -120 18s-74 -11.333 -74 -34c0 -30.667 22.333 -46 67 -46zM696.504 366c-11.667 9.33301 -28 14.001 -49 14.001s-42 -8.66699 -63 -26
s-31.5 -36 -31.5 -56h126c23.333 0 35 10.333 35 31c0 15.333 -5.83301 27.666 -17.5 36.999z" />
    <glyph glyph-name="ccedilla" unicode="&#xe7;" horiz-adv-x="524" 
d="M201 -21c2 11.333 7.33594 20.335 16.0029 27.002c-54 17.333 -99.5 48.5 -136.5 93.5s-55.5 100.833 -55.5 167.5c0 42.667 8.66699 81.834 26 117.501s39.666 64.167 66.999 85.5c58 45.333 118.333 68 181 68c26 0 51 -3.33301 75 -10s41.667 -13.334 53 -20.001
l17 -11c12.667 -8 22 -14.333 28 -19c18 -14 27 -29.333 27 -46s-7.33301 -36.667 -22 -60c-24 -36.667 -47.333 -55 -70 -55c-12.667 0 -30.667 7.33301 -54 22c-12.667 11.333 -30.334 17 -53.001 17s-43.667 -7.83301 -63 -23.5s-29 -38 -29 -67s9.5 -51.5 28.5 -67.5
s39.167 -24 60.5 -24s41.166 6.16699 59.499 18.5s33.166 18.5 44.499 18.5c20 0 45 -18 75 -54c15.333 -19.333 23 -37 23 -53c0 -24.667 -18.333 -48.667 -55 -72c-21.333 -14.667 -49 -25.667 -83 -33c23.333 -20.667 35 -47.834 35 -81.501
s-11.833 -60.334 -35.5 -80.001s-49.167 -29.5 -76.5 -29.5c-18 0 -31.667 2.66699 -41 8c-26 13.333 -39.667 26.333 -41 39l-1 5c0 8 5.16699 18.167 15.5 30.5s19.166 18.5 26.499 18.5s13.333 -1.5 18 -4.5s8.33398 -4.83301 11.001 -5.5
c2.66699 -2.66699 6.83398 -4 12.501 -4s11 2 16 6s7.5 9.83301 7.5 17.5s-2.5 13.5 -7.5 17.5s-10.333 6 -16 6s-10.167 -1.66699 -13.5 -5c-10.667 -6.66699 -20.5 -10 -29.5 -10s-18 7 -27 21s-13.5 24.333 -13.5 31z" />
    <glyph glyph-name="egrave" unicode="&#xe8;" horiz-adv-x="573" 
d="M379 569l-30 7.00098l-165 52c-18 5.33301 -29.667 11.666 -35 18.999s-8 16.5 -8 27.5s2.66699 24.5 8 40.5c12.667 39.333 29 59 49 59c2.66699 0 12.667 -2.33301 30 -7l165 -51c9.33301 -3.33301 16.333 -6 21 -8c14.667 -7.33301 22 -18.5 22 -33.5
s-2.66699 -30.5 -8 -46.5c-12.667 -39.333 -29 -59 -49 -59zM517.5 235.501c-20.333 -19.667 -42.833 -29.499 -67.5 -29.499h-237c0 -18.667 11 -34.334 33 -47.001s44 -19 66 -19c38.667 0 69 4 91 12l11 4c16 7.33301 29.333 11 40 11c21.333 0 39.666 -15 54.999 -45
c8.66699 -18 13 -33.333 13 -46c0 -59.333 -71 -89 -213 -89c-49.333 0 -93.166 8.5 -131.499 25.5s-68.166 39.5 -89.499 67.5c-42 54 -63 114.333 -63 181c0 84 27.167 151.167 81.5 201.5s122.166 75.5 203.499 75.5c92.667 0 160.667 -32.667 204 -98
c22.667 -34.667 34 -72.5 34 -113.5s-10.167 -71.333 -30.5 -91zM337 297.002c25.333 0 38.001 10.668 38.001 32.001c0 15.333 -5.83301 27.666 -17.5 36.999s-28.334 14 -50.001 14s-43.167 -8.83301 -64.5 -26.5s-32 -36.5 -32 -56.5h126z" />
    <glyph glyph-name="eacute" unicode="&#xe9;" horiz-adv-x="573" 
d="M256 576c-9.33301 -4.66699 -19.333 -7 -30 -7c-20 0 -36.333 19.667 -49 59c-5.33301 16 -8 29.667 -8 41s2.33301 20 7 26c6 8.66699 18 15.667 36 21l165 51c17.333 4.66699 27.333 7 30 7c20 0 36 -19.667 48 -59c5.33301 -16 8 -29.5 8 -40.5
s-2.33301 -19.5 -7 -25.5c-6 -8.66699 -18 -15.667 -36 -21zM517.5 235.5c-20.333 -19.667 -42.833 -29.499 -67.5 -29.499h-237c0 -18.667 11 -34.334 33 -47.001s44 -19 66 -19c38.667 0 69 4 91 12l11 4c16 7.33301 29.333 11 40 11c21.333 0 39.666 -15 54.999 -45
c8.66699 -18 13 -33.333 13 -46c0 -59.333 -71 -89 -213 -89c-49.333 0 -93.166 8.5 -131.499 25.5s-68.166 39.5 -89.499 67.5c-42 54 -63 114.333 -63 181c0 84 27.167 151.167 81.5 201.5s122.166 75.5 203.499 75.5c92.667 0 160.667 -32.667 204 -98
c22.667 -34.667 34 -72.5 34 -113.5s-10.167 -71.333 -30.5 -91zM337 297.001c25.333 0 38.001 10.668 38.001 32.001c0 15.333 -5.83301 27.666 -17.5 36.999s-28.334 14 -50.001 14s-43.167 -8.83301 -64.5 -26.5s-32 -36.5 -32 -56.5h126z" />
    <glyph glyph-name="ecircumflex" unicode="&#xea;" horiz-adv-x="573" 
d="M297 774l22.999 -5.00098l134.5 -44c27.667 -9.33301 41.5 -25.666 41.5 -48.999c0 -12.667 -3.66699 -26 -11 -40c-18 -35.333 -38 -53 -60 -53c-6 0 -16.667 2.33301 -32 7l-96 42l-93 -40c-9.33301 -4.66699 -20.666 -7 -33.999 -7c-25.333 0 -46 17 -62 51
c-8 17.333 -12 31.333 -12 42c0 21.333 12.667 36.333 38 45l139 46zM517.499 235.499c-20.333 -19.667 -42.833 -29.499 -67.5 -29.499h-237c0 -18.667 11 -34.334 33 -47.001s44 -19 66 -19c38.667 0 69 4 91 12l11 4c16 7.33301 29.333 11 40 11
c21.333 0 39.666 -15 54.999 -45c8.66699 -18 13 -33.333 13 -46c0 -59.333 -71 -89 -213 -89c-49.333 0 -93.166 8.5 -131.499 25.5s-68.166 39.5 -89.499 67.5c-42 54 -63 114.333 -63 181c0 84 27.167 151.167 81.5 201.5s122.166 75.5 203.499 75.5
c92.667 0 160.667 -32.667 204 -98c22.667 -34.667 34 -72.5 34 -113.5s-10.167 -71.333 -30.5 -91zM336.999 297c25.333 0 38.001 10.668 38.001 32.001c0 15.333 -5.83301 27.666 -17.5 36.999s-28.334 14 -50.001 14s-43.167 -8.83301 -64.5 -26.5s-32 -36.5 -32 -56.5
h126z" />
    <glyph glyph-name="edieresis" unicode="&#xeb;" horiz-adv-x="573" 
d="M423 595c-21.333 0 -38.333 2.00098 -51 6.00098s-21.667 11.167 -27 21.5s-8.5 19.333 -9.5 27s-1.5 19.5 -1.5 35.5s0.5 27.833 1.5 35.5s4.16699 16.334 9.5 26.001s14.5 16.5 27.5 20.5s30.167 6 51.5 6s38.333 -2 51 -6s21.667 -11.167 27 -21.5
s8.5 -19.333 9.5 -27s1.5 -19.334 1.5 -35.001s-0.5 -27.334 -1.5 -35.001s-4.16699 -16.5 -9.5 -26.5s-14.5 -17 -27.5 -21s-30.167 -6 -51.5 -6zM153 595.001c-21.333 0 -38.333 2.00195 -51 6.00195s-21.667 11.167 -27 21.5s-8.5 19.333 -9.5 27s-1.33301 19.667 -1 36
s1 28 2 35s4 15.5 9 25.5s14 17 27 21s30.167 6 51.5 6s38.333 -2 51 -6s21.667 -11.167 27 -21.5s8.5 -19.333 9.5 -27s1.5 -19.334 1.5 -35.001s-0.5 -27.334 -1.5 -35.001s-4.16699 -16.5 -9.5 -26.5s-14.5 -17 -27.5 -21s-30.167 -6 -51.5 -6zM517.5 235.503
c-20.333 -19.667 -42.833 -29.499 -67.5 -29.499h-237c0 -18.667 11 -34.334 33 -47.001s44 -19 66 -19c38.667 0 69 4 91 12l11 4c16 7.33301 29.333 11 40 11c21.333 0 39.666 -15 54.999 -45c8.66699 -18 13 -33.333 13 -46c0 -59.333 -71 -89 -213 -89
c-49.333 0 -93.166 8.5 -131.499 25.5s-68.166 39.5 -89.499 67.5c-42 54 -63 114.333 -63 181c0 84 27.167 151.167 81.5 201.5s122.166 75.5 203.499 75.5c92.667 0 160.667 -32.667 204 -98c22.667 -34.667 34 -72.5 34 -113.5s-10.167 -71.333 -30.5 -91zM337 297.004
c25.333 0 38.001 10.668 38.001 32.001c0 15.333 -5.83301 27.666 -17.5 36.999s-28.334 14 -50.001 14s-43.167 -8.83301 -64.5 -26.5s-32 -36.5 -32 -56.5h126z" />
    <glyph glyph-name="igrave" unicode="&#xec;" horiz-adv-x="255" 
d="M40 439c0 15.333 0.500977 26.833 1.50098 34.5s3.83301 16.5 8.5 26.5c9.33301 17.333 35.333 26 78 26c32 0 54.667 -5.66699 68 -17c11.333 -9.33301 17.333 -23.666 18 -42.999c0.666992 -6.66699 1 -16.334 1 -29.001v-350c0 -15.333 -0.5 -26.833 -1.5 -34.5
s-4.16699 -16.5 -9.5 -26.5c-8.66699 -17.333 -34.334 -26 -77.001 -26c-42 0 -67.667 9 -77 27c-4.66699 10 -7.5 18.667 -8.5 26s-1.5 19 -1.5 35v351zM191.001 569l-30 7.00098l-165 52c-18 5.33301 -29.667 11.666 -35 18.999s-8 16.5 -8 27.5s2.66699 24.5 8 40.5
c12.667 39.333 29 59 49 59c2.66699 0 12.667 -2.33301 30 -7l165 -51c9.33301 -3.33301 16.333 -6 21 -8c14.667 -7.33301 22 -18.5 22 -33.5s-2.66699 -30.5 -8 -46.5c-12.667 -39.333 -29 -59 -49 -59z" />
    <glyph glyph-name="iacute" unicode="&#xed;" horiz-adv-x="255" 
d="M40 439c0 15.333 0.500977 26.833 1.50098 34.5s3.83301 16.5 8.5 26.5c9.33301 17.333 35.333 26 78 26c32 0 54.667 -5.66699 68 -17c11.333 -9.33301 17.333 -23.666 18 -42.999c0.666992 -6.66699 1 -16.334 1 -29.001v-350c0 -15.333 -0.5 -26.833 -1.5 -34.5
s-4.16699 -16.5 -9.5 -26.5c-8.66699 -17.333 -34.334 -26 -77.001 -26c-42 0 -67.667 9 -77 27c-4.66699 10 -7.5 18.667 -8.5 26s-1.5 19 -1.5 35v351zM103.001 576l-30 -7c-20 0 -36.333 19.667 -49 59c-5.33301 16 -8 29.667 -8 41s2 20 6 26
c6.66699 8.66699 19 15.667 37 21l165 51c17.333 4.66699 27.333 7 30 7c20 0 36 -19.667 48 -59c5.33301 -16 8 -29.5 8 -40.5s-2 -19.5 -6 -25.5c-6.66699 -8.66699 -19 -15.667 -37 -21z" />
    <glyph glyph-name="icircumflex" unicode="&#xee;" horiz-adv-x="255" 
d="M40 439c0 15.333 0.500977 26.833 1.50098 34.5s3.83301 16.5 8.5 26.5c9.33301 17.333 35.333 26 78 26c32 0 54.667 -5.66699 68 -17c11.333 -9.33301 17.333 -23.666 18 -42.999c0.666992 -6.66699 1 -16.334 1 -29.001v-350c0 -15.333 -0.5 -26.833 -1.5 -34.5
s-4.16699 -16.5 -9.5 -26.5c-8.66699 -17.333 -34.334 -26 -77.001 -26c-42 0 -67.667 9 -77 27c-4.66699 10 -7.5 18.667 -8.5 26s-1.5 19 -1.5 35v351zM129.001 774l22.999 -5.00098l134.5 -44c27.667 -9.33301 41.5 -25.666 41.5 -48.999c0 -12.667 -3.66699 -26 -11 -40
c-18 -35.333 -38 -53 -60 -53c-6 0 -16.667 2.33301 -32 7l-96 42l-93 -40c-9.33301 -4.66699 -20.666 -7 -33.999 -7c-25.333 0 -46 17 -62 51c-8 17.333 -12 31.333 -12 42c0 21.333 12.667 36.333 38 45l139 46z" />
    <glyph glyph-name="idieresis" unicode="&#xef;" horiz-adv-x="255" 
d="M40 439c0 15.333 0.500977 26.833 1.50098 34.5s3.83301 16.5 8.5 26.5c9.33301 17.333 35.333 26 78 26c32 0 54.667 -5.66699 68 -17c11.333 -9.33301 17.333 -23.666 18 -42.999c0.666992 -6.66699 1 -16.334 1 -29.001v-350c0 -15.333 -0.5 -26.833 -1.5 -34.5
s-4.16699 -16.5 -9.5 -26.5c-8.66699 -17.333 -34.334 -26 -77.001 -26c-42 0 -67.667 9 -77 27c-4.66699 10 -7.5 18.667 -8.5 26s-1.5 19 -1.5 35v351zM-7.99902 595c-21.333 0 -38.333 2.00195 -51 6.00195s-21.667 11.167 -27 21.5s-8.5 19.333 -9.5 27
s-1.33301 19.667 -1 36s1 28 2 35s4 15.5 9 25.5s14 17 27 21s30.167 6 51.5 6s38.333 -2 51 -6s21.667 -11.167 27 -21.5s8.5 -19.333 9.5 -27s1.5 -19.334 1.5 -35.001s-0.5 -27.334 -1.5 -35.001s-4.16699 -16.5 -9.5 -26.5s-14.5 -17 -27.5 -21s-30.167 -6 -51.5 -6z
M262.001 595.002c-21.333 0 -38.333 2.00098 -51 6.00098s-21.667 11.167 -27 21.5s-8.5 19.333 -9.5 27s-1.5 19.5 -1.5 35.5s0.5 27.833 1.5 35.5s4.16699 16.334 9.5 26.001s14.5 16.5 27.5 20.5s30.167 6 51.5 6s38.333 -2 51 -6s21.667 -11.167 27 -21.5
s8.5 -19.333 9.5 -27s1.5 -19.334 1.5 -35.001s-0.5 -27.334 -1.5 -35.001s-4.16699 -16.5 -9.5 -26.5s-14.5 -17 -27.5 -21s-30.167 -6 -51.5 -6z" />
    <glyph glyph-name="eth" unicode="&#xf0;" horiz-adv-x="585" 
d="M386 735l-23.999 -32.002c132 -96 198 -233.667 198 -413c0 -10.667 -0.666992 -26.667 -2 -48c-4 -63.333 -31.167 -121 -81.5 -173s-110.5 -78 -180.5 -78s-132.667 24.833 -188 74.5s-83 112.834 -83 189.501c0 37.333 7.83301 72.666 23.5 105.999
s35.834 61 60.501 83s51.667 39.333 81 52s59.166 19 89.499 19s55 -4 74 -12s38.5 -19.667 58.5 -35c-35.333 60.667 -78 104.334 -128 131.001l-31 -41c-11.333 -15.333 -21 -23 -29 -23s-17.333 3.33301 -28 10c-19.333 11.333 -29 22.666 -29 33.999
c0 6 4.33301 14.667 13 26l23 31l-3 1c-0.666992 0.666992 -6.5 3.83398 -17.5 9.50098s-18.333 11 -22 16s-5.5 12.5 -5.5 22.5s4.66699 24 14 42c14.667 28 32 42 52 42c10 0 31.667 -7.33301 65 -22l24 32c1.33301 1.33301 3.16602 3.83301 5.49902 7.5
s4.16602 6.33398 5.49902 8.00098s3 3.5 5 5.5c5.33301 4 11.333 6 18 6s15.334 -3.66699 26.001 -11c18 -10.667 27 -20.5 27 -29.5s-3.66699 -19.167 -11 -30.5zM228.001 186.498c20.667 -15.667 41.833 -23.5 63.5 -23.5s43 7.83301 64 23.5s31.5 39.5 31.5 71.5
s-10 55.667 -30 71s-41.667 23 -65 23s-45 -8 -65 -24s-30 -39.667 -30 -71s10.333 -54.833 31 -70.5z" />
    <glyph glyph-name="ntilde" unicode="&#xf1;" horiz-adv-x="606" 
d="M333 527c66.667 0 122.166 -25.501 166.499 -76.501s66.5 -113.167 66.5 -186.5v-176c0 -15.333 -0.5 -26.833 -1.5 -34.5s-3.83301 -16.167 -8.5 -25.5c-9.33301 -18 -35.333 -27 -78 -27c-47.333 0 -74.666 12.333 -81.999 37c-4 11.333 -6 28.333 -6 51v176
c0 27.333 -7.83301 48.666 -23.5 63.999s-36.667 23 -63 23s-47.666 -8 -63.999 -24s-24.5 -37 -24.5 -63v-177c0 -15.333 -0.5 -26.833 -1.5 -34.5s-4.16699 -16.167 -9.5 -25.5c-8.66699 -18 -34.334 -27 -77.001 -27c-42 0 -67.667 9 -77 27
c-4.66699 10 -7.5 18.833 -8.5 26.5s-1.5 19.167 -1.5 34.5v354c0 14.667 0.5 25.834 1.5 33.501s4.16699 16.167 9.5 25.5c9.33301 16.667 35 25 77 25c40.667 0 65.667 -7.66699 75 -23c6.66699 -11.333 10 -25 10 -41c2.66699 4.66699 8.66699 11.334 18 20.001
s18.333 15.667 27 21c22.667 15.333 47.667 23 75 23zM469.999 757.999c24 -16.667 35.9961 -32.6699 35.9961 -48.0029c0 -9.33301 -2.66699 -18.333 -8 -27s-9 -14.834 -11 -18.501s-6.66699 -10.167 -14 -19.5s-15.666 -17.666 -24.999 -24.999
c-25.333 -18.667 -51 -28 -77 -28s-46.5 4.33301 -61.5 13s-27.333 17.334 -37 26.001s-17.5 13 -23.5 13c-9.33301 0 -18 -4 -26 -12c-15.333 -26.667 -29.5 -40 -42.5 -40s-28.667 8 -47 24s-27.5 29.167 -27.5 39.5s2.66699 19.833 8 28.5s9 14.834 11 18.501
s6.83301 10 14.5 19s16.167 17.167 25.5 24.5c24.667 18 50.334 27 77.001 27s47.334 -4.16699 62.001 -12.5s26.667 -16.666 36 -24.999s17 -12.5 23 -12.5c10.667 0 19.334 4 26.001 12c14 25.333 29 38 45 38c10 0 22 -5 36 -15z" />
    <glyph glyph-name="ograve" unicode="&#xf2;" horiz-adv-x="600" 
d="M109 461c56 52 119.999 78.001 191.999 78.001s135.667 -25.833 191 -77.5s83 -117.5 83 -197.5c0 -55.333 -14.333 -104.5 -43 -147.5s-63.5 -74.667 -104.5 -95s-83.5 -30.5 -127.5 -30.5s-86.667 10.833 -128 32.5s-76.166 53.667 -104.499 96
s-42.5 90.166 -42.5 143.499c0 80 28 146 84 198zM388.999 569.001l-30 7.00098l-165 52c-18 5.33301 -29.667 11.666 -35 18.999s-8 16.5 -8 27.5s2.66699 24.5 8 40.5c12.667 39.333 29 59 49 59c2.66699 0 12.667 -2.33301 30 -7l165 -51
c9.33301 -3.33301 16.333 -6 21 -8c14.667 -7.33301 22 -18.5 22 -33.5s-2.66699 -30.5 -8 -46.5c-12.667 -39.333 -29 -59 -49 -59zM298.999 167.002c22 0 44 8.33105 66 24.998s33 41.334 33 74.001s-10.333 57 -31 73s-43 24 -67 24s-46.333 -8.33301 -67 -25
s-31 -41.167 -31 -73.5s10.667 -56.666 32 -72.999s43 -24.5 65 -24.5z" />
    <glyph glyph-name="oacute" unicode="&#xf3;" horiz-adv-x="600" 
d="M109 461c56 52 119.999 78.001 191.999 78.001s135.667 -25.833 191 -77.5s83 -117.5 83 -197.5c0 -55.333 -14.333 -104.5 -43 -147.5s-63.5 -74.667 -104.5 -95s-83.5 -30.5 -127.5 -30.5s-86.667 10.833 -128 32.5s-76.166 53.667 -104.499 96
s-42.5 90.166 -42.5 143.499c0 80 28 146 84 198zM262.999 576.001l-30 -7c-20 0 -36.333 19.667 -49 59c-5.33301 16 -8 29.667 -8 41s2 20 6 26c6.66699 8.66699 19 15.667 37 21l165 51c17.333 4.66699 27.333 7 30 7c20 0 36 -19.667 48 -59
c5.33301 -16 8 -29.5 8 -40.5s-2 -19.5 -6 -25.5c-6.66699 -8.66699 -19 -15.667 -37 -21zM298.999 167.001c22 0 44 8.33105 66 24.998s33 41.334 33 74.001s-10.333 57 -31 73s-43 24 -67 24s-46.333 -8.33301 -67 -25s-31 -41.167 -31 -73.5s10.667 -56.666 32 -72.999
s43 -24.5 65 -24.5z" />
    <glyph glyph-name="ocircumflex" unicode="&#xf4;" horiz-adv-x="600" 
d="M109 461c56 52 119.999 78.001 191.999 78.001s135.667 -25.833 191 -77.5s83 -117.5 83 -197.5c0 -55.333 -14.333 -104.5 -43 -147.5s-63.5 -74.667 -104.5 -95s-83.5 -30.5 -127.5 -30.5s-86.667 10.833 -128 32.5s-76.166 53.667 -104.499 96
s-42.5 90.166 -42.5 143.499c0 80 28 146 84 198zM298.999 167.001c22 0 44 8.33105 66 24.998s33 41.334 33 74.001s-10.333 57 -31 73s-43 24 -67 24s-46.333 -8.33301 -67 -25s-31 -41.167 -31 -73.5s10.667 -56.666 32 -72.999s43 -24.5 65 -24.5zM303.999 773.999
l23 -5.00098l134.5 -44c27.667 -9.33301 41.5 -25.666 41.5 -48.999c0 -12.667 -3.66699 -26 -11 -40c-17.333 -35.333 -37.333 -53 -60 -53c-6 0 -16.667 2.33301 -32 7l-96 42l-93 -40h-1c-13.333 -4.66699 -24.333 -7 -33 -7c-25.333 0 -46 17 -62 51
c-8 17.333 -12 31.333 -12 42c0 21.333 12.667 36.333 38 45l139 46z" />
    <glyph glyph-name="otilde" unicode="&#xf5;" horiz-adv-x="600" 
d="M109 461c56 52 119.999 78.001 191.999 78.001s135.667 -25.833 191 -77.5s83 -117.5 83 -197.5c0 -55.333 -14.333 -104.5 -43 -147.5s-63.5 -74.667 -104.5 -95s-83.5 -30.5 -127.5 -30.5s-86.667 10.833 -128 32.5s-76.166 53.667 -104.499 96
s-42.5 90.166 -42.5 143.499c0 80 28 146 84 198zM298.999 167.001c22 0 44 8.33105 66 24.998s33 41.334 33 74.001s-10.333 57 -31 73s-43 24 -67 24s-46.333 -8.33301 -67 -25s-31 -41.167 -31 -73.5s10.667 -56.666 32 -72.999s43 -24.5 65 -24.5zM465.999 757.999
c24 -16.667 35.9961 -32.6699 35.9961 -48.0029c0 -9.33301 -2.66699 -18.333 -8 -27s-9 -14.834 -11 -18.501s-6.66699 -10.167 -14 -19.5s-15.666 -17.666 -24.999 -24.999c-25.333 -18.667 -51 -28 -77 -28s-46.5 4.33301 -61.5 13s-27.333 17.334 -37 26.001
s-17.5 13 -23.5 13c-9.33301 0 -18 -4 -26 -12c-15.333 -26.667 -29.5 -40 -42.5 -40s-28.667 8 -47 24s-27.5 29.167 -27.5 39.5s2.66699 19.833 8 28.5s9 14.834 11 18.501s6.83301 10 14.5 19s16.167 17.167 25.5 24.5c24.667 18 50.334 27 77.001 27
s47.334 -4.16699 62.001 -12.5s26.667 -16.666 36 -24.999s17 -12.5 23 -12.5c10.667 0 19.334 4 26.001 12c14 25.333 29 38 45 38c10 0 22 -5 36 -15z" />
    <glyph glyph-name="odieresis" unicode="&#xf6;" horiz-adv-x="600" 
d="M109 461c56 52 119.999 78.001 191.999 78.001s135.667 -25.833 191 -77.5s83 -117.5 83 -197.5c0 -55.333 -14.333 -104.5 -43 -147.5s-63.5 -74.667 -104.5 -95s-83.5 -30.5 -127.5 -30.5s-86.667 10.833 -128 32.5s-76.166 53.667 -104.499 96
s-42.5 90.166 -42.5 143.499c0 80 28 146 84 198zM298.999 167.001c22 0 44 8.33105 66 24.998s33 41.334 33 74.001s-10.333 57 -31 73s-43 24 -67 24s-46.333 -8.33301 -67 -25s-31 -41.167 -31 -73.5s10.667 -56.666 32 -72.999s43 -24.5 65 -24.5zM159.999 594.999
c-21.333 0 -38.333 2.00195 -51 6.00195s-21.667 11.167 -27 21.5s-8.5 19.333 -9.5 27s-1.33301 19.667 -1 36s1 28 2 35s4 15.5 9 25.5s14 17 27 21s30.167 6 51.5 6s38.333 -2 51 -6s21.667 -11.167 27 -21.5s8.5 -19.333 9.5 -27s1.5 -19.334 1.5 -35.001
s-0.5 -27.334 -1.5 -35.001s-4.16699 -16.5 -9.5 -26.5s-14.5 -17 -27.5 -21s-30.167 -6 -51.5 -6zM429.999 595.001c-21.333 0 -38.333 2.00098 -51 6.00098s-21.667 11.167 -27 21.5s-8.5 19.333 -9.5 27s-1.5 19.5 -1.5 35.5s0.5 27.833 1.5 35.5
s4.16699 16.334 9.5 26.001s14.5 16.5 27.5 20.5s30.167 6 51.5 6s38.333 -2 51 -6s21.667 -11.167 27 -21.5s8.5 -19.333 9.5 -27s1.5 -19.334 1.5 -35.001s-0.5 -27.334 -1.5 -35.001s-4.16699 -16.5 -9.5 -26.5s-14.5 -17 -27.5 -21s-30.167 -6 -51.5 -6z" />
    <glyph glyph-name="divide" unicode="&#xf7;" horiz-adv-x="503" 
d="M405 346c38 0 60.334 -10 67.001 -30c4 -10.667 6 -24.667 6 -42s-1.66699 -31 -5 -41s-9 -17 -17 -21c-12 -6.66699 -29.333 -10 -52 -10h-309c-35.333 0 -57 10.667 -65 32c-3.33301 10 -5 23.5 -5 40.5s2 30.667 6 41s10.333 17.5 19 21.5c13.333 6 29.666 9 48.999 9
h306zM205.501 159c11.667 4 30.167 5.99902 55.5 5.99902s43.666 -5.66699 54.999 -17s17 -32 17 -62v-4c0 -23.333 -3 -40.666 -9 -51.999c-9.33301 -18.667 -31.666 -28 -66.999 -28s-59 6.33301 -71 19c-10.667 10 -15.834 26.667 -15.501 50s1 38.333 2 45
s3.83301 14.5 8.5 23.5s12.834 15.5 24.501 19.5zM298.001 388.999c-12 -4 -30.6689 -6.00098 -56.002 -6.00098s-43.666 5.83301 -54.999 17.5s-16.833 29 -16.5 52s1 37.833 2 44.5s3.83301 14.334 8.5 23.001c8.66699 17.333 30.334 26 65.001 26s58.667 -6 72 -18
c10 -10 15 -30.333 15 -61v-4c0 -23.333 -2.83301 -40.5 -8.5 -51.5s-14.5 -18.5 -26.5 -22.5z" />
    <glyph glyph-name="oslash" unicode="&#xf8;" horiz-adv-x="600" 
d="M488 464c58 -53.333 87.002 -120.332 87.002 -200.999c0 -55.333 -14.333 -104.5 -43 -147.5s-63.5 -74.667 -104.5 -95s-83.167 -30.5 -126.5 -30.5c-14 0 -27.333 1 -40 3l-48 -100c-5.33301 -11.333 -9.5 -19.666 -12.5 -24.999s-8 -10.5 -15 -15.5
s-16.167 -7.5 -27.5 -7.5s-28 5 -50 15s-36.833 18.833 -44.5 26.5s-11.5 18.167 -11.5 31.5s4 28 12 44l49 102c-58.667 53.333 -88 119.666 -88 198.999s28 145 84 197s119.333 78 190 78c12.667 0 25.667 -1 39 -3l48 100c12.667 25.333 24 40.333 34 45
c5.33301 2 13.166 3 23.499 3s27.166 -5.33301 50.499 -16c36 -17.333 54 -36.333 54 -57c0 -8.66699 -4.66699 -25.334 -14 -50.001zM299.002 166.001c22 0 44 8.33105 66 24.998s33 41.334 33 74.001s-10.333 57 -31 73s-43 24 -67 24s-46.333 -8.33301 -67 -25
s-31 -41.167 -31 -73.5s10.667 -56.666 32 -72.999s43 -24.5 65 -24.5z" />
    <glyph glyph-name="ugrave" unicode="&#xf9;" horiz-adv-x="606" 
d="M274 2c-67.333 0 -123.166 25.501 -167.499 76.501s-66.5 113.167 -66.5 186.5v175c0 16 0.5 27.667 1.5 35s3.83301 16 8.5 26c9.33301 18 35.333 27 78 27c46.667 0 74 -12.667 82 -38c4 -10.667 6 -27.667 6 -51v-175c0 -27.333 7.83301 -48.666 23.5 -63.999
s36.667 -23 63 -23s47.666 8 63.999 24s24.5 37 24.5 63v177c0 15.333 0.5 26.833 1.5 34.5s4.16699 16.5 9.5 26.5c8.66699 17.333 34.334 26 77.001 26c42 0 67.667 -9 77 -27c4.66699 -10 7.5 -18.833 8.5 -26.5s1.5 -19.167 1.5 -34.5v-354
c0 -14.667 -0.5 -25.834 -1.5 -33.501s-4.16699 -16.167 -9.5 -25.5c-10 -17.333 -35.667 -26 -77 -26c-40.667 0 -65.667 8 -75 24c-6.66699 11.333 -10 25 -10 41c-2.66699 -4.66699 -8.66699 -11.334 -18 -20.001s-18.333 -16 -27 -22
c-22.667 -14.667 -47.334 -22 -74.001 -22zM388 569.001c-9.33301 0 -19.333 2.33398 -30 7.00098l-165 52c-18 5.33301 -29.667 11.666 -35 18.999s-8 16.5 -8 27.5s2.66699 24.5 8 40.5c12.667 39.333 29 59 49 59c2.66699 0 12.667 -2.33301 30 -7l165 -51l22 -8
c14 -7.33301 21 -18.5 21 -33.5s-2.66699 -30.5 -8 -46.5c-12.667 -39.333 -29 -59 -49 -59z" />
    <glyph glyph-name="uacute" unicode="&#xfa;" horiz-adv-x="606" 
d="M274 2c-67.333 0 -123.166 25.501 -167.499 76.501s-66.5 113.167 -66.5 186.5v175c0 16 0.5 27.667 1.5 35s3.83301 16 8.5 26c9.33301 18 35.333 27 78 27c46.667 0 74 -12.667 82 -38c4 -10.667 6 -27.667 6 -51v-175c0 -27.333 7.83301 -48.666 23.5 -63.999
s36.667 -23 63 -23s47.666 8 63.999 24s24.5 37 24.5 63v177c0 15.333 0.5 26.833 1.5 34.5s4.16699 16.5 9.5 26.5c8.66699 17.333 34.334 26 77.001 26c42 0 67.667 -9 77 -27c4.66699 -10 7.5 -18.833 8.5 -26.5s1.5 -19.167 1.5 -34.5v-354
c0 -14.667 -0.5 -25.834 -1.5 -33.501s-4.16699 -16.167 -9.5 -25.5c-10 -17.333 -35.667 -26 -77 -26c-40.667 0 -65.667 8 -75 24c-6.66699 11.333 -10 25 -10 41c-2.66699 -4.66699 -8.66699 -11.334 -18 -20.001s-18.333 -16 -27 -22
c-22.667 -14.667 -47.334 -22 -74.001 -22zM279 576.001l-30 -7c-20 0 -36.333 19.667 -49 59c-5.33301 16 -8 29.667 -8 41s2 20 6 26c6.66699 8.66699 19 15.667 37 21l165 51c17.333 4.66699 27.333 7 30 7c20 0 36 -19.667 48 -59c5.33301 -16 8 -29.5 8 -40.5
s-2 -19.5 -6 -25.5c-6.66699 -8.66699 -19 -15.667 -37 -21z" />
    <glyph glyph-name="ucircumflex" unicode="&#xfb;" horiz-adv-x="606" 
d="M274 2c-67.333 0 -123.166 25.501 -167.499 76.501s-66.5 113.167 -66.5 186.5v175c0 16 0.5 27.667 1.5 35s3.83301 16 8.5 26c9.33301 18 35.333 27 78 27c46.667 0 74 -12.667 82 -38c4 -10.667 6 -27.667 6 -51v-175c0 -27.333 7.83301 -48.666 23.5 -63.999
s36.667 -23 63 -23s47.666 8 63.999 24s24.5 37 24.5 63v177c0 15.333 0.5 26.833 1.5 34.5s4.16699 16.5 9.5 26.5c8.66699 17.333 34.334 26 77.001 26c42 0 67.667 -9 77 -27c4.66699 -10 7.5 -18.833 8.5 -26.5s1.5 -19.167 1.5 -34.5v-354
c0 -14.667 -0.5 -25.834 -1.5 -33.501s-4.16699 -16.167 -9.5 -25.5c-10 -17.333 -35.667 -26 -77 -26c-40.667 0 -65.667 8 -75 24c-6.66699 11.333 -10 25 -10 41c-2.66699 -4.66699 -8.66699 -11.334 -18 -20.001s-18.333 -16 -27 -22
c-22.667 -14.667 -47.334 -22 -74.001 -22zM308 774.001l23 -5.00098l134.5 -44c27.667 -9.33301 41.5 -25.666 41.5 -48.999c0 -12.667 -3.66699 -26 -11 -40c-17.333 -35.333 -37.333 -53 -60 -53c-6 0 -16.667 2.33301 -32 7l-96 42l-93 -40h-1
c-13.333 -4.66699 -24.333 -7 -33 -7c-25.333 0 -46 17 -62 51c-8 17.333 -12 31.333 -12 42c0 21.333 12.667 36.333 38 45l139 46z" />
    <glyph glyph-name="udieresis" unicode="&#xfc;" horiz-adv-x="606" 
d="M274 2c-67.333 0 -123.166 25.501 -167.499 76.501s-66.5 113.167 -66.5 186.5v175c0 16 0.5 27.667 1.5 35s3.83301 16 8.5 26c9.33301 18 35.333 27 78 27c46.667 0 74 -12.667 82 -38c4 -10.667 6 -27.667 6 -51v-175c0 -27.333 7.83301 -48.666 23.5 -63.999
s36.667 -23 63 -23s47.666 8 63.999 24s24.5 37 24.5 63v177c0 15.333 0.5 26.833 1.5 34.5s4.16699 16.5 9.5 26.5c8.66699 17.333 34.334 26 77.001 26c42 0 67.667 -9 77 -27c4.66699 -10 7.5 -18.833 8.5 -26.5s1.5 -19.167 1.5 -34.5v-354
c0 -14.667 -0.5 -25.834 -1.5 -33.501s-4.16699 -16.167 -9.5 -25.5c-10 -17.333 -35.667 -26 -77 -26c-40.667 0 -65.667 8 -75 24c-6.66699 11.333 -10 25 -10 41c-2.66699 -4.66699 -8.66699 -11.334 -18 -20.001s-18.333 -16 -27 -22
c-22.667 -14.667 -47.334 -22 -74.001 -22zM435 595.001c-21.333 0 -38.333 2.00098 -51 6.00098s-21.667 11.167 -27 21.5s-8.5 19.333 -9.5 27s-1.5 19.5 -1.5 35.5s0.5 27.833 1.5 35.5s4.16699 16.334 9.5 26.001s14.5 16.5 27.5 20.5s30.167 6 51.5 6s38.333 -2 51 -6
s21.667 -11.167 27 -21.5s8.5 -19.333 9.5 -27s1.5 -19.334 1.5 -35.001s-0.5 -27.334 -1.5 -35.001s-4.16699 -16.5 -9.5 -26.5s-14.5 -17 -27.5 -21s-30.167 -6 -51.5 -6zM165 595.002c-21.333 0 -38.333 2.00195 -51 6.00195s-21.667 11.167 -27 21.5
s-8.5 19.333 -9.5 27s-1.33301 19.667 -1 36s1 28 2 35s4 15.5 9 25.5s14 17 27 21s30.167 6 51.5 6s38.333 -2 51 -6s21.667 -11.167 27 -21.5s8.5 -19.333 9.5 -27s1.5 -19.334 1.5 -35.001s-0.5 -27.334 -1.5 -35.001s-4.16699 -16.5 -9.5 -26.5s-14.5 -17 -27.5 -21
s-30.167 -6 -51.5 -6z" />
    <glyph glyph-name="yacute" unicode="&#xfd;" horiz-adv-x="604" 
d="M530 521c39.333 -17.333 58.999 -38.333 58.999 -63c0 -12 -2.66699 -23.333 -8 -34s-8 -16.334 -8 -17.001l-262 -586c-5.33301 -12.667 -9.83301 -22.334 -13.5 -29.001s-9.5 -13 -17.5 -19s-18 -9 -30 -9s-29.667 5 -53 15c-39.333 17.333 -59 38 -59 62
c0 16 32 92.333 96 229l-199 335c-13.333 22 -20 38.333 -20 49c0 21.333 18 42.666 54 63.999c22.667 13.333 40.334 20 53.001 20s23 -2.66699 31 -8s13.833 -10.833 17.5 -16.5s22 -36.667 55 -93l94.5 -157.5c3.33301 10.667 21.333 51.834 54 123.501
s50.167 109.834 52.5 114.501s6.16602 10.334 11.499 17.001c8.66699 11.333 20.834 17 36.501 17s34.167 -4.66699 55.5 -14zM274.999 576l-30 -7c-20 0 -36.333 19.667 -49 59c-5.33301 16 -8 29.667 -8 41s2 20 6 26c6.66699 8.66699 19 15.667 37 21l165 51
c17.333 4.66699 27.333 7 30 7c20 0 36 -19.667 48 -59c5.33301 -16 8 -29.5 8 -40.5s-2 -19.5 -6 -25.5c-6.66699 -8.66699 -19 -15.667 -37 -21z" />
    <glyph glyph-name="thorn" unicode="&#xfe;" horiz-adv-x="580" 
d="M317 526c59.333 0 113.834 -26.332 163.501 -78.999s74.5 -113.834 74.5 -183.501s-24.667 -130.667 -74 -183s-102 -78.5 -158 -78.5s-96.333 15.333 -121 46v-189c0 -26 -2.83301 -44.667 -8.5 -56s-14.334 -19 -26.001 -23s-27.334 -6 -47.001 -6s-35.167 2 -46.5 6
s-19.333 10.667 -24 20c-6.66699 14 -10 34.333 -10 61v840c0 26 2.83301 44.833 8.5 56.5s14.5 19.5 26.5 23.5s27.667 6 47 6s34.833 -2 46.5 -6s19.834 -11 24.501 -21c6.66699 -13.333 10 -33.333 10 -60v-223c26.667 32.667 64.667 49 114 49zM291.001 176.001
c24.667 0 45.668 9.00098 63.001 27.001s26 38 26 60s-8 42.167 -24 60.5s-37.333 27.5 -64 27.5s-47.834 -9.33301 -63.501 -28s-23.5 -38.834 -23.5 -60.501s8.16699 -41.5 24.5 -59.5s36.833 -27 61.5 -27z" />
    <glyph glyph-name="ydieresis" unicode="&#xff;" horiz-adv-x="604" 
d="M530 521c39.333 -17.333 58.999 -38.333 58.999 -63c0 -12 -2.66699 -23.333 -8 -34s-8 -16.334 -8 -17.001l-262 -586c-5.33301 -12.667 -9.83301 -22.334 -13.5 -29.001s-9.5 -13 -17.5 -19s-18 -9 -30 -9s-29.667 5 -53 15c-39.333 17.333 -59 38 -59 62
c0 16 32 92.333 96 229l-199 335c-13.333 22 -20 38.333 -20 49c0 21.333 18 42.666 54 63.999c22.667 13.333 40.334 20 53.001 20s23 -2.66699 31 -8s13.833 -10.833 17.5 -16.5s22 -36.667 55 -93l94.5 -157.5c3.33301 10.667 21.333 51.834 54 123.501
s50.167 109.834 52.5 114.501s6.16602 10.334 11.499 17.001c8.66699 11.333 20.834 17 36.501 17s34.167 -4.66699 55.5 -14zM175.999 595c-21.333 0 -38.333 2.00195 -51 6.00195s-21.667 11.167 -27 21.5s-8.5 19.333 -9.5 27s-1.33301 19.667 -1 36s1 28 2 35
s4 15.5 9 25.5s14 17 27 21s30.167 6 51.5 6s38.333 -2 51 -6s21.667 -11.167 27 -21.5s8.5 -19.333 9.5 -27s1.5 -19.334 1.5 -35.001s-0.5 -27.334 -1.5 -35.001s-4.16699 -16.5 -9.5 -26.5s-14.5 -17 -27.5 -21s-30.167 -6 -51.5 -6zM445.999 595.002
c-21.333 0 -38.333 2.00098 -51 6.00098s-21.667 11.167 -27 21.5s-8.5 19.333 -9.5 27s-1.5 19.5 -1.5 35.5s0.5 27.833 1.5 35.5s4.16699 16.334 9.5 26.001s14.5 16.5 27.5 20.5s30.167 6 51.5 6s38.333 -2 51 -6s21.667 -11.167 27 -21.5s8.5 -19.333 9.5 -27
s1.5 -19.334 1.5 -35.001s-0.5 -27.334 -1.5 -35.001s-4.16699 -16.5 -9.5 -26.5s-14.5 -17 -27.5 -21s-30.167 -6 -51.5 -6z" />
    <glyph glyph-name="dotlessi" unicode="&#x131;" horiz-adv-x="255" 
d="M40 439c0 15.333 0.500977 26.833 1.50098 34.5s3.83301 16.5 8.5 26.5c9.33301 17.333 35.333 26 78 26c32 0 54.667 -5.66699 68 -17c11.333 -9.33301 17.333 -23.666 18 -42.999c0.666992 -6.66699 1 -16.334 1 -29.001v-350c0 -15.333 -0.5 -26.833 -1.5 -34.5
s-4.16699 -16.5 -9.5 -26.5c-8.66699 -17.333 -34.334 -26 -77.001 -26c-42 0 -67.667 9 -77 27c-4.66699 10 -7.5 18.667 -8.5 26s-1.5 19 -1.5 35v351z" />
    <glyph glyph-name="Lslash" unicode="&#x141;" horiz-adv-x="687" 
d="M317 148l271.999 0.000976562c22 0 38 -2.5 48 -7.5s16.667 -12.833 20 -23.5s5 -24.834 5 -42.501s-1.66699 -31.834 -5 -42.501s-9 -18 -17 -22c-12.667 -6.66699 -30 -10 -52 -10h-360c-46.667 0 -74 12.667 -82 38c-4 10.667 -6 27.667 -6 51v202l-32 -9
c-13.333 -4 -23.333 -6 -30 -6c-22 0 -38 17 -48 51c-3.33301 13.333 -5 24.333 -5 33s2.83301 16.5 8.5 23.5s11.167 11.667 16.5 14s13.333 4.83301 24 7.5l66 18v222c0 15.333 0.5 26.833 1.5 34.5s4.16699 16.5 9.5 26.5c9.33301 18 35.333 27 78 27
c46.667 0 74.334 -12.333 83.001 -37c3.33301 -11.333 5 -28.666 5 -51.999v-170l64 18c13.333 4 23.333 6 30 6c22 0 37.667 -17 47 -51c3.33301 -14.667 5 -26.167 5 -34.5s-2.66699 -15.833 -8 -22.5s-10.5 -11 -15.5 -13s-13.167 -4.66699 -24.5 -8l-98 -28v-193z" />
    <glyph glyph-name="lslash" unicode="&#x142;" horiz-adv-x="468" 
d="M132 687c0 15.333 0.496094 26.834 1.49609 34.501s3.83301 16.5 8.5 26.5c9.33301 18 35.333 27 78 27c40.667 0 66 -9 76 -27c5.33301 -10 8.5 -19 9.5 -27s1.5 -19.667 1.5 -35v-212l64 18c13.333 4 23.333 6 30 6c22 0 37.667 -17 47 -51
c3.33301 -14.667 5 -26.167 5 -34.5s-2.66699 -15.833 -8 -22.5s-10.5 -11 -15.5 -13s-13.167 -4.66699 -24.5 -8l-98 -28v-118c0 -24 2 -39.167 6 -45.5s12.833 -9.5 26.5 -9.5s22.834 -0.5 27.501 -1.5s10.334 -3.83301 17.001 -8.5
c13.333 -8.66699 20 -32.334 20 -71.001c0 -42 -6.66699 -67.667 -20 -77c-17.333 -12 -58.666 -14 -123.999 -6c-51.333 6.66699 -84.666 23.667 -99.999 51c-18.667 32.667 -28 84.667 -28 156v80l-34 -9c-13.333 -4 -23.333 -6 -30 -6c-22 0 -38 17 -48 51
c-3.33301 13.333 -5 24.333 -5 33s2.83301 16.5 8.5 23.5s11.167 11.667 16.5 14s13.333 4.83301 24 7.5l68 19v263z" />
    <glyph glyph-name="OE" unicode="&#x152;" horiz-adv-x="1092" 
d="M979 177c15.333 0 26.8301 -0.498047 34.4971 -1.49805s16.5 -4.16699 26.5 -9.5c18 -9.33301 27 -35.333 27 -78c0 -46.667 -12.333 -74 -37 -82c-11.333 -4 -28.666 -6 -51.999 -6h-605c-98.667 5.33301 -181.334 43.166 -248.001 113.499s-100 155.666 -100 255.999
s34.833 186 104.5 257s150.834 106.5 243.501 106.5h606c15.333 0 26.833 -0.5 34.5 -1.5s16.5 -4.16699 26.5 -9.5c18 -9.33301 27 -35.333 27 -78c0 -46.667 -12.333 -74 -37 -82c-11.333 -4 -28.666 -6 -51.999 -6h-307v-101h198c15.333 0 26.833 -0.5 34.5 -1.5
s16.5 -4.16699 26.5 -9.5c18 -9.33301 27 -35.333 27 -78c0 -46.667 -12.667 -74 -38 -82c-11.333 -4 -28.666 -6 -51.999 -6h-196v-101h308zM372.997 173.002h120.998v387h-121c-45.333 -4 -85.166 -23.667 -119.499 -59s-51.5 -80.333 -51.5 -135s17.333 -99.5 52 -134.5
s74.334 -54.5 119.001 -58.5z" />
    <glyph glyph-name="oe" unicode="&#x153;" horiz-adv-x="944" 
d="M786 159c17.333 6.66699 30.3359 10.002 39.0029 10.002c22 0 40.333 -14.333 55 -43c8.66699 -17.333 13 -32.333 13 -45s-3.66699 -23.5 -11 -32.5s-14.333 -15 -21 -18s-12.834 -5.5 -18.501 -7.5l-10 -3.5c-1 -0.333008 -1.83301 -0.833008 -2.5 -1.5
c-46 -16.667 -95 -25 -147 -25c-80.667 0 -146.334 23 -197.001 69c-54 -48.667 -116 -73 -186 -73c-44.667 0 -87.667 10.833 -129 32.5s-76.166 53.667 -104.499 96s-42.5 90.166 -42.5 143.499c0 80 28 146 84 198s119.833 78 191.5 78s134.167 -24.667 187.5 -74
c51.333 46 116.666 69 195.999 69c38.667 0 73.834 -6.5 105.501 -19.5s56.5 -29.833 74.5 -50.5c37.333 -42 56 -85.167 56 -129.5s-10.167 -76 -30.5 -95s-42.833 -28.5 -67.5 -28.5h-232c0 -18.667 10.667 -34.334 32 -47.001s42.666 -19 63.999 -19
c39.333 0 69.666 4 90.999 12zM298.003 165.002c22 0 44 8.33105 66 24.998s33 41.334 33 74.001s-10.333 57 -31 73s-43 24 -67 24s-46.333 -8.33301 -67 -25s-31 -41.167 -31 -73.5s10.667 -56.666 32 -72.999s43 -24.5 65 -24.5zM730.503 366
c-11.667 9.33301 -28 14.001 -49 14.001s-42 -8.66699 -63 -26s-31.5 -36 -31.5 -56h126c23.333 0 35 10.333 35 31c0 15.333 -5.83301 27.666 -17.5 36.999z" />
    <glyph glyph-name="Scaron" unicode="&#x160;" horiz-adv-x="583" 
d="M51 103c-17.333 21.333 -26.001 40.4971 -26.001 57.4971s14.333 39.5 43 67.5c16.667 16 34.334 24 53.001 24s44.667 -16.667 78 -50c9.33301 -11.333 22.666 -22.166 39.999 -32.499s33.333 -15.5 48 -15.5c62 0 93 25.333 93 76c0 15.333 -8.5 28.166 -25.5 38.499
s-38.167 17.833 -63.5 22.5s-52.666 12.167 -81.999 22.5s-56.666 22.5 -81.999 36.5s-46.5 36.167 -63.5 66.5s-25.5 66.833 -25.5 109.5c0 58.667 21.833 109.834 65.5 153.501s103.167 65.5 178.5 65.5c40 0 76.5 -5.16699 109.5 -15.5s55.833 -20.833 68.5 -31.5l25 -19
c20.667 -19.333 31 -35.666 31 -48.999s-8 -31.666 -24 -54.999c-22.667 -33.333 -46 -50 -70 -50c-14 0 -31.333 6.66699 -52 20c-2 1.33301 -5.83301 4.66602 -11.5 9.99902s-10.834 9.66602 -15.501 12.999c-14 8.66699 -31.833 13 -53.5 13s-39.667 -5.16699 -54 -15.5
s-21.5 -24.666 -21.5 -42.999s8.5 -33.166 25.5 -44.499s38.167 -19 63.5 -23s53 -10.167 83 -18.5s57.667 -18.5 83 -30.5s46.5 -32.833 63.5 -62.5s25.5 -66.167 25.5 -109.5s-8.66699 -81.5 -26 -114.5s-40 -58.5 -68 -76.5c-54 -35.333 -111.667 -53 -173 -53
c-31.333 0 -61 3.83301 -89 11.5s-50.667 17.167 -68 28.5c-35.333 21.333 -60 42 -74 62zM290.999 782.997l-23.001 4.99902l-139 46c-24.667 7.33301 -37 22.333 -37 45c0 11.333 3.33301 25.333 10 42c16 32.667 32.667 49.667 50 51c6 0.666992 10.333 1 13 1
c7.33301 0 17 -2 29 -6l97 -42l86 38c17.333 6 30.333 9 39 9s15.334 -1 20.001 -3c17.333 -7.33301 31 -21.166 41 -41.499s15 -36.833 15 -49.5c0 -21.333 -13 -36 -39 -44l-139 -46z" />
    <glyph glyph-name="scaron" unicode="&#x161;" horiz-adv-x="489" 
d="M234 583l-23.001 4.99902l-139 46c-24.667 7.33301 -37 22.333 -37 45c0 11.333 3.33301 25.333 10 42c16 32.667 33 49.667 51 51c5.33301 0.666992 9.33301 1 12 1c7.33301 0 17 -2 29 -6l97 -42l86 38c17.333 6 30.333 9 39 9s15.334 -1 20.001 -3
c17.333 -7.33301 31 -21.166 41 -41.499s15 -36.833 15 -49.5c0 -21.333 -13 -36 -39 -44l-139 -46zM43.999 46.999c-12.667 8 -19 20.6689 -19 38.002s12.667 43.666 38 78.999c7.33301 11.333 19.166 17 35.499 17s38.5 -8.16699 66.5 -24.5s53.333 -24.5 76 -24.5
c40.667 0 61 8 61 24c0 12.667 -22.333 22 -67 28c-42 6 -83.667 21.667 -125 47c-19.333 12 -35.333 30.833 -48 56.5s-19 56.167 -19 91.5c0 105.333 72.333 158 217 158c47.333 0 96 -11.333 146 -34c23.333 -10.667 35 -24 35 -40s-7.33301 -35.667 -22 -59
s-29.667 -35 -45 -35c-8 0 -22.833 5 -44.5 15s-45.167 15 -70.5 15c-39.333 0 -59 -7.33301 -59 -22c0 -20 22.667 -33 68 -39c44 -4.66699 86.667 -17.334 128 -38.001c19.333 -9.33301 35.5 -25.5 48.5 -48.5s19.5 -51.833 19.5 -86.5s-6.5 -64.167 -19.5 -88.5
s-31.167 -42.5 -54.5 -54.5c-42.667 -20.667 -96.167 -31 -160.5 -31s-126.166 18.667 -185.499 56z" />
    <glyph glyph-name="Ydieresis" unicode="&#x178;" horiz-adv-x="686" 
d="M622 719c32.667 -22.667 49.001 -44.667 49.001 -66c0 -12.667 -7.66699 -30.334 -23 -53.001l-216 -323v-191c0 -15.333 -0.5 -26.833 -1.5 -34.5s-4.16699 -16.5 -9.5 -26.5s-14.333 -17 -27 -21s-29.667 -6 -51 -6s-38.333 2 -51 6s-21.667 11.167 -27 21.5
s-8.5 19.333 -9.5 27s-1.5 19.5 -1.5 35.5v189l-216 323c-15.333 22.667 -23 40.334 -23 53.001c0 21.333 14.667 41.833 44 61.5s50.333 29.5 63 29.5s22.667 -2.66699 30 -8c11.333 -7.33301 23.333 -21 36 -41l155 -248l155 248c12.667 20 23.667 33.167 33 39.5
s20.166 9.5 32.499 9.5s31.833 -8.33301 58.5 -25zM207.001 795c-21.333 0 -38.333 2.00195 -51 6.00195s-21.667 11.167 -27 21.5s-8.5 19.333 -9.5 27s-1.33301 19.667 -1 36s1 28 2 35s4 15.5 9 25.5s14 17 27 21s30.167 6 51.5 6s38.333 -2 51 -6
s21.667 -11.167 27 -21.5s8.5 -19.333 9.5 -27s1.5 -19.334 1.5 -35.001s-0.5 -27.334 -1.5 -35.001s-4.16699 -16.5 -9.5 -26.5s-14.5 -17 -27.5 -21s-30.167 -6 -51.5 -6zM477.001 795.002c-21.333 0 -38.333 2.00098 -51 6.00098s-21.667 11.167 -27 21.5
s-8.5 19.333 -9.5 27s-1.5 19.5 -1.5 35.5s0.5 27.833 1.5 35.5s4.16699 16.334 9.5 26.001s14.5 16.5 27.5 20.5s30.167 6 51.5 6s38.333 -2 51 -6s21.667 -11.167 27 -21.5s8.5 -19.333 9.5 -27s1.5 -19.334 1.5 -35.001s-0.5 -27.334 -1.5 -35.001
s-4.16699 -16.5 -9.5 -26.5s-14.5 -17 -27.5 -21s-30.167 -6 -51.5 -6z" />
    <glyph glyph-name="Zcaron" unicode="&#x17d;" horiz-adv-x="643" 
d="M531 171c26 0 44.834 -3.16699 56.501 -9.5s19.667 -15.5 24 -27.5s6.5 -27.333 6.5 -46s-1.66699 -33.667 -5 -45s-7.33301 -20 -12 -26s-11.667 -10.333 -21 -13c-10.667 -4 -27.667 -6 -51 -6h-416c-15.333 0 -30 4 -44 12c-29.333 16.667 -44 43 -44 79
c0 17.333 4 31.333 12 42l310 429h-230c-16 0 -27.833 0.5 -35.5 1.5s-16.834 3.83301 -27.501 8.5c-19.333 9.33301 -29 34.333 -29 75c0 42.667 9 68.667 27 78c10 5.33301 18.833 8.5 26.5 9.5s19.5 1.5 35.5 1.5h402c15.333 0 30 -4 44 -12s24.833 -18.667 32.5 -32
s11.5 -29 11.5 -47s-4 -32.333 -12 -43l-310 -429h249zM320.001 783l-23.001 4.99902l-139 46c-24.667 7.33301 -37 22.333 -37 45c0 11.333 3.33301 25.333 10 42c16 32.667 33 49.667 51 51c5.33301 0.666992 9.33301 1 12 1c7.33301 0 17 -2 29 -6l97 -42l86 38
c17.333 6 30.333 9 39 9s15.334 -1 20.001 -3c17.333 -7.33301 31 -21.166 41 -41.499s15 -36.833 15 -49.5c0 -21.333 -13 -36 -39 -44l-139 -46z" />
    <glyph glyph-name="zcaron" unicode="&#x17e;" horiz-adv-x="586" 
d="M302 583l-23.001 4.99902l-139 46c-24.667 7.33301 -37 22.333 -37 45c0 11.333 3.33301 25.333 10 42c16 32.667 33 49.667 51 51c5.33301 0.666992 9.33301 1 12 1c7.33301 0 17 -2 29 -6l97 -42l86 38c17.333 6 30.333 9 39 9s15.334 -1 20.001 -3
c17.333 -7.33301 31 -21.166 41 -41.499s15 -36.833 15 -49.5c0 -21.333 -13 -36 -39 -44l-139 -46zM302.999 175.999l170.999 0.000976562c26.667 0 45.834 -3.33301 57.501 -10s19.5 -16.334 23.5 -29.001s6 -29.334 6 -50.001s-2 -37.334 -6 -50.001s-11 -21.5 -21 -26.5
s-18.833 -8 -26.5 -9s-19.167 -1.5 -34.5 -1.5h-361c-23.333 0 -43.666 8.66699 -60.999 26s-26 38 -26 62s8.66699 44.5 26 61.5s44 41.5 80 73.5l98 86.5c29.333 25.667 45.333 39.834 48 42.501h-141c-38 0 -62 6.33301 -72 19c-11.333 14.667 -17 34 -17 58
s1.66699 41.833 5 53.5s7.33301 20.334 12 26.001s11.334 10.167 20.001 13.5c11.333 3.33301 28.666 5 51.999 5h325c23.333 0 43.666 -8.33301 60.999 -25s26 -37.5 26 -62.5s-10 -47.167 -30 -66.5s-91.667 -85 -215 -197z" />
    <glyph glyph-name="florin" unicode="&#x192;" horiz-adv-x="529" 
d="M419 569c-26.667 0 -41.002 -8.33398 -43.002 -25.001l-5 -54l65 5c24 0 41.333 -2.33301 52 -7c17.333 -7.33301 26 -26.333 26 -57c0 -53.333 -11.667 -85.666 -35 -96.999c-15.333 -8 -36 -12 -62 -12l-64 3l-39 -349c-14.667 -68 -39.334 -118.333 -74.001 -151
s-87.667 -49 -159 -49c-17.333 0 -30.666 0.666992 -39.999 2s-18.5 6.33301 -27.5 15s-13.5 19.334 -13.5 32.001c0 20 1.33301 33 4 39c6 30.667 16.833 51.667 32.5 63s36.5 17 62.5 17s40 10 42 30l39 350c-3.33301 -1.33301 -11.166 -2 -23.499 -2s-22.333 0.5 -30 1.5
s-15.834 3.5 -24.501 7.5c-15.333 7.33301 -23 26 -23 56c0 53.333 11.667 85.666 35 96.999c10.667 5.33301 19.834 8.5 27.501 9.5s19.167 1.5 34.5 1.5l20 -2l7 49c5.33301 50.667 28.333 96.667 69 138s95.334 62 164.001 62c24 0 41.333 -2 52 -6
c17.333 -8 26 -27.333 26 -58c0 -54 -11.333 -86.667 -34 -98c-14 -7.33301 -34.333 -11 -61 -11z" />
    <glyph glyph-name="circumflex" unicode="&#x2c6;" horiz-adv-x="603" 
d="M303 774l22.999 -5.00098l134.5 -44c27.667 -9.33301 41.5 -25.666 41.5 -48.999c0 -12.667 -3.66699 -26 -11 -40c-18 -35.333 -38 -53 -60 -53c-6 0 -16.667 2.33301 -32 7l-96 42l-93 -40c-9.33301 -4.66699 -20.666 -7 -33.999 -7c-25.333 0 -46 17 -62 51
c-8 17.333 -12 31.333 -12 42c0 21.333 12.667 36.333 38 45l139 46z" />
    <glyph glyph-name="caron" unicode="&#x2c7;" horiz-adv-x="600" 
d="M302 583l-23.001 4.99902l-139 46c-24.667 7.33301 -37 22.333 -37 45c0 11.333 3.33301 25.333 10 42c16 32.667 33 49.667 51 51c5.33301 0.666992 9.33301 1 12 1c7.33301 0 17 -2 29 -6l97 -42l86 38c17.333 6 30.333 9 39 9s15.334 -1 20.001 -3
c17.333 -7.33301 31 -21.166 41 -41.499s15 -36.833 15 -49.5c0 -21.333 -13 -36 -39 -44l-139 -46z" />
    <glyph glyph-name="dotaccent" unicode="&#x2d9;" horiz-adv-x="285" 
d="M198 709c-12.667 -4 -29.5 -5.99902 -50.5 -5.99902s-37.833 2 -50.5 6s-21.5 11 -26.5 21s-8 18.833 -9 26.5s-1.5 19.167 -1.5 34.5s0.5 26.833 1.5 34.5s3.83301 16.5 8.5 26.5c9.33301 17.333 35.333 26 78 26c42 0 67.333 -9 76 -27
c5.33301 -10 8.5 -18.833 9.5 -26.5s1.5 -19.167 1.5 -34.5s-0.5 -26.833 -1.5 -34.5s-4 -16.334 -9 -26.001s-13.833 -16.5 -26.5 -20.5z" />
    <glyph glyph-name="ring" unicode="&#x2da;" horiz-adv-x="378" 
d="M99.5 882.5c26.333 24.333 56.333 36.502 90 36.502s63.5 -12 89.5 -36s39 -55.167 39 -93.5s-13.333 -69.333 -40 -93s-56.167 -35.5 -88.5 -35.5s-62 12.167 -89 36.5s-40.5 55.166 -40.5 92.499s13.167 68.166 39.5 92.499zM189 729.002c14 0 27.667 5.16699 41 15.5
s20 25.666 20 45.999s-6.5 35.5 -19.5 45.5s-26.833 15 -41.5 15s-28.5 -5.16699 -41.5 -15.5s-19.5 -25.666 -19.5 -45.999s6.66699 -35.5 20 -45.5s27 -15 41 -15z" />
    <glyph glyph-name="ogonek" unicode="&#x2db;" horiz-adv-x="570" 
d="M301 -63c-3.33301 3.33301 -7.83301 5 -13.5 5s-11.167 -2 -16.5 -6s-8 -9.83301 -8 -17.5s2.66699 -13.5 8 -17.5s10.333 -6 15 -6c4 0 8.66699 1 14 3c7.33301 7.33301 16 11 26 11s20.167 -6.16699 30.5 -18.5s15.5 -21 15.5 -26s-0.333008 -8.5 -1 -10.5
c-1.33301 -10 -9.66602 -20.333 -24.999 -31c-21.333 -10.667 -43.333 -16 -66 -16s-45.834 9.83301 -69.501 29.5s-35.5 47 -35.5 82s12 62.333 36 82s48.5 29.5 73.5 29.5s45.167 -5.33301 60.5 -16c18 -11.333 27 -22 27 -32s-3.33301 -19.667 -10 -29
c-11.333 -17.333 -23 -26 -35 -26c-6 0 -14.333 3.33301 -25 10h-1z" />
    <glyph glyph-name="tilde" unicode="&#x2dc;" horiz-adv-x="584" 
d="M442 758c24 -16.667 35.9961 -32.6699 35.9961 -48.0029c0 -9.33301 -2.66699 -18.333 -8 -27s-9 -14.834 -11 -18.501s-6.66699 -10.167 -14 -19.5s-15.666 -17.666 -24.999 -24.999c-25.333 -18.667 -51 -28 -77 -28s-46.5 4.33301 -61.5 13s-27.333 17.334 -37 26.001
s-17.5 13 -23.5 13c-9.33301 0 -18 -4 -26 -12c-15.333 -26.667 -29.5 -40 -42.5 -40s-28.667 8 -47 24s-27.5 29.167 -27.5 39.5s2.66699 19.833 8 28.5s9 14.834 11 18.501s6.83301 10 14.5 19s16.167 17.167 25.5 24.5c24.667 18 50.334 27 77.001 27
s47.334 -4.16699 62.001 -12.5s26.667 -16.666 36 -24.999s17 -12.5 23 -12.5c10.667 0 19.334 4 26.001 12c14 25.333 29 38 45 38c10 0 22 -5 36 -15z" />
    <glyph glyph-name="endash" unicode="&#x2013;" horiz-adv-x="561" 
d="M470 193l-383.001 -0.00292969c-20.667 0 -35.667 3 -45 9c-18 10 -27 34.333 -27 73s8.33301 62.334 25 71.001c12.667 6 29.334 9 50.001 9h381c38 0 61 -11.667 69 -35c4 -11.333 6 -25.666 6 -42.999s-1.5 -31.333 -4.5 -42s-6.33301 -18.667 -10 -24
s-9.5 -9.66602 -17.5 -12.999c-9.33301 -3.33301 -24 -5 -44 -5z" />
    <glyph glyph-name="emdash" unicode="&#x2014;" horiz-adv-x="693" 
d="M603 193l-516.002 -0.000976562c-20.667 0 -35.667 3 -45 9c-18 10 -27 34.333 -27 73s8.33301 62.334 25 71.001c12.667 6 29.334 9 50.001 9h514c38.667 0 61.334 -11.667 68.001 -35c4 -11.333 6 -26.666 6 -45.999s-1.66699 -34.833 -5 -46.5s-9 -19.834 -17 -24.501
c-12 -6.66699 -29.667 -10 -53 -10z" />
    <glyph glyph-name="quoteleft" unicode="&#x2018;" horiz-adv-x="237" 
d="M195 553c11.333 -11.333 16.998 -30.667 16.998 -58v-15c0 -16 -0.5 -28 -1.5 -36s-4.16699 -17.333 -9.5 -28c-10 -19.333 -35.333 -29 -76 -29s-67.5 6.66699 -80.5 20s-19.5 38.666 -19.5 75.999c0 16.667 0.666992 29 2 37c4.66699 58.667 22 108.834 52 150.501
s68 62.5 114 62.5c4.66699 0 8.83398 -3.5 12.501 -10.5s5.5 -16 5.5 -27s-1.5 -19.833 -4.5 -26.5s-6.33301 -10.5 -10 -11.5s-6.5 -1.66699 -8.5 -2s-5.5 -2 -10.5 -5s-9.5 -7.16699 -13.5 -12.5c-11.333 -13.333 -17.666 -35 -18.999 -65c22 -2 38.667 -8.66699 50 -20z
" />
    <glyph glyph-name="quoteright" unicode="&#x2019;" horiz-adv-x="237" 
d="M195 712c11.333 -11.333 16.999 -30.665 16.999 -57.998v-16c0 -16.667 -0.666992 -29 -2 -37c-4.66699 -58.667 -22 -109 -52 -151s-68 -63 -114 -63c-4.66699 0 -8.83398 3.5 -12.501 10.5s-5.5 16.167 -5.5 27.5s1.5 20.166 4.5 26.499s6.33301 10 10 11
s6.5 1.66699 8.5 2s5.66699 2 11 5s10 7.16699 14 12.5c10.667 14 16.667 35.667 18 65c-22.667 3.33301 -39.5 10.666 -50.5 21.999s-16.5 35.333 -16.5 72c0 26.667 3.33301 46.5 10 59.5s16.834 21.667 30.501 26s34.834 6.5 63.501 6.5s50.667 -7 66 -21z" />
    <glyph glyph-name="quotesinglbase" unicode="&#x201a;" horiz-adv-x="237" 
d="M195 165c11.333 -11.333 16.999 -30.665 16.999 -57.998v-16c0 -16.667 -0.666992 -29 -2 -37c-4.66699 -58.667 -22 -109 -52 -151s-68 -63 -114 -63c-4.66699 0 -8.83398 3.5 -12.501 10.5s-5.5 16.167 -5.5 27.5s1.5 20.166 4.5 26.499s6.33301 10 10 11
s6.5 1.66699 8.5 2s5.66699 2 11 5s10 7.16699 14 12.5c10.667 14 16.667 35.667 18 65c-22.667 3.33301 -39.5 10.666 -50.5 21.999s-16.5 35.333 -16.5 72c0 26.667 3.33301 46.5 10 59.5s16.834 21.667 30.501 26s34.834 6.5 63.501 6.5s50.667 -7 66 -21z" />
    <glyph glyph-name="quotedblleft" unicode="&#x201c;" horiz-adv-x="482" 
d="M195 553c11.333 -11.333 16.998 -30.667 16.998 -58v-15c0 -16 -0.5 -28 -1.5 -36s-4.16699 -17.333 -9.5 -28c-10 -19.333 -35.333 -29 -76 -29s-67.5 6.66699 -80.5 20s-19.5 38.666 -19.5 75.999c0 16.667 0.666992 29 2 37c4.66699 58.667 22 108.834 52 150.501
s68 62.5 114 62.5c4.66699 0 8.83398 -3.5 12.501 -10.5s5.5 -16 5.5 -27s-1.5 -19.833 -4.5 -26.5s-6.33301 -10.5 -10 -11.5s-6.5 -1.66699 -8.5 -2s-5.5 -2 -10.5 -5s-9.5 -7.16699 -13.5 -12.5c-11.333 -13.333 -17.666 -35 -18.999 -65c22 -2 38.667 -8.66699 50 -20z
M388.998 572.999c22 -2 38.8311 -8.83203 50.498 -20.499s17.5 -35.834 17.5 -72.501c0 -39.333 -7 -64.333 -21 -75c-16.667 -12 -42.167 -18 -76.5 -18s-58 6.66699 -71 20s-19.5 38.666 -19.5 75.999c0 16.667 0.666992 29 2 37
c4.66699 58.667 22.167 108.834 52.5 150.501s68.5 62.5 114.5 62.5c4.66699 0 8.83398 -3.5 12.501 -10.5s5.5 -16 5.5 -27s-1.5 -19.833 -4.5 -26.5s-6.33301 -10.5 -10 -11.5s-6.5 -1.66699 -8.5 -2s-5.66699 -2 -11 -5s-10 -7.16699 -14 -12.5
c-11.333 -13.333 -17.666 -35 -18.999 -65z" />
    <glyph glyph-name="quotedblright" unicode="&#x201d;" horiz-adv-x="482" 
d="M310 726.5c13.333 4.33301 34.667 6.49902 64 6.49902s50.5 -6.5 63.5 -19.5s19.5 -38.167 19.5 -75.5c0 -75.333 -18.333 -138 -55 -188c-30 -42 -68 -63 -114 -63c-4.66699 0 -8.83398 3.5 -12.501 10.5s-5.5 16.167 -5.5 27.5s1.5 20.166 4.5 26.499s6.33301 10 10 11
s6.5 1.66699 8.5 2s5.66699 2 11 5s10 7.16699 14 12.5c10.667 14 16.667 35.667 18 65c-21.333 2.66699 -37.666 9.33398 -48.999 20.001c-12 12.667 -17.833 32.167 -17.5 58.5s1 43.333 2 51s4.33301 16.834 10 27.501s15.167 18.167 28.5 22.5zM195.001 711.999
c11.333 -11.333 16.999 -30.665 16.999 -57.998v-16c0 -16.667 -0.666992 -29 -2 -37c-4.66699 -58.667 -22 -109 -52 -151s-68 -63 -114 -63c-4.66699 0 -8.83398 3.5 -12.501 10.5s-5.5 16.167 -5.5 27.5s1.5 20.166 4.5 26.499s6.33301 10 10 11s6.5 1.66699 8.5 2
s5.66699 2 11 5s10 7.16699 14 12.5c10.667 14 16.667 35.667 18 65c-22.667 3.33301 -39.5 10.666 -50.5 21.999s-16.5 35.333 -16.5 72c0 26.667 3.33301 46.5 10 59.5s16.834 21.667 30.501 26s34.834 6.5 63.501 6.5s50.667 -7 66 -21z" />
    <glyph glyph-name="quotedblbase" unicode="&#x201e;" horiz-adv-x="482" 
d="M310 179.5c13.333 4.33301 34.667 6.49902 64 6.49902s50.5 -6.5 63.5 -19.5s19.5 -38.167 19.5 -75.5c0 -75.333 -18.333 -138 -55 -188c-30 -42 -68 -63 -114 -63c-4.66699 0 -8.83398 3.5 -12.501 10.5s-5.5 16.167 -5.5 27.5s1.5 20.166 4.5 26.499s6.33301 10 10 11
s6.5 1.66699 8.5 2s5.66699 2 11 5s10 7.16699 14 12.5c10.667 14 16.667 35.667 18 65c-21.333 2.66699 -37.666 9.33398 -48.999 20.001c-12 12.667 -17.833 32.167 -17.5 58.5s1 43.333 2 51s4.33301 16.834 10 27.501s15.167 18.167 28.5 22.5zM195.001 164.999
c11.333 -11.333 16.999 -30.665 16.999 -57.998v-16c0 -16.667 -0.666992 -29 -2 -37c-4.66699 -58.667 -22 -109 -52 -151s-68 -63 -114 -63c-4.66699 0 -8.83398 3.5 -12.501 10.5s-5.5 16.167 -5.5 27.5s1.5 20.166 4.5 26.499s6.33301 10 10 11s6.5 1.66699 8.5 2
s5.66699 2 11 5s10 7.16699 14 12.5c10.667 14 16.667 35.667 18 65c-22.667 3.33301 -39.5 10.666 -50.5 21.999s-16.5 35.333 -16.5 72c0 26.667 3.33301 46.5 10 59.5s16.834 21.667 30.501 26s34.834 6.5 63.501 6.5s50.667 -7 66 -21z" />
    <glyph glyph-name="dagger" unicode="&#x2020;" horiz-adv-x="527" 
d="M433 513c40.667 0 65.0049 -11.334 73.0049 -34.001c4 -11.333 6 -26.5 6 -45.5s-1.83301 -34.167 -5.5 -45.5s-9.83398 -19.333 -18.501 -24c-12.667 -6.66699 -31.334 -10 -56.001 -10l-82 6v-463c0 -15.333 -0.5 -26.666 -1.5 -33.999s-4 -15.833 -9 -25.5
s-13.833 -16.5 -26.5 -20.5s-29.334 -6 -50.001 -6s-37.167 2 -49.5 6s-21 10.667 -26 20s-8 18 -9 26s-1.5 19.667 -1.5 35v462l-86 -6c-38.667 0 -62 11.333 -70 34c-4 12 -6 27.333 -6 46s2.16699 33.834 6.5 45.501s11.166 19.834 20.499 24.501c13.333 6 31 9 53 9
l82 -7v158c0 14.667 0.5 25.667 1.5 33s4.16699 15.666 9.5 24.999s14.166 15.833 26.499 19.5s28.833 5.5 49.5 5.5s37.167 -2 49.5 -6s21 -10.833 26 -20.5s8 -18.334 9 -26.001s1.5 -19.167 1.5 -34.5v-154z" />
    <glyph glyph-name="daggerdbl" unicode="&#x2021;" horiz-adv-x="527" 
d="M433 204c40.667 0 65.002 -11.332 73.002 -33.999c4 -12 6 -27.333 6 -46s-2.16699 -33.834 -6.5 -45.501s-11.166 -19.834 -20.499 -24.501c-13.333 -6 -31 -9 -53 -9l-82 7v-155c0 -15.333 -0.5 -26.666 -1.5 -33.999s-4 -15.833 -9 -25.5s-13.833 -16.5 -26.5 -20.5
s-29.334 -6 -50.001 -6s-37.167 2 -49.5 6s-21 10.667 -26 20s-8 18 -9 26s-1.5 19.667 -1.5 35v154l-83 -7c-40.667 0 -65 11.333 -73 34c-4 11.333 -6 26.5 -6 45.5s1.83301 34.167 5.5 45.5s9.83398 19.333 18.501 24c12.667 6.66699 31.334 10 56.001 10l82 -6v162
l-86 -6c-38.667 0 -62 11.333 -70 34c-4 12 -6 27.333 -6 46s2.16699 33.834 6.5 45.501s11.166 19.834 20.499 24.501c13.333 6 31 9 53 9l82 -7v158c0 14.667 0.5 25.667 1.5 33s4.16699 15.666 9.5 24.999s14.166 15.833 26.499 19.5s28.833 5.5 49.5 5.5
s37.167 -2 49.5 -6s21 -10.833 26 -20.5s8 -18.334 9 -26.001s1.5 -19.167 1.5 -34.5v-154l83 7c40.667 0 65 -11.333 73 -34c4 -11.333 6 -26.5 6 -45.5s-1.83301 -34.167 -5.5 -45.5s-9.83398 -19.333 -18.501 -24c-12.667 -6.66699 -31.334 -10 -56.001 -10l-82 6v-162z
" />
    <glyph glyph-name="bullet" unicode="&#x2022;" horiz-adv-x="342" 
d="M317 316c0 -97.333 -48.667 -146 -146 -146s-146 48.667 -146 146s48.667 146 146 146s146 -48.667 146 -146z" />
    <glyph glyph-name="ellipsis" unicode="&#x2026;" horiz-adv-x="911" 
d="M195 165c11.333 -11.333 16.998 -30.667 16.998 -58v-16c0 -15.333 -0.5 -27 -1.5 -35s-4.16699 -17.333 -9.5 -28c-10 -19.333 -35.333 -29 -76 -29s-67.5 6.66699 -80.5 20s-19.5 38.333 -19.5 75c0 26.667 3.33301 46.5 10 59.5s16.834 21.667 30.501 26
s34.834 6.5 63.501 6.5s50.667 -7 66 -21zM401.998 179.499c13.333 4.33301 34.668 6.49902 64.001 6.49902s50.5 -6.5 63.5 -19.5s19.5 -38.167 19.5 -75.5c0 -26 -3.33301 -45.5 -10 -58.5s-16.834 -21.833 -30.501 -26.5s-35 -7 -64 -7s-50 6.5 -63 19.5
s-19.5 33.167 -19.5 60.5v15c0 16 0.5 27.833 1.5 35.5s4.33301 16.834 10 27.501s15.167 18.167 28.5 22.5zM739 179.498c13.333 4.33301 34.667 6.5 64 6.5s50.5 -6.5 63.5 -19.5s19.5 -38.167 19.5 -75.5c0 -38.667 -7.33301 -63.334 -22 -74.001
c-16 -12 -41.167 -18 -75.5 -18s-58 6.66699 -71 20s-19.5 38.333 -19.5 75c0.666992 16 1.5 27.833 2.5 35.5s4.33301 16.834 10 27.501s15.167 18.167 28.5 22.5z" />
    <glyph glyph-name="perthousand" unicode="&#x2030;" horiz-adv-x="1223" 
d="M891 321c30 34 71.667 51 125 51s94.5 -16.667 123.5 -50s43.5 -79.5 43.5 -138.5s-14.5 -104.667 -43.5 -137s-69.667 -48.5 -122 -48.5s-94 16.833 -125 50.5s-46.5 79 -46.5 136s15 102.5 45 136.5zM1014 118c40 0 59.999 22.666 59.999 67.999
c0 24 -4.66699 41 -14 51s-24.5 15 -45.5 15s-36.333 -5.16699 -46 -15.5s-14.5 -27.666 -14.5 -51.999s4.83301 -41.5 14.5 -51.5s24.834 -15 45.501 -15zM507.999 320.999c30 34 71.833 51 125.5 51s94.834 -16.667 123.501 -50s43 -79.5 43 -138.5
s-14.333 -104.667 -43 -137s-69.334 -48.5 -122.001 -48.5s-94.5 16.833 -125.5 50.5s-46.5 79 -46.5 136s15 102.5 45 136.5zM630.999 117.999c40.667 0 61 22.667 61 68c0 24 -4.83301 41 -14.5 51s-25 15 -46 15s-36.167 -5.16699 -45.5 -15.5s-14 -27.5 -14 -51.5
s4.83301 -41.167 14.5 -51.5s24.5 -15.5 44.5 -15.5zM84.999 684.999c30 34 71.667 51 125 51s94.5 -16.667 123.5 -50s43.5 -79.333 43.5 -138s-14.5 -104.167 -43.5 -136.5s-69.667 -48.5 -122 -48.5s-94 16.667 -125 50s-46.5 78.5 -46.5 135.5s15 102.5 45 136.5z
M207.999 482.999c40 0 60 22.333 60 67c0 24 -4.66699 41 -14 51s-24.5 15 -45.5 15s-36.333 -5.16699 -46 -15.5s-14.5 -27.333 -14.5 -51s5 -40.667 15 -51s25 -15.5 45 -15.5zM572.999 760.999c8.66699 15.333 17.167 23 25.5 23s20.5 -4.33301 36.5 -13s24 -18 24 -28
c0 -4.66699 -2.33301 -11 -7 -19l-387 -731l-2 -3c-7.33301 -13.333 -15 -20 -23 -20s-20 4.16699 -36 12.5s-24 16.5 -24 24.5s2.33301 16 7 24z" />
    <glyph glyph-name="guilsinglleft" unicode="&#x2039;" horiz-adv-x="383" 
d="M16 263l-0.998047 7c0 14 10 31 30 51l176 176c20.667 20.667 38.667 31 54 31s34.666 -11.667 57.999 -35s35 -42.5 35 -57.5s-8.66699 -31.833 -26 -50.5l-121 -122l120 -119c18 -19.333 27 -36.833 27 -52.5s-11.5 -35 -34.5 -58s-42.333 -34.5 -58 -34.5
s-33.834 10.333 -54.501 31l-179 178c-18 19.333 -27 35.333 -27 48z" />
    <glyph glyph-name="guilsinglright" unicode="&#x203a;" horiz-adv-x="383" 
d="M338 321c20 -18.667 30.001 -35.001 30.001 -49.001c0 -4 -0.333008 -7 -1 -9c0.666992 -2 1 -5 1 -9c0 -14 -10 -30.333 -30 -49l-178 -177c-20 -20 -37.333 -30 -52 -30s-34 11.667 -58 35c-23.333 23.333 -35 43 -35 59s10 34 30 54l117 117l-119 120
c-18.667 18.667 -28 35.834 -28 51.501s11.667 35.167 35 58.5s42.666 35 57.999 35s33.333 -10.333 54 -31z" />
    <glyph glyph-name="fraction" unicode="&#x2044;" horiz-adv-x="433" 
d="M445 777.5c2.66699 3 6.16602 4.66504 10.499 4.99805s8.5 0.5 12.5 0.5s13.667 -4.16699 29 -12.5s23 -17.166 23 -26.499s-3.33301 -17.666 -10 -24.999l-384 -726c-4 -8 -7.33301 -13.667 -10 -17c-8.66699 -9.33301 -24 -8 -46 4c-19.333 10.667 -29 20 -29 28
c0 6 3 15 9 27l384 726c4.66699 8 8.33398 13.5 11.001 16.5z" />
    </font>
</defs>
</svg>
